%TF.GenerationSoftware,KiCad,Pcbnew,7.0.8*%
%TF.CreationDate,2023-12-31T22:43:44+00:00*%
%TF.ProjectId,pce-gt-controller,7063652d-6774-42d6-936f-6e74726f6c6c,BF1.1*%
%TF.SameCoordinates,Original*%
%TF.FileFunction,Soldermask,Top*%
%TF.FilePolarity,Negative*%
%FSLAX46Y46*%
G04 Gerber Fmt 4.6, Leading zero omitted, Abs format (unit mm)*
G04 Created by KiCad (PCBNEW 7.0.8) date 2023-12-31 22:43:44*
%MOMM*%
%LPD*%
G01*
G04 APERTURE LIST*
G04 Aperture macros list*
%AMRoundRect*
0 Rectangle with rounded corners*
0 $1 Rounding radius*
0 $2 $3 $4 $5 $6 $7 $8 $9 X,Y pos of 4 corners*
0 Add a 4 corners polygon primitive as box body*
4,1,4,$2,$3,$4,$5,$6,$7,$8,$9,$2,$3,0*
0 Add four circle primitives for the rounded corners*
1,1,$1+$1,$2,$3*
1,1,$1+$1,$4,$5*
1,1,$1+$1,$6,$7*
1,1,$1+$1,$8,$9*
0 Add four rect primitives between the rounded corners*
20,1,$1+$1,$2,$3,$4,$5,0*
20,1,$1+$1,$4,$5,$6,$7,0*
20,1,$1+$1,$6,$7,$8,$9,0*
20,1,$1+$1,$8,$9,$2,$3,0*%
%AMFreePoly0*
4,1,142,5.391041,5.051081,5.725651,5.005504,6.053311,4.923770,6.370126,4.806851,6.672328,4.656136,6.956327,4.473418,7.218746,4.260867,7.456465,4.021010,7.666659,3.756700,7.846828,3.471077,7.994832,3.167538,8.108911,2.849690,8.187709,2.521311,8.230290,2.186306,8.220972,2.077199,8.178394,1.976312,8.106724,1.893520,8.012978,1.836927,7.906331,1.812073,7.797224,1.821391,
7.696337,1.863969,7.613545,1.935639,7.556952,2.029385,7.532097,2.136032,7.521101,2.287676,7.461117,2.585787,7.363952,2.873931,7.231161,3.147490,7.064873,3.402081,6.867753,3.633623,6.642960,3.838406,6.394096,4.013148,6.125150,4.155048,5.840431,4.261833,5.544502,4.331792,5.242106,4.363803,4.938089,4.357353,4.637323,4.312546,4.344628,4.230099,4.064694,4.111334,
3.802008,3.958154,3.770784,3.934190,5.081633,2.623341,5.170000,2.634975,5.323991,2.614702,5.467488,2.555263,5.590711,2.460711,5.685263,2.337487,5.744702,2.193991,5.764975,2.040000,5.744702,1.886009,5.685263,1.742512,5.590711,1.619289,5.467488,1.524737,5.323991,1.465298,5.170000,1.445025,5.016009,1.465298,4.872512,1.524737,4.749289,1.619289,4.654737,1.742512,
4.595298,1.886009,4.575025,2.040000,4.586658,2.128366,3.262131,3.452894,3.157751,3.319188,3.002411,3.057774,2.881342,2.778829,2.796485,2.486823,2.749199,2.186437,2.740243,1.882483,2.769759,1.579834,2.837275,1.283338,2.941709,0.997748,3.081388,0.727641,3.254072,0.477345,3.456994,0.250871,3.571898,0.151301,3.642460,0.067562,3.683691,-0.033883,3.691556,-0.143104,
3.665284,-0.249410,3.607448,-0.342395,3.523709,-0.412957,3.422264,-0.454188,3.313043,-0.462053,3.206737,-0.435781,3.113752,-0.377945,2.870857,-0.143332,2.654947,0.116330,2.468589,0.397954,2.313998,0.698193,2.289498,0.762036,1.076061,0.150424,1.090000,0.000000,1.071441,-0.200287,1.016395,-0.393753,0.926737,-0.573811,0.805520,-0.734328,0.656872,-0.869839,0.485855,-0.975728,
0.298293,-1.048390,0.100573,-1.085350,-0.100573,-1.085350,-0.298293,-1.048390,-0.485855,-0.975728,-0.656872,-0.869839,-0.805520,-0.734328,-0.926737,-0.573811,-1.016395,-0.393753,-1.071441,-0.200287,-1.090000,0.000000,-1.071441,0.200287,-1.016395,0.393753,-0.926737,0.573811,-0.805520,0.734328,-0.656872,0.869839,-0.485855,0.975728,-0.298293,1.048390,-0.100573,1.085350,0.100573,1.085350,
0.298293,1.048390,0.485855,0.975728,0.656872,0.869839,0.760576,0.775299,2.091247,1.446001,2.057191,1.674054,2.043970,2.011495,2.067565,2.348370,2.127693,2.680674,2.223641,3.004457,2.354268,3.315870,2.518021,3.611211,2.712954,3.886970,2.936749,4.139867,3.186746,4.366898,3.459973,4.565363,3.753183,4.732903,4.062889,4.867526,4.385411,4.967632,4.716914,5.032031,
5.053457,5.059958,5.391041,5.051081,5.391041,5.051081,$1*%
%AMFreePoly1*
4,1,112,-1.981927,5.721127,-1.723419,5.664892,-1.475546,5.572440,-1.243353,5.445653,-1.031567,5.287113,-0.844500,5.100045,-0.685959,4.888259,-0.559172,4.656067,-0.466720,4.408193,-0.410485,4.149686,-0.391612,3.885807,-0.410485,3.621928,-0.466720,3.363420,-0.559171,3.115547,-0.685958,2.883354,-0.844499,2.671568,-1.031566,2.484501,-1.101647,2.432038,-0.245566,1.056786,-0.100440,1.083915,
0.100440,1.083915,0.297898,1.047004,0.485212,0.974438,0.656003,0.868689,0.804455,0.733357,0.925512,0.573052,1.015051,0.393233,1.070024,0.200022,1.088559,0.000000,1.070024,-0.200022,1.015051,-0.393233,0.925512,-0.573052,0.804455,-0.733357,0.656003,-0.868689,0.485212,-0.974438,0.297898,-1.047004,0.100440,-1.083915,-0.100440,-1.083915,-0.297898,-1.047004,-0.485212,-0.974438,
-0.656003,-0.868689,-0.804455,-0.733357,-0.925512,-0.573052,-1.015051,-0.393233,-1.070024,-0.200022,-1.088559,0.000000,-1.070024,0.200022,-1.015051,0.393233,-0.925512,0.573052,-0.839714,0.686666,-1.723651,2.106669,-1.981925,2.050485,-2.245804,2.031612,-2.509684,2.050485,-2.768191,2.106719,-3.016064,2.199171,-3.248257,2.325958,-3.460043,2.484498,-3.647111,2.671566,-3.805652,2.883351,
-3.932439,3.115544,-4.024891,3.363417,-4.081127,3.621924,-4.100000,3.885804,-4.082870,3.993960,-4.033156,4.091528,-3.955725,4.168960,-3.858156,4.218674,-3.750000,4.235804,-3.641844,4.218674,-3.544276,4.168960,-3.466844,4.091529,-3.417130,3.993960,-3.400000,3.885804,-3.399910,3.780929,-3.362101,3.574614,-3.287722,3.378494,-3.179210,3.198993,-3.040119,3.041992,-2.875006,2.912635,
-2.689281,2.815159,-2.489028,2.752758,-2.280806,2.727476,-2.071438,2.740140,-1.867782,2.790337,-1.676510,2.876422,-1.503889,2.995574,-1.355573,3.143890,-1.236421,3.316512,-1.150337,3.507784,-1.100140,3.711439,-1.087476,3.920808,-1.112758,4.129029,-1.175160,4.329282,-1.272636,4.515008,-1.401993,4.680120,-1.558994,4.819210,-1.738495,4.927722,-1.934616,5.002101,-2.140931,5.039910,
-2.245806,5.040000,-2.353962,5.057130,-2.451531,5.106844,-2.528962,5.184275,-2.578676,5.281844,-2.595806,5.390000,-2.578676,5.498156,-2.528962,5.595725,-2.451531,5.673156,-2.353962,5.722870,-2.245806,5.740000,-1.981927,5.721127,-1.981927,5.721127,$1*%
%AMFreePoly2*
4,1,76,1.332500,-1.672500,-0.097500,-1.672500,-0.097500,-2.572500,1.232500,-2.572500,1.247563,-2.577394,1.263402,-2.577394,1.276215,-2.586703,1.291279,-2.591598,1.300588,-2.604411,1.313402,-2.613721,1.318296,-2.628784,1.327606,-2.641598,1.327606,-2.657437,1.332500,-2.672500,1.332500,-3.162500,2.542393,-3.162500,2.613375,-3.061128,2.776629,-2.897874,2.965751,-2.765449,3.174995,-2.667877,
3.398004,-2.608122,3.628001,-2.588000,3.857998,-2.608122,4.081007,-2.667877,4.290251,-2.765449,4.479373,-2.897874,4.642627,-3.061128,4.775052,-3.250250,4.872624,-3.459494,4.932379,-3.682503,4.952501,-3.912500,4.932379,-4.142497,4.872624,-4.365506,4.775052,-4.574750,4.642627,-4.763872,4.479373,-4.927126,4.290251,-5.059551,4.081007,-5.157123,3.857998,-5.216878,3.628001,-5.237000,
3.398004,-5.216878,3.174995,-5.157123,2.965751,-5.059551,2.776629,-4.927126,2.613375,-4.763872,2.542393,-4.662500,1.332500,-4.662500,1.332500,-5.832500,1.327606,-5.847562,1.327606,-5.863402,1.318296,-5.876215,1.313402,-5.891279,1.300588,-5.900588,1.291279,-5.913402,1.276215,-5.918296,1.263402,-5.927606,1.247563,-5.927606,1.232500,-5.932500,-1.242500,-5.932500,-1.257563,-5.927606,
-1.273402,-5.927606,-1.286215,-5.918296,-1.301279,-5.913402,-1.310588,-5.900588,-1.323402,-5.891279,-1.328296,-5.876215,-1.337606,-5.863402,-1.337606,-5.847562,-1.342500,-5.832500,-1.342500,-1.672500,-1.337606,-1.657437,-1.337606,-1.641598,-1.332500,-1.634570,-1.332500,1.672500,1.332500,1.672500,1.332500,-1.672500,1.332500,-1.672500,$1*%
%AMFreePoly3*
4,1,62,1.332500,-1.672500,-0.097500,-1.672500,-0.097500,-2.572500,1.232500,-2.572500,1.247563,-2.577394,1.263402,-2.577394,1.276215,-2.586703,1.291279,-2.591598,1.300588,-2.604411,1.313402,-2.613721,1.318296,-2.628784,1.327606,-2.641598,1.327606,-2.657437,1.332500,-2.672500,1.332500,-4.747048,1.464500,-4.735500,1.694497,-4.755622,1.917506,-4.815377,2.126750,-4.912949,2.315872,-5.045374,
2.479126,-5.208628,2.611551,-5.397750,2.709123,-5.606994,2.768878,-5.830003,2.789000,-6.060000,2.768878,-6.289997,2.709123,-6.513006,2.611551,-6.722250,2.479126,-6.911372,2.315872,-7.074626,2.126750,-7.207051,1.917506,-7.304623,1.694497,-7.364378,1.464500,-7.384500,1.234503,-7.364378,1.011494,-7.304623,0.802250,-7.207051,0.613128,-7.074626,0.449874,-6.911372,0.317449,-6.722250,
0.219877,-6.513006,0.160122,-6.289997,0.140000,-6.060000,0.151155,-5.932500,-1.242500,-5.932500,-1.257563,-5.927606,-1.273402,-5.927606,-1.286215,-5.918296,-1.301279,-5.913402,-1.310588,-5.900588,-1.323402,-5.891279,-1.328296,-5.876215,-1.337606,-5.863402,-1.337606,-5.847562,-1.342500,-5.832500,-1.342500,-1.672500,-1.337606,-1.657437,-1.337606,-1.641598,-1.332500,-1.634570,-1.332500,1.672500,
1.332500,1.672500,1.332500,-1.672500,1.332500,-1.672500,$1*%
%AMFreePoly4*
4,1,142,0.298293,1.048390,0.485855,0.975728,0.656872,0.869839,0.805520,0.734328,0.926737,0.573811,1.016395,0.393753,1.071441,0.200287,1.090000,0.000000,1.071441,-0.200287,1.016395,-0.393753,0.926737,-0.573811,0.805520,-0.734328,0.656872,-0.869839,0.485855,-0.975728,0.350000,-1.028358,0.350000,-1.536484,0.555651,-1.564496,0.883311,-1.646230,1.200126,-1.763149,1.502328,-1.913864,
1.786327,-2.096582,2.048746,-2.309133,2.286465,-2.548990,2.496659,-2.813300,2.676828,-3.098923,2.824832,-3.402462,2.938911,-3.720310,3.017709,-4.048689,3.060290,-4.383694,3.050972,-4.492801,3.008394,-4.593688,2.936724,-4.676480,2.842978,-4.733073,2.736331,-4.757927,2.627224,-4.748609,2.526337,-4.706031,2.443545,-4.634361,2.386952,-4.540615,2.362097,-4.433968,2.351101,-4.282324,
2.291117,-3.984213,2.193952,-3.696069,2.061161,-3.422510,1.894873,-3.167919,1.697753,-2.936377,1.472960,-2.731594,1.224096,-2.556852,0.955150,-2.414952,0.670431,-2.308167,0.374502,-2.238208,0.072106,-2.206197,-0.231911,-2.212647,-0.532677,-2.257454,-0.825372,-2.339901,-1.105306,-2.458666,-1.367992,-2.611846,-1.399215,-2.635809,-0.088366,-3.946658,0.000000,-3.935025,0.153991,-3.955298,
0.297488,-4.014737,0.420711,-4.109289,0.515263,-4.232513,0.574702,-4.376009,0.594975,-4.530000,0.574702,-4.683991,0.515263,-4.827488,0.420711,-4.950711,0.297488,-5.045263,0.153991,-5.104702,0.000000,-5.124975,-0.153991,-5.104702,-0.297488,-5.045263,-0.420711,-4.950711,-0.515263,-4.827488,-0.574702,-4.683991,-0.594975,-4.530000,-0.583341,-4.441633,-1.907868,-3.117105,-2.012249,-3.250812,
-2.167589,-3.512226,-2.288658,-3.791171,-2.373515,-4.083177,-2.420801,-4.383563,-2.429757,-4.687517,-2.400241,-4.990166,-2.332725,-5.286662,-2.228291,-5.572252,-2.088612,-5.842359,-1.915928,-6.092655,-1.713006,-6.319129,-1.598102,-6.418699,-1.527540,-6.502438,-1.486309,-6.603883,-1.478444,-6.713104,-1.504716,-6.819410,-1.562552,-6.912395,-1.646291,-6.982957,-1.747736,-7.024188,-1.856957,-7.032053,
-1.963263,-7.005781,-2.056248,-6.947945,-2.299143,-6.713332,-2.515053,-6.453670,-2.701411,-6.172046,-2.856002,-5.871807,-2.976988,-5.556524,-3.062931,-5.229942,-3.112809,-4.895946,-3.126030,-4.558505,-3.102435,-4.221630,-3.042307,-3.889326,-2.946359,-3.565543,-2.815732,-3.254130,-2.651979,-2.958789,-2.457046,-2.683030,-2.233251,-2.430133,-1.983254,-2.203102,-1.710027,-2.004637,-1.416817,-1.837097,
-1.107111,-1.702474,-0.784589,-1.602368,-0.453086,-1.537969,-0.350000,-1.529414,-0.350000,-1.028358,-0.485855,-0.975728,-0.656872,-0.869839,-0.805520,-0.734328,-0.926737,-0.573811,-1.016395,-0.393753,-1.071441,-0.200287,-1.090000,0.000000,-1.071441,0.200287,-1.016395,0.393753,-0.926737,0.573811,-0.805520,0.734328,-0.656872,0.869839,-0.485855,0.975728,-0.298293,1.048390,-0.100573,1.085350,
0.100573,1.085350,0.298293,1.048390,0.298293,1.048390,$1*%
%AMFreePoly5*
4,1,207,0.308073,6.291127,0.566581,6.234892,0.814454,6.142440,1.046647,6.015653,1.258433,5.857113,1.445500,5.670045,1.604041,5.458259,1.730828,5.226067,1.823280,4.978193,1.879515,4.719686,1.898388,4.455807,1.879515,4.191928,1.823280,3.933420,1.730829,3.685547,1.604042,3.453354,1.445501,3.241568,1.258434,3.054501,1.046648,2.895959,0.814455,2.769172,0.566582,2.676720,
0.350033,2.629612,0.350033,1.027123,0.374425,1.017356,0.485212,0.974438,0.491760,0.970383,0.498841,0.967550,0.564815,0.925149,0.656003,0.868689,0.663968,0.861427,0.672937,0.855665,0.730543,0.800735,0.775749,0.759526,0.804455,0.733357,0.812801,0.722305,0.822712,0.712855,0.868565,0.648461,0.925512,0.573052,0.933065,0.557883,0.942754,0.544279,0.975006,0.473653,
1.000559,0.422336,1.015051,0.393233,1.020532,0.373968,1.028723,0.356033,1.046582,0.282410,1.070024,0.200022,1.072158,0.176990,1.077513,0.154918,1.081014,0.081422,1.088559,0.000000,1.086137,-0.026132,1.087360,-0.051796,1.077233,-0.122224,1.070024,-0.200022,1.061985,-0.228275,1.057908,-0.256638,1.035468,-0.321473,1.015051,-0.393233,1.000559,-0.422336,0.990222,-0.452204,
0.957258,-0.509296,0.939839,-0.544279,0.925512,-0.573052,0.904015,-0.601518,0.886748,-0.631426,0.845368,-0.679178,0.804455,-0.733357,0.775744,-0.759530,0.751226,-0.787827,0.703748,-0.825163,0.656003,-0.868689,0.620252,-0.890824,0.588553,-0.915754,0.537402,-0.942123,0.485212,-0.974438,0.443004,-0.990789,0.404611,-1.010583,0.352155,-1.025984,0.297898,-1.047004,0.250213,-1.055917,
0.206045,-1.068887,0.154511,-1.073807,0.100440,-1.083915,0.048667,-1.083915,0.000034,-1.088559,-0.000034,-1.088559,-0.097525,-1.083915,-0.100440,-1.083915,-0.101441,-1.083727,-0.103508,-1.083630,-0.153066,-1.074077,-0.297898,-1.047004,-0.302213,-1.045332,-0.306717,-1.044465,-0.374504,-1.017326,-0.485212,-0.974438,-0.491760,-0.970383,-0.498841,-0.967550,-0.564815,-0.925149,-0.656003,-0.868689,
-0.663968,-0.861427,-0.672937,-0.855665,-0.730543,-0.800735,-0.804455,-0.733357,-0.812801,-0.722304,-0.822712,-0.712855,-0.868565,-0.648461,-0.925512,-0.573052,-0.933065,-0.557883,-0.942754,-0.544279,-0.975006,-0.473653,-1.015051,-0.393233,-1.020532,-0.373966,-1.028723,-0.356033,-1.046582,-0.282410,-1.070024,-0.200022,-1.072158,-0.176988,-1.077513,-0.154918,-1.081014,-0.081422,-1.088559,0.000000,
-1.086137,0.026132,-1.087360,0.051796,-1.077233,0.122224,-1.070024,0.200022,-1.061985,0.228275,-1.057908,0.256638,-1.035468,0.321473,-1.015051,0.393233,-1.000559,0.422336,-0.990222,0.452204,-0.957258,0.509296,-0.925512,0.573052,-0.904013,0.601520,-0.886748,0.631426,-0.845368,0.679178,-0.804455,0.733357,-0.775744,0.759530,-0.751226,0.787827,-0.703745,0.825166,-0.656003,0.868689,
-0.620252,0.890824,-0.588553,0.915754,-0.537402,0.942123,-0.485212,0.974438,-0.443004,0.990789,-0.404611,1.010583,-0.352159,1.025983,-0.349967,1.026832,-0.349967,2.648825,-0.478191,2.676719,-0.726064,2.769171,-0.958257,2.895958,-1.170043,3.054498,-1.357111,3.241566,-1.515652,3.453351,-1.642439,3.685544,-1.734891,3.933417,-1.791127,4.191924,-1.810000,4.455804,-1.792870,4.563960,
-1.743156,4.661528,-1.665725,4.738960,-1.568156,4.788674,-1.460000,4.805804,-1.351844,4.788674,-1.254276,4.738960,-1.176844,4.661529,-1.127130,4.563960,-1.110000,4.455804,-1.109910,4.350929,-1.072101,4.144614,-0.997722,3.948494,-0.889210,3.768993,-0.750119,3.611992,-0.585006,3.482635,-0.399281,3.385159,-0.199028,3.322758,0.009194,3.297476,0.218562,3.310140,0.422218,3.360337,
0.613490,3.446422,0.786111,3.565574,0.934427,3.713890,1.053579,3.886512,1.139663,4.077784,1.189860,4.281439,1.202524,4.490808,1.177242,4.699029,1.114840,4.899282,1.017364,5.085008,0.888007,5.250120,0.731006,5.389210,0.551505,5.497722,0.355384,5.572101,0.149069,5.609910,0.044194,5.610000,-0.063962,5.627130,-0.161531,5.676844,-0.238962,5.754275,-0.288676,5.851844,
-0.305806,5.960000,-0.288676,6.068156,-0.238962,6.165725,-0.161531,6.243156,-0.063962,6.292870,0.044194,6.310000,0.308073,6.291127,0.308073,6.291127,$1*%
%AMFreePoly6*
4,1,142,0.298293,1.048390,0.485855,0.975728,0.656872,0.869839,0.805520,0.734328,0.926737,0.573811,1.016395,0.393753,1.071441,0.200287,1.090000,0.000000,1.071441,-0.200287,1.016395,-0.393753,0.926737,-0.573811,0.849933,-0.675515,1.122820,-1.100318,1.232889,-1.052474,1.555411,-0.952368,1.886914,-0.887969,2.223457,-0.860042,2.561041,-0.868919,2.895651,-0.914496,3.223311,-0.996230,
3.540126,-1.113149,3.842328,-1.263864,4.126327,-1.446582,4.388746,-1.659133,4.626465,-1.898990,4.836659,-2.163300,5.016828,-2.448923,5.164832,-2.752462,5.278911,-3.070310,5.357709,-3.398689,5.400290,-3.733694,5.390972,-3.842801,5.348394,-3.943688,5.276724,-4.026480,5.182978,-4.083073,5.076331,-4.107927,4.967224,-4.098609,4.866337,-4.056031,4.783545,-3.984361,4.726952,-3.890615,
4.702097,-3.783968,4.691101,-3.632324,4.631117,-3.334213,4.533952,-3.046069,4.401161,-2.772510,4.234873,-2.517919,4.037753,-2.286377,3.812960,-2.081594,3.564096,-1.906852,3.295150,-1.764952,3.010431,-1.658167,2.714502,-1.588208,2.412106,-1.556197,2.108089,-1.562647,1.807323,-1.607454,1.514628,-1.689901,1.234694,-1.808666,0.972008,-1.961846,0.940784,-1.985809,2.251633,-3.296658,
2.340000,-3.285025,2.493991,-3.305298,2.637488,-3.364737,2.760711,-3.459289,2.855263,-3.582513,2.914702,-3.726009,2.934975,-3.880000,2.914702,-4.033991,2.855263,-4.177488,2.760711,-4.300711,2.637488,-4.395263,2.493991,-4.454702,2.340000,-4.474975,2.186009,-4.454702,2.042512,-4.395263,1.919289,-4.300711,1.824737,-4.177488,1.765298,-4.033991,1.745025,-3.880000,1.756658,-3.791633,
0.432131,-2.467105,0.327751,-2.600812,0.172411,-2.862226,0.051342,-3.141171,-0.033515,-3.433177,-0.080801,-3.733563,-0.089757,-4.037517,-0.060241,-4.340166,0.007275,-4.636662,0.111709,-4.922252,0.251388,-5.192359,0.424072,-5.442655,0.626994,-5.669129,0.741898,-5.768699,0.812460,-5.852438,0.853691,-5.953883,0.861556,-6.063104,0.835284,-6.169410,0.777448,-6.262395,0.693709,-6.332957,
0.592264,-6.374188,0.483043,-6.382053,0.376737,-6.355781,0.283752,-6.297945,0.040857,-6.063332,-0.175053,-5.803670,-0.361411,-5.522046,-0.516002,-5.221807,-0.636988,-4.906524,-0.722931,-4.579942,-0.772809,-4.245946,-0.786030,-3.908505,-0.762435,-3.571630,-0.702307,-3.239326,-0.606359,-2.915543,-0.475732,-2.604130,-0.311979,-2.308789,-0.117046,-2.033030,0.106749,-1.780133,0.356746,-1.553102,
0.510125,-1.441690,0.261851,-1.055202,0.100573,-1.085350,-0.100573,-1.085350,-0.298293,-1.048390,-0.485855,-0.975728,-0.656872,-0.869839,-0.805520,-0.734328,-0.926737,-0.573811,-1.016395,-0.393753,-1.071441,-0.200287,-1.090000,0.000000,-1.071441,0.200287,-1.016395,0.393753,-0.926737,0.573811,-0.805520,0.734328,-0.656872,0.869839,-0.485855,0.975728,-0.298293,1.048390,-0.100573,1.085350,
0.100573,1.085350,0.298293,1.048390,0.298293,1.048390,$1*%
G04 Aperture macros list end*
%ADD10C,1.871051*%
%ADD11C,1.355018*%
%ADD12C,1.075000*%
%ADD13C,0.150000*%
%ADD14C,1.181797*%
%ADD15C,1.140413*%
%ADD16C,1.000000*%
%ADD17RoundRect,0.250000X0.450000X-0.262500X0.450000X0.262500X-0.450000X0.262500X-0.450000X-0.262500X0*%
%ADD18RoundRect,0.150000X0.357500X0.150000X-0.357500X0.150000X-0.357500X-0.150000X0.357500X-0.150000X0*%
%ADD19RoundRect,0.150000X0.392500X0.150000X-0.392500X0.150000X-0.392500X-0.150000X0.392500X-0.150000X0*%
%ADD20RoundRect,0.250000X-0.450000X0.262500X-0.450000X-0.262500X0.450000X-0.262500X0.450000X0.262500X0*%
%ADD21O,2.165000X3.685000*%
%ADD22R,0.710000X3.210000*%
%ADD23FreePoly0,0.000000*%
%ADD24FreePoly1,0.000000*%
%ADD25FreePoly2,0.000000*%
%ADD26FreePoly3,180.000000*%
%ADD27C,1.500000*%
%ADD28FreePoly4,0.000000*%
%ADD29FreePoly5,0.000000*%
%ADD30FreePoly3,90.000000*%
%ADD31FreePoly3,270.000000*%
%ADD32RoundRect,0.281565X-0.645643X0.295643X-0.645643X-0.295643X0.645643X-0.295643X0.645643X0.295643X0*%
%ADD33R,3.250000X2.150000*%
%ADD34R,2.200000X2.150000*%
%ADD35R,9.875000X2.125000*%
%ADD36FreePoly6,0.000000*%
%ADD37O,1.642500X2.715000*%
%ADD38C,1.600000*%
%ADD39RoundRect,0.125000X-0.125000X0.625000X-0.125000X-0.625000X0.125000X-0.625000X0.125000X0.625000X0*%
%ADD40RoundRect,0.125000X-0.625000X0.125000X-0.625000X-0.125000X0.625000X-0.125000X0.625000X0.125000X0*%
G04 APERTURE END LIST*
D10*
X197989474Y-61870000D02*
G75*
G03*
X197989474Y-61870000I-935525J0D01*
G01*
D11*
X168727509Y-136290000D02*
G75*
G03*
X168727509Y-136290000I-677509J0D01*
G01*
D12*
X152907500Y-137220000D02*
G75*
G03*
X152907500Y-137220000I-537500J0D01*
G01*
D13*
X152370000Y-136220000D02*
X154220000Y-136220000D01*
X154220000Y-138070000D01*
X152370000Y-138070000D01*
X152370000Y-136220000D01*
G36*
X152370000Y-136220000D02*
G01*
X154220000Y-136220000D01*
X154220000Y-138070000D01*
X152370000Y-138070000D01*
X152370000Y-136220000D01*
G37*
D14*
X148720898Y-137283203D02*
G75*
G03*
X148720898Y-137283203I-590898J0D01*
G01*
D10*
X109659474Y-90330000D02*
G75*
G03*
X109659474Y-90330000I-935525J0D01*
G01*
X154145525Y-115820000D02*
G75*
G03*
X154145525Y-115820000I-935525J0D01*
G01*
D13*
X106230000Y-59320000D02*
X111710000Y-59320000D01*
X111710000Y-64800000D01*
X106230000Y-64800000D01*
X106230000Y-59320000D01*
G36*
X106230000Y-59320000D02*
G01*
X111710000Y-59320000D01*
X111710000Y-64800000D01*
X106230000Y-64800000D01*
X106230000Y-59320000D01*
G37*
D12*
X154667500Y-137220000D02*
G75*
G03*
X154667500Y-137220000I-537500J0D01*
G01*
D11*
X138797527Y-136290000D02*
G75*
G03*
X138797527Y-136290000I-677509J0D01*
G01*
D14*
X158720898Y-137250000D02*
G75*
G03*
X158720898Y-137250000I-590898J0D01*
G01*
D10*
X198009474Y-89790000D02*
G75*
G03*
X198009474Y-89790000I-935525J0D01*
G01*
%TO.C,J800*%
D15*
X153796456Y-132262500D02*
G75*
G03*
X153796456Y-132262500I-570206J0D01*
G01*
%TD*%
D16*
%TO.C,*%
X155870000Y-78880000D03*
%TD*%
%TO.C,*%
X146790000Y-80370000D03*
%TD*%
D17*
%TO.C,R800*%
X149810000Y-97102500D03*
X149810000Y-95277500D03*
%TD*%
D16*
%TO.C,*%
X167800000Y-96260000D03*
%TD*%
%TO.C,*%
X149570000Y-93150000D03*
%TD*%
%TO.C,*%
X144640000Y-93060000D03*
%TD*%
D18*
%TO.C,D802*%
X163227500Y-96610000D03*
X163227500Y-94710000D03*
D19*
X160927500Y-95660000D03*
%TD*%
D20*
%TO.C,L804*%
X177010000Y-117577500D03*
X177010000Y-119402500D03*
%TD*%
D16*
%TO.C,*%
X145200000Y-83410000D03*
%TD*%
D21*
%TO.C,J800*%
X150766250Y-131970000D03*
X155706250Y-131970000D03*
X148233750Y-131970000D03*
X158206250Y-131970000D03*
%TD*%
D16*
%TO.C,*%
X154290000Y-93080000D03*
%TD*%
%TO.C,*%
X145670000Y-76830000D03*
%TD*%
%TO.C,*%
X160950000Y-83450000D03*
%TD*%
%TO.C,*%
X158820000Y-97280000D03*
%TD*%
%TO.C,*%
X158620000Y-95290000D03*
%TD*%
%TO.C,*%
X130350000Y-132170000D03*
%TD*%
D22*
%TO.C,CN800*%
X191720000Y-63850000D03*
X190720000Y-63850000D03*
X189720000Y-63850000D03*
X188720000Y-63850000D03*
X187720000Y-63850000D03*
X186720000Y-63850000D03*
X185720000Y-63850000D03*
X184720000Y-63850000D03*
X183720000Y-63850000D03*
X182720000Y-63850000D03*
X181720000Y-63850000D03*
X180720000Y-63850000D03*
%TD*%
D20*
%TO.C,R804*%
X165600000Y-94677500D03*
X165600000Y-96502500D03*
%TD*%
D16*
%TO.C,*%
X160870000Y-81890000D03*
%TD*%
%TO.C,*%
X160580000Y-96820000D03*
%TD*%
D20*
%TO.C,L805*%
X174480000Y-117577500D03*
X174480000Y-119402500D03*
%TD*%
D23*
%TO.C,SW801*%
X183510000Y-77280000D03*
D24*
X190910000Y-79140000D03*
%TD*%
D25*
%TO.C,SW805*%
X127837000Y-72073500D03*
D26*
X124779500Y-76336000D03*
%TD*%
D27*
%TO.C,*%
X193550000Y-91290000D03*
%TD*%
D16*
%TO.C,*%
X158450000Y-79380000D03*
%TD*%
%TO.C,*%
X191320000Y-89030000D03*
%TD*%
%TO.C,*%
X159920000Y-80430000D03*
%TD*%
D17*
%TO.C,C801*%
X154910000Y-97112500D03*
X154910000Y-95287500D03*
%TD*%
D16*
%TO.C,*%
X153340000Y-76850000D03*
%TD*%
%TO.C,*%
X146750000Y-93080000D03*
%TD*%
%TO.C,*%
X177050000Y-121070000D03*
%TD*%
%TO.C,*%
X146310000Y-97780000D03*
%TD*%
%TO.C,*%
X151440000Y-93130000D03*
%TD*%
D25*
%TO.C,SW807*%
X127827000Y-90053500D03*
D26*
X124769500Y-94316000D03*
%TD*%
D20*
%TO.C,L803*%
X131750000Y-122597500D03*
X131750000Y-124422500D03*
%TD*%
D16*
%TO.C,*%
X156750000Y-97520000D03*
%TD*%
D28*
%TO.C,SW803*%
X145342600Y-117240721D03*
D29*
X145282600Y-126240721D03*
%TD*%
D30*
%TO.C,SW808*%
X115205000Y-81660000D03*
D31*
X119455000Y-84760000D03*
%TD*%
D16*
%TO.C,*%
X176180000Y-64170000D03*
%TD*%
D32*
%TO.C,L802*%
X177065283Y-123005283D03*
X177110000Y-126060000D03*
%TD*%
D33*
%TO.C,SW810*%
X128935000Y-107190000D03*
D34*
X132220000Y-107190000D03*
D35*
X132242500Y-103212500D03*
D33*
X135510000Y-107190000D03*
%TD*%
D16*
%TO.C,*%
X174500000Y-127610000D03*
%TD*%
%TO.C,*%
X177050000Y-127600000D03*
%TD*%
D36*
%TO.C,SW802*%
X172540000Y-79360000D03*
D24*
X177110000Y-87140000D03*
%TD*%
D33*
%TO.C,SW809*%
X157922500Y-107187500D03*
D34*
X161207500Y-107187500D03*
D35*
X161230000Y-103210000D03*
D33*
X164497500Y-107187500D03*
%TD*%
D32*
%TO.C,L800*%
X131835283Y-127075283D03*
X131880000Y-130130000D03*
%TD*%
D17*
%TO.C,R801*%
X152270000Y-97082500D03*
X152270000Y-95257500D03*
%TD*%
D16*
%TO.C,*%
X157450000Y-80420000D03*
%TD*%
%TO.C,*%
X163920000Y-88470000D03*
%TD*%
%TO.C,*%
X147430000Y-96030000D03*
%TD*%
D27*
%TO.C,*%
X116110000Y-100690000D03*
%TD*%
D16*
%TO.C,*%
X178140000Y-67220000D03*
%TD*%
D37*
%TO.C,CN801*%
X120048750Y-63824334D03*
X122130000Y-63824334D03*
%TD*%
D16*
%TO.C,*%
X174480000Y-121030000D03*
%TD*%
D27*
%TO.C,*%
X194690000Y-83770000D03*
%TD*%
D16*
%TO.C,*%
X156770000Y-95280000D03*
%TD*%
D20*
%TO.C,R803*%
X172660000Y-93667500D03*
X172660000Y-95492500D03*
%TD*%
D38*
%TO.C,CC800*%
X192600000Y-94390000D03*
X192600000Y-96884021D03*
%TD*%
D39*
%TO.C,IC800*%
X155090000Y-81162500D03*
X154290000Y-81162500D03*
X153490000Y-81162500D03*
X152690000Y-81162500D03*
X151890000Y-81162500D03*
X151090000Y-81162500D03*
X150290000Y-81162500D03*
X149490000Y-81162500D03*
D40*
X147880000Y-82607500D03*
X147880000Y-83407500D03*
X147880000Y-84207500D03*
X147880000Y-85007500D03*
X147880000Y-85807500D03*
X147880000Y-86607500D03*
X147880000Y-87407500D03*
X147880000Y-88207500D03*
D39*
X149490000Y-89937500D03*
X150290000Y-89937500D03*
X151090000Y-89937500D03*
X151890000Y-89937500D03*
X152690000Y-89937500D03*
X153490000Y-89937500D03*
X154290000Y-89937500D03*
X155090000Y-89937500D03*
D40*
X156480000Y-88207500D03*
X156480000Y-87407500D03*
X156480000Y-86607500D03*
X156480000Y-85807500D03*
X156480000Y-85007500D03*
X156480000Y-84207500D03*
X156480000Y-83407500D03*
X156480000Y-82607500D03*
%TD*%
D28*
%TO.C,SW804*%
X161282600Y-117220721D03*
D29*
X161222600Y-126220721D03*
%TD*%
D16*
%TO.C,*%
X188820000Y-89010000D03*
%TD*%
D32*
%TO.C,L801*%
X174475283Y-123005283D03*
X174520000Y-126060000D03*
%TD*%
D18*
%TO.C,D800*%
X194760000Y-87110000D03*
X194760000Y-85210000D03*
D19*
X192460000Y-86160000D03*
%TD*%
D16*
%TO.C,*%
X147210000Y-77810000D03*
%TD*%
D30*
%TO.C,SW806*%
X133175000Y-81700000D03*
D31*
X137425000Y-84800000D03*
%TD*%
D16*
%TO.C,*%
X154830000Y-77870000D03*
%TD*%
%TO.C,*%
X132290000Y-132150000D03*
%TD*%
D20*
%TO.C,C800*%
X196360000Y-94735000D03*
X196360000Y-96560000D03*
%TD*%
D18*
%TO.C,D801*%
X170527500Y-95460000D03*
X170527500Y-93560000D03*
D19*
X168227500Y-94510000D03*
%TD*%
M02*
