M48
; DRILL file {KiCad 7.0.8} date 2023 December 31, Sunday 22:13:17
; FORMAT={-:-/ absolute / metric / decimal}
; #@! TF.CreationDate,2023-12-31T22:13:17+00:00
; #@! TF.GenerationSoftware,Kicad,Pcbnew,7.0.8
; #@! TF.FileFunction,Plated,1,2,PTH
FMAT,2
METRIC
; #@! TA.AperFunction,Plated,PTH,ViaDrill
T1C0.400
%
G90
G05
T1
X120.25Y-101.64
X120.25Y-111.29
X124.32Y-111.24
X124.35Y-101.61
X137.94Y-91.54
X143.15Y-104.25
X143.19Y-80.29
X151.81Y-106.26
X156.91Y-92.0
X157.38Y-116.94
X159.85Y-112.34
X160.91Y-88.97
X164.46Y-82.87
X168.48Y-82.87
X176.65Y-95.6
X181.23Y-96.66
X181.24Y-104.19
X181.28Y-91.51
X183.8Y-86.42
X185.28Y-106.21
X185.32Y-96.59
X186.29Y-109.78
X186.32Y-101.59
X187.86Y-86.46
X190.77Y-109.78
X190.89Y-106.18
T0
M30
