%TF.GenerationSoftware,KiCad,Pcbnew,7.0.8*%
%TF.CreationDate,2023-12-31T22:13:14+00:00*%
%TF.ProjectId,pce-gt-controller,7063652d-6774-42d6-936f-6e74726f6c6c,rev?*%
%TF.SameCoordinates,Original*%
%TF.FileFunction,Copper,L2,Bot*%
%TF.FilePolarity,Positive*%
%FSLAX46Y46*%
G04 Gerber Fmt 4.6, Leading zero omitted, Abs format (unit mm)*
G04 Created by KiCad (PCBNEW 7.0.8) date 2023-12-31 22:13:14*
%MOMM*%
%LPD*%
G01*
G04 APERTURE LIST*
%TA.AperFunction,ViaPad*%
%ADD10C,2.000000*%
%TD*%
%TA.AperFunction,Conductor*%
%ADD11C,0.700000*%
%TD*%
G04 APERTURE END LIST*
D10*
%TO.N,TURBO FAST*%
X185280000Y-106210000D03*
X190890000Y-106180000D03*
%TO.N,LINK 1*%
X185320000Y-96590000D03*
X181280000Y-91510000D03*
%TO.N,LINK 2*%
X181230000Y-96660000D03*
X176650000Y-95600000D03*
%TO.N,DOWN*%
X137940000Y-91540000D03*
X143190000Y-80290000D03*
%TO.N,SELECT*%
X120250000Y-111290000D03*
X120250000Y-101640000D03*
%TO.N,RUN*%
X124350000Y-101610000D03*
X124320000Y-111240000D03*
%TO.N,II*%
X168480000Y-82870000D03*
X156910000Y-92000000D03*
%TO.N,TURBO SLOW*%
X190770000Y-109780000D03*
X159850000Y-112340000D03*
X186290000Y-109780000D03*
X151810000Y-106260000D03*
X157380000Y-116940000D03*
X143150000Y-104250000D03*
%TO.N,I*%
X160910000Y-88970000D03*
X164460000Y-82870000D03*
%TO.N,Net-(SW802-Pad2)*%
X183800000Y-86420000D03*
X186320000Y-101590000D03*
%TO.N,Net-(SW801-Pad2)*%
X187860000Y-86460000D03*
X181240000Y-104190000D03*
%TD*%
D11*
%TO.N,TURBO FAST*%
X185310000Y-106180000D02*
X185280000Y-106210000D01*
X190890000Y-106180000D02*
X185310000Y-106180000D01*
%TO.N,LINK 1*%
X185320000Y-96590000D02*
X181280000Y-91510000D01*
%TO.N,LINK 2*%
X181230000Y-96660000D02*
X176650000Y-95600000D01*
%TO.N,DOWN*%
X143190000Y-80290000D02*
X143190000Y-86320000D01*
X137970000Y-91540000D02*
X137940000Y-91540000D01*
X143190000Y-86320000D02*
X137970000Y-91540000D01*
%TO.N,SELECT*%
X120250000Y-101640000D02*
X120250000Y-111290000D01*
%TO.N,RUN*%
X124350000Y-101610000D02*
X124350000Y-111210000D01*
%TO.N,II*%
X168480000Y-82870000D02*
X168480000Y-87420000D01*
X168480000Y-87420000D02*
X163900000Y-92000000D01*
X163900000Y-92000000D02*
X156910000Y-92000000D01*
%TO.N,TURBO SLOW*%
X159850000Y-112340000D02*
X157380000Y-114810000D01*
X149110000Y-105640000D02*
X143150000Y-104250000D01*
X157380000Y-114810000D02*
X157380000Y-116940000D01*
X190770000Y-109780000D02*
X186290000Y-109780000D01*
X186280000Y-109770000D02*
X186290000Y-109780000D01*
X151810000Y-106260000D02*
X149110000Y-105640000D01*
%TO.N,I*%
X160910000Y-88970000D02*
X164460000Y-82870000D01*
%TO.N,Net-(SW802-Pad2)*%
X183800000Y-86420000D02*
X183800000Y-90010000D01*
X188110000Y-99800000D02*
X186320000Y-101590000D01*
X183800000Y-90010000D02*
X188110000Y-94320000D01*
X186320000Y-101690000D02*
X186320000Y-101590000D01*
X188110000Y-94320000D02*
X188110000Y-99800000D01*
%TO.N,Net-(SW801-Pad2)*%
X190100000Y-93230000D02*
X186370000Y-89500000D01*
X186370000Y-87950000D02*
X187860000Y-86460000D01*
X181240000Y-104190000D02*
X181550000Y-103940000D01*
X181550000Y-103940000D02*
X188510000Y-103940000D01*
X186370000Y-89500000D02*
X186370000Y-87950000D01*
X190100000Y-102350000D02*
X190100000Y-93230000D01*
X188510000Y-103940000D02*
X190100000Y-102350000D01*
%TD*%
M02*
