%TF.GenerationSoftware,KiCad,Pcbnew,7.0.8*%
%TF.CreationDate,2023-12-31T22:43:47+00:00*%
%TF.ProjectId,pce-gt-controller,7063652d-6774-42d6-936f-6e74726f6c6c,BF1.1*%
%TF.SameCoordinates,Original*%
%TF.FileFunction,Drillmap*%
%TF.FilePolarity,Positive*%
%FSLAX45Y45*%
G04 Gerber Fmt 4.5, Leading zero omitted, Abs format (unit mm)*
G04 Created by KiCad (PCBNEW 7.0.8) date 2023-12-31 22:43:47*
%MOMM*%
%LPD*%
G01*
G04 APERTURE LIST*
%ADD10C,0.100000*%
%ADD11C,0.200000*%
%ADD12C,0.040000*%
G04 APERTURE END LIST*
D10*
X16019973Y-6689741D02*
X17282000Y-6689741D01*
X10934000Y-7887244D02*
G75*
G03*
X10969755Y-7851491I0J35755D01*
G01*
X15719491Y-13834754D02*
X15435000Y-13835000D01*
X13323754Y-5968000D02*
G75*
G03*
X13288000Y-5932245I-35755J0D01*
G01*
X13884245Y-13631509D02*
G75*
G03*
X13734232Y-13631509I-75007J0D01*
G01*
X20015755Y-11081000D02*
X19217000Y-11879754D01*
X17318472Y-6654000D02*
X17318472Y-5978000D01*
X17354282Y-5941528D02*
X19962000Y-5941528D01*
X16729232Y-13627000D02*
X16729232Y-13798000D01*
X11418000Y-11875245D02*
X10623000Y-11080246D01*
X20015755Y-11038000D02*
X20015755Y-11081000D01*
X14869245Y-13721000D02*
G75*
G03*
X14757245Y-13721000I-56000J0D01*
G01*
X19608526Y-7853000D02*
G75*
G03*
X19644282Y-7888754I35755J0D01*
G01*
X15867245Y-13798000D02*
G75*
G03*
X15903000Y-13833754I35755J0D01*
G01*
X15719491Y-13834755D02*
G75*
G03*
X15755245Y-13799000I-1J35756D01*
G01*
X14632027Y-6689741D02*
X13356000Y-6689741D01*
X12521704Y-11911000D02*
G75*
G03*
X12485947Y-11875245I-35755J0D01*
G01*
X20015756Y-7924509D02*
G75*
G03*
X19980000Y-7888754I-35756J-1D01*
G01*
X12485947Y-11875245D02*
X11418000Y-11875245D01*
X18153000Y-11879755D02*
G75*
G03*
X18117246Y-11915509I0J-35755D01*
G01*
X13698478Y-13838262D02*
G75*
G03*
X13734232Y-13802509I2J35752D01*
G01*
X16879246Y-13795491D02*
X16879246Y-13627000D01*
X10934000Y-6929245D02*
X10659000Y-6929245D01*
X19835395Y-6190000D02*
G75*
G03*
X19835395Y-6190000I-133000J0D01*
G01*
X17282718Y-6689752D02*
G75*
G03*
X17318472Y-6654000I2J35752D01*
G01*
X13884245Y-13800000D02*
X13884245Y-13631509D01*
X16693478Y-13833752D02*
G75*
G03*
X16729232Y-13798000I2J35752D01*
G01*
X12521701Y-13033965D02*
X12521701Y-11911000D01*
X13320249Y-6653986D02*
G75*
G03*
X13356000Y-6689741I35751J-4D01*
G01*
X13698478Y-13838263D02*
X13326000Y-13838263D01*
X10623246Y-6893491D02*
X10623246Y-5968000D01*
X10623245Y-6893491D02*
G75*
G03*
X10659000Y-6929245I35756J1D01*
G01*
X19698000Y-6930754D02*
X19644282Y-6930754D01*
X19644282Y-7888754D02*
X19980000Y-7888754D01*
X10659000Y-5932245D02*
X13288000Y-5932245D01*
X14869245Y-13799000D02*
X14869245Y-13721000D01*
X18117246Y-13029000D02*
X17315000Y-13831245D01*
X20021472Y-6895000D02*
X20021472Y-6844000D01*
X15198718Y-13835472D02*
G75*
G03*
X15234472Y-13799718I2J35752D01*
G01*
X19217000Y-11879754D02*
X18153000Y-11879754D01*
X10623000Y-11080246D02*
X10623000Y-7923000D01*
X15399000Y-13693000D02*
X15399245Y-13799245D01*
X20021472Y-5977282D02*
X20021472Y-6844000D01*
X10659000Y-5932245D02*
G75*
G03*
X10623246Y-5968000I0J-35755D01*
G01*
X14721491Y-13835755D02*
G75*
G03*
X14757245Y-13800000I-1J35756D01*
G01*
X15755245Y-13720000D02*
X15755245Y-13799000D01*
X16693478Y-13833754D02*
X15903000Y-13833754D01*
X14757245Y-13721000D02*
X14757245Y-13800000D01*
X19985718Y-6930754D02*
X19698000Y-6930754D01*
X19644282Y-6930758D02*
G75*
G03*
X19608528Y-6966509I-2J-35752D01*
G01*
X14632027Y-6689741D02*
G75*
G03*
X16019973Y-6689741I693973J485925D01*
G01*
X15399250Y-13799245D02*
G75*
G03*
X15435000Y-13835000I35750J-5D01*
G01*
X13734232Y-13631509D02*
X13734232Y-13802509D01*
X13326000Y-13838263D02*
X12521701Y-13033965D01*
X15234472Y-13799718D02*
X15234472Y-13693000D01*
X15451000Y-11585000D02*
G75*
G03*
X15451000Y-11585000I-133000J0D01*
G01*
X19608528Y-6966509D02*
X19608528Y-7853000D01*
X10969755Y-7851491D02*
X10969755Y-6965000D01*
X15198718Y-13835472D02*
X14905000Y-13834754D01*
X17315000Y-13831245D02*
X16915000Y-13831245D01*
X17042000Y-12661000D02*
G75*
G03*
X17042000Y-12661000I-103238J0D01*
G01*
X17354282Y-5941528D02*
G75*
G03*
X17318528Y-5977282I-2J-35752D01*
G01*
X19985718Y-5941528D02*
X19962000Y-5941528D01*
X15234472Y-13693000D02*
X15399000Y-13693000D01*
X10969755Y-6965000D02*
G75*
G03*
X10934000Y-6929245I-35755J0D01*
G01*
X16879245Y-13795491D02*
G75*
G03*
X16915000Y-13831245I35756J1D01*
G01*
X19985718Y-6930752D02*
G75*
G03*
X20021472Y-6895000I2J35752D01*
G01*
X13884245Y-13800000D02*
G75*
G03*
X13920000Y-13835754I35755J0D01*
G01*
X10658755Y-7887245D02*
X10934000Y-7887245D01*
X10998000Y-6190000D02*
G75*
G03*
X10998000Y-6190000I-133000J0D01*
G01*
X18117246Y-11915509D02*
X18117246Y-13029000D01*
X11002395Y-9036000D02*
G75*
G03*
X11002395Y-9036000I-133000J0D01*
G01*
X20015755Y-7924509D02*
X20015755Y-11038000D01*
X15867245Y-13720000D02*
G75*
G03*
X15755245Y-13720000I-56000J0D01*
G01*
X16879246Y-13627000D02*
G75*
G03*
X16729232Y-13627000I-75007J0D01*
G01*
X13323754Y-5968000D02*
X13320245Y-6653986D01*
X14869245Y-13799000D02*
G75*
G03*
X14905000Y-13834754I35755J0D01*
G01*
X15867245Y-13798000D02*
X15867245Y-13720000D01*
X20021472Y-5977282D02*
G75*
G03*
X19985718Y-5941528I-35752J2D01*
G01*
X14721491Y-13835754D02*
X13920000Y-13835754D01*
X19837395Y-8982000D02*
G75*
G03*
X19837395Y-8982000I-133000J0D01*
G01*
X10658755Y-7887250D02*
G75*
G03*
X10623000Y-7923000I-5J-35750D01*
G01*
D11*
D12*
X12005000Y-10144000D02*
X12045000Y-10184000D01*
X12045000Y-10144000D02*
X12005000Y-10184000D01*
X12005000Y-11109000D02*
X12045000Y-11149000D01*
X12045000Y-11109000D02*
X12005000Y-11149000D01*
X12412000Y-11104000D02*
X12452000Y-11144000D01*
X12452000Y-11104000D02*
X12412000Y-11144000D01*
X12415000Y-10141000D02*
X12455000Y-10181000D01*
X12455000Y-10141000D02*
X12415000Y-10181000D01*
X13774000Y-9134000D02*
X13814000Y-9174000D01*
X13814000Y-9134000D02*
X13774000Y-9174000D01*
X14295000Y-10405000D02*
X14335000Y-10445000D01*
X14335000Y-10405000D02*
X14295000Y-10445000D01*
X14299000Y-8009000D02*
X14339000Y-8049000D01*
X14339000Y-8009000D02*
X14299000Y-8049000D01*
X15161000Y-10606000D02*
X15201000Y-10646000D01*
X15201000Y-10606000D02*
X15161000Y-10646000D01*
X15671000Y-9180000D02*
X15711000Y-9220000D01*
X15711000Y-9180000D02*
X15671000Y-9220000D01*
X15718000Y-11674000D02*
X15758000Y-11714000D01*
X15758000Y-11674000D02*
X15718000Y-11714000D01*
X15965000Y-11214000D02*
X16005000Y-11254000D01*
X16005000Y-11214000D02*
X15965000Y-11254000D01*
X16071000Y-8877000D02*
X16111000Y-8917000D01*
X16111000Y-8877000D02*
X16071000Y-8917000D01*
X16426000Y-8267000D02*
X16466000Y-8307000D01*
X16466000Y-8267000D02*
X16426000Y-8307000D01*
X16828000Y-8267000D02*
X16868000Y-8307000D01*
X16868000Y-8267000D02*
X16828000Y-8307000D01*
X17645000Y-9540000D02*
X17685000Y-9580000D01*
X17685000Y-9540000D02*
X17645000Y-9580000D01*
X18103000Y-9646000D02*
X18143000Y-9686000D01*
X18143000Y-9646000D02*
X18103000Y-9686000D01*
X18104000Y-10399000D02*
X18144000Y-10439000D01*
X18144000Y-10399000D02*
X18104000Y-10439000D01*
X18108000Y-9131000D02*
X18148000Y-9171000D01*
X18148000Y-9131000D02*
X18108000Y-9171000D01*
X18360000Y-8622000D02*
X18400000Y-8662000D01*
X18400000Y-8622000D02*
X18360000Y-8662000D01*
X18508000Y-10601000D02*
X18548000Y-10641000D01*
X18548000Y-10601000D02*
X18508000Y-10641000D01*
X18512000Y-9639000D02*
X18552000Y-9679000D01*
X18552000Y-9639000D02*
X18512000Y-9679000D01*
X18609000Y-10958000D02*
X18649000Y-10998000D01*
X18649000Y-10958000D02*
X18609000Y-10998000D01*
X18612000Y-10139000D02*
X18652000Y-10179000D01*
X18652000Y-10139000D02*
X18612000Y-10179000D01*
X18766000Y-8626000D02*
X18806000Y-8666000D01*
X18806000Y-8626000D02*
X18766000Y-8666000D01*
X19057000Y-10958000D02*
X19097000Y-10998000D01*
X19097000Y-10958000D02*
X19057000Y-10998000D01*
X19069000Y-10598000D02*
X19109000Y-10638000D01*
X19109000Y-10598000D02*
X19069000Y-10638000D01*
D11*
X10878777Y-14154747D02*
X10878777Y-13954747D01*
X10878777Y-13954747D02*
X10926396Y-13954747D01*
X10926396Y-13954747D02*
X10954967Y-13964271D01*
X10954967Y-13964271D02*
X10974015Y-13983319D01*
X10974015Y-13983319D02*
X10983539Y-14002366D01*
X10983539Y-14002366D02*
X10993063Y-14040461D01*
X10993063Y-14040461D02*
X10993063Y-14069033D01*
X10993063Y-14069033D02*
X10983539Y-14107128D01*
X10983539Y-14107128D02*
X10974015Y-14126176D01*
X10974015Y-14126176D02*
X10954967Y-14145223D01*
X10954967Y-14145223D02*
X10926396Y-14154747D01*
X10926396Y-14154747D02*
X10878777Y-14154747D01*
X11078777Y-14154747D02*
X11078777Y-14021414D01*
X11078777Y-14059509D02*
X11088301Y-14040461D01*
X11088301Y-14040461D02*
X11097824Y-14030938D01*
X11097824Y-14030938D02*
X11116872Y-14021414D01*
X11116872Y-14021414D02*
X11135920Y-14021414D01*
X11202586Y-14154747D02*
X11202586Y-14021414D01*
X11202586Y-13954747D02*
X11193062Y-13964271D01*
X11193062Y-13964271D02*
X11202586Y-13973795D01*
X11202586Y-13973795D02*
X11212110Y-13964271D01*
X11212110Y-13964271D02*
X11202586Y-13954747D01*
X11202586Y-13954747D02*
X11202586Y-13973795D01*
X11326396Y-14154747D02*
X11307348Y-14145223D01*
X11307348Y-14145223D02*
X11297824Y-14126176D01*
X11297824Y-14126176D02*
X11297824Y-13954747D01*
X11431158Y-14154747D02*
X11412110Y-14145223D01*
X11412110Y-14145223D02*
X11402586Y-14126176D01*
X11402586Y-14126176D02*
X11402586Y-13954747D01*
X11659729Y-14154747D02*
X11659729Y-13954747D01*
X11659729Y-13954747D02*
X11726396Y-14097604D01*
X11726396Y-14097604D02*
X11793062Y-13954747D01*
X11793062Y-13954747D02*
X11793062Y-14154747D01*
X11974015Y-14154747D02*
X11974015Y-14049985D01*
X11974015Y-14049985D02*
X11964491Y-14030938D01*
X11964491Y-14030938D02*
X11945443Y-14021414D01*
X11945443Y-14021414D02*
X11907348Y-14021414D01*
X11907348Y-14021414D02*
X11888301Y-14030938D01*
X11974015Y-14145223D02*
X11954967Y-14154747D01*
X11954967Y-14154747D02*
X11907348Y-14154747D01*
X11907348Y-14154747D02*
X11888301Y-14145223D01*
X11888301Y-14145223D02*
X11878777Y-14126176D01*
X11878777Y-14126176D02*
X11878777Y-14107128D01*
X11878777Y-14107128D02*
X11888301Y-14088081D01*
X11888301Y-14088081D02*
X11907348Y-14078557D01*
X11907348Y-14078557D02*
X11954967Y-14078557D01*
X11954967Y-14078557D02*
X11974015Y-14069033D01*
X12069253Y-14021414D02*
X12069253Y-14221414D01*
X12069253Y-14030938D02*
X12088301Y-14021414D01*
X12088301Y-14021414D02*
X12126396Y-14021414D01*
X12126396Y-14021414D02*
X12145443Y-14030938D01*
X12145443Y-14030938D02*
X12154967Y-14040461D01*
X12154967Y-14040461D02*
X12164491Y-14059509D01*
X12164491Y-14059509D02*
X12164491Y-14116652D01*
X12164491Y-14116652D02*
X12154967Y-14135700D01*
X12154967Y-14135700D02*
X12145443Y-14145223D01*
X12145443Y-14145223D02*
X12126396Y-14154747D01*
X12126396Y-14154747D02*
X12088301Y-14154747D01*
X12088301Y-14154747D02*
X12069253Y-14145223D01*
X12250205Y-14135700D02*
X12259729Y-14145223D01*
X12259729Y-14145223D02*
X12250205Y-14154747D01*
X12250205Y-14154747D02*
X12240682Y-14145223D01*
X12240682Y-14145223D02*
X12250205Y-14135700D01*
X12250205Y-14135700D02*
X12250205Y-14154747D01*
X12250205Y-14030938D02*
X12259729Y-14040461D01*
X12259729Y-14040461D02*
X12250205Y-14049985D01*
X12250205Y-14049985D02*
X12240682Y-14040461D01*
X12240682Y-14040461D02*
X12250205Y-14030938D01*
X12250205Y-14030938D02*
X12250205Y-14049985D01*
D12*
X10578000Y-14463263D02*
X10618000Y-14503263D01*
X10618000Y-14463263D02*
X10578000Y-14503263D01*
D11*
X10916872Y-14374747D02*
X10935920Y-14374747D01*
X10935920Y-14374747D02*
X10954967Y-14384271D01*
X10954967Y-14384271D02*
X10964491Y-14393795D01*
X10964491Y-14393795D02*
X10974015Y-14412842D01*
X10974015Y-14412842D02*
X10983539Y-14450938D01*
X10983539Y-14450938D02*
X10983539Y-14498557D01*
X10983539Y-14498557D02*
X10974015Y-14536652D01*
X10974015Y-14536652D02*
X10964491Y-14555700D01*
X10964491Y-14555700D02*
X10954967Y-14565223D01*
X10954967Y-14565223D02*
X10935920Y-14574747D01*
X10935920Y-14574747D02*
X10916872Y-14574747D01*
X10916872Y-14574747D02*
X10897824Y-14565223D01*
X10897824Y-14565223D02*
X10888301Y-14555700D01*
X10888301Y-14555700D02*
X10878777Y-14536652D01*
X10878777Y-14536652D02*
X10869253Y-14498557D01*
X10869253Y-14498557D02*
X10869253Y-14450938D01*
X10869253Y-14450938D02*
X10878777Y-14412842D01*
X10878777Y-14412842D02*
X10888301Y-14393795D01*
X10888301Y-14393795D02*
X10897824Y-14384271D01*
X10897824Y-14384271D02*
X10916872Y-14374747D01*
X11069253Y-14555700D02*
X11078777Y-14565223D01*
X11078777Y-14565223D02*
X11069253Y-14574747D01*
X11069253Y-14574747D02*
X11059729Y-14565223D01*
X11059729Y-14565223D02*
X11069253Y-14555700D01*
X11069253Y-14555700D02*
X11069253Y-14574747D01*
X11250205Y-14441414D02*
X11250205Y-14574747D01*
X11202586Y-14365223D02*
X11154967Y-14508081D01*
X11154967Y-14508081D02*
X11278777Y-14508081D01*
X11393062Y-14374747D02*
X11412110Y-14374747D01*
X11412110Y-14374747D02*
X11431158Y-14384271D01*
X11431158Y-14384271D02*
X11440682Y-14393795D01*
X11440682Y-14393795D02*
X11450205Y-14412842D01*
X11450205Y-14412842D02*
X11459729Y-14450938D01*
X11459729Y-14450938D02*
X11459729Y-14498557D01*
X11459729Y-14498557D02*
X11450205Y-14536652D01*
X11450205Y-14536652D02*
X11440682Y-14555700D01*
X11440682Y-14555700D02*
X11431158Y-14565223D01*
X11431158Y-14565223D02*
X11412110Y-14574747D01*
X11412110Y-14574747D02*
X11393062Y-14574747D01*
X11393062Y-14574747D02*
X11374015Y-14565223D01*
X11374015Y-14565223D02*
X11364491Y-14555700D01*
X11364491Y-14555700D02*
X11354967Y-14536652D01*
X11354967Y-14536652D02*
X11345443Y-14498557D01*
X11345443Y-14498557D02*
X11345443Y-14450938D01*
X11345443Y-14450938D02*
X11354967Y-14412842D01*
X11354967Y-14412842D02*
X11364491Y-14393795D01*
X11364491Y-14393795D02*
X11374015Y-14384271D01*
X11374015Y-14384271D02*
X11393062Y-14374747D01*
X11583539Y-14374747D02*
X11602586Y-14374747D01*
X11602586Y-14374747D02*
X11621634Y-14384271D01*
X11621634Y-14384271D02*
X11631158Y-14393795D01*
X11631158Y-14393795D02*
X11640682Y-14412842D01*
X11640682Y-14412842D02*
X11650205Y-14450938D01*
X11650205Y-14450938D02*
X11650205Y-14498557D01*
X11650205Y-14498557D02*
X11640682Y-14536652D01*
X11640682Y-14536652D02*
X11631158Y-14555700D01*
X11631158Y-14555700D02*
X11621634Y-14565223D01*
X11621634Y-14565223D02*
X11602586Y-14574747D01*
X11602586Y-14574747D02*
X11583539Y-14574747D01*
X11583539Y-14574747D02*
X11564491Y-14565223D01*
X11564491Y-14565223D02*
X11554967Y-14555700D01*
X11554967Y-14555700D02*
X11545443Y-14536652D01*
X11545443Y-14536652D02*
X11535920Y-14498557D01*
X11535920Y-14498557D02*
X11535920Y-14450938D01*
X11535920Y-14450938D02*
X11545443Y-14412842D01*
X11545443Y-14412842D02*
X11554967Y-14393795D01*
X11554967Y-14393795D02*
X11564491Y-14384271D01*
X11564491Y-14384271D02*
X11583539Y-14374747D01*
X11735920Y-14574747D02*
X11735920Y-14441414D01*
X11735920Y-14460461D02*
X11745443Y-14450938D01*
X11745443Y-14450938D02*
X11764491Y-14441414D01*
X11764491Y-14441414D02*
X11793063Y-14441414D01*
X11793063Y-14441414D02*
X11812110Y-14450938D01*
X11812110Y-14450938D02*
X11821634Y-14469985D01*
X11821634Y-14469985D02*
X11821634Y-14574747D01*
X11821634Y-14469985D02*
X11831158Y-14450938D01*
X11831158Y-14450938D02*
X11850205Y-14441414D01*
X11850205Y-14441414D02*
X11878777Y-14441414D01*
X11878777Y-14441414D02*
X11897824Y-14450938D01*
X11897824Y-14450938D02*
X11907348Y-14469985D01*
X11907348Y-14469985D02*
X11907348Y-14574747D01*
X12002586Y-14574747D02*
X12002586Y-14441414D01*
X12002586Y-14460461D02*
X12012110Y-14450938D01*
X12012110Y-14450938D02*
X12031158Y-14441414D01*
X12031158Y-14441414D02*
X12059729Y-14441414D01*
X12059729Y-14441414D02*
X12078777Y-14450938D01*
X12078777Y-14450938D02*
X12088301Y-14469985D01*
X12088301Y-14469985D02*
X12088301Y-14574747D01*
X12088301Y-14469985D02*
X12097824Y-14450938D01*
X12097824Y-14450938D02*
X12116872Y-14441414D01*
X12116872Y-14441414D02*
X12145443Y-14441414D01*
X12145443Y-14441414D02*
X12164491Y-14450938D01*
X12164491Y-14450938D02*
X12174015Y-14469985D01*
X12174015Y-14469985D02*
X12174015Y-14574747D01*
X12564491Y-14365223D02*
X12393063Y-14622366D01*
X12821634Y-14374747D02*
X12840682Y-14374747D01*
X12840682Y-14374747D02*
X12859729Y-14384271D01*
X12859729Y-14384271D02*
X12869253Y-14393795D01*
X12869253Y-14393795D02*
X12878777Y-14412842D01*
X12878777Y-14412842D02*
X12888301Y-14450938D01*
X12888301Y-14450938D02*
X12888301Y-14498557D01*
X12888301Y-14498557D02*
X12878777Y-14536652D01*
X12878777Y-14536652D02*
X12869253Y-14555700D01*
X12869253Y-14555700D02*
X12859729Y-14565223D01*
X12859729Y-14565223D02*
X12840682Y-14574747D01*
X12840682Y-14574747D02*
X12821634Y-14574747D01*
X12821634Y-14574747D02*
X12802586Y-14565223D01*
X12802586Y-14565223D02*
X12793063Y-14555700D01*
X12793063Y-14555700D02*
X12783539Y-14536652D01*
X12783539Y-14536652D02*
X12774015Y-14498557D01*
X12774015Y-14498557D02*
X12774015Y-14450938D01*
X12774015Y-14450938D02*
X12783539Y-14412842D01*
X12783539Y-14412842D02*
X12793063Y-14393795D01*
X12793063Y-14393795D02*
X12802586Y-14384271D01*
X12802586Y-14384271D02*
X12821634Y-14374747D01*
X12974015Y-14555700D02*
X12983539Y-14565223D01*
X12983539Y-14565223D02*
X12974015Y-14574747D01*
X12974015Y-14574747D02*
X12964491Y-14565223D01*
X12964491Y-14565223D02*
X12974015Y-14555700D01*
X12974015Y-14555700D02*
X12974015Y-14574747D01*
X13107348Y-14374747D02*
X13126396Y-14374747D01*
X13126396Y-14374747D02*
X13145444Y-14384271D01*
X13145444Y-14384271D02*
X13154967Y-14393795D01*
X13154967Y-14393795D02*
X13164491Y-14412842D01*
X13164491Y-14412842D02*
X13174015Y-14450938D01*
X13174015Y-14450938D02*
X13174015Y-14498557D01*
X13174015Y-14498557D02*
X13164491Y-14536652D01*
X13164491Y-14536652D02*
X13154967Y-14555700D01*
X13154967Y-14555700D02*
X13145444Y-14565223D01*
X13145444Y-14565223D02*
X13126396Y-14574747D01*
X13126396Y-14574747D02*
X13107348Y-14574747D01*
X13107348Y-14574747D02*
X13088301Y-14565223D01*
X13088301Y-14565223D02*
X13078777Y-14555700D01*
X13078777Y-14555700D02*
X13069253Y-14536652D01*
X13069253Y-14536652D02*
X13059729Y-14498557D01*
X13059729Y-14498557D02*
X13059729Y-14450938D01*
X13059729Y-14450938D02*
X13069253Y-14412842D01*
X13069253Y-14412842D02*
X13078777Y-14393795D01*
X13078777Y-14393795D02*
X13088301Y-14384271D01*
X13088301Y-14384271D02*
X13107348Y-14374747D01*
X13364491Y-14574747D02*
X13250206Y-14574747D01*
X13307348Y-14574747D02*
X13307348Y-14374747D01*
X13307348Y-14374747D02*
X13288301Y-14403319D01*
X13288301Y-14403319D02*
X13269253Y-14422366D01*
X13269253Y-14422366D02*
X13250206Y-14431890D01*
X13545444Y-14374747D02*
X13450206Y-14374747D01*
X13450206Y-14374747D02*
X13440682Y-14469985D01*
X13440682Y-14469985D02*
X13450206Y-14460461D01*
X13450206Y-14460461D02*
X13469253Y-14450938D01*
X13469253Y-14450938D02*
X13516872Y-14450938D01*
X13516872Y-14450938D02*
X13535920Y-14460461D01*
X13535920Y-14460461D02*
X13545444Y-14469985D01*
X13545444Y-14469985D02*
X13554967Y-14489033D01*
X13554967Y-14489033D02*
X13554967Y-14536652D01*
X13554967Y-14536652D02*
X13545444Y-14555700D01*
X13545444Y-14555700D02*
X13535920Y-14565223D01*
X13535920Y-14565223D02*
X13516872Y-14574747D01*
X13516872Y-14574747D02*
X13469253Y-14574747D01*
X13469253Y-14574747D02*
X13450206Y-14565223D01*
X13450206Y-14565223D02*
X13440682Y-14555700D01*
X13621634Y-14374747D02*
X13754967Y-14374747D01*
X13754967Y-14374747D02*
X13669253Y-14574747D01*
X13821634Y-14374747D02*
X13821634Y-14412842D01*
X13897825Y-14374747D02*
X13897825Y-14412842D01*
X14193063Y-14650938D02*
X14183539Y-14641414D01*
X14183539Y-14641414D02*
X14164491Y-14612842D01*
X14164491Y-14612842D02*
X14154968Y-14593795D01*
X14154968Y-14593795D02*
X14145444Y-14565223D01*
X14145444Y-14565223D02*
X14135920Y-14517604D01*
X14135920Y-14517604D02*
X14135920Y-14479509D01*
X14135920Y-14479509D02*
X14145444Y-14431890D01*
X14145444Y-14431890D02*
X14154968Y-14403319D01*
X14154968Y-14403319D02*
X14164491Y-14384271D01*
X14164491Y-14384271D02*
X14183539Y-14355700D01*
X14183539Y-14355700D02*
X14193063Y-14346176D01*
X14259729Y-14393795D02*
X14269253Y-14384271D01*
X14269253Y-14384271D02*
X14288301Y-14374747D01*
X14288301Y-14374747D02*
X14335920Y-14374747D01*
X14335920Y-14374747D02*
X14354968Y-14384271D01*
X14354968Y-14384271D02*
X14364491Y-14393795D01*
X14364491Y-14393795D02*
X14374015Y-14412842D01*
X14374015Y-14412842D02*
X14374015Y-14431890D01*
X14374015Y-14431890D02*
X14364491Y-14460461D01*
X14364491Y-14460461D02*
X14250206Y-14574747D01*
X14250206Y-14574747D02*
X14374015Y-14574747D01*
X14545444Y-14374747D02*
X14507348Y-14374747D01*
X14507348Y-14374747D02*
X14488301Y-14384271D01*
X14488301Y-14384271D02*
X14478777Y-14393795D01*
X14478777Y-14393795D02*
X14459729Y-14422366D01*
X14459729Y-14422366D02*
X14450206Y-14460461D01*
X14450206Y-14460461D02*
X14450206Y-14536652D01*
X14450206Y-14536652D02*
X14459729Y-14555700D01*
X14459729Y-14555700D02*
X14469253Y-14565223D01*
X14469253Y-14565223D02*
X14488301Y-14574747D01*
X14488301Y-14574747D02*
X14526396Y-14574747D01*
X14526396Y-14574747D02*
X14545444Y-14565223D01*
X14545444Y-14565223D02*
X14554968Y-14555700D01*
X14554968Y-14555700D02*
X14564491Y-14536652D01*
X14564491Y-14536652D02*
X14564491Y-14489033D01*
X14564491Y-14489033D02*
X14554968Y-14469985D01*
X14554968Y-14469985D02*
X14545444Y-14460461D01*
X14545444Y-14460461D02*
X14526396Y-14450938D01*
X14526396Y-14450938D02*
X14488301Y-14450938D01*
X14488301Y-14450938D02*
X14469253Y-14460461D01*
X14469253Y-14460461D02*
X14459729Y-14469985D01*
X14459729Y-14469985D02*
X14450206Y-14489033D01*
X14802587Y-14574747D02*
X14802587Y-14374747D01*
X14888301Y-14574747D02*
X14888301Y-14469985D01*
X14888301Y-14469985D02*
X14878777Y-14450938D01*
X14878777Y-14450938D02*
X14859730Y-14441414D01*
X14859730Y-14441414D02*
X14831158Y-14441414D01*
X14831158Y-14441414D02*
X14812110Y-14450938D01*
X14812110Y-14450938D02*
X14802587Y-14460461D01*
X15012110Y-14574747D02*
X14993063Y-14565223D01*
X14993063Y-14565223D02*
X14983539Y-14555700D01*
X14983539Y-14555700D02*
X14974015Y-14536652D01*
X14974015Y-14536652D02*
X14974015Y-14479509D01*
X14974015Y-14479509D02*
X14983539Y-14460461D01*
X14983539Y-14460461D02*
X14993063Y-14450938D01*
X14993063Y-14450938D02*
X15012110Y-14441414D01*
X15012110Y-14441414D02*
X15040682Y-14441414D01*
X15040682Y-14441414D02*
X15059730Y-14450938D01*
X15059730Y-14450938D02*
X15069253Y-14460461D01*
X15069253Y-14460461D02*
X15078777Y-14479509D01*
X15078777Y-14479509D02*
X15078777Y-14536652D01*
X15078777Y-14536652D02*
X15069253Y-14555700D01*
X15069253Y-14555700D02*
X15059730Y-14565223D01*
X15059730Y-14565223D02*
X15040682Y-14574747D01*
X15040682Y-14574747D02*
X15012110Y-14574747D01*
X15193063Y-14574747D02*
X15174015Y-14565223D01*
X15174015Y-14565223D02*
X15164491Y-14546176D01*
X15164491Y-14546176D02*
X15164491Y-14374747D01*
X15345444Y-14565223D02*
X15326396Y-14574747D01*
X15326396Y-14574747D02*
X15288301Y-14574747D01*
X15288301Y-14574747D02*
X15269253Y-14565223D01*
X15269253Y-14565223D02*
X15259730Y-14546176D01*
X15259730Y-14546176D02*
X15259730Y-14469985D01*
X15259730Y-14469985D02*
X15269253Y-14450938D01*
X15269253Y-14450938D02*
X15288301Y-14441414D01*
X15288301Y-14441414D02*
X15326396Y-14441414D01*
X15326396Y-14441414D02*
X15345444Y-14450938D01*
X15345444Y-14450938D02*
X15354968Y-14469985D01*
X15354968Y-14469985D02*
X15354968Y-14489033D01*
X15354968Y-14489033D02*
X15259730Y-14508081D01*
X15431158Y-14565223D02*
X15450206Y-14574747D01*
X15450206Y-14574747D02*
X15488301Y-14574747D01*
X15488301Y-14574747D02*
X15507349Y-14565223D01*
X15507349Y-14565223D02*
X15516872Y-14546176D01*
X15516872Y-14546176D02*
X15516872Y-14536652D01*
X15516872Y-14536652D02*
X15507349Y-14517604D01*
X15507349Y-14517604D02*
X15488301Y-14508081D01*
X15488301Y-14508081D02*
X15459730Y-14508081D01*
X15459730Y-14508081D02*
X15440682Y-14498557D01*
X15440682Y-14498557D02*
X15431158Y-14479509D01*
X15431158Y-14479509D02*
X15431158Y-14469985D01*
X15431158Y-14469985D02*
X15440682Y-14450938D01*
X15440682Y-14450938D02*
X15459730Y-14441414D01*
X15459730Y-14441414D02*
X15488301Y-14441414D01*
X15488301Y-14441414D02*
X15507349Y-14450938D01*
X15583539Y-14650938D02*
X15593063Y-14641414D01*
X15593063Y-14641414D02*
X15612111Y-14612842D01*
X15612111Y-14612842D02*
X15621634Y-14593795D01*
X15621634Y-14593795D02*
X15631158Y-14565223D01*
X15631158Y-14565223D02*
X15640682Y-14517604D01*
X15640682Y-14517604D02*
X15640682Y-14479509D01*
X15640682Y-14479509D02*
X15631158Y-14431890D01*
X15631158Y-14431890D02*
X15621634Y-14403319D01*
X15621634Y-14403319D02*
X15612111Y-14384271D01*
X15612111Y-14384271D02*
X15593063Y-14355700D01*
X15593063Y-14355700D02*
X15583539Y-14346176D01*
M02*
