%TF.GenerationSoftware,KiCad,Pcbnew,7.0.8*%
%TF.CreationDate,2023-12-31T22:13:15+00:00*%
%TF.ProjectId,pce-gt-controller,7063652d-6774-42d6-936f-6e74726f6c6c,rev?*%
%TF.SameCoordinates,Original*%
%TF.FileFunction,Legend,Top*%
%TF.FilePolarity,Positive*%
%FSLAX46Y46*%
G04 Gerber Fmt 4.6, Leading zero omitted, Abs format (unit mm)*
G04 Created by KiCad (PCBNEW 7.0.8) date 2023-12-31 22:13:15*
%MOMM*%
%LPD*%
G01*
G04 APERTURE LIST*
%ADD10C,0.150000*%
%ADD11C,0.250000*%
%ADD12C,0.353029*%
%ADD13C,0.320000*%
%ADD14C,0.260000*%
%ADD15C,0.300000*%
%ADD16C,0.400000*%
G04 APERTURE END LIST*
D10*
X156400000Y-108660000D02*
X183330000Y-108660000D01*
X183330000Y-110580000D01*
X156400000Y-110580000D01*
X156400000Y-108660000D01*
G36*
X156400000Y-108660000D02*
G01*
X183330000Y-108660000D01*
X183330000Y-110580000D01*
X156400000Y-110580000D01*
X156400000Y-108660000D01*
G37*
X127290000Y-108660000D02*
X154220000Y-108660000D01*
X154220000Y-110580000D01*
X127290000Y-110580000D01*
X127290000Y-108660000D01*
G36*
X127290000Y-108660000D02*
G01*
X154220000Y-108660000D01*
X154220000Y-110580000D01*
X127290000Y-110580000D01*
X127290000Y-108660000D01*
G37*
D11*
X154820000Y-99320000D02*
X154820000Y-98230000D01*
D10*
X127310000Y-100040000D02*
X154240000Y-100040000D01*
X154240000Y-101960000D01*
X127310000Y-101960000D01*
X127310000Y-100040000D01*
G36*
X127310000Y-100040000D02*
G01*
X154240000Y-100040000D01*
X154240000Y-101960000D01*
X127310000Y-101960000D01*
X127310000Y-100040000D01*
G37*
D11*
X149770000Y-99315000D02*
X149770000Y-98225000D01*
X144390000Y-99320000D02*
X154820000Y-99320000D01*
D10*
X156400000Y-100040000D02*
X183330000Y-100040000D01*
X183330000Y-101960000D01*
X156400000Y-101960000D01*
X156400000Y-100040000D01*
G36*
X156400000Y-100040000D02*
G01*
X183330000Y-100040000D01*
X183330000Y-101960000D01*
X156400000Y-101960000D01*
X156400000Y-100040000D01*
G37*
D11*
X152340000Y-99315000D02*
X152340000Y-98225000D01*
D12*
X155286514Y-79960000D02*
G75*
G03*
X155286514Y-79960000I-176514J0D01*
G01*
D13*
X112808026Y-105488521D02*
X112808026Y-104269474D01*
X112960407Y-103583760D02*
X112960407Y-102821855D01*
X113417550Y-103736141D02*
X111817550Y-103202807D01*
X111817550Y-103202807D02*
X113417550Y-102669474D01*
X112808026Y-102136140D02*
X112808026Y-100917093D01*
X109017550Y-109770902D02*
X109017550Y-108704235D01*
X109017550Y-108704235D02*
X110617550Y-109389950D01*
X109017550Y-107408997D02*
X109017550Y-107713759D01*
X109017550Y-107713759D02*
X109093740Y-107866140D01*
X109093740Y-107866140D02*
X109169931Y-107942330D01*
X109169931Y-107942330D02*
X109398502Y-108094711D01*
X109398502Y-108094711D02*
X109703264Y-108170902D01*
X109703264Y-108170902D02*
X110312788Y-108170902D01*
X110312788Y-108170902D02*
X110465169Y-108094711D01*
X110465169Y-108094711D02*
X110541360Y-108018521D01*
X110541360Y-108018521D02*
X110617550Y-107866140D01*
X110617550Y-107866140D02*
X110617550Y-107561378D01*
X110617550Y-107561378D02*
X110541360Y-107408997D01*
X110541360Y-107408997D02*
X110465169Y-107332806D01*
X110465169Y-107332806D02*
X110312788Y-107256616D01*
X110312788Y-107256616D02*
X109931836Y-107256616D01*
X109931836Y-107256616D02*
X109779455Y-107332806D01*
X109779455Y-107332806D02*
X109703264Y-107408997D01*
X109703264Y-107408997D02*
X109627074Y-107561378D01*
X109627074Y-107561378D02*
X109627074Y-107866140D01*
X109627074Y-107866140D02*
X109703264Y-108018521D01*
X109703264Y-108018521D02*
X109779455Y-108094711D01*
X109779455Y-108094711D02*
X109931836Y-108170902D01*
X110617550Y-105732806D02*
X110617550Y-106647092D01*
X110617550Y-106189949D02*
X109017550Y-106189949D01*
X109017550Y-106189949D02*
X109246121Y-106342330D01*
X109246121Y-106342330D02*
X109398502Y-106494711D01*
X109398502Y-106494711D02*
X109474693Y-106647092D01*
X109017550Y-104742329D02*
X109017550Y-104589948D01*
X109017550Y-104589948D02*
X109093740Y-104437567D01*
X109093740Y-104437567D02*
X109169931Y-104361377D01*
X109169931Y-104361377D02*
X109322312Y-104285186D01*
X109322312Y-104285186D02*
X109627074Y-104208996D01*
X109627074Y-104208996D02*
X110008026Y-104208996D01*
X110008026Y-104208996D02*
X110312788Y-104285186D01*
X110312788Y-104285186D02*
X110465169Y-104361377D01*
X110465169Y-104361377D02*
X110541360Y-104437567D01*
X110541360Y-104437567D02*
X110617550Y-104589948D01*
X110617550Y-104589948D02*
X110617550Y-104742329D01*
X110617550Y-104742329D02*
X110541360Y-104894710D01*
X110541360Y-104894710D02*
X110465169Y-104970901D01*
X110465169Y-104970901D02*
X110312788Y-105047091D01*
X110312788Y-105047091D02*
X110008026Y-105123282D01*
X110008026Y-105123282D02*
X109627074Y-105123282D01*
X109627074Y-105123282D02*
X109322312Y-105047091D01*
X109322312Y-105047091D02*
X109169931Y-104970901D01*
X109169931Y-104970901D02*
X109093740Y-104894710D01*
X109093740Y-104894710D02*
X109017550Y-104742329D01*
X109017550Y-101999471D02*
X109017550Y-101847090D01*
X109017550Y-101847090D02*
X109093740Y-101694709D01*
X109093740Y-101694709D02*
X109169931Y-101618519D01*
X109169931Y-101618519D02*
X109322312Y-101542328D01*
X109322312Y-101542328D02*
X109627074Y-101466138D01*
X109627074Y-101466138D02*
X110008026Y-101466138D01*
X110008026Y-101466138D02*
X110312788Y-101542328D01*
X110312788Y-101542328D02*
X110465169Y-101618519D01*
X110465169Y-101618519D02*
X110541360Y-101694709D01*
X110541360Y-101694709D02*
X110617550Y-101847090D01*
X110617550Y-101847090D02*
X110617550Y-101999471D01*
X110617550Y-101999471D02*
X110541360Y-102151852D01*
X110541360Y-102151852D02*
X110465169Y-102228043D01*
X110465169Y-102228043D02*
X110312788Y-102304233D01*
X110312788Y-102304233D02*
X110008026Y-102380424D01*
X110008026Y-102380424D02*
X109627074Y-102380424D01*
X109627074Y-102380424D02*
X109322312Y-102304233D01*
X109322312Y-102304233D02*
X109169931Y-102228043D01*
X109169931Y-102228043D02*
X109093740Y-102151852D01*
X109093740Y-102151852D02*
X109017550Y-101999471D01*
X109017550Y-100094709D02*
X109017550Y-100399471D01*
X109017550Y-100399471D02*
X109093740Y-100551852D01*
X109093740Y-100551852D02*
X109169931Y-100628042D01*
X109169931Y-100628042D02*
X109398502Y-100780423D01*
X109398502Y-100780423D02*
X109703264Y-100856614D01*
X109703264Y-100856614D02*
X110312788Y-100856614D01*
X110312788Y-100856614D02*
X110465169Y-100780423D01*
X110465169Y-100780423D02*
X110541360Y-100704233D01*
X110541360Y-100704233D02*
X110617550Y-100551852D01*
X110617550Y-100551852D02*
X110617550Y-100247090D01*
X110617550Y-100247090D02*
X110541360Y-100094709D01*
X110541360Y-100094709D02*
X110465169Y-100018518D01*
X110465169Y-100018518D02*
X110312788Y-99942328D01*
X110312788Y-99942328D02*
X109931836Y-99942328D01*
X109931836Y-99942328D02*
X109779455Y-100018518D01*
X109779455Y-100018518D02*
X109703264Y-100094709D01*
X109703264Y-100094709D02*
X109627074Y-100247090D01*
X109627074Y-100247090D02*
X109627074Y-100551852D01*
X109627074Y-100551852D02*
X109703264Y-100704233D01*
X109703264Y-100704233D02*
X109779455Y-100780423D01*
X109779455Y-100780423D02*
X109931836Y-100856614D01*
X109550883Y-98570899D02*
X110617550Y-98570899D01*
X108941360Y-98951851D02*
X110084217Y-99332804D01*
X110084217Y-99332804D02*
X110084217Y-98342327D01*
X110617550Y-96894708D02*
X110617550Y-97808994D01*
X110617550Y-97351851D02*
X109017550Y-97351851D01*
X109017550Y-97351851D02*
X109246121Y-97504232D01*
X109246121Y-97504232D02*
X109398502Y-97656613D01*
X109398502Y-97656613D02*
X109474693Y-97808994D01*
D14*
X140477884Y-98154761D02*
X139858837Y-98588094D01*
X140477884Y-98897618D02*
X139177884Y-98897618D01*
X139177884Y-98897618D02*
X139177884Y-98402380D01*
X139177884Y-98402380D02*
X139239789Y-98278570D01*
X139239789Y-98278570D02*
X139301694Y-98216665D01*
X139301694Y-98216665D02*
X139425503Y-98154761D01*
X139425503Y-98154761D02*
X139611218Y-98154761D01*
X139611218Y-98154761D02*
X139735027Y-98216665D01*
X139735027Y-98216665D02*
X139796932Y-98278570D01*
X139796932Y-98278570D02*
X139858837Y-98402380D01*
X139858837Y-98402380D02*
X139858837Y-98897618D01*
X139735027Y-97411903D02*
X139673122Y-97535713D01*
X139673122Y-97535713D02*
X139611218Y-97597618D01*
X139611218Y-97597618D02*
X139487408Y-97659522D01*
X139487408Y-97659522D02*
X139425503Y-97659522D01*
X139425503Y-97659522D02*
X139301694Y-97597618D01*
X139301694Y-97597618D02*
X139239789Y-97535713D01*
X139239789Y-97535713D02*
X139177884Y-97411903D01*
X139177884Y-97411903D02*
X139177884Y-97164284D01*
X139177884Y-97164284D02*
X139239789Y-97040475D01*
X139239789Y-97040475D02*
X139301694Y-96978570D01*
X139301694Y-96978570D02*
X139425503Y-96916665D01*
X139425503Y-96916665D02*
X139487408Y-96916665D01*
X139487408Y-96916665D02*
X139611218Y-96978570D01*
X139611218Y-96978570D02*
X139673122Y-97040475D01*
X139673122Y-97040475D02*
X139735027Y-97164284D01*
X139735027Y-97164284D02*
X139735027Y-97411903D01*
X139735027Y-97411903D02*
X139796932Y-97535713D01*
X139796932Y-97535713D02*
X139858837Y-97597618D01*
X139858837Y-97597618D02*
X139982646Y-97659522D01*
X139982646Y-97659522D02*
X140230265Y-97659522D01*
X140230265Y-97659522D02*
X140354075Y-97597618D01*
X140354075Y-97597618D02*
X140415980Y-97535713D01*
X140415980Y-97535713D02*
X140477884Y-97411903D01*
X140477884Y-97411903D02*
X140477884Y-97164284D01*
X140477884Y-97164284D02*
X140415980Y-97040475D01*
X140415980Y-97040475D02*
X140354075Y-96978570D01*
X140354075Y-96978570D02*
X140230265Y-96916665D01*
X140230265Y-96916665D02*
X139982646Y-96916665D01*
X139982646Y-96916665D02*
X139858837Y-96978570D01*
X139858837Y-96978570D02*
X139796932Y-97040475D01*
X139796932Y-97040475D02*
X139735027Y-97164284D01*
X139177884Y-96111904D02*
X139177884Y-95988094D01*
X139177884Y-95988094D02*
X139239789Y-95864285D01*
X139239789Y-95864285D02*
X139301694Y-95802380D01*
X139301694Y-95802380D02*
X139425503Y-95740475D01*
X139425503Y-95740475D02*
X139673122Y-95678570D01*
X139673122Y-95678570D02*
X139982646Y-95678570D01*
X139982646Y-95678570D02*
X140230265Y-95740475D01*
X140230265Y-95740475D02*
X140354075Y-95802380D01*
X140354075Y-95802380D02*
X140415980Y-95864285D01*
X140415980Y-95864285D02*
X140477884Y-95988094D01*
X140477884Y-95988094D02*
X140477884Y-96111904D01*
X140477884Y-96111904D02*
X140415980Y-96235713D01*
X140415980Y-96235713D02*
X140354075Y-96297618D01*
X140354075Y-96297618D02*
X140230265Y-96359523D01*
X140230265Y-96359523D02*
X139982646Y-96421427D01*
X139982646Y-96421427D02*
X139673122Y-96421427D01*
X139673122Y-96421427D02*
X139425503Y-96359523D01*
X139425503Y-96359523D02*
X139301694Y-96297618D01*
X139301694Y-96297618D02*
X139239789Y-96235713D01*
X139239789Y-96235713D02*
X139177884Y-96111904D01*
X139177884Y-94873809D02*
X139177884Y-94749999D01*
X139177884Y-94749999D02*
X139239789Y-94626190D01*
X139239789Y-94626190D02*
X139301694Y-94564285D01*
X139301694Y-94564285D02*
X139425503Y-94502380D01*
X139425503Y-94502380D02*
X139673122Y-94440475D01*
X139673122Y-94440475D02*
X139982646Y-94440475D01*
X139982646Y-94440475D02*
X140230265Y-94502380D01*
X140230265Y-94502380D02*
X140354075Y-94564285D01*
X140354075Y-94564285D02*
X140415980Y-94626190D01*
X140415980Y-94626190D02*
X140477884Y-94749999D01*
X140477884Y-94749999D02*
X140477884Y-94873809D01*
X140477884Y-94873809D02*
X140415980Y-94997618D01*
X140415980Y-94997618D02*
X140354075Y-95059523D01*
X140354075Y-95059523D02*
X140230265Y-95121428D01*
X140230265Y-95121428D02*
X139982646Y-95183332D01*
X139982646Y-95183332D02*
X139673122Y-95183332D01*
X139673122Y-95183332D02*
X139425503Y-95121428D01*
X139425503Y-95121428D02*
X139301694Y-95059523D01*
X139301694Y-95059523D02*
X139239789Y-94997618D01*
X139239789Y-94997618D02*
X139177884Y-94873809D01*
X160022381Y-99337884D02*
X160022381Y-98037884D01*
X160022381Y-98037884D02*
X160331905Y-98037884D01*
X160331905Y-98037884D02*
X160517619Y-98099789D01*
X160517619Y-98099789D02*
X160641429Y-98223599D01*
X160641429Y-98223599D02*
X160703334Y-98347408D01*
X160703334Y-98347408D02*
X160765238Y-98595027D01*
X160765238Y-98595027D02*
X160765238Y-98780741D01*
X160765238Y-98780741D02*
X160703334Y-99028360D01*
X160703334Y-99028360D02*
X160641429Y-99152170D01*
X160641429Y-99152170D02*
X160517619Y-99275980D01*
X160517619Y-99275980D02*
X160331905Y-99337884D01*
X160331905Y-99337884D02*
X160022381Y-99337884D01*
X161508096Y-98595027D02*
X161384286Y-98533122D01*
X161384286Y-98533122D02*
X161322381Y-98471218D01*
X161322381Y-98471218D02*
X161260477Y-98347408D01*
X161260477Y-98347408D02*
X161260477Y-98285503D01*
X161260477Y-98285503D02*
X161322381Y-98161694D01*
X161322381Y-98161694D02*
X161384286Y-98099789D01*
X161384286Y-98099789D02*
X161508096Y-98037884D01*
X161508096Y-98037884D02*
X161755715Y-98037884D01*
X161755715Y-98037884D02*
X161879524Y-98099789D01*
X161879524Y-98099789D02*
X161941429Y-98161694D01*
X161941429Y-98161694D02*
X162003334Y-98285503D01*
X162003334Y-98285503D02*
X162003334Y-98347408D01*
X162003334Y-98347408D02*
X161941429Y-98471218D01*
X161941429Y-98471218D02*
X161879524Y-98533122D01*
X161879524Y-98533122D02*
X161755715Y-98595027D01*
X161755715Y-98595027D02*
X161508096Y-98595027D01*
X161508096Y-98595027D02*
X161384286Y-98656932D01*
X161384286Y-98656932D02*
X161322381Y-98718837D01*
X161322381Y-98718837D02*
X161260477Y-98842646D01*
X161260477Y-98842646D02*
X161260477Y-99090265D01*
X161260477Y-99090265D02*
X161322381Y-99214075D01*
X161322381Y-99214075D02*
X161384286Y-99275980D01*
X161384286Y-99275980D02*
X161508096Y-99337884D01*
X161508096Y-99337884D02*
X161755715Y-99337884D01*
X161755715Y-99337884D02*
X161879524Y-99275980D01*
X161879524Y-99275980D02*
X161941429Y-99214075D01*
X161941429Y-99214075D02*
X162003334Y-99090265D01*
X162003334Y-99090265D02*
X162003334Y-98842646D01*
X162003334Y-98842646D02*
X161941429Y-98718837D01*
X161941429Y-98718837D02*
X161879524Y-98656932D01*
X161879524Y-98656932D02*
X161755715Y-98595027D01*
X162808095Y-98037884D02*
X162931905Y-98037884D01*
X162931905Y-98037884D02*
X163055714Y-98099789D01*
X163055714Y-98099789D02*
X163117619Y-98161694D01*
X163117619Y-98161694D02*
X163179524Y-98285503D01*
X163179524Y-98285503D02*
X163241429Y-98533122D01*
X163241429Y-98533122D02*
X163241429Y-98842646D01*
X163241429Y-98842646D02*
X163179524Y-99090265D01*
X163179524Y-99090265D02*
X163117619Y-99214075D01*
X163117619Y-99214075D02*
X163055714Y-99275980D01*
X163055714Y-99275980D02*
X162931905Y-99337884D01*
X162931905Y-99337884D02*
X162808095Y-99337884D01*
X162808095Y-99337884D02*
X162684286Y-99275980D01*
X162684286Y-99275980D02*
X162622381Y-99214075D01*
X162622381Y-99214075D02*
X162560476Y-99090265D01*
X162560476Y-99090265D02*
X162498572Y-98842646D01*
X162498572Y-98842646D02*
X162498572Y-98533122D01*
X162498572Y-98533122D02*
X162560476Y-98285503D01*
X162560476Y-98285503D02*
X162622381Y-98161694D01*
X162622381Y-98161694D02*
X162684286Y-98099789D01*
X162684286Y-98099789D02*
X162808095Y-98037884D01*
X163736667Y-98161694D02*
X163798571Y-98099789D01*
X163798571Y-98099789D02*
X163922381Y-98037884D01*
X163922381Y-98037884D02*
X164231905Y-98037884D01*
X164231905Y-98037884D02*
X164355714Y-98099789D01*
X164355714Y-98099789D02*
X164417619Y-98161694D01*
X164417619Y-98161694D02*
X164479524Y-98285503D01*
X164479524Y-98285503D02*
X164479524Y-98409313D01*
X164479524Y-98409313D02*
X164417619Y-98595027D01*
X164417619Y-98595027D02*
X163674762Y-99337884D01*
X163674762Y-99337884D02*
X164479524Y-99337884D01*
X179937884Y-119614761D02*
X179937884Y-120233809D01*
X179937884Y-120233809D02*
X178637884Y-120233809D01*
X179195027Y-118995713D02*
X179133122Y-119119523D01*
X179133122Y-119119523D02*
X179071218Y-119181428D01*
X179071218Y-119181428D02*
X178947408Y-119243332D01*
X178947408Y-119243332D02*
X178885503Y-119243332D01*
X178885503Y-119243332D02*
X178761694Y-119181428D01*
X178761694Y-119181428D02*
X178699789Y-119119523D01*
X178699789Y-119119523D02*
X178637884Y-118995713D01*
X178637884Y-118995713D02*
X178637884Y-118748094D01*
X178637884Y-118748094D02*
X178699789Y-118624285D01*
X178699789Y-118624285D02*
X178761694Y-118562380D01*
X178761694Y-118562380D02*
X178885503Y-118500475D01*
X178885503Y-118500475D02*
X178947408Y-118500475D01*
X178947408Y-118500475D02*
X179071218Y-118562380D01*
X179071218Y-118562380D02*
X179133122Y-118624285D01*
X179133122Y-118624285D02*
X179195027Y-118748094D01*
X179195027Y-118748094D02*
X179195027Y-118995713D01*
X179195027Y-118995713D02*
X179256932Y-119119523D01*
X179256932Y-119119523D02*
X179318837Y-119181428D01*
X179318837Y-119181428D02*
X179442646Y-119243332D01*
X179442646Y-119243332D02*
X179690265Y-119243332D01*
X179690265Y-119243332D02*
X179814075Y-119181428D01*
X179814075Y-119181428D02*
X179875980Y-119119523D01*
X179875980Y-119119523D02*
X179937884Y-118995713D01*
X179937884Y-118995713D02*
X179937884Y-118748094D01*
X179937884Y-118748094D02*
X179875980Y-118624285D01*
X179875980Y-118624285D02*
X179814075Y-118562380D01*
X179814075Y-118562380D02*
X179690265Y-118500475D01*
X179690265Y-118500475D02*
X179442646Y-118500475D01*
X179442646Y-118500475D02*
X179318837Y-118562380D01*
X179318837Y-118562380D02*
X179256932Y-118624285D01*
X179256932Y-118624285D02*
X179195027Y-118748094D01*
X178637884Y-117695714D02*
X178637884Y-117571904D01*
X178637884Y-117571904D02*
X178699789Y-117448095D01*
X178699789Y-117448095D02*
X178761694Y-117386190D01*
X178761694Y-117386190D02*
X178885503Y-117324285D01*
X178885503Y-117324285D02*
X179133122Y-117262380D01*
X179133122Y-117262380D02*
X179442646Y-117262380D01*
X179442646Y-117262380D02*
X179690265Y-117324285D01*
X179690265Y-117324285D02*
X179814075Y-117386190D01*
X179814075Y-117386190D02*
X179875980Y-117448095D01*
X179875980Y-117448095D02*
X179937884Y-117571904D01*
X179937884Y-117571904D02*
X179937884Y-117695714D01*
X179937884Y-117695714D02*
X179875980Y-117819523D01*
X179875980Y-117819523D02*
X179814075Y-117881428D01*
X179814075Y-117881428D02*
X179690265Y-117943333D01*
X179690265Y-117943333D02*
X179442646Y-118005237D01*
X179442646Y-118005237D02*
X179133122Y-118005237D01*
X179133122Y-118005237D02*
X178885503Y-117943333D01*
X178885503Y-117943333D02*
X178761694Y-117881428D01*
X178761694Y-117881428D02*
X178699789Y-117819523D01*
X178699789Y-117819523D02*
X178637884Y-117695714D01*
X179071218Y-116148095D02*
X179937884Y-116148095D01*
X178575980Y-116457619D02*
X179504551Y-116767142D01*
X179504551Y-116767142D02*
X179504551Y-115962381D01*
X184654285Y-68704075D02*
X184592381Y-68765980D01*
X184592381Y-68765980D02*
X184406666Y-68827884D01*
X184406666Y-68827884D02*
X184282857Y-68827884D01*
X184282857Y-68827884D02*
X184097143Y-68765980D01*
X184097143Y-68765980D02*
X183973333Y-68642170D01*
X183973333Y-68642170D02*
X183911428Y-68518360D01*
X183911428Y-68518360D02*
X183849524Y-68270741D01*
X183849524Y-68270741D02*
X183849524Y-68085027D01*
X183849524Y-68085027D02*
X183911428Y-67837408D01*
X183911428Y-67837408D02*
X183973333Y-67713599D01*
X183973333Y-67713599D02*
X184097143Y-67589789D01*
X184097143Y-67589789D02*
X184282857Y-67527884D01*
X184282857Y-67527884D02*
X184406666Y-67527884D01*
X184406666Y-67527884D02*
X184592381Y-67589789D01*
X184592381Y-67589789D02*
X184654285Y-67651694D01*
X185211428Y-68827884D02*
X185211428Y-67527884D01*
X185211428Y-67527884D02*
X185954285Y-68827884D01*
X185954285Y-68827884D02*
X185954285Y-67527884D01*
X186759048Y-68085027D02*
X186635238Y-68023122D01*
X186635238Y-68023122D02*
X186573333Y-67961218D01*
X186573333Y-67961218D02*
X186511429Y-67837408D01*
X186511429Y-67837408D02*
X186511429Y-67775503D01*
X186511429Y-67775503D02*
X186573333Y-67651694D01*
X186573333Y-67651694D02*
X186635238Y-67589789D01*
X186635238Y-67589789D02*
X186759048Y-67527884D01*
X186759048Y-67527884D02*
X187006667Y-67527884D01*
X187006667Y-67527884D02*
X187130476Y-67589789D01*
X187130476Y-67589789D02*
X187192381Y-67651694D01*
X187192381Y-67651694D02*
X187254286Y-67775503D01*
X187254286Y-67775503D02*
X187254286Y-67837408D01*
X187254286Y-67837408D02*
X187192381Y-67961218D01*
X187192381Y-67961218D02*
X187130476Y-68023122D01*
X187130476Y-68023122D02*
X187006667Y-68085027D01*
X187006667Y-68085027D02*
X186759048Y-68085027D01*
X186759048Y-68085027D02*
X186635238Y-68146932D01*
X186635238Y-68146932D02*
X186573333Y-68208837D01*
X186573333Y-68208837D02*
X186511429Y-68332646D01*
X186511429Y-68332646D02*
X186511429Y-68580265D01*
X186511429Y-68580265D02*
X186573333Y-68704075D01*
X186573333Y-68704075D02*
X186635238Y-68765980D01*
X186635238Y-68765980D02*
X186759048Y-68827884D01*
X186759048Y-68827884D02*
X187006667Y-68827884D01*
X187006667Y-68827884D02*
X187130476Y-68765980D01*
X187130476Y-68765980D02*
X187192381Y-68704075D01*
X187192381Y-68704075D02*
X187254286Y-68580265D01*
X187254286Y-68580265D02*
X187254286Y-68332646D01*
X187254286Y-68332646D02*
X187192381Y-68208837D01*
X187192381Y-68208837D02*
X187130476Y-68146932D01*
X187130476Y-68146932D02*
X187006667Y-68085027D01*
X188059047Y-67527884D02*
X188182857Y-67527884D01*
X188182857Y-67527884D02*
X188306666Y-67589789D01*
X188306666Y-67589789D02*
X188368571Y-67651694D01*
X188368571Y-67651694D02*
X188430476Y-67775503D01*
X188430476Y-67775503D02*
X188492381Y-68023122D01*
X188492381Y-68023122D02*
X188492381Y-68332646D01*
X188492381Y-68332646D02*
X188430476Y-68580265D01*
X188430476Y-68580265D02*
X188368571Y-68704075D01*
X188368571Y-68704075D02*
X188306666Y-68765980D01*
X188306666Y-68765980D02*
X188182857Y-68827884D01*
X188182857Y-68827884D02*
X188059047Y-68827884D01*
X188059047Y-68827884D02*
X187935238Y-68765980D01*
X187935238Y-68765980D02*
X187873333Y-68704075D01*
X187873333Y-68704075D02*
X187811428Y-68580265D01*
X187811428Y-68580265D02*
X187749524Y-68332646D01*
X187749524Y-68332646D02*
X187749524Y-68023122D01*
X187749524Y-68023122D02*
X187811428Y-67775503D01*
X187811428Y-67775503D02*
X187873333Y-67651694D01*
X187873333Y-67651694D02*
X187935238Y-67589789D01*
X187935238Y-67589789D02*
X188059047Y-67527884D01*
X189297142Y-67527884D02*
X189420952Y-67527884D01*
X189420952Y-67527884D02*
X189544761Y-67589789D01*
X189544761Y-67589789D02*
X189606666Y-67651694D01*
X189606666Y-67651694D02*
X189668571Y-67775503D01*
X189668571Y-67775503D02*
X189730476Y-68023122D01*
X189730476Y-68023122D02*
X189730476Y-68332646D01*
X189730476Y-68332646D02*
X189668571Y-68580265D01*
X189668571Y-68580265D02*
X189606666Y-68704075D01*
X189606666Y-68704075D02*
X189544761Y-68765980D01*
X189544761Y-68765980D02*
X189420952Y-68827884D01*
X189420952Y-68827884D02*
X189297142Y-68827884D01*
X189297142Y-68827884D02*
X189173333Y-68765980D01*
X189173333Y-68765980D02*
X189111428Y-68704075D01*
X189111428Y-68704075D02*
X189049523Y-68580265D01*
X189049523Y-68580265D02*
X188987619Y-68332646D01*
X188987619Y-68332646D02*
X188987619Y-68023122D01*
X188987619Y-68023122D02*
X189049523Y-67775503D01*
X189049523Y-67775503D02*
X189111428Y-67651694D01*
X189111428Y-67651694D02*
X189173333Y-67589789D01*
X189173333Y-67589789D02*
X189297142Y-67527884D01*
X177011528Y-66317384D02*
X176268671Y-66317384D01*
X176640099Y-66317384D02*
X176640099Y-65017384D01*
X176640099Y-65017384D02*
X176516290Y-65203099D01*
X176516290Y-65203099D02*
X176392480Y-65326908D01*
X176392480Y-65326908D02*
X176268671Y-65388813D01*
X177506766Y-65141194D02*
X177568670Y-65079289D01*
X177568670Y-65079289D02*
X177692480Y-65017384D01*
X177692480Y-65017384D02*
X178002004Y-65017384D01*
X178002004Y-65017384D02*
X178125813Y-65079289D01*
X178125813Y-65079289D02*
X178187718Y-65141194D01*
X178187718Y-65141194D02*
X178249623Y-65265003D01*
X178249623Y-65265003D02*
X178249623Y-65388813D01*
X178249623Y-65388813D02*
X178187718Y-65574527D01*
X178187718Y-65574527D02*
X177444861Y-66317384D01*
X177444861Y-66317384D02*
X178249623Y-66317384D01*
X195101528Y-66247384D02*
X194358671Y-66247384D01*
X194730099Y-66247384D02*
X194730099Y-64947384D01*
X194730099Y-64947384D02*
X194606290Y-65133099D01*
X194606290Y-65133099D02*
X194482480Y-65256908D01*
X194482480Y-65256908D02*
X194358671Y-65318813D01*
X166615238Y-99237884D02*
X166181905Y-98618837D01*
X165872381Y-99237884D02*
X165872381Y-97937884D01*
X165872381Y-97937884D02*
X166367619Y-97937884D01*
X166367619Y-97937884D02*
X166491429Y-97999789D01*
X166491429Y-97999789D02*
X166553334Y-98061694D01*
X166553334Y-98061694D02*
X166615238Y-98185503D01*
X166615238Y-98185503D02*
X166615238Y-98371218D01*
X166615238Y-98371218D02*
X166553334Y-98495027D01*
X166553334Y-98495027D02*
X166491429Y-98556932D01*
X166491429Y-98556932D02*
X166367619Y-98618837D01*
X166367619Y-98618837D02*
X165872381Y-98618837D01*
X167358096Y-98495027D02*
X167234286Y-98433122D01*
X167234286Y-98433122D02*
X167172381Y-98371218D01*
X167172381Y-98371218D02*
X167110477Y-98247408D01*
X167110477Y-98247408D02*
X167110477Y-98185503D01*
X167110477Y-98185503D02*
X167172381Y-98061694D01*
X167172381Y-98061694D02*
X167234286Y-97999789D01*
X167234286Y-97999789D02*
X167358096Y-97937884D01*
X167358096Y-97937884D02*
X167605715Y-97937884D01*
X167605715Y-97937884D02*
X167729524Y-97999789D01*
X167729524Y-97999789D02*
X167791429Y-98061694D01*
X167791429Y-98061694D02*
X167853334Y-98185503D01*
X167853334Y-98185503D02*
X167853334Y-98247408D01*
X167853334Y-98247408D02*
X167791429Y-98371218D01*
X167791429Y-98371218D02*
X167729524Y-98433122D01*
X167729524Y-98433122D02*
X167605715Y-98495027D01*
X167605715Y-98495027D02*
X167358096Y-98495027D01*
X167358096Y-98495027D02*
X167234286Y-98556932D01*
X167234286Y-98556932D02*
X167172381Y-98618837D01*
X167172381Y-98618837D02*
X167110477Y-98742646D01*
X167110477Y-98742646D02*
X167110477Y-98990265D01*
X167110477Y-98990265D02*
X167172381Y-99114075D01*
X167172381Y-99114075D02*
X167234286Y-99175980D01*
X167234286Y-99175980D02*
X167358096Y-99237884D01*
X167358096Y-99237884D02*
X167605715Y-99237884D01*
X167605715Y-99237884D02*
X167729524Y-99175980D01*
X167729524Y-99175980D02*
X167791429Y-99114075D01*
X167791429Y-99114075D02*
X167853334Y-98990265D01*
X167853334Y-98990265D02*
X167853334Y-98742646D01*
X167853334Y-98742646D02*
X167791429Y-98618837D01*
X167791429Y-98618837D02*
X167729524Y-98556932D01*
X167729524Y-98556932D02*
X167605715Y-98495027D01*
X168658095Y-97937884D02*
X168781905Y-97937884D01*
X168781905Y-97937884D02*
X168905714Y-97999789D01*
X168905714Y-97999789D02*
X168967619Y-98061694D01*
X168967619Y-98061694D02*
X169029524Y-98185503D01*
X169029524Y-98185503D02*
X169091429Y-98433122D01*
X169091429Y-98433122D02*
X169091429Y-98742646D01*
X169091429Y-98742646D02*
X169029524Y-98990265D01*
X169029524Y-98990265D02*
X168967619Y-99114075D01*
X168967619Y-99114075D02*
X168905714Y-99175980D01*
X168905714Y-99175980D02*
X168781905Y-99237884D01*
X168781905Y-99237884D02*
X168658095Y-99237884D01*
X168658095Y-99237884D02*
X168534286Y-99175980D01*
X168534286Y-99175980D02*
X168472381Y-99114075D01*
X168472381Y-99114075D02*
X168410476Y-98990265D01*
X168410476Y-98990265D02*
X168348572Y-98742646D01*
X168348572Y-98742646D02*
X168348572Y-98433122D01*
X168348572Y-98433122D02*
X168410476Y-98185503D01*
X168410476Y-98185503D02*
X168472381Y-98061694D01*
X168472381Y-98061694D02*
X168534286Y-97999789D01*
X168534286Y-97999789D02*
X168658095Y-97937884D01*
X170205714Y-98371218D02*
X170205714Y-99237884D01*
X169896190Y-97875980D02*
X169586667Y-98804551D01*
X169586667Y-98804551D02*
X170391428Y-98804551D01*
X172597884Y-119764761D02*
X172597884Y-120383809D01*
X172597884Y-120383809D02*
X171297884Y-120383809D01*
X171855027Y-119145713D02*
X171793122Y-119269523D01*
X171793122Y-119269523D02*
X171731218Y-119331428D01*
X171731218Y-119331428D02*
X171607408Y-119393332D01*
X171607408Y-119393332D02*
X171545503Y-119393332D01*
X171545503Y-119393332D02*
X171421694Y-119331428D01*
X171421694Y-119331428D02*
X171359789Y-119269523D01*
X171359789Y-119269523D02*
X171297884Y-119145713D01*
X171297884Y-119145713D02*
X171297884Y-118898094D01*
X171297884Y-118898094D02*
X171359789Y-118774285D01*
X171359789Y-118774285D02*
X171421694Y-118712380D01*
X171421694Y-118712380D02*
X171545503Y-118650475D01*
X171545503Y-118650475D02*
X171607408Y-118650475D01*
X171607408Y-118650475D02*
X171731218Y-118712380D01*
X171731218Y-118712380D02*
X171793122Y-118774285D01*
X171793122Y-118774285D02*
X171855027Y-118898094D01*
X171855027Y-118898094D02*
X171855027Y-119145713D01*
X171855027Y-119145713D02*
X171916932Y-119269523D01*
X171916932Y-119269523D02*
X171978837Y-119331428D01*
X171978837Y-119331428D02*
X172102646Y-119393332D01*
X172102646Y-119393332D02*
X172350265Y-119393332D01*
X172350265Y-119393332D02*
X172474075Y-119331428D01*
X172474075Y-119331428D02*
X172535980Y-119269523D01*
X172535980Y-119269523D02*
X172597884Y-119145713D01*
X172597884Y-119145713D02*
X172597884Y-118898094D01*
X172597884Y-118898094D02*
X172535980Y-118774285D01*
X172535980Y-118774285D02*
X172474075Y-118712380D01*
X172474075Y-118712380D02*
X172350265Y-118650475D01*
X172350265Y-118650475D02*
X172102646Y-118650475D01*
X172102646Y-118650475D02*
X171978837Y-118712380D01*
X171978837Y-118712380D02*
X171916932Y-118774285D01*
X171916932Y-118774285D02*
X171855027Y-118898094D01*
X171297884Y-117845714D02*
X171297884Y-117721904D01*
X171297884Y-117721904D02*
X171359789Y-117598095D01*
X171359789Y-117598095D02*
X171421694Y-117536190D01*
X171421694Y-117536190D02*
X171545503Y-117474285D01*
X171545503Y-117474285D02*
X171793122Y-117412380D01*
X171793122Y-117412380D02*
X172102646Y-117412380D01*
X172102646Y-117412380D02*
X172350265Y-117474285D01*
X172350265Y-117474285D02*
X172474075Y-117536190D01*
X172474075Y-117536190D02*
X172535980Y-117598095D01*
X172535980Y-117598095D02*
X172597884Y-117721904D01*
X172597884Y-117721904D02*
X172597884Y-117845714D01*
X172597884Y-117845714D02*
X172535980Y-117969523D01*
X172535980Y-117969523D02*
X172474075Y-118031428D01*
X172474075Y-118031428D02*
X172350265Y-118093333D01*
X172350265Y-118093333D02*
X172102646Y-118155237D01*
X172102646Y-118155237D02*
X171793122Y-118155237D01*
X171793122Y-118155237D02*
X171545503Y-118093333D01*
X171545503Y-118093333D02*
X171421694Y-118031428D01*
X171421694Y-118031428D02*
X171359789Y-117969523D01*
X171359789Y-117969523D02*
X171297884Y-117845714D01*
X171297884Y-116236190D02*
X171297884Y-116855238D01*
X171297884Y-116855238D02*
X171916932Y-116917142D01*
X171916932Y-116917142D02*
X171855027Y-116855238D01*
X171855027Y-116855238D02*
X171793122Y-116731428D01*
X171793122Y-116731428D02*
X171793122Y-116421904D01*
X171793122Y-116421904D02*
X171855027Y-116298095D01*
X171855027Y-116298095D02*
X171916932Y-116236190D01*
X171916932Y-116236190D02*
X172040741Y-116174285D01*
X172040741Y-116174285D02*
X172350265Y-116174285D01*
X172350265Y-116174285D02*
X172474075Y-116236190D01*
X172474075Y-116236190D02*
X172535980Y-116298095D01*
X172535980Y-116298095D02*
X172597884Y-116421904D01*
X172597884Y-116421904D02*
X172597884Y-116731428D01*
X172597884Y-116731428D02*
X172535980Y-116855238D01*
X172535980Y-116855238D02*
X172474075Y-116917142D01*
X145104075Y-98194761D02*
X145165980Y-98256665D01*
X145165980Y-98256665D02*
X145227884Y-98442380D01*
X145227884Y-98442380D02*
X145227884Y-98566189D01*
X145227884Y-98566189D02*
X145165980Y-98751903D01*
X145165980Y-98751903D02*
X145042170Y-98875713D01*
X145042170Y-98875713D02*
X144918360Y-98937618D01*
X144918360Y-98937618D02*
X144670741Y-98999522D01*
X144670741Y-98999522D02*
X144485027Y-98999522D01*
X144485027Y-98999522D02*
X144237408Y-98937618D01*
X144237408Y-98937618D02*
X144113599Y-98875713D01*
X144113599Y-98875713D02*
X143989789Y-98751903D01*
X143989789Y-98751903D02*
X143927884Y-98566189D01*
X143927884Y-98566189D02*
X143927884Y-98442380D01*
X143927884Y-98442380D02*
X143989789Y-98256665D01*
X143989789Y-98256665D02*
X144051694Y-98194761D01*
X144485027Y-97451903D02*
X144423122Y-97575713D01*
X144423122Y-97575713D02*
X144361218Y-97637618D01*
X144361218Y-97637618D02*
X144237408Y-97699522D01*
X144237408Y-97699522D02*
X144175503Y-97699522D01*
X144175503Y-97699522D02*
X144051694Y-97637618D01*
X144051694Y-97637618D02*
X143989789Y-97575713D01*
X143989789Y-97575713D02*
X143927884Y-97451903D01*
X143927884Y-97451903D02*
X143927884Y-97204284D01*
X143927884Y-97204284D02*
X143989789Y-97080475D01*
X143989789Y-97080475D02*
X144051694Y-97018570D01*
X144051694Y-97018570D02*
X144175503Y-96956665D01*
X144175503Y-96956665D02*
X144237408Y-96956665D01*
X144237408Y-96956665D02*
X144361218Y-97018570D01*
X144361218Y-97018570D02*
X144423122Y-97080475D01*
X144423122Y-97080475D02*
X144485027Y-97204284D01*
X144485027Y-97204284D02*
X144485027Y-97451903D01*
X144485027Y-97451903D02*
X144546932Y-97575713D01*
X144546932Y-97575713D02*
X144608837Y-97637618D01*
X144608837Y-97637618D02*
X144732646Y-97699522D01*
X144732646Y-97699522D02*
X144980265Y-97699522D01*
X144980265Y-97699522D02*
X145104075Y-97637618D01*
X145104075Y-97637618D02*
X145165980Y-97575713D01*
X145165980Y-97575713D02*
X145227884Y-97451903D01*
X145227884Y-97451903D02*
X145227884Y-97204284D01*
X145227884Y-97204284D02*
X145165980Y-97080475D01*
X145165980Y-97080475D02*
X145104075Y-97018570D01*
X145104075Y-97018570D02*
X144980265Y-96956665D01*
X144980265Y-96956665D02*
X144732646Y-96956665D01*
X144732646Y-96956665D02*
X144608837Y-97018570D01*
X144608837Y-97018570D02*
X144546932Y-97080475D01*
X144546932Y-97080475D02*
X144485027Y-97204284D01*
X143927884Y-96151904D02*
X143927884Y-96028094D01*
X143927884Y-96028094D02*
X143989789Y-95904285D01*
X143989789Y-95904285D02*
X144051694Y-95842380D01*
X144051694Y-95842380D02*
X144175503Y-95780475D01*
X144175503Y-95780475D02*
X144423122Y-95718570D01*
X144423122Y-95718570D02*
X144732646Y-95718570D01*
X144732646Y-95718570D02*
X144980265Y-95780475D01*
X144980265Y-95780475D02*
X145104075Y-95842380D01*
X145104075Y-95842380D02*
X145165980Y-95904285D01*
X145165980Y-95904285D02*
X145227884Y-96028094D01*
X145227884Y-96028094D02*
X145227884Y-96151904D01*
X145227884Y-96151904D02*
X145165980Y-96275713D01*
X145165980Y-96275713D02*
X145104075Y-96337618D01*
X145104075Y-96337618D02*
X144980265Y-96399523D01*
X144980265Y-96399523D02*
X144732646Y-96461427D01*
X144732646Y-96461427D02*
X144423122Y-96461427D01*
X144423122Y-96461427D02*
X144175503Y-96399523D01*
X144175503Y-96399523D02*
X144051694Y-96337618D01*
X144051694Y-96337618D02*
X143989789Y-96275713D01*
X143989789Y-96275713D02*
X143927884Y-96151904D01*
X145227884Y-94480475D02*
X145227884Y-95223332D01*
X145227884Y-94851904D02*
X143927884Y-94851904D01*
X143927884Y-94851904D02*
X144113599Y-94975713D01*
X144113599Y-94975713D02*
X144237408Y-95099523D01*
X144237408Y-95099523D02*
X144299313Y-95223332D01*
X135047884Y-123894761D02*
X135047884Y-124513809D01*
X135047884Y-124513809D02*
X133747884Y-124513809D01*
X134305027Y-123275713D02*
X134243122Y-123399523D01*
X134243122Y-123399523D02*
X134181218Y-123461428D01*
X134181218Y-123461428D02*
X134057408Y-123523332D01*
X134057408Y-123523332D02*
X133995503Y-123523332D01*
X133995503Y-123523332D02*
X133871694Y-123461428D01*
X133871694Y-123461428D02*
X133809789Y-123399523D01*
X133809789Y-123399523D02*
X133747884Y-123275713D01*
X133747884Y-123275713D02*
X133747884Y-123028094D01*
X133747884Y-123028094D02*
X133809789Y-122904285D01*
X133809789Y-122904285D02*
X133871694Y-122842380D01*
X133871694Y-122842380D02*
X133995503Y-122780475D01*
X133995503Y-122780475D02*
X134057408Y-122780475D01*
X134057408Y-122780475D02*
X134181218Y-122842380D01*
X134181218Y-122842380D02*
X134243122Y-122904285D01*
X134243122Y-122904285D02*
X134305027Y-123028094D01*
X134305027Y-123028094D02*
X134305027Y-123275713D01*
X134305027Y-123275713D02*
X134366932Y-123399523D01*
X134366932Y-123399523D02*
X134428837Y-123461428D01*
X134428837Y-123461428D02*
X134552646Y-123523332D01*
X134552646Y-123523332D02*
X134800265Y-123523332D01*
X134800265Y-123523332D02*
X134924075Y-123461428D01*
X134924075Y-123461428D02*
X134985980Y-123399523D01*
X134985980Y-123399523D02*
X135047884Y-123275713D01*
X135047884Y-123275713D02*
X135047884Y-123028094D01*
X135047884Y-123028094D02*
X134985980Y-122904285D01*
X134985980Y-122904285D02*
X134924075Y-122842380D01*
X134924075Y-122842380D02*
X134800265Y-122780475D01*
X134800265Y-122780475D02*
X134552646Y-122780475D01*
X134552646Y-122780475D02*
X134428837Y-122842380D01*
X134428837Y-122842380D02*
X134366932Y-122904285D01*
X134366932Y-122904285D02*
X134305027Y-123028094D01*
X133747884Y-121975714D02*
X133747884Y-121851904D01*
X133747884Y-121851904D02*
X133809789Y-121728095D01*
X133809789Y-121728095D02*
X133871694Y-121666190D01*
X133871694Y-121666190D02*
X133995503Y-121604285D01*
X133995503Y-121604285D02*
X134243122Y-121542380D01*
X134243122Y-121542380D02*
X134552646Y-121542380D01*
X134552646Y-121542380D02*
X134800265Y-121604285D01*
X134800265Y-121604285D02*
X134924075Y-121666190D01*
X134924075Y-121666190D02*
X134985980Y-121728095D01*
X134985980Y-121728095D02*
X135047884Y-121851904D01*
X135047884Y-121851904D02*
X135047884Y-121975714D01*
X135047884Y-121975714D02*
X134985980Y-122099523D01*
X134985980Y-122099523D02*
X134924075Y-122161428D01*
X134924075Y-122161428D02*
X134800265Y-122223333D01*
X134800265Y-122223333D02*
X134552646Y-122285237D01*
X134552646Y-122285237D02*
X134243122Y-122285237D01*
X134243122Y-122285237D02*
X133995503Y-122223333D01*
X133995503Y-122223333D02*
X133871694Y-122161428D01*
X133871694Y-122161428D02*
X133809789Y-122099523D01*
X133809789Y-122099523D02*
X133747884Y-121975714D01*
X133747884Y-121109047D02*
X133747884Y-120304285D01*
X133747884Y-120304285D02*
X134243122Y-120737619D01*
X134243122Y-120737619D02*
X134243122Y-120551904D01*
X134243122Y-120551904D02*
X134305027Y-120428095D01*
X134305027Y-120428095D02*
X134366932Y-120366190D01*
X134366932Y-120366190D02*
X134490741Y-120304285D01*
X134490741Y-120304285D02*
X134800265Y-120304285D01*
X134800265Y-120304285D02*
X134924075Y-120366190D01*
X134924075Y-120366190D02*
X134985980Y-120428095D01*
X134985980Y-120428095D02*
X135047884Y-120551904D01*
X135047884Y-120551904D02*
X135047884Y-120923333D01*
X135047884Y-120923333D02*
X134985980Y-121047142D01*
X134985980Y-121047142D02*
X134924075Y-121109047D01*
X179987884Y-125924761D02*
X179987884Y-126543809D01*
X179987884Y-126543809D02*
X178687884Y-126543809D01*
X179245027Y-125305713D02*
X179183122Y-125429523D01*
X179183122Y-125429523D02*
X179121218Y-125491428D01*
X179121218Y-125491428D02*
X178997408Y-125553332D01*
X178997408Y-125553332D02*
X178935503Y-125553332D01*
X178935503Y-125553332D02*
X178811694Y-125491428D01*
X178811694Y-125491428D02*
X178749789Y-125429523D01*
X178749789Y-125429523D02*
X178687884Y-125305713D01*
X178687884Y-125305713D02*
X178687884Y-125058094D01*
X178687884Y-125058094D02*
X178749789Y-124934285D01*
X178749789Y-124934285D02*
X178811694Y-124872380D01*
X178811694Y-124872380D02*
X178935503Y-124810475D01*
X178935503Y-124810475D02*
X178997408Y-124810475D01*
X178997408Y-124810475D02*
X179121218Y-124872380D01*
X179121218Y-124872380D02*
X179183122Y-124934285D01*
X179183122Y-124934285D02*
X179245027Y-125058094D01*
X179245027Y-125058094D02*
X179245027Y-125305713D01*
X179245027Y-125305713D02*
X179306932Y-125429523D01*
X179306932Y-125429523D02*
X179368837Y-125491428D01*
X179368837Y-125491428D02*
X179492646Y-125553332D01*
X179492646Y-125553332D02*
X179740265Y-125553332D01*
X179740265Y-125553332D02*
X179864075Y-125491428D01*
X179864075Y-125491428D02*
X179925980Y-125429523D01*
X179925980Y-125429523D02*
X179987884Y-125305713D01*
X179987884Y-125305713D02*
X179987884Y-125058094D01*
X179987884Y-125058094D02*
X179925980Y-124934285D01*
X179925980Y-124934285D02*
X179864075Y-124872380D01*
X179864075Y-124872380D02*
X179740265Y-124810475D01*
X179740265Y-124810475D02*
X179492646Y-124810475D01*
X179492646Y-124810475D02*
X179368837Y-124872380D01*
X179368837Y-124872380D02*
X179306932Y-124934285D01*
X179306932Y-124934285D02*
X179245027Y-125058094D01*
X178687884Y-124005714D02*
X178687884Y-123881904D01*
X178687884Y-123881904D02*
X178749789Y-123758095D01*
X178749789Y-123758095D02*
X178811694Y-123696190D01*
X178811694Y-123696190D02*
X178935503Y-123634285D01*
X178935503Y-123634285D02*
X179183122Y-123572380D01*
X179183122Y-123572380D02*
X179492646Y-123572380D01*
X179492646Y-123572380D02*
X179740265Y-123634285D01*
X179740265Y-123634285D02*
X179864075Y-123696190D01*
X179864075Y-123696190D02*
X179925980Y-123758095D01*
X179925980Y-123758095D02*
X179987884Y-123881904D01*
X179987884Y-123881904D02*
X179987884Y-124005714D01*
X179987884Y-124005714D02*
X179925980Y-124129523D01*
X179925980Y-124129523D02*
X179864075Y-124191428D01*
X179864075Y-124191428D02*
X179740265Y-124253333D01*
X179740265Y-124253333D02*
X179492646Y-124315237D01*
X179492646Y-124315237D02*
X179183122Y-124315237D01*
X179183122Y-124315237D02*
X178935503Y-124253333D01*
X178935503Y-124253333D02*
X178811694Y-124191428D01*
X178811694Y-124191428D02*
X178749789Y-124129523D01*
X178749789Y-124129523D02*
X178687884Y-124005714D01*
X178811694Y-123077142D02*
X178749789Y-123015238D01*
X178749789Y-123015238D02*
X178687884Y-122891428D01*
X178687884Y-122891428D02*
X178687884Y-122581904D01*
X178687884Y-122581904D02*
X178749789Y-122458095D01*
X178749789Y-122458095D02*
X178811694Y-122396190D01*
X178811694Y-122396190D02*
X178935503Y-122334285D01*
X178935503Y-122334285D02*
X179059313Y-122334285D01*
X179059313Y-122334285D02*
X179245027Y-122396190D01*
X179245027Y-122396190D02*
X179987884Y-123139047D01*
X179987884Y-123139047D02*
X179987884Y-122334285D01*
X135057884Y-130194761D02*
X135057884Y-130813809D01*
X135057884Y-130813809D02*
X133757884Y-130813809D01*
X134315027Y-129575713D02*
X134253122Y-129699523D01*
X134253122Y-129699523D02*
X134191218Y-129761428D01*
X134191218Y-129761428D02*
X134067408Y-129823332D01*
X134067408Y-129823332D02*
X134005503Y-129823332D01*
X134005503Y-129823332D02*
X133881694Y-129761428D01*
X133881694Y-129761428D02*
X133819789Y-129699523D01*
X133819789Y-129699523D02*
X133757884Y-129575713D01*
X133757884Y-129575713D02*
X133757884Y-129328094D01*
X133757884Y-129328094D02*
X133819789Y-129204285D01*
X133819789Y-129204285D02*
X133881694Y-129142380D01*
X133881694Y-129142380D02*
X134005503Y-129080475D01*
X134005503Y-129080475D02*
X134067408Y-129080475D01*
X134067408Y-129080475D02*
X134191218Y-129142380D01*
X134191218Y-129142380D02*
X134253122Y-129204285D01*
X134253122Y-129204285D02*
X134315027Y-129328094D01*
X134315027Y-129328094D02*
X134315027Y-129575713D01*
X134315027Y-129575713D02*
X134376932Y-129699523D01*
X134376932Y-129699523D02*
X134438837Y-129761428D01*
X134438837Y-129761428D02*
X134562646Y-129823332D01*
X134562646Y-129823332D02*
X134810265Y-129823332D01*
X134810265Y-129823332D02*
X134934075Y-129761428D01*
X134934075Y-129761428D02*
X134995980Y-129699523D01*
X134995980Y-129699523D02*
X135057884Y-129575713D01*
X135057884Y-129575713D02*
X135057884Y-129328094D01*
X135057884Y-129328094D02*
X134995980Y-129204285D01*
X134995980Y-129204285D02*
X134934075Y-129142380D01*
X134934075Y-129142380D02*
X134810265Y-129080475D01*
X134810265Y-129080475D02*
X134562646Y-129080475D01*
X134562646Y-129080475D02*
X134438837Y-129142380D01*
X134438837Y-129142380D02*
X134376932Y-129204285D01*
X134376932Y-129204285D02*
X134315027Y-129328094D01*
X133757884Y-128275714D02*
X133757884Y-128151904D01*
X133757884Y-128151904D02*
X133819789Y-128028095D01*
X133819789Y-128028095D02*
X133881694Y-127966190D01*
X133881694Y-127966190D02*
X134005503Y-127904285D01*
X134005503Y-127904285D02*
X134253122Y-127842380D01*
X134253122Y-127842380D02*
X134562646Y-127842380D01*
X134562646Y-127842380D02*
X134810265Y-127904285D01*
X134810265Y-127904285D02*
X134934075Y-127966190D01*
X134934075Y-127966190D02*
X134995980Y-128028095D01*
X134995980Y-128028095D02*
X135057884Y-128151904D01*
X135057884Y-128151904D02*
X135057884Y-128275714D01*
X135057884Y-128275714D02*
X134995980Y-128399523D01*
X134995980Y-128399523D02*
X134934075Y-128461428D01*
X134934075Y-128461428D02*
X134810265Y-128523333D01*
X134810265Y-128523333D02*
X134562646Y-128585237D01*
X134562646Y-128585237D02*
X134253122Y-128585237D01*
X134253122Y-128585237D02*
X134005503Y-128523333D01*
X134005503Y-128523333D02*
X133881694Y-128461428D01*
X133881694Y-128461428D02*
X133819789Y-128399523D01*
X133819789Y-128399523D02*
X133757884Y-128275714D01*
X133757884Y-127037619D02*
X133757884Y-126913809D01*
X133757884Y-126913809D02*
X133819789Y-126790000D01*
X133819789Y-126790000D02*
X133881694Y-126728095D01*
X133881694Y-126728095D02*
X134005503Y-126666190D01*
X134005503Y-126666190D02*
X134253122Y-126604285D01*
X134253122Y-126604285D02*
X134562646Y-126604285D01*
X134562646Y-126604285D02*
X134810265Y-126666190D01*
X134810265Y-126666190D02*
X134934075Y-126728095D01*
X134934075Y-126728095D02*
X134995980Y-126790000D01*
X134995980Y-126790000D02*
X135057884Y-126913809D01*
X135057884Y-126913809D02*
X135057884Y-127037619D01*
X135057884Y-127037619D02*
X134995980Y-127161428D01*
X134995980Y-127161428D02*
X134934075Y-127223333D01*
X134934075Y-127223333D02*
X134810265Y-127285238D01*
X134810265Y-127285238D02*
X134562646Y-127347142D01*
X134562646Y-127347142D02*
X134253122Y-127347142D01*
X134253122Y-127347142D02*
X134005503Y-127285238D01*
X134005503Y-127285238D02*
X133881694Y-127223333D01*
X133881694Y-127223333D02*
X133819789Y-127161428D01*
X133819789Y-127161428D02*
X133757884Y-127037619D01*
X142647884Y-98154761D02*
X142028837Y-98588094D01*
X142647884Y-98897618D02*
X141347884Y-98897618D01*
X141347884Y-98897618D02*
X141347884Y-98402380D01*
X141347884Y-98402380D02*
X141409789Y-98278570D01*
X141409789Y-98278570D02*
X141471694Y-98216665D01*
X141471694Y-98216665D02*
X141595503Y-98154761D01*
X141595503Y-98154761D02*
X141781218Y-98154761D01*
X141781218Y-98154761D02*
X141905027Y-98216665D01*
X141905027Y-98216665D02*
X141966932Y-98278570D01*
X141966932Y-98278570D02*
X142028837Y-98402380D01*
X142028837Y-98402380D02*
X142028837Y-98897618D01*
X141905027Y-97411903D02*
X141843122Y-97535713D01*
X141843122Y-97535713D02*
X141781218Y-97597618D01*
X141781218Y-97597618D02*
X141657408Y-97659522D01*
X141657408Y-97659522D02*
X141595503Y-97659522D01*
X141595503Y-97659522D02*
X141471694Y-97597618D01*
X141471694Y-97597618D02*
X141409789Y-97535713D01*
X141409789Y-97535713D02*
X141347884Y-97411903D01*
X141347884Y-97411903D02*
X141347884Y-97164284D01*
X141347884Y-97164284D02*
X141409789Y-97040475D01*
X141409789Y-97040475D02*
X141471694Y-96978570D01*
X141471694Y-96978570D02*
X141595503Y-96916665D01*
X141595503Y-96916665D02*
X141657408Y-96916665D01*
X141657408Y-96916665D02*
X141781218Y-96978570D01*
X141781218Y-96978570D02*
X141843122Y-97040475D01*
X141843122Y-97040475D02*
X141905027Y-97164284D01*
X141905027Y-97164284D02*
X141905027Y-97411903D01*
X141905027Y-97411903D02*
X141966932Y-97535713D01*
X141966932Y-97535713D02*
X142028837Y-97597618D01*
X142028837Y-97597618D02*
X142152646Y-97659522D01*
X142152646Y-97659522D02*
X142400265Y-97659522D01*
X142400265Y-97659522D02*
X142524075Y-97597618D01*
X142524075Y-97597618D02*
X142585980Y-97535713D01*
X142585980Y-97535713D02*
X142647884Y-97411903D01*
X142647884Y-97411903D02*
X142647884Y-97164284D01*
X142647884Y-97164284D02*
X142585980Y-97040475D01*
X142585980Y-97040475D02*
X142524075Y-96978570D01*
X142524075Y-96978570D02*
X142400265Y-96916665D01*
X142400265Y-96916665D02*
X142152646Y-96916665D01*
X142152646Y-96916665D02*
X142028837Y-96978570D01*
X142028837Y-96978570D02*
X141966932Y-97040475D01*
X141966932Y-97040475D02*
X141905027Y-97164284D01*
X141347884Y-96111904D02*
X141347884Y-95988094D01*
X141347884Y-95988094D02*
X141409789Y-95864285D01*
X141409789Y-95864285D02*
X141471694Y-95802380D01*
X141471694Y-95802380D02*
X141595503Y-95740475D01*
X141595503Y-95740475D02*
X141843122Y-95678570D01*
X141843122Y-95678570D02*
X142152646Y-95678570D01*
X142152646Y-95678570D02*
X142400265Y-95740475D01*
X142400265Y-95740475D02*
X142524075Y-95802380D01*
X142524075Y-95802380D02*
X142585980Y-95864285D01*
X142585980Y-95864285D02*
X142647884Y-95988094D01*
X142647884Y-95988094D02*
X142647884Y-96111904D01*
X142647884Y-96111904D02*
X142585980Y-96235713D01*
X142585980Y-96235713D02*
X142524075Y-96297618D01*
X142524075Y-96297618D02*
X142400265Y-96359523D01*
X142400265Y-96359523D02*
X142152646Y-96421427D01*
X142152646Y-96421427D02*
X141843122Y-96421427D01*
X141843122Y-96421427D02*
X141595503Y-96359523D01*
X141595503Y-96359523D02*
X141471694Y-96297618D01*
X141471694Y-96297618D02*
X141409789Y-96235713D01*
X141409789Y-96235713D02*
X141347884Y-96111904D01*
X142647884Y-94440475D02*
X142647884Y-95183332D01*
X142647884Y-94811904D02*
X141347884Y-94811904D01*
X141347884Y-94811904D02*
X141533599Y-94935713D01*
X141533599Y-94935713D02*
X141657408Y-95059523D01*
X141657408Y-95059523D02*
X141719313Y-95183332D01*
X175035238Y-93377884D02*
X174601905Y-92758837D01*
X174292381Y-93377884D02*
X174292381Y-92077884D01*
X174292381Y-92077884D02*
X174787619Y-92077884D01*
X174787619Y-92077884D02*
X174911429Y-92139789D01*
X174911429Y-92139789D02*
X174973334Y-92201694D01*
X174973334Y-92201694D02*
X175035238Y-92325503D01*
X175035238Y-92325503D02*
X175035238Y-92511218D01*
X175035238Y-92511218D02*
X174973334Y-92635027D01*
X174973334Y-92635027D02*
X174911429Y-92696932D01*
X174911429Y-92696932D02*
X174787619Y-92758837D01*
X174787619Y-92758837D02*
X174292381Y-92758837D01*
X175778096Y-92635027D02*
X175654286Y-92573122D01*
X175654286Y-92573122D02*
X175592381Y-92511218D01*
X175592381Y-92511218D02*
X175530477Y-92387408D01*
X175530477Y-92387408D02*
X175530477Y-92325503D01*
X175530477Y-92325503D02*
X175592381Y-92201694D01*
X175592381Y-92201694D02*
X175654286Y-92139789D01*
X175654286Y-92139789D02*
X175778096Y-92077884D01*
X175778096Y-92077884D02*
X176025715Y-92077884D01*
X176025715Y-92077884D02*
X176149524Y-92139789D01*
X176149524Y-92139789D02*
X176211429Y-92201694D01*
X176211429Y-92201694D02*
X176273334Y-92325503D01*
X176273334Y-92325503D02*
X176273334Y-92387408D01*
X176273334Y-92387408D02*
X176211429Y-92511218D01*
X176211429Y-92511218D02*
X176149524Y-92573122D01*
X176149524Y-92573122D02*
X176025715Y-92635027D01*
X176025715Y-92635027D02*
X175778096Y-92635027D01*
X175778096Y-92635027D02*
X175654286Y-92696932D01*
X175654286Y-92696932D02*
X175592381Y-92758837D01*
X175592381Y-92758837D02*
X175530477Y-92882646D01*
X175530477Y-92882646D02*
X175530477Y-93130265D01*
X175530477Y-93130265D02*
X175592381Y-93254075D01*
X175592381Y-93254075D02*
X175654286Y-93315980D01*
X175654286Y-93315980D02*
X175778096Y-93377884D01*
X175778096Y-93377884D02*
X176025715Y-93377884D01*
X176025715Y-93377884D02*
X176149524Y-93315980D01*
X176149524Y-93315980D02*
X176211429Y-93254075D01*
X176211429Y-93254075D02*
X176273334Y-93130265D01*
X176273334Y-93130265D02*
X176273334Y-92882646D01*
X176273334Y-92882646D02*
X176211429Y-92758837D01*
X176211429Y-92758837D02*
X176149524Y-92696932D01*
X176149524Y-92696932D02*
X176025715Y-92635027D01*
X177078095Y-92077884D02*
X177201905Y-92077884D01*
X177201905Y-92077884D02*
X177325714Y-92139789D01*
X177325714Y-92139789D02*
X177387619Y-92201694D01*
X177387619Y-92201694D02*
X177449524Y-92325503D01*
X177449524Y-92325503D02*
X177511429Y-92573122D01*
X177511429Y-92573122D02*
X177511429Y-92882646D01*
X177511429Y-92882646D02*
X177449524Y-93130265D01*
X177449524Y-93130265D02*
X177387619Y-93254075D01*
X177387619Y-93254075D02*
X177325714Y-93315980D01*
X177325714Y-93315980D02*
X177201905Y-93377884D01*
X177201905Y-93377884D02*
X177078095Y-93377884D01*
X177078095Y-93377884D02*
X176954286Y-93315980D01*
X176954286Y-93315980D02*
X176892381Y-93254075D01*
X176892381Y-93254075D02*
X176830476Y-93130265D01*
X176830476Y-93130265D02*
X176768572Y-92882646D01*
X176768572Y-92882646D02*
X176768572Y-92573122D01*
X176768572Y-92573122D02*
X176830476Y-92325503D01*
X176830476Y-92325503D02*
X176892381Y-92201694D01*
X176892381Y-92201694D02*
X176954286Y-92139789D01*
X176954286Y-92139789D02*
X177078095Y-92077884D01*
X177944762Y-92077884D02*
X178749524Y-92077884D01*
X178749524Y-92077884D02*
X178316190Y-92573122D01*
X178316190Y-92573122D02*
X178501905Y-92573122D01*
X178501905Y-92573122D02*
X178625714Y-92635027D01*
X178625714Y-92635027D02*
X178687619Y-92696932D01*
X178687619Y-92696932D02*
X178749524Y-92820741D01*
X178749524Y-92820741D02*
X178749524Y-93130265D01*
X178749524Y-93130265D02*
X178687619Y-93254075D01*
X178687619Y-93254075D02*
X178625714Y-93315980D01*
X178625714Y-93315980D02*
X178501905Y-93377884D01*
X178501905Y-93377884D02*
X178130476Y-93377884D01*
X178130476Y-93377884D02*
X178006667Y-93315980D01*
X178006667Y-93315980D02*
X177944762Y-93254075D01*
X141962857Y-91897884D02*
X141962857Y-90597884D01*
X143324762Y-91774075D02*
X143262858Y-91835980D01*
X143262858Y-91835980D02*
X143077143Y-91897884D01*
X143077143Y-91897884D02*
X142953334Y-91897884D01*
X142953334Y-91897884D02*
X142767620Y-91835980D01*
X142767620Y-91835980D02*
X142643810Y-91712170D01*
X142643810Y-91712170D02*
X142581905Y-91588360D01*
X142581905Y-91588360D02*
X142520001Y-91340741D01*
X142520001Y-91340741D02*
X142520001Y-91155027D01*
X142520001Y-91155027D02*
X142581905Y-90907408D01*
X142581905Y-90907408D02*
X142643810Y-90783599D01*
X142643810Y-90783599D02*
X142767620Y-90659789D01*
X142767620Y-90659789D02*
X142953334Y-90597884D01*
X142953334Y-90597884D02*
X143077143Y-90597884D01*
X143077143Y-90597884D02*
X143262858Y-90659789D01*
X143262858Y-90659789D02*
X143324762Y-90721694D01*
X144067620Y-91155027D02*
X143943810Y-91093122D01*
X143943810Y-91093122D02*
X143881905Y-91031218D01*
X143881905Y-91031218D02*
X143820001Y-90907408D01*
X143820001Y-90907408D02*
X143820001Y-90845503D01*
X143820001Y-90845503D02*
X143881905Y-90721694D01*
X143881905Y-90721694D02*
X143943810Y-90659789D01*
X143943810Y-90659789D02*
X144067620Y-90597884D01*
X144067620Y-90597884D02*
X144315239Y-90597884D01*
X144315239Y-90597884D02*
X144439048Y-90659789D01*
X144439048Y-90659789D02*
X144500953Y-90721694D01*
X144500953Y-90721694D02*
X144562858Y-90845503D01*
X144562858Y-90845503D02*
X144562858Y-90907408D01*
X144562858Y-90907408D02*
X144500953Y-91031218D01*
X144500953Y-91031218D02*
X144439048Y-91093122D01*
X144439048Y-91093122D02*
X144315239Y-91155027D01*
X144315239Y-91155027D02*
X144067620Y-91155027D01*
X144067620Y-91155027D02*
X143943810Y-91216932D01*
X143943810Y-91216932D02*
X143881905Y-91278837D01*
X143881905Y-91278837D02*
X143820001Y-91402646D01*
X143820001Y-91402646D02*
X143820001Y-91650265D01*
X143820001Y-91650265D02*
X143881905Y-91774075D01*
X143881905Y-91774075D02*
X143943810Y-91835980D01*
X143943810Y-91835980D02*
X144067620Y-91897884D01*
X144067620Y-91897884D02*
X144315239Y-91897884D01*
X144315239Y-91897884D02*
X144439048Y-91835980D01*
X144439048Y-91835980D02*
X144500953Y-91774075D01*
X144500953Y-91774075D02*
X144562858Y-91650265D01*
X144562858Y-91650265D02*
X144562858Y-91402646D01*
X144562858Y-91402646D02*
X144500953Y-91278837D01*
X144500953Y-91278837D02*
X144439048Y-91216932D01*
X144439048Y-91216932D02*
X144315239Y-91155027D01*
X145367619Y-90597884D02*
X145491429Y-90597884D01*
X145491429Y-90597884D02*
X145615238Y-90659789D01*
X145615238Y-90659789D02*
X145677143Y-90721694D01*
X145677143Y-90721694D02*
X145739048Y-90845503D01*
X145739048Y-90845503D02*
X145800953Y-91093122D01*
X145800953Y-91093122D02*
X145800953Y-91402646D01*
X145800953Y-91402646D02*
X145739048Y-91650265D01*
X145739048Y-91650265D02*
X145677143Y-91774075D01*
X145677143Y-91774075D02*
X145615238Y-91835980D01*
X145615238Y-91835980D02*
X145491429Y-91897884D01*
X145491429Y-91897884D02*
X145367619Y-91897884D01*
X145367619Y-91897884D02*
X145243810Y-91835980D01*
X145243810Y-91835980D02*
X145181905Y-91774075D01*
X145181905Y-91774075D02*
X145120000Y-91650265D01*
X145120000Y-91650265D02*
X145058096Y-91402646D01*
X145058096Y-91402646D02*
X145058096Y-91093122D01*
X145058096Y-91093122D02*
X145120000Y-90845503D01*
X145120000Y-90845503D02*
X145181905Y-90721694D01*
X145181905Y-90721694D02*
X145243810Y-90659789D01*
X145243810Y-90659789D02*
X145367619Y-90597884D01*
X146605714Y-90597884D02*
X146729524Y-90597884D01*
X146729524Y-90597884D02*
X146853333Y-90659789D01*
X146853333Y-90659789D02*
X146915238Y-90721694D01*
X146915238Y-90721694D02*
X146977143Y-90845503D01*
X146977143Y-90845503D02*
X147039048Y-91093122D01*
X147039048Y-91093122D02*
X147039048Y-91402646D01*
X147039048Y-91402646D02*
X146977143Y-91650265D01*
X146977143Y-91650265D02*
X146915238Y-91774075D01*
X146915238Y-91774075D02*
X146853333Y-91835980D01*
X146853333Y-91835980D02*
X146729524Y-91897884D01*
X146729524Y-91897884D02*
X146605714Y-91897884D01*
X146605714Y-91897884D02*
X146481905Y-91835980D01*
X146481905Y-91835980D02*
X146420000Y-91774075D01*
X146420000Y-91774075D02*
X146358095Y-91650265D01*
X146358095Y-91650265D02*
X146296191Y-91402646D01*
X146296191Y-91402646D02*
X146296191Y-91093122D01*
X146296191Y-91093122D02*
X146358095Y-90845503D01*
X146358095Y-90845503D02*
X146420000Y-90721694D01*
X146420000Y-90721694D02*
X146481905Y-90659789D01*
X146481905Y-90659789D02*
X146605714Y-90597884D01*
X172597884Y-125784761D02*
X172597884Y-126403809D01*
X172597884Y-126403809D02*
X171297884Y-126403809D01*
X171855027Y-125165713D02*
X171793122Y-125289523D01*
X171793122Y-125289523D02*
X171731218Y-125351428D01*
X171731218Y-125351428D02*
X171607408Y-125413332D01*
X171607408Y-125413332D02*
X171545503Y-125413332D01*
X171545503Y-125413332D02*
X171421694Y-125351428D01*
X171421694Y-125351428D02*
X171359789Y-125289523D01*
X171359789Y-125289523D02*
X171297884Y-125165713D01*
X171297884Y-125165713D02*
X171297884Y-124918094D01*
X171297884Y-124918094D02*
X171359789Y-124794285D01*
X171359789Y-124794285D02*
X171421694Y-124732380D01*
X171421694Y-124732380D02*
X171545503Y-124670475D01*
X171545503Y-124670475D02*
X171607408Y-124670475D01*
X171607408Y-124670475D02*
X171731218Y-124732380D01*
X171731218Y-124732380D02*
X171793122Y-124794285D01*
X171793122Y-124794285D02*
X171855027Y-124918094D01*
X171855027Y-124918094D02*
X171855027Y-125165713D01*
X171855027Y-125165713D02*
X171916932Y-125289523D01*
X171916932Y-125289523D02*
X171978837Y-125351428D01*
X171978837Y-125351428D02*
X172102646Y-125413332D01*
X172102646Y-125413332D02*
X172350265Y-125413332D01*
X172350265Y-125413332D02*
X172474075Y-125351428D01*
X172474075Y-125351428D02*
X172535980Y-125289523D01*
X172535980Y-125289523D02*
X172597884Y-125165713D01*
X172597884Y-125165713D02*
X172597884Y-124918094D01*
X172597884Y-124918094D02*
X172535980Y-124794285D01*
X172535980Y-124794285D02*
X172474075Y-124732380D01*
X172474075Y-124732380D02*
X172350265Y-124670475D01*
X172350265Y-124670475D02*
X172102646Y-124670475D01*
X172102646Y-124670475D02*
X171978837Y-124732380D01*
X171978837Y-124732380D02*
X171916932Y-124794285D01*
X171916932Y-124794285D02*
X171855027Y-124918094D01*
X171297884Y-123865714D02*
X171297884Y-123741904D01*
X171297884Y-123741904D02*
X171359789Y-123618095D01*
X171359789Y-123618095D02*
X171421694Y-123556190D01*
X171421694Y-123556190D02*
X171545503Y-123494285D01*
X171545503Y-123494285D02*
X171793122Y-123432380D01*
X171793122Y-123432380D02*
X172102646Y-123432380D01*
X172102646Y-123432380D02*
X172350265Y-123494285D01*
X172350265Y-123494285D02*
X172474075Y-123556190D01*
X172474075Y-123556190D02*
X172535980Y-123618095D01*
X172535980Y-123618095D02*
X172597884Y-123741904D01*
X172597884Y-123741904D02*
X172597884Y-123865714D01*
X172597884Y-123865714D02*
X172535980Y-123989523D01*
X172535980Y-123989523D02*
X172474075Y-124051428D01*
X172474075Y-124051428D02*
X172350265Y-124113333D01*
X172350265Y-124113333D02*
X172102646Y-124175237D01*
X172102646Y-124175237D02*
X171793122Y-124175237D01*
X171793122Y-124175237D02*
X171545503Y-124113333D01*
X171545503Y-124113333D02*
X171421694Y-124051428D01*
X171421694Y-124051428D02*
X171359789Y-123989523D01*
X171359789Y-123989523D02*
X171297884Y-123865714D01*
X172597884Y-122194285D02*
X172597884Y-122937142D01*
X172597884Y-122565714D02*
X171297884Y-122565714D01*
X171297884Y-122565714D02*
X171483599Y-122689523D01*
X171483599Y-122689523D02*
X171607408Y-122813333D01*
X171607408Y-122813333D02*
X171669313Y-122937142D01*
X187952381Y-84017884D02*
X187952381Y-82717884D01*
X187952381Y-82717884D02*
X188261905Y-82717884D01*
X188261905Y-82717884D02*
X188447619Y-82779789D01*
X188447619Y-82779789D02*
X188571429Y-82903599D01*
X188571429Y-82903599D02*
X188633334Y-83027408D01*
X188633334Y-83027408D02*
X188695238Y-83275027D01*
X188695238Y-83275027D02*
X188695238Y-83460741D01*
X188695238Y-83460741D02*
X188633334Y-83708360D01*
X188633334Y-83708360D02*
X188571429Y-83832170D01*
X188571429Y-83832170D02*
X188447619Y-83955980D01*
X188447619Y-83955980D02*
X188261905Y-84017884D01*
X188261905Y-84017884D02*
X187952381Y-84017884D01*
X189438096Y-83275027D02*
X189314286Y-83213122D01*
X189314286Y-83213122D02*
X189252381Y-83151218D01*
X189252381Y-83151218D02*
X189190477Y-83027408D01*
X189190477Y-83027408D02*
X189190477Y-82965503D01*
X189190477Y-82965503D02*
X189252381Y-82841694D01*
X189252381Y-82841694D02*
X189314286Y-82779789D01*
X189314286Y-82779789D02*
X189438096Y-82717884D01*
X189438096Y-82717884D02*
X189685715Y-82717884D01*
X189685715Y-82717884D02*
X189809524Y-82779789D01*
X189809524Y-82779789D02*
X189871429Y-82841694D01*
X189871429Y-82841694D02*
X189933334Y-82965503D01*
X189933334Y-82965503D02*
X189933334Y-83027408D01*
X189933334Y-83027408D02*
X189871429Y-83151218D01*
X189871429Y-83151218D02*
X189809524Y-83213122D01*
X189809524Y-83213122D02*
X189685715Y-83275027D01*
X189685715Y-83275027D02*
X189438096Y-83275027D01*
X189438096Y-83275027D02*
X189314286Y-83336932D01*
X189314286Y-83336932D02*
X189252381Y-83398837D01*
X189252381Y-83398837D02*
X189190477Y-83522646D01*
X189190477Y-83522646D02*
X189190477Y-83770265D01*
X189190477Y-83770265D02*
X189252381Y-83894075D01*
X189252381Y-83894075D02*
X189314286Y-83955980D01*
X189314286Y-83955980D02*
X189438096Y-84017884D01*
X189438096Y-84017884D02*
X189685715Y-84017884D01*
X189685715Y-84017884D02*
X189809524Y-83955980D01*
X189809524Y-83955980D02*
X189871429Y-83894075D01*
X189871429Y-83894075D02*
X189933334Y-83770265D01*
X189933334Y-83770265D02*
X189933334Y-83522646D01*
X189933334Y-83522646D02*
X189871429Y-83398837D01*
X189871429Y-83398837D02*
X189809524Y-83336932D01*
X189809524Y-83336932D02*
X189685715Y-83275027D01*
X190738095Y-82717884D02*
X190861905Y-82717884D01*
X190861905Y-82717884D02*
X190985714Y-82779789D01*
X190985714Y-82779789D02*
X191047619Y-82841694D01*
X191047619Y-82841694D02*
X191109524Y-82965503D01*
X191109524Y-82965503D02*
X191171429Y-83213122D01*
X191171429Y-83213122D02*
X191171429Y-83522646D01*
X191171429Y-83522646D02*
X191109524Y-83770265D01*
X191109524Y-83770265D02*
X191047619Y-83894075D01*
X191047619Y-83894075D02*
X190985714Y-83955980D01*
X190985714Y-83955980D02*
X190861905Y-84017884D01*
X190861905Y-84017884D02*
X190738095Y-84017884D01*
X190738095Y-84017884D02*
X190614286Y-83955980D01*
X190614286Y-83955980D02*
X190552381Y-83894075D01*
X190552381Y-83894075D02*
X190490476Y-83770265D01*
X190490476Y-83770265D02*
X190428572Y-83522646D01*
X190428572Y-83522646D02*
X190428572Y-83213122D01*
X190428572Y-83213122D02*
X190490476Y-82965503D01*
X190490476Y-82965503D02*
X190552381Y-82841694D01*
X190552381Y-82841694D02*
X190614286Y-82779789D01*
X190614286Y-82779789D02*
X190738095Y-82717884D01*
X191976190Y-82717884D02*
X192100000Y-82717884D01*
X192100000Y-82717884D02*
X192223809Y-82779789D01*
X192223809Y-82779789D02*
X192285714Y-82841694D01*
X192285714Y-82841694D02*
X192347619Y-82965503D01*
X192347619Y-82965503D02*
X192409524Y-83213122D01*
X192409524Y-83213122D02*
X192409524Y-83522646D01*
X192409524Y-83522646D02*
X192347619Y-83770265D01*
X192347619Y-83770265D02*
X192285714Y-83894075D01*
X192285714Y-83894075D02*
X192223809Y-83955980D01*
X192223809Y-83955980D02*
X192100000Y-84017884D01*
X192100000Y-84017884D02*
X191976190Y-84017884D01*
X191976190Y-84017884D02*
X191852381Y-83955980D01*
X191852381Y-83955980D02*
X191790476Y-83894075D01*
X191790476Y-83894075D02*
X191728571Y-83770265D01*
X191728571Y-83770265D02*
X191666667Y-83522646D01*
X191666667Y-83522646D02*
X191666667Y-83213122D01*
X191666667Y-83213122D02*
X191728571Y-82965503D01*
X191728571Y-82965503D02*
X191790476Y-82841694D01*
X191790476Y-82841694D02*
X191852381Y-82779789D01*
X191852381Y-82779789D02*
X191976190Y-82717884D01*
X196874075Y-101904761D02*
X196935980Y-101966665D01*
X196935980Y-101966665D02*
X196997884Y-102152380D01*
X196997884Y-102152380D02*
X196997884Y-102276189D01*
X196997884Y-102276189D02*
X196935980Y-102461903D01*
X196935980Y-102461903D02*
X196812170Y-102585713D01*
X196812170Y-102585713D02*
X196688360Y-102647618D01*
X196688360Y-102647618D02*
X196440741Y-102709522D01*
X196440741Y-102709522D02*
X196255027Y-102709522D01*
X196255027Y-102709522D02*
X196007408Y-102647618D01*
X196007408Y-102647618D02*
X195883599Y-102585713D01*
X195883599Y-102585713D02*
X195759789Y-102461903D01*
X195759789Y-102461903D02*
X195697884Y-102276189D01*
X195697884Y-102276189D02*
X195697884Y-102152380D01*
X195697884Y-102152380D02*
X195759789Y-101966665D01*
X195759789Y-101966665D02*
X195821694Y-101904761D01*
X196255027Y-101161903D02*
X196193122Y-101285713D01*
X196193122Y-101285713D02*
X196131218Y-101347618D01*
X196131218Y-101347618D02*
X196007408Y-101409522D01*
X196007408Y-101409522D02*
X195945503Y-101409522D01*
X195945503Y-101409522D02*
X195821694Y-101347618D01*
X195821694Y-101347618D02*
X195759789Y-101285713D01*
X195759789Y-101285713D02*
X195697884Y-101161903D01*
X195697884Y-101161903D02*
X195697884Y-100914284D01*
X195697884Y-100914284D02*
X195759789Y-100790475D01*
X195759789Y-100790475D02*
X195821694Y-100728570D01*
X195821694Y-100728570D02*
X195945503Y-100666665D01*
X195945503Y-100666665D02*
X196007408Y-100666665D01*
X196007408Y-100666665D02*
X196131218Y-100728570D01*
X196131218Y-100728570D02*
X196193122Y-100790475D01*
X196193122Y-100790475D02*
X196255027Y-100914284D01*
X196255027Y-100914284D02*
X196255027Y-101161903D01*
X196255027Y-101161903D02*
X196316932Y-101285713D01*
X196316932Y-101285713D02*
X196378837Y-101347618D01*
X196378837Y-101347618D02*
X196502646Y-101409522D01*
X196502646Y-101409522D02*
X196750265Y-101409522D01*
X196750265Y-101409522D02*
X196874075Y-101347618D01*
X196874075Y-101347618D02*
X196935980Y-101285713D01*
X196935980Y-101285713D02*
X196997884Y-101161903D01*
X196997884Y-101161903D02*
X196997884Y-100914284D01*
X196997884Y-100914284D02*
X196935980Y-100790475D01*
X196935980Y-100790475D02*
X196874075Y-100728570D01*
X196874075Y-100728570D02*
X196750265Y-100666665D01*
X196750265Y-100666665D02*
X196502646Y-100666665D01*
X196502646Y-100666665D02*
X196378837Y-100728570D01*
X196378837Y-100728570D02*
X196316932Y-100790475D01*
X196316932Y-100790475D02*
X196255027Y-100914284D01*
X195697884Y-99861904D02*
X195697884Y-99738094D01*
X195697884Y-99738094D02*
X195759789Y-99614285D01*
X195759789Y-99614285D02*
X195821694Y-99552380D01*
X195821694Y-99552380D02*
X195945503Y-99490475D01*
X195945503Y-99490475D02*
X196193122Y-99428570D01*
X196193122Y-99428570D02*
X196502646Y-99428570D01*
X196502646Y-99428570D02*
X196750265Y-99490475D01*
X196750265Y-99490475D02*
X196874075Y-99552380D01*
X196874075Y-99552380D02*
X196935980Y-99614285D01*
X196935980Y-99614285D02*
X196997884Y-99738094D01*
X196997884Y-99738094D02*
X196997884Y-99861904D01*
X196997884Y-99861904D02*
X196935980Y-99985713D01*
X196935980Y-99985713D02*
X196874075Y-100047618D01*
X196874075Y-100047618D02*
X196750265Y-100109523D01*
X196750265Y-100109523D02*
X196502646Y-100171427D01*
X196502646Y-100171427D02*
X196193122Y-100171427D01*
X196193122Y-100171427D02*
X195945503Y-100109523D01*
X195945503Y-100109523D02*
X195821694Y-100047618D01*
X195821694Y-100047618D02*
X195759789Y-99985713D01*
X195759789Y-99985713D02*
X195697884Y-99861904D01*
X195697884Y-98623809D02*
X195697884Y-98499999D01*
X195697884Y-98499999D02*
X195759789Y-98376190D01*
X195759789Y-98376190D02*
X195821694Y-98314285D01*
X195821694Y-98314285D02*
X195945503Y-98252380D01*
X195945503Y-98252380D02*
X196193122Y-98190475D01*
X196193122Y-98190475D02*
X196502646Y-98190475D01*
X196502646Y-98190475D02*
X196750265Y-98252380D01*
X196750265Y-98252380D02*
X196874075Y-98314285D01*
X196874075Y-98314285D02*
X196935980Y-98376190D01*
X196935980Y-98376190D02*
X196997884Y-98499999D01*
X196997884Y-98499999D02*
X196997884Y-98623809D01*
X196997884Y-98623809D02*
X196935980Y-98747618D01*
X196935980Y-98747618D02*
X196874075Y-98809523D01*
X196874075Y-98809523D02*
X196750265Y-98871428D01*
X196750265Y-98871428D02*
X196502646Y-98933332D01*
X196502646Y-98933332D02*
X196193122Y-98933332D01*
X196193122Y-98933332D02*
X195945503Y-98871428D01*
X195945503Y-98871428D02*
X195821694Y-98809523D01*
X195821694Y-98809523D02*
X195759789Y-98747618D01*
X195759789Y-98747618D02*
X195697884Y-98623809D01*
X167642381Y-92477884D02*
X167642381Y-91177884D01*
X167642381Y-91177884D02*
X167951905Y-91177884D01*
X167951905Y-91177884D02*
X168137619Y-91239789D01*
X168137619Y-91239789D02*
X168261429Y-91363599D01*
X168261429Y-91363599D02*
X168323334Y-91487408D01*
X168323334Y-91487408D02*
X168385238Y-91735027D01*
X168385238Y-91735027D02*
X168385238Y-91920741D01*
X168385238Y-91920741D02*
X168323334Y-92168360D01*
X168323334Y-92168360D02*
X168261429Y-92292170D01*
X168261429Y-92292170D02*
X168137619Y-92415980D01*
X168137619Y-92415980D02*
X167951905Y-92477884D01*
X167951905Y-92477884D02*
X167642381Y-92477884D01*
X169128096Y-91735027D02*
X169004286Y-91673122D01*
X169004286Y-91673122D02*
X168942381Y-91611218D01*
X168942381Y-91611218D02*
X168880477Y-91487408D01*
X168880477Y-91487408D02*
X168880477Y-91425503D01*
X168880477Y-91425503D02*
X168942381Y-91301694D01*
X168942381Y-91301694D02*
X169004286Y-91239789D01*
X169004286Y-91239789D02*
X169128096Y-91177884D01*
X169128096Y-91177884D02*
X169375715Y-91177884D01*
X169375715Y-91177884D02*
X169499524Y-91239789D01*
X169499524Y-91239789D02*
X169561429Y-91301694D01*
X169561429Y-91301694D02*
X169623334Y-91425503D01*
X169623334Y-91425503D02*
X169623334Y-91487408D01*
X169623334Y-91487408D02*
X169561429Y-91611218D01*
X169561429Y-91611218D02*
X169499524Y-91673122D01*
X169499524Y-91673122D02*
X169375715Y-91735027D01*
X169375715Y-91735027D02*
X169128096Y-91735027D01*
X169128096Y-91735027D02*
X169004286Y-91796932D01*
X169004286Y-91796932D02*
X168942381Y-91858837D01*
X168942381Y-91858837D02*
X168880477Y-91982646D01*
X168880477Y-91982646D02*
X168880477Y-92230265D01*
X168880477Y-92230265D02*
X168942381Y-92354075D01*
X168942381Y-92354075D02*
X169004286Y-92415980D01*
X169004286Y-92415980D02*
X169128096Y-92477884D01*
X169128096Y-92477884D02*
X169375715Y-92477884D01*
X169375715Y-92477884D02*
X169499524Y-92415980D01*
X169499524Y-92415980D02*
X169561429Y-92354075D01*
X169561429Y-92354075D02*
X169623334Y-92230265D01*
X169623334Y-92230265D02*
X169623334Y-91982646D01*
X169623334Y-91982646D02*
X169561429Y-91858837D01*
X169561429Y-91858837D02*
X169499524Y-91796932D01*
X169499524Y-91796932D02*
X169375715Y-91735027D01*
X170428095Y-91177884D02*
X170551905Y-91177884D01*
X170551905Y-91177884D02*
X170675714Y-91239789D01*
X170675714Y-91239789D02*
X170737619Y-91301694D01*
X170737619Y-91301694D02*
X170799524Y-91425503D01*
X170799524Y-91425503D02*
X170861429Y-91673122D01*
X170861429Y-91673122D02*
X170861429Y-91982646D01*
X170861429Y-91982646D02*
X170799524Y-92230265D01*
X170799524Y-92230265D02*
X170737619Y-92354075D01*
X170737619Y-92354075D02*
X170675714Y-92415980D01*
X170675714Y-92415980D02*
X170551905Y-92477884D01*
X170551905Y-92477884D02*
X170428095Y-92477884D01*
X170428095Y-92477884D02*
X170304286Y-92415980D01*
X170304286Y-92415980D02*
X170242381Y-92354075D01*
X170242381Y-92354075D02*
X170180476Y-92230265D01*
X170180476Y-92230265D02*
X170118572Y-91982646D01*
X170118572Y-91982646D02*
X170118572Y-91673122D01*
X170118572Y-91673122D02*
X170180476Y-91425503D01*
X170180476Y-91425503D02*
X170242381Y-91301694D01*
X170242381Y-91301694D02*
X170304286Y-91239789D01*
X170304286Y-91239789D02*
X170428095Y-91177884D01*
X172099524Y-92477884D02*
X171356667Y-92477884D01*
X171728095Y-92477884D02*
X171728095Y-91177884D01*
X171728095Y-91177884D02*
X171604286Y-91363599D01*
X171604286Y-91363599D02*
X171480476Y-91487408D01*
X171480476Y-91487408D02*
X171356667Y-91549313D01*
D15*
%TO.C,R800*%
X149800000Y-96407064D02*
X149800000Y-95952936D01*
D16*
%TO.C,D802*%
X161820000Y-95650000D02*
X162250000Y-95650000D01*
D15*
%TO.C,L804*%
X177020000Y-118272936D02*
X177020000Y-118727064D01*
D11*
%TO.C,CN800*%
X179340000Y-59550000D02*
X179340000Y-59550000D01*
X179340000Y-59550000D02*
X179340000Y-66320000D01*
X179340000Y-66320000D02*
X193280000Y-66320000D01*
X193280000Y-66320000D02*
X193280000Y-59550000D01*
D15*
%TO.C,R804*%
X165610000Y-95372936D02*
X165610000Y-95827064D01*
%TO.C,L805*%
X174490000Y-118272936D02*
X174490000Y-118727064D01*
%TO.C,C801*%
X154900000Y-96417064D02*
X154900000Y-95962936D01*
%TO.C,L803*%
X131760000Y-123292936D02*
X131760000Y-123747064D01*
%TO.C,L802*%
X177110000Y-124402936D02*
X177110000Y-124857064D01*
%TO.C,L800*%
X131880000Y-128472936D02*
X131880000Y-128927064D01*
%TO.C,R801*%
X152260000Y-96387064D02*
X152260000Y-95932936D01*
%TO.C,R803*%
X172670000Y-94362936D02*
X172670000Y-94817064D01*
D11*
%TO.C,IC800*%
X154035000Y-82172500D02*
X155545000Y-83682500D01*
X155560000Y-82157500D02*
X148810000Y-82157500D01*
X148810000Y-82157500D02*
X148810000Y-88907500D01*
X148810000Y-88907500D02*
X155560000Y-88907500D01*
X155560000Y-88907500D02*
X155560000Y-82157500D01*
D15*
%TO.C,L801*%
X174520000Y-124402936D02*
X174520000Y-124857064D01*
D16*
%TO.C,D800*%
X193352500Y-86150000D02*
X193782500Y-86150000D01*
D15*
%TO.C,C800*%
X196370000Y-95430436D02*
X196370000Y-95884564D01*
D16*
%TO.C,D801*%
X169120000Y-94500000D02*
X169550000Y-94500000D01*
%TD*%
M02*
