%TF.GenerationSoftware,KiCad,Pcbnew,7.0.8*%
%TF.CreationDate,2023-12-31T22:49:09+00:00*%
%TF.ProjectId,pce-gt-controller,7063652d-6774-42d6-936f-6e74726f6c6c,BF1.1*%
%TF.SameCoordinates,Original*%
%TF.FileFunction,Legend,Top*%
%TF.FilePolarity,Positive*%
%FSLAX46Y46*%
G04 Gerber Fmt 4.6, Leading zero omitted, Abs format (unit mm)*
G04 Created by KiCad (PCBNEW 7.0.8) date 2023-12-31 22:49:09*
%MOMM*%
%LPD*%
G01*
G04 APERTURE LIST*
%ADD10C,0.150000*%
%ADD11C,0.100000*%
%ADD12C,0.320000*%
%ADD13C,0.260000*%
%ADD14C,0.120000*%
%ADD15C,0.250000*%
%ADD16C,0.400000*%
G04 APERTURE END LIST*
D10*
X124487545Y-72040000D02*
X151417545Y-72040000D01*
X151417545Y-73960000D01*
X124487545Y-73960000D01*
X124487545Y-72040000D01*
G36*
X124487545Y-72040000D02*
G01*
X151417545Y-72040000D01*
X151417545Y-73960000D01*
X124487545Y-73960000D01*
X124487545Y-72040000D01*
G37*
X124487545Y-80660000D02*
X151417545Y-80660000D01*
X151417545Y-82580000D01*
X124487545Y-82580000D01*
X124487545Y-80660000D01*
G36*
X124487545Y-80660000D02*
G01*
X151417545Y-80660000D01*
X151417545Y-82580000D01*
X124487545Y-82580000D01*
X124487545Y-80660000D01*
G37*
X95377545Y-80660000D02*
X122307545Y-80660000D01*
X122307545Y-82580000D01*
X95377545Y-82580000D01*
X95377545Y-80660000D01*
G36*
X95377545Y-80660000D02*
G01*
X122307545Y-80660000D01*
X122307545Y-82580000D01*
X95377545Y-82580000D01*
X95377545Y-80660000D01*
G37*
X95397545Y-72040000D02*
X122327545Y-72040000D01*
X122327545Y-73960000D01*
X95397545Y-73960000D01*
X95397545Y-72040000D01*
G36*
X95397545Y-72040000D02*
G01*
X122327545Y-72040000D01*
X122327545Y-73960000D01*
X95397545Y-73960000D01*
X95397545Y-72040000D01*
G37*
D11*
X131538633Y-50980000D02*
X131538633Y-50913333D01*
X131538633Y-50913333D02*
X131571966Y-50846666D01*
X131571966Y-50846666D02*
X131605300Y-50813333D01*
X131605300Y-50813333D02*
X131671966Y-50780000D01*
X131671966Y-50780000D02*
X131805300Y-50746666D01*
X131805300Y-50746666D02*
X131971966Y-50746666D01*
X131971966Y-50746666D02*
X132105300Y-50780000D01*
X132105300Y-50780000D02*
X132171966Y-50813333D01*
X132171966Y-50813333D02*
X132205300Y-50846666D01*
X132205300Y-50846666D02*
X132238633Y-50913333D01*
X132238633Y-50913333D02*
X132238633Y-50980000D01*
X132238633Y-50980000D02*
X132205300Y-51046666D01*
X132205300Y-51046666D02*
X132171966Y-51080000D01*
X132171966Y-51080000D02*
X132105300Y-51113333D01*
X132105300Y-51113333D02*
X131971966Y-51146666D01*
X131971966Y-51146666D02*
X131805300Y-51146666D01*
X131805300Y-51146666D02*
X131671966Y-51113333D01*
X131671966Y-51113333D02*
X131605300Y-51080000D01*
X131605300Y-51080000D02*
X131571966Y-51046666D01*
X131571966Y-51046666D02*
X131538633Y-50980000D01*
X132171966Y-50446666D02*
X132205300Y-50413333D01*
X132205300Y-50413333D02*
X132238633Y-50446666D01*
X132238633Y-50446666D02*
X132205300Y-50479999D01*
X132205300Y-50479999D02*
X132171966Y-50446666D01*
X132171966Y-50446666D02*
X132238633Y-50446666D01*
X132238633Y-49746666D02*
X132238633Y-50146666D01*
X132238633Y-49946666D02*
X131538633Y-49946666D01*
X131538633Y-49946666D02*
X131638633Y-50013333D01*
X131638633Y-50013333D02*
X131705300Y-50080000D01*
X131705300Y-50080000D02*
X131738633Y-50146666D01*
X131771966Y-49146666D02*
X132238633Y-49146666D01*
X131771966Y-49446666D02*
X132138633Y-49446666D01*
X132138633Y-49446666D02*
X132205300Y-49413333D01*
X132205300Y-49413333D02*
X132238633Y-49346666D01*
X132238633Y-49346666D02*
X132238633Y-49246666D01*
X132238633Y-49246666D02*
X132205300Y-49179999D01*
X132205300Y-49179999D02*
X132171966Y-49146666D01*
X131871966Y-48580000D02*
X131871966Y-48813333D01*
X132238633Y-48813333D02*
X131538633Y-48813333D01*
X131538633Y-48813333D02*
X131538633Y-48480000D01*
X113441966Y-52070000D02*
X113908633Y-52070000D01*
X113175300Y-52236667D02*
X113675300Y-52403333D01*
X113675300Y-52403333D02*
X113675300Y-51970000D01*
X113208633Y-51770000D02*
X113208633Y-51303333D01*
X113208633Y-51303333D02*
X113908633Y-51603333D01*
X113908633Y-51036666D02*
X113208633Y-51036666D01*
X113908633Y-50636666D02*
X113508633Y-50936666D01*
X113208633Y-50636666D02*
X113608633Y-51036666D01*
X113908633Y-50369999D02*
X113908633Y-50203333D01*
X113908633Y-50203333D02*
X113775300Y-50203333D01*
X113775300Y-50203333D02*
X113741966Y-50269999D01*
X113741966Y-50269999D02*
X113675300Y-50336666D01*
X113675300Y-50336666D02*
X113575300Y-50369999D01*
X113575300Y-50369999D02*
X113408633Y-50369999D01*
X113408633Y-50369999D02*
X113308633Y-50336666D01*
X113308633Y-50336666D02*
X113241966Y-50269999D01*
X113241966Y-50269999D02*
X113208633Y-50169999D01*
X113208633Y-50169999D02*
X113208633Y-50036666D01*
X113208633Y-50036666D02*
X113241966Y-49936666D01*
X113241966Y-49936666D02*
X113308633Y-49869999D01*
X113308633Y-49869999D02*
X113408633Y-49836666D01*
X113408633Y-49836666D02*
X113575300Y-49836666D01*
X113575300Y-49836666D02*
X113675300Y-49869999D01*
X113675300Y-49869999D02*
X113741966Y-49936666D01*
X113741966Y-49936666D02*
X113775300Y-50003333D01*
X113775300Y-50003333D02*
X113908633Y-50003333D01*
X113908633Y-50003333D02*
X113908633Y-49836666D01*
D12*
X80895571Y-77488521D02*
X80895571Y-76269474D01*
X81047952Y-75583760D02*
X81047952Y-74821855D01*
X81505095Y-75736141D02*
X79905095Y-75202807D01*
X79905095Y-75202807D02*
X81505095Y-74669474D01*
X80895571Y-74136140D02*
X80895571Y-72917093D01*
D11*
X141721966Y-68180000D02*
X142188633Y-68180000D01*
X141455300Y-68346667D02*
X141955300Y-68513333D01*
X141955300Y-68513333D02*
X141955300Y-68080000D01*
X141488633Y-67880000D02*
X141488633Y-67413333D01*
X141488633Y-67413333D02*
X142188633Y-67713333D01*
X142188633Y-67146666D02*
X141488633Y-67146666D01*
X142188633Y-66746666D02*
X141788633Y-67046666D01*
X141488633Y-66746666D02*
X141888633Y-67146666D01*
X142188633Y-66479999D02*
X142188633Y-66313333D01*
X142188633Y-66313333D02*
X142055300Y-66313333D01*
X142055300Y-66313333D02*
X142021966Y-66379999D01*
X142021966Y-66379999D02*
X141955300Y-66446666D01*
X141955300Y-66446666D02*
X141855300Y-66479999D01*
X141855300Y-66479999D02*
X141688633Y-66479999D01*
X141688633Y-66479999D02*
X141588633Y-66446666D01*
X141588633Y-66446666D02*
X141521966Y-66379999D01*
X141521966Y-66379999D02*
X141488633Y-66279999D01*
X141488633Y-66279999D02*
X141488633Y-66146666D01*
X141488633Y-66146666D02*
X141521966Y-66046666D01*
X141521966Y-66046666D02*
X141588633Y-65979999D01*
X141588633Y-65979999D02*
X141688633Y-65946666D01*
X141688633Y-65946666D02*
X141855300Y-65946666D01*
X141855300Y-65946666D02*
X141955300Y-65979999D01*
X141955300Y-65979999D02*
X142021966Y-66046666D01*
X142021966Y-66046666D02*
X142055300Y-66113333D01*
X142055300Y-66113333D02*
X142188633Y-66113333D01*
X142188633Y-66113333D02*
X142188633Y-65946666D01*
X132391966Y-68180000D02*
X132858633Y-68180000D01*
X132125300Y-68346667D02*
X132625300Y-68513333D01*
X132625300Y-68513333D02*
X132625300Y-68080000D01*
X132158633Y-67880000D02*
X132158633Y-67413333D01*
X132158633Y-67413333D02*
X132858633Y-67713333D01*
X132858633Y-67146666D02*
X132158633Y-67146666D01*
X132858633Y-66746666D02*
X132458633Y-67046666D01*
X132158633Y-66746666D02*
X132558633Y-67146666D01*
X132858633Y-66479999D02*
X132858633Y-66313333D01*
X132858633Y-66313333D02*
X132725300Y-66313333D01*
X132725300Y-66313333D02*
X132691966Y-66379999D01*
X132691966Y-66379999D02*
X132625300Y-66446666D01*
X132625300Y-66446666D02*
X132525300Y-66479999D01*
X132525300Y-66479999D02*
X132358633Y-66479999D01*
X132358633Y-66479999D02*
X132258633Y-66446666D01*
X132258633Y-66446666D02*
X132191966Y-66379999D01*
X132191966Y-66379999D02*
X132158633Y-66279999D01*
X132158633Y-66279999D02*
X132158633Y-66146666D01*
X132158633Y-66146666D02*
X132191966Y-66046666D01*
X132191966Y-66046666D02*
X132258633Y-65979999D01*
X132258633Y-65979999D02*
X132358633Y-65946666D01*
X132358633Y-65946666D02*
X132525300Y-65946666D01*
X132525300Y-65946666D02*
X132625300Y-65979999D01*
X132625300Y-65979999D02*
X132691966Y-66046666D01*
X132691966Y-66046666D02*
X132725300Y-66113333D01*
X132725300Y-66113333D02*
X132858633Y-66113333D01*
X132858633Y-66113333D02*
X132858633Y-65946666D01*
X121178633Y-50980000D02*
X121178633Y-50913333D01*
X121178633Y-50913333D02*
X121211966Y-50846666D01*
X121211966Y-50846666D02*
X121245300Y-50813333D01*
X121245300Y-50813333D02*
X121311966Y-50780000D01*
X121311966Y-50780000D02*
X121445300Y-50746666D01*
X121445300Y-50746666D02*
X121611966Y-50746666D01*
X121611966Y-50746666D02*
X121745300Y-50780000D01*
X121745300Y-50780000D02*
X121811966Y-50813333D01*
X121811966Y-50813333D02*
X121845300Y-50846666D01*
X121845300Y-50846666D02*
X121878633Y-50913333D01*
X121878633Y-50913333D02*
X121878633Y-50980000D01*
X121878633Y-50980000D02*
X121845300Y-51046666D01*
X121845300Y-51046666D02*
X121811966Y-51080000D01*
X121811966Y-51080000D02*
X121745300Y-51113333D01*
X121745300Y-51113333D02*
X121611966Y-51146666D01*
X121611966Y-51146666D02*
X121445300Y-51146666D01*
X121445300Y-51146666D02*
X121311966Y-51113333D01*
X121311966Y-51113333D02*
X121245300Y-51080000D01*
X121245300Y-51080000D02*
X121211966Y-51046666D01*
X121211966Y-51046666D02*
X121178633Y-50980000D01*
X121811966Y-50446666D02*
X121845300Y-50413333D01*
X121845300Y-50413333D02*
X121878633Y-50446666D01*
X121878633Y-50446666D02*
X121845300Y-50479999D01*
X121845300Y-50479999D02*
X121811966Y-50446666D01*
X121811966Y-50446666D02*
X121878633Y-50446666D01*
X121878633Y-49746666D02*
X121878633Y-50146666D01*
X121878633Y-49946666D02*
X121178633Y-49946666D01*
X121178633Y-49946666D02*
X121278633Y-50013333D01*
X121278633Y-50013333D02*
X121345300Y-50080000D01*
X121345300Y-50080000D02*
X121378633Y-50146666D01*
X121411966Y-49146666D02*
X121878633Y-49146666D01*
X121411966Y-49446666D02*
X121778633Y-49446666D01*
X121778633Y-49446666D02*
X121845300Y-49413333D01*
X121845300Y-49413333D02*
X121878633Y-49346666D01*
X121878633Y-49346666D02*
X121878633Y-49246666D01*
X121878633Y-49246666D02*
X121845300Y-49179999D01*
X121845300Y-49179999D02*
X121811966Y-49146666D01*
X121511966Y-48580000D02*
X121511966Y-48813333D01*
X121878633Y-48813333D02*
X121178633Y-48813333D01*
X121178633Y-48813333D02*
X121178633Y-48480000D01*
D12*
X77105095Y-81770902D02*
X77105095Y-80704235D01*
X77105095Y-80704235D02*
X78705095Y-81389950D01*
X77105095Y-79408997D02*
X77105095Y-79713759D01*
X77105095Y-79713759D02*
X77181285Y-79866140D01*
X77181285Y-79866140D02*
X77257476Y-79942330D01*
X77257476Y-79942330D02*
X77486047Y-80094711D01*
X77486047Y-80094711D02*
X77790809Y-80170902D01*
X77790809Y-80170902D02*
X78400333Y-80170902D01*
X78400333Y-80170902D02*
X78552714Y-80094711D01*
X78552714Y-80094711D02*
X78628905Y-80018521D01*
X78628905Y-80018521D02*
X78705095Y-79866140D01*
X78705095Y-79866140D02*
X78705095Y-79561378D01*
X78705095Y-79561378D02*
X78628905Y-79408997D01*
X78628905Y-79408997D02*
X78552714Y-79332806D01*
X78552714Y-79332806D02*
X78400333Y-79256616D01*
X78400333Y-79256616D02*
X78019381Y-79256616D01*
X78019381Y-79256616D02*
X77867000Y-79332806D01*
X77867000Y-79332806D02*
X77790809Y-79408997D01*
X77790809Y-79408997D02*
X77714619Y-79561378D01*
X77714619Y-79561378D02*
X77714619Y-79866140D01*
X77714619Y-79866140D02*
X77790809Y-80018521D01*
X77790809Y-80018521D02*
X77867000Y-80094711D01*
X77867000Y-80094711D02*
X78019381Y-80170902D01*
X78705095Y-77732806D02*
X78705095Y-78647092D01*
X78705095Y-78189949D02*
X77105095Y-78189949D01*
X77105095Y-78189949D02*
X77333666Y-78342330D01*
X77333666Y-78342330D02*
X77486047Y-78494711D01*
X77486047Y-78494711D02*
X77562238Y-78647092D01*
X77105095Y-76742329D02*
X77105095Y-76589948D01*
X77105095Y-76589948D02*
X77181285Y-76437567D01*
X77181285Y-76437567D02*
X77257476Y-76361377D01*
X77257476Y-76361377D02*
X77409857Y-76285186D01*
X77409857Y-76285186D02*
X77714619Y-76208996D01*
X77714619Y-76208996D02*
X78095571Y-76208996D01*
X78095571Y-76208996D02*
X78400333Y-76285186D01*
X78400333Y-76285186D02*
X78552714Y-76361377D01*
X78552714Y-76361377D02*
X78628905Y-76437567D01*
X78628905Y-76437567D02*
X78705095Y-76589948D01*
X78705095Y-76589948D02*
X78705095Y-76742329D01*
X78705095Y-76742329D02*
X78628905Y-76894710D01*
X78628905Y-76894710D02*
X78552714Y-76970901D01*
X78552714Y-76970901D02*
X78400333Y-77047091D01*
X78400333Y-77047091D02*
X78095571Y-77123282D01*
X78095571Y-77123282D02*
X77714619Y-77123282D01*
X77714619Y-77123282D02*
X77409857Y-77047091D01*
X77409857Y-77047091D02*
X77257476Y-76970901D01*
X77257476Y-76970901D02*
X77181285Y-76894710D01*
X77181285Y-76894710D02*
X77105095Y-76742329D01*
X77105095Y-73999471D02*
X77105095Y-73847090D01*
X77105095Y-73847090D02*
X77181285Y-73694709D01*
X77181285Y-73694709D02*
X77257476Y-73618519D01*
X77257476Y-73618519D02*
X77409857Y-73542328D01*
X77409857Y-73542328D02*
X77714619Y-73466138D01*
X77714619Y-73466138D02*
X78095571Y-73466138D01*
X78095571Y-73466138D02*
X78400333Y-73542328D01*
X78400333Y-73542328D02*
X78552714Y-73618519D01*
X78552714Y-73618519D02*
X78628905Y-73694709D01*
X78628905Y-73694709D02*
X78705095Y-73847090D01*
X78705095Y-73847090D02*
X78705095Y-73999471D01*
X78705095Y-73999471D02*
X78628905Y-74151852D01*
X78628905Y-74151852D02*
X78552714Y-74228043D01*
X78552714Y-74228043D02*
X78400333Y-74304233D01*
X78400333Y-74304233D02*
X78095571Y-74380424D01*
X78095571Y-74380424D02*
X77714619Y-74380424D01*
X77714619Y-74380424D02*
X77409857Y-74304233D01*
X77409857Y-74304233D02*
X77257476Y-74228043D01*
X77257476Y-74228043D02*
X77181285Y-74151852D01*
X77181285Y-74151852D02*
X77105095Y-73999471D01*
X77105095Y-72094709D02*
X77105095Y-72399471D01*
X77105095Y-72399471D02*
X77181285Y-72551852D01*
X77181285Y-72551852D02*
X77257476Y-72628042D01*
X77257476Y-72628042D02*
X77486047Y-72780423D01*
X77486047Y-72780423D02*
X77790809Y-72856614D01*
X77790809Y-72856614D02*
X78400333Y-72856614D01*
X78400333Y-72856614D02*
X78552714Y-72780423D01*
X78552714Y-72780423D02*
X78628905Y-72704233D01*
X78628905Y-72704233D02*
X78705095Y-72551852D01*
X78705095Y-72551852D02*
X78705095Y-72247090D01*
X78705095Y-72247090D02*
X78628905Y-72094709D01*
X78628905Y-72094709D02*
X78552714Y-72018518D01*
X78552714Y-72018518D02*
X78400333Y-71942328D01*
X78400333Y-71942328D02*
X78019381Y-71942328D01*
X78019381Y-71942328D02*
X77867000Y-72018518D01*
X77867000Y-72018518D02*
X77790809Y-72094709D01*
X77790809Y-72094709D02*
X77714619Y-72247090D01*
X77714619Y-72247090D02*
X77714619Y-72551852D01*
X77714619Y-72551852D02*
X77790809Y-72704233D01*
X77790809Y-72704233D02*
X77867000Y-72780423D01*
X77867000Y-72780423D02*
X78019381Y-72856614D01*
X77638428Y-70570899D02*
X78705095Y-70570899D01*
X77028905Y-70951851D02*
X78171762Y-71332804D01*
X78171762Y-71332804D02*
X78171762Y-70342327D01*
X78705095Y-68894708D02*
X78705095Y-69808994D01*
X78705095Y-69351851D02*
X77105095Y-69351851D01*
X77105095Y-69351851D02*
X77333666Y-69504232D01*
X77333666Y-69504232D02*
X77486047Y-69656613D01*
X77486047Y-69656613D02*
X77562238Y-69808994D01*
D11*
X120608633Y-69223333D02*
X120608633Y-69356666D01*
X120608633Y-69356666D02*
X120641966Y-69423333D01*
X120641966Y-69423333D02*
X120675300Y-69456666D01*
X120675300Y-69456666D02*
X120775300Y-69523333D01*
X120775300Y-69523333D02*
X120908633Y-69556666D01*
X120908633Y-69556666D02*
X121175300Y-69556666D01*
X121175300Y-69556666D02*
X121241966Y-69523333D01*
X121241966Y-69523333D02*
X121275300Y-69490000D01*
X121275300Y-69490000D02*
X121308633Y-69423333D01*
X121308633Y-69423333D02*
X121308633Y-69290000D01*
X121308633Y-69290000D02*
X121275300Y-69223333D01*
X121275300Y-69223333D02*
X121241966Y-69190000D01*
X121241966Y-69190000D02*
X121175300Y-69156666D01*
X121175300Y-69156666D02*
X121008633Y-69156666D01*
X121008633Y-69156666D02*
X120941966Y-69190000D01*
X120941966Y-69190000D02*
X120908633Y-69223333D01*
X120908633Y-69223333D02*
X120875300Y-69290000D01*
X120875300Y-69290000D02*
X120875300Y-69423333D01*
X120875300Y-69423333D02*
X120908633Y-69490000D01*
X120908633Y-69490000D02*
X120941966Y-69523333D01*
X120941966Y-69523333D02*
X121008633Y-69556666D01*
X120908633Y-68756666D02*
X120875300Y-68823333D01*
X120875300Y-68823333D02*
X120841966Y-68856666D01*
X120841966Y-68856666D02*
X120775300Y-68889999D01*
X120775300Y-68889999D02*
X120741966Y-68889999D01*
X120741966Y-68889999D02*
X120675300Y-68856666D01*
X120675300Y-68856666D02*
X120641966Y-68823333D01*
X120641966Y-68823333D02*
X120608633Y-68756666D01*
X120608633Y-68756666D02*
X120608633Y-68623333D01*
X120608633Y-68623333D02*
X120641966Y-68556666D01*
X120641966Y-68556666D02*
X120675300Y-68523333D01*
X120675300Y-68523333D02*
X120741966Y-68489999D01*
X120741966Y-68489999D02*
X120775300Y-68489999D01*
X120775300Y-68489999D02*
X120841966Y-68523333D01*
X120841966Y-68523333D02*
X120875300Y-68556666D01*
X120875300Y-68556666D02*
X120908633Y-68623333D01*
X120908633Y-68623333D02*
X120908633Y-68756666D01*
X120908633Y-68756666D02*
X120941966Y-68823333D01*
X120941966Y-68823333D02*
X120975300Y-68856666D01*
X120975300Y-68856666D02*
X121041966Y-68889999D01*
X121041966Y-68889999D02*
X121175300Y-68889999D01*
X121175300Y-68889999D02*
X121241966Y-68856666D01*
X121241966Y-68856666D02*
X121275300Y-68823333D01*
X121275300Y-68823333D02*
X121308633Y-68756666D01*
X121308633Y-68756666D02*
X121308633Y-68623333D01*
X121308633Y-68623333D02*
X121275300Y-68556666D01*
X121275300Y-68556666D02*
X121241966Y-68523333D01*
X121241966Y-68523333D02*
X121175300Y-68489999D01*
X121175300Y-68489999D02*
X121041966Y-68489999D01*
X121041966Y-68489999D02*
X120975300Y-68523333D01*
X120975300Y-68523333D02*
X120941966Y-68556666D01*
X120941966Y-68556666D02*
X120908633Y-68623333D01*
X120608633Y-68056666D02*
X120608633Y-67989999D01*
X120608633Y-67989999D02*
X120641966Y-67923332D01*
X120641966Y-67923332D02*
X120675300Y-67889999D01*
X120675300Y-67889999D02*
X120741966Y-67856666D01*
X120741966Y-67856666D02*
X120875300Y-67823332D01*
X120875300Y-67823332D02*
X121041966Y-67823332D01*
X121041966Y-67823332D02*
X121175300Y-67856666D01*
X121175300Y-67856666D02*
X121241966Y-67889999D01*
X121241966Y-67889999D02*
X121275300Y-67923332D01*
X121275300Y-67923332D02*
X121308633Y-67989999D01*
X121308633Y-67989999D02*
X121308633Y-68056666D01*
X121308633Y-68056666D02*
X121275300Y-68123332D01*
X121275300Y-68123332D02*
X121241966Y-68156666D01*
X121241966Y-68156666D02*
X121175300Y-68189999D01*
X121175300Y-68189999D02*
X121041966Y-68223332D01*
X121041966Y-68223332D02*
X120875300Y-68223332D01*
X120875300Y-68223332D02*
X120741966Y-68189999D01*
X120741966Y-68189999D02*
X120675300Y-68156666D01*
X120675300Y-68156666D02*
X120641966Y-68123332D01*
X120641966Y-68123332D02*
X120608633Y-68056666D01*
X121308633Y-67556665D02*
X121308633Y-67389999D01*
X121308633Y-67389999D02*
X121175300Y-67389999D01*
X121175300Y-67389999D02*
X121141966Y-67456665D01*
X121141966Y-67456665D02*
X121075300Y-67523332D01*
X121075300Y-67523332D02*
X120975300Y-67556665D01*
X120975300Y-67556665D02*
X120808633Y-67556665D01*
X120808633Y-67556665D02*
X120708633Y-67523332D01*
X120708633Y-67523332D02*
X120641966Y-67456665D01*
X120641966Y-67456665D02*
X120608633Y-67356665D01*
X120608633Y-67356665D02*
X120608633Y-67223332D01*
X120608633Y-67223332D02*
X120641966Y-67123332D01*
X120641966Y-67123332D02*
X120708633Y-67056665D01*
X120708633Y-67056665D02*
X120808633Y-67023332D01*
X120808633Y-67023332D02*
X120975300Y-67023332D01*
X120975300Y-67023332D02*
X121075300Y-67056665D01*
X121075300Y-67056665D02*
X121141966Y-67123332D01*
X121141966Y-67123332D02*
X121175300Y-67189999D01*
X121175300Y-67189999D02*
X121308633Y-67189999D01*
X121308633Y-67189999D02*
X121308633Y-67023332D01*
X123599999Y-49121966D02*
X123599999Y-49588633D01*
X123433333Y-48855300D02*
X123266666Y-49355300D01*
X123266666Y-49355300D02*
X123699999Y-49355300D01*
X123900000Y-48888633D02*
X124366666Y-48888633D01*
X124366666Y-48888633D02*
X124066666Y-49588633D01*
X124633333Y-49588633D02*
X124633333Y-48888633D01*
X125033333Y-49588633D02*
X124733333Y-49188633D01*
X125033333Y-48888633D02*
X124633333Y-49288633D01*
X125300000Y-49588633D02*
X125466667Y-49588633D01*
X125466667Y-49588633D02*
X125466667Y-49455300D01*
X125466667Y-49455300D02*
X125400000Y-49421966D01*
X125400000Y-49421966D02*
X125333333Y-49355300D01*
X125333333Y-49355300D02*
X125300000Y-49255300D01*
X125300000Y-49255300D02*
X125300000Y-49088633D01*
X125300000Y-49088633D02*
X125333333Y-48988633D01*
X125333333Y-48988633D02*
X125400000Y-48921966D01*
X125400000Y-48921966D02*
X125500000Y-48888633D01*
X125500000Y-48888633D02*
X125633333Y-48888633D01*
X125633333Y-48888633D02*
X125733333Y-48921966D01*
X125733333Y-48921966D02*
X125800000Y-48988633D01*
X125800000Y-48988633D02*
X125833333Y-49088633D01*
X125833333Y-49088633D02*
X125833333Y-49255300D01*
X125833333Y-49255300D02*
X125800000Y-49355300D01*
X125800000Y-49355300D02*
X125733333Y-49421966D01*
X125733333Y-49421966D02*
X125666667Y-49455300D01*
X125666667Y-49455300D02*
X125666667Y-49588633D01*
X125666667Y-49588633D02*
X125833333Y-49588633D01*
D10*
X131322295Y-71365237D02*
X130941342Y-71631904D01*
X131322295Y-71822380D02*
X130522295Y-71822380D01*
X130522295Y-71822380D02*
X130522295Y-71517618D01*
X130522295Y-71517618D02*
X130560390Y-71441428D01*
X130560390Y-71441428D02*
X130598485Y-71403333D01*
X130598485Y-71403333D02*
X130674676Y-71365237D01*
X130674676Y-71365237D02*
X130788961Y-71365237D01*
X130788961Y-71365237D02*
X130865152Y-71403333D01*
X130865152Y-71403333D02*
X130903247Y-71441428D01*
X130903247Y-71441428D02*
X130941342Y-71517618D01*
X130941342Y-71517618D02*
X130941342Y-71822380D01*
X130522295Y-71098571D02*
X130522295Y-70565237D01*
X130522295Y-70565237D02*
X131322295Y-70908095D01*
X130522295Y-70108094D02*
X130522295Y-70031904D01*
X130522295Y-70031904D02*
X130560390Y-69955713D01*
X130560390Y-69955713D02*
X130598485Y-69917618D01*
X130598485Y-69917618D02*
X130674676Y-69879523D01*
X130674676Y-69879523D02*
X130827057Y-69841428D01*
X130827057Y-69841428D02*
X131017533Y-69841428D01*
X131017533Y-69841428D02*
X131169914Y-69879523D01*
X131169914Y-69879523D02*
X131246104Y-69917618D01*
X131246104Y-69917618D02*
X131284200Y-69955713D01*
X131284200Y-69955713D02*
X131322295Y-70031904D01*
X131322295Y-70031904D02*
X131322295Y-70108094D01*
X131322295Y-70108094D02*
X131284200Y-70184285D01*
X131284200Y-70184285D02*
X131246104Y-70222380D01*
X131246104Y-70222380D02*
X131169914Y-70260475D01*
X131169914Y-70260475D02*
X131017533Y-70298571D01*
X131017533Y-70298571D02*
X130827057Y-70298571D01*
X130827057Y-70298571D02*
X130674676Y-70260475D01*
X130674676Y-70260475D02*
X130598485Y-70222380D01*
X130598485Y-70222380D02*
X130560390Y-70184285D01*
X130560390Y-70184285D02*
X130522295Y-70108094D01*
X130522295Y-69574761D02*
X130522295Y-69041427D01*
X130522295Y-69041427D02*
X131322295Y-69384285D01*
X138392295Y-71365237D02*
X138011342Y-71631904D01*
X138392295Y-71822380D02*
X137592295Y-71822380D01*
X137592295Y-71822380D02*
X137592295Y-71517618D01*
X137592295Y-71517618D02*
X137630390Y-71441428D01*
X137630390Y-71441428D02*
X137668485Y-71403333D01*
X137668485Y-71403333D02*
X137744676Y-71365237D01*
X137744676Y-71365237D02*
X137858961Y-71365237D01*
X137858961Y-71365237D02*
X137935152Y-71403333D01*
X137935152Y-71403333D02*
X137973247Y-71441428D01*
X137973247Y-71441428D02*
X138011342Y-71517618D01*
X138011342Y-71517618D02*
X138011342Y-71822380D01*
X137592295Y-71098571D02*
X137592295Y-70565237D01*
X137592295Y-70565237D02*
X138392295Y-70908095D01*
X137592295Y-70108094D02*
X137592295Y-70031904D01*
X137592295Y-70031904D02*
X137630390Y-69955713D01*
X137630390Y-69955713D02*
X137668485Y-69917618D01*
X137668485Y-69917618D02*
X137744676Y-69879523D01*
X137744676Y-69879523D02*
X137897057Y-69841428D01*
X137897057Y-69841428D02*
X138087533Y-69841428D01*
X138087533Y-69841428D02*
X138239914Y-69879523D01*
X138239914Y-69879523D02*
X138316104Y-69917618D01*
X138316104Y-69917618D02*
X138354200Y-69955713D01*
X138354200Y-69955713D02*
X138392295Y-70031904D01*
X138392295Y-70031904D02*
X138392295Y-70108094D01*
X138392295Y-70108094D02*
X138354200Y-70184285D01*
X138354200Y-70184285D02*
X138316104Y-70222380D01*
X138316104Y-70222380D02*
X138239914Y-70260475D01*
X138239914Y-70260475D02*
X138087533Y-70298571D01*
X138087533Y-70298571D02*
X137897057Y-70298571D01*
X137897057Y-70298571D02*
X137744676Y-70260475D01*
X137744676Y-70260475D02*
X137668485Y-70222380D01*
X137668485Y-70222380D02*
X137630390Y-70184285D01*
X137630390Y-70184285D02*
X137592295Y-70108094D01*
X138392295Y-69079523D02*
X138392295Y-69536666D01*
X138392295Y-69308094D02*
X137592295Y-69308094D01*
X137592295Y-69308094D02*
X137706580Y-69384285D01*
X137706580Y-69384285D02*
X137782771Y-69460475D01*
X137782771Y-69460475D02*
X137820866Y-69536666D01*
X140392295Y-71365237D02*
X140011342Y-71631904D01*
X140392295Y-71822380D02*
X139592295Y-71822380D01*
X139592295Y-71822380D02*
X139592295Y-71517618D01*
X139592295Y-71517618D02*
X139630390Y-71441428D01*
X139630390Y-71441428D02*
X139668485Y-71403333D01*
X139668485Y-71403333D02*
X139744676Y-71365237D01*
X139744676Y-71365237D02*
X139858961Y-71365237D01*
X139858961Y-71365237D02*
X139935152Y-71403333D01*
X139935152Y-71403333D02*
X139973247Y-71441428D01*
X139973247Y-71441428D02*
X140011342Y-71517618D01*
X140011342Y-71517618D02*
X140011342Y-71822380D01*
X139592295Y-71098571D02*
X139592295Y-70565237D01*
X139592295Y-70565237D02*
X140392295Y-70908095D01*
X139592295Y-70108094D02*
X139592295Y-70031904D01*
X139592295Y-70031904D02*
X139630390Y-69955713D01*
X139630390Y-69955713D02*
X139668485Y-69917618D01*
X139668485Y-69917618D02*
X139744676Y-69879523D01*
X139744676Y-69879523D02*
X139897057Y-69841428D01*
X139897057Y-69841428D02*
X140087533Y-69841428D01*
X140087533Y-69841428D02*
X140239914Y-69879523D01*
X140239914Y-69879523D02*
X140316104Y-69917618D01*
X140316104Y-69917618D02*
X140354200Y-69955713D01*
X140354200Y-69955713D02*
X140392295Y-70031904D01*
X140392295Y-70031904D02*
X140392295Y-70108094D01*
X140392295Y-70108094D02*
X140354200Y-70184285D01*
X140354200Y-70184285D02*
X140316104Y-70222380D01*
X140316104Y-70222380D02*
X140239914Y-70260475D01*
X140239914Y-70260475D02*
X140087533Y-70298571D01*
X140087533Y-70298571D02*
X139897057Y-70298571D01*
X139897057Y-70298571D02*
X139744676Y-70260475D01*
X139744676Y-70260475D02*
X139668485Y-70222380D01*
X139668485Y-70222380D02*
X139630390Y-70184285D01*
X139630390Y-70184285D02*
X139592295Y-70108094D01*
X139668485Y-69536666D02*
X139630390Y-69498570D01*
X139630390Y-69498570D02*
X139592295Y-69422380D01*
X139592295Y-69422380D02*
X139592295Y-69231904D01*
X139592295Y-69231904D02*
X139630390Y-69155713D01*
X139630390Y-69155713D02*
X139668485Y-69117618D01*
X139668485Y-69117618D02*
X139744676Y-69079523D01*
X139744676Y-69079523D02*
X139820866Y-69079523D01*
X139820866Y-69079523D02*
X139935152Y-69117618D01*
X139935152Y-69117618D02*
X140392295Y-69574761D01*
X140392295Y-69574761D02*
X140392295Y-69079523D01*
X129362295Y-71365237D02*
X128981342Y-71631904D01*
X129362295Y-71822380D02*
X128562295Y-71822380D01*
X128562295Y-71822380D02*
X128562295Y-71517618D01*
X128562295Y-71517618D02*
X128600390Y-71441428D01*
X128600390Y-71441428D02*
X128638485Y-71403333D01*
X128638485Y-71403333D02*
X128714676Y-71365237D01*
X128714676Y-71365237D02*
X128828961Y-71365237D01*
X128828961Y-71365237D02*
X128905152Y-71403333D01*
X128905152Y-71403333D02*
X128943247Y-71441428D01*
X128943247Y-71441428D02*
X128981342Y-71517618D01*
X128981342Y-71517618D02*
X128981342Y-71822380D01*
X128562295Y-71098571D02*
X128562295Y-70565237D01*
X128562295Y-70565237D02*
X129362295Y-70908095D01*
X128562295Y-70108094D02*
X128562295Y-70031904D01*
X128562295Y-70031904D02*
X128600390Y-69955713D01*
X128600390Y-69955713D02*
X128638485Y-69917618D01*
X128638485Y-69917618D02*
X128714676Y-69879523D01*
X128714676Y-69879523D02*
X128867057Y-69841428D01*
X128867057Y-69841428D02*
X129057533Y-69841428D01*
X129057533Y-69841428D02*
X129209914Y-69879523D01*
X129209914Y-69879523D02*
X129286104Y-69917618D01*
X129286104Y-69917618D02*
X129324200Y-69955713D01*
X129324200Y-69955713D02*
X129362295Y-70031904D01*
X129362295Y-70031904D02*
X129362295Y-70108094D01*
X129362295Y-70108094D02*
X129324200Y-70184285D01*
X129324200Y-70184285D02*
X129286104Y-70222380D01*
X129286104Y-70222380D02*
X129209914Y-70260475D01*
X129209914Y-70260475D02*
X129057533Y-70298571D01*
X129057533Y-70298571D02*
X128867057Y-70298571D01*
X128867057Y-70298571D02*
X128714676Y-70260475D01*
X128714676Y-70260475D02*
X128638485Y-70222380D01*
X128638485Y-70222380D02*
X128600390Y-70184285D01*
X128600390Y-70184285D02*
X128562295Y-70108094D01*
X128905152Y-69384285D02*
X128867057Y-69460475D01*
X128867057Y-69460475D02*
X128828961Y-69498570D01*
X128828961Y-69498570D02*
X128752771Y-69536666D01*
X128752771Y-69536666D02*
X128714676Y-69536666D01*
X128714676Y-69536666D02*
X128638485Y-69498570D01*
X128638485Y-69498570D02*
X128600390Y-69460475D01*
X128600390Y-69460475D02*
X128562295Y-69384285D01*
X128562295Y-69384285D02*
X128562295Y-69231904D01*
X128562295Y-69231904D02*
X128600390Y-69155713D01*
X128600390Y-69155713D02*
X128638485Y-69117618D01*
X128638485Y-69117618D02*
X128714676Y-69079523D01*
X128714676Y-69079523D02*
X128752771Y-69079523D01*
X128752771Y-69079523D02*
X128828961Y-69117618D01*
X128828961Y-69117618D02*
X128867057Y-69155713D01*
X128867057Y-69155713D02*
X128905152Y-69231904D01*
X128905152Y-69231904D02*
X128905152Y-69384285D01*
X128905152Y-69384285D02*
X128943247Y-69460475D01*
X128943247Y-69460475D02*
X128981342Y-69498570D01*
X128981342Y-69498570D02*
X129057533Y-69536666D01*
X129057533Y-69536666D02*
X129209914Y-69536666D01*
X129209914Y-69536666D02*
X129286104Y-69498570D01*
X129286104Y-69498570D02*
X129324200Y-69460475D01*
X129324200Y-69460475D02*
X129362295Y-69384285D01*
X129362295Y-69384285D02*
X129362295Y-69231904D01*
X129362295Y-69231904D02*
X129324200Y-69155713D01*
X129324200Y-69155713D02*
X129286104Y-69117618D01*
X129286104Y-69117618D02*
X129209914Y-69079523D01*
X129209914Y-69079523D02*
X129057533Y-69079523D01*
X129057533Y-69079523D02*
X128981342Y-69117618D01*
X128981342Y-69117618D02*
X128943247Y-69155713D01*
X128943247Y-69155713D02*
X128905152Y-69231904D01*
X113138295Y-68115237D02*
X112757342Y-68381904D01*
X113138295Y-68572380D02*
X112338295Y-68572380D01*
X112338295Y-68572380D02*
X112338295Y-68267618D01*
X112338295Y-68267618D02*
X112376390Y-68191428D01*
X112376390Y-68191428D02*
X112414485Y-68153333D01*
X112414485Y-68153333D02*
X112490676Y-68115237D01*
X112490676Y-68115237D02*
X112604961Y-68115237D01*
X112604961Y-68115237D02*
X112681152Y-68153333D01*
X112681152Y-68153333D02*
X112719247Y-68191428D01*
X112719247Y-68191428D02*
X112757342Y-68267618D01*
X112757342Y-68267618D02*
X112757342Y-68572380D01*
X112338295Y-67848571D02*
X112338295Y-67315237D01*
X112338295Y-67315237D02*
X113138295Y-67658095D01*
X113138295Y-66591428D02*
X113138295Y-67048571D01*
X113138295Y-66819999D02*
X112338295Y-66819999D01*
X112338295Y-66819999D02*
X112452580Y-66896190D01*
X112452580Y-66896190D02*
X112528771Y-66972380D01*
X112528771Y-66972380D02*
X112566866Y-67048571D01*
X112414485Y-66286666D02*
X112376390Y-66248570D01*
X112376390Y-66248570D02*
X112338295Y-66172380D01*
X112338295Y-66172380D02*
X112338295Y-65981904D01*
X112338295Y-65981904D02*
X112376390Y-65905713D01*
X112376390Y-65905713D02*
X112414485Y-65867618D01*
X112414485Y-65867618D02*
X112490676Y-65829523D01*
X112490676Y-65829523D02*
X112566866Y-65829523D01*
X112566866Y-65829523D02*
X112681152Y-65867618D01*
X112681152Y-65867618D02*
X113138295Y-66324761D01*
X113138295Y-66324761D02*
X113138295Y-65829523D01*
D13*
X152184285Y-42234075D02*
X152122381Y-42295980D01*
X152122381Y-42295980D02*
X151936666Y-42357884D01*
X151936666Y-42357884D02*
X151812857Y-42357884D01*
X151812857Y-42357884D02*
X151627143Y-42295980D01*
X151627143Y-42295980D02*
X151503333Y-42172170D01*
X151503333Y-42172170D02*
X151441428Y-42048360D01*
X151441428Y-42048360D02*
X151379524Y-41800741D01*
X151379524Y-41800741D02*
X151379524Y-41615027D01*
X151379524Y-41615027D02*
X151441428Y-41367408D01*
X151441428Y-41367408D02*
X151503333Y-41243599D01*
X151503333Y-41243599D02*
X151627143Y-41119789D01*
X151627143Y-41119789D02*
X151812857Y-41057884D01*
X151812857Y-41057884D02*
X151936666Y-41057884D01*
X151936666Y-41057884D02*
X152122381Y-41119789D01*
X152122381Y-41119789D02*
X152184285Y-41181694D01*
X152741428Y-42357884D02*
X152741428Y-41057884D01*
X152741428Y-41057884D02*
X153484285Y-42357884D01*
X153484285Y-42357884D02*
X153484285Y-41057884D01*
X154289048Y-41615027D02*
X154165238Y-41553122D01*
X154165238Y-41553122D02*
X154103333Y-41491218D01*
X154103333Y-41491218D02*
X154041429Y-41367408D01*
X154041429Y-41367408D02*
X154041429Y-41305503D01*
X154041429Y-41305503D02*
X154103333Y-41181694D01*
X154103333Y-41181694D02*
X154165238Y-41119789D01*
X154165238Y-41119789D02*
X154289048Y-41057884D01*
X154289048Y-41057884D02*
X154536667Y-41057884D01*
X154536667Y-41057884D02*
X154660476Y-41119789D01*
X154660476Y-41119789D02*
X154722381Y-41181694D01*
X154722381Y-41181694D02*
X154784286Y-41305503D01*
X154784286Y-41305503D02*
X154784286Y-41367408D01*
X154784286Y-41367408D02*
X154722381Y-41491218D01*
X154722381Y-41491218D02*
X154660476Y-41553122D01*
X154660476Y-41553122D02*
X154536667Y-41615027D01*
X154536667Y-41615027D02*
X154289048Y-41615027D01*
X154289048Y-41615027D02*
X154165238Y-41676932D01*
X154165238Y-41676932D02*
X154103333Y-41738837D01*
X154103333Y-41738837D02*
X154041429Y-41862646D01*
X154041429Y-41862646D02*
X154041429Y-42110265D01*
X154041429Y-42110265D02*
X154103333Y-42234075D01*
X154103333Y-42234075D02*
X154165238Y-42295980D01*
X154165238Y-42295980D02*
X154289048Y-42357884D01*
X154289048Y-42357884D02*
X154536667Y-42357884D01*
X154536667Y-42357884D02*
X154660476Y-42295980D01*
X154660476Y-42295980D02*
X154722381Y-42234075D01*
X154722381Y-42234075D02*
X154784286Y-42110265D01*
X154784286Y-42110265D02*
X154784286Y-41862646D01*
X154784286Y-41862646D02*
X154722381Y-41738837D01*
X154722381Y-41738837D02*
X154660476Y-41676932D01*
X154660476Y-41676932D02*
X154536667Y-41615027D01*
X155589047Y-41057884D02*
X155712857Y-41057884D01*
X155712857Y-41057884D02*
X155836666Y-41119789D01*
X155836666Y-41119789D02*
X155898571Y-41181694D01*
X155898571Y-41181694D02*
X155960476Y-41305503D01*
X155960476Y-41305503D02*
X156022381Y-41553122D01*
X156022381Y-41553122D02*
X156022381Y-41862646D01*
X156022381Y-41862646D02*
X155960476Y-42110265D01*
X155960476Y-42110265D02*
X155898571Y-42234075D01*
X155898571Y-42234075D02*
X155836666Y-42295980D01*
X155836666Y-42295980D02*
X155712857Y-42357884D01*
X155712857Y-42357884D02*
X155589047Y-42357884D01*
X155589047Y-42357884D02*
X155465238Y-42295980D01*
X155465238Y-42295980D02*
X155403333Y-42234075D01*
X155403333Y-42234075D02*
X155341428Y-42110265D01*
X155341428Y-42110265D02*
X155279524Y-41862646D01*
X155279524Y-41862646D02*
X155279524Y-41553122D01*
X155279524Y-41553122D02*
X155341428Y-41305503D01*
X155341428Y-41305503D02*
X155403333Y-41181694D01*
X155403333Y-41181694D02*
X155465238Y-41119789D01*
X155465238Y-41119789D02*
X155589047Y-41057884D01*
X156827142Y-41057884D02*
X156950952Y-41057884D01*
X156950952Y-41057884D02*
X157074761Y-41119789D01*
X157074761Y-41119789D02*
X157136666Y-41181694D01*
X157136666Y-41181694D02*
X157198571Y-41305503D01*
X157198571Y-41305503D02*
X157260476Y-41553122D01*
X157260476Y-41553122D02*
X157260476Y-41862646D01*
X157260476Y-41862646D02*
X157198571Y-42110265D01*
X157198571Y-42110265D02*
X157136666Y-42234075D01*
X157136666Y-42234075D02*
X157074761Y-42295980D01*
X157074761Y-42295980D02*
X156950952Y-42357884D01*
X156950952Y-42357884D02*
X156827142Y-42357884D01*
X156827142Y-42357884D02*
X156703333Y-42295980D01*
X156703333Y-42295980D02*
X156641428Y-42234075D01*
X156641428Y-42234075D02*
X156579523Y-42110265D01*
X156579523Y-42110265D02*
X156517619Y-41862646D01*
X156517619Y-41862646D02*
X156517619Y-41553122D01*
X156517619Y-41553122D02*
X156579523Y-41305503D01*
X156579523Y-41305503D02*
X156641428Y-41181694D01*
X156641428Y-41181694D02*
X156703333Y-41119789D01*
X156703333Y-41119789D02*
X156827142Y-41057884D01*
X145099073Y-38317384D02*
X144356216Y-38317384D01*
X144727644Y-38317384D02*
X144727644Y-37017384D01*
X144727644Y-37017384D02*
X144603835Y-37203099D01*
X144603835Y-37203099D02*
X144480025Y-37326908D01*
X144480025Y-37326908D02*
X144356216Y-37388813D01*
X145594311Y-37141194D02*
X145656215Y-37079289D01*
X145656215Y-37079289D02*
X145780025Y-37017384D01*
X145780025Y-37017384D02*
X146089549Y-37017384D01*
X146089549Y-37017384D02*
X146213358Y-37079289D01*
X146213358Y-37079289D02*
X146275263Y-37141194D01*
X146275263Y-37141194D02*
X146337168Y-37265003D01*
X146337168Y-37265003D02*
X146337168Y-37388813D01*
X146337168Y-37388813D02*
X146275263Y-37574527D01*
X146275263Y-37574527D02*
X145532406Y-38317384D01*
X145532406Y-38317384D02*
X146337168Y-38317384D01*
X163189073Y-38247384D02*
X162446216Y-38247384D01*
X162817644Y-38247384D02*
X162817644Y-36947384D01*
X162817644Y-36947384D02*
X162693835Y-37133099D01*
X162693835Y-37133099D02*
X162570025Y-37256908D01*
X162570025Y-37256908D02*
X162446216Y-37318813D01*
D10*
X112802295Y-51945237D02*
X112421342Y-52211904D01*
X112802295Y-52402380D02*
X112002295Y-52402380D01*
X112002295Y-52402380D02*
X112002295Y-52097618D01*
X112002295Y-52097618D02*
X112040390Y-52021428D01*
X112040390Y-52021428D02*
X112078485Y-51983333D01*
X112078485Y-51983333D02*
X112154676Y-51945237D01*
X112154676Y-51945237D02*
X112268961Y-51945237D01*
X112268961Y-51945237D02*
X112345152Y-51983333D01*
X112345152Y-51983333D02*
X112383247Y-52021428D01*
X112383247Y-52021428D02*
X112421342Y-52097618D01*
X112421342Y-52097618D02*
X112421342Y-52402380D01*
X112002295Y-51678571D02*
X112002295Y-51145237D01*
X112002295Y-51145237D02*
X112802295Y-51488095D01*
X112802295Y-50421428D02*
X112802295Y-50878571D01*
X112802295Y-50649999D02*
X112002295Y-50649999D01*
X112002295Y-50649999D02*
X112116580Y-50726190D01*
X112116580Y-50726190D02*
X112192771Y-50802380D01*
X112192771Y-50802380D02*
X112230866Y-50878571D01*
X112002295Y-49926189D02*
X112002295Y-49849999D01*
X112002295Y-49849999D02*
X112040390Y-49773808D01*
X112040390Y-49773808D02*
X112078485Y-49735713D01*
X112078485Y-49735713D02*
X112154676Y-49697618D01*
X112154676Y-49697618D02*
X112307057Y-49659523D01*
X112307057Y-49659523D02*
X112497533Y-49659523D01*
X112497533Y-49659523D02*
X112649914Y-49697618D01*
X112649914Y-49697618D02*
X112726104Y-49735713D01*
X112726104Y-49735713D02*
X112764200Y-49773808D01*
X112764200Y-49773808D02*
X112802295Y-49849999D01*
X112802295Y-49849999D02*
X112802295Y-49926189D01*
X112802295Y-49926189D02*
X112764200Y-50002380D01*
X112764200Y-50002380D02*
X112726104Y-50040475D01*
X112726104Y-50040475D02*
X112649914Y-50078570D01*
X112649914Y-50078570D02*
X112497533Y-50116666D01*
X112497533Y-50116666D02*
X112307057Y-50116666D01*
X112307057Y-50116666D02*
X112154676Y-50078570D01*
X112154676Y-50078570D02*
X112078485Y-50040475D01*
X112078485Y-50040475D02*
X112040390Y-50002380D01*
X112040390Y-50002380D02*
X112002295Y-49926189D01*
X127223095Y-51889819D02*
X127223095Y-52699342D01*
X127223095Y-52699342D02*
X127270714Y-52794580D01*
X127270714Y-52794580D02*
X127318333Y-52842200D01*
X127318333Y-52842200D02*
X127413571Y-52889819D01*
X127413571Y-52889819D02*
X127604047Y-52889819D01*
X127604047Y-52889819D02*
X127699285Y-52842200D01*
X127699285Y-52842200D02*
X127746904Y-52794580D01*
X127746904Y-52794580D02*
X127794523Y-52699342D01*
X127794523Y-52699342D02*
X127794523Y-51889819D01*
X128794523Y-52889819D02*
X128223095Y-52889819D01*
X128508809Y-52889819D02*
X128508809Y-51889819D01*
X128508809Y-51889819D02*
X128413571Y-52032676D01*
X128413571Y-52032676D02*
X128318333Y-52127914D01*
X128318333Y-52127914D02*
X128223095Y-52175533D01*
X114352295Y-68115237D02*
X113971342Y-68381904D01*
X114352295Y-68572380D02*
X113552295Y-68572380D01*
X113552295Y-68572380D02*
X113552295Y-68267618D01*
X113552295Y-68267618D02*
X113590390Y-68191428D01*
X113590390Y-68191428D02*
X113628485Y-68153333D01*
X113628485Y-68153333D02*
X113704676Y-68115237D01*
X113704676Y-68115237D02*
X113818961Y-68115237D01*
X113818961Y-68115237D02*
X113895152Y-68153333D01*
X113895152Y-68153333D02*
X113933247Y-68191428D01*
X113933247Y-68191428D02*
X113971342Y-68267618D01*
X113971342Y-68267618D02*
X113971342Y-68572380D01*
X113552295Y-67848571D02*
X113552295Y-67315237D01*
X113552295Y-67315237D02*
X114352295Y-67658095D01*
X114352295Y-66591428D02*
X114352295Y-67048571D01*
X114352295Y-66819999D02*
X113552295Y-66819999D01*
X113552295Y-66819999D02*
X113666580Y-66896190D01*
X113666580Y-66896190D02*
X113742771Y-66972380D01*
X113742771Y-66972380D02*
X113780866Y-67048571D01*
X114352295Y-65829523D02*
X114352295Y-66286666D01*
X114352295Y-66058094D02*
X113552295Y-66058094D01*
X113552295Y-66058094D02*
X113666580Y-66134285D01*
X113666580Y-66134285D02*
X113742771Y-66210475D01*
X113742771Y-66210475D02*
X113780866Y-66286666D01*
X125442295Y-71365237D02*
X125061342Y-71631904D01*
X125442295Y-71822380D02*
X124642295Y-71822380D01*
X124642295Y-71822380D02*
X124642295Y-71517618D01*
X124642295Y-71517618D02*
X124680390Y-71441428D01*
X124680390Y-71441428D02*
X124718485Y-71403333D01*
X124718485Y-71403333D02*
X124794676Y-71365237D01*
X124794676Y-71365237D02*
X124908961Y-71365237D01*
X124908961Y-71365237D02*
X124985152Y-71403333D01*
X124985152Y-71403333D02*
X125023247Y-71441428D01*
X125023247Y-71441428D02*
X125061342Y-71517618D01*
X125061342Y-71517618D02*
X125061342Y-71822380D01*
X124642295Y-71098571D02*
X124642295Y-70565237D01*
X124642295Y-70565237D02*
X125442295Y-70908095D01*
X124642295Y-70108094D02*
X124642295Y-70031904D01*
X124642295Y-70031904D02*
X124680390Y-69955713D01*
X124680390Y-69955713D02*
X124718485Y-69917618D01*
X124718485Y-69917618D02*
X124794676Y-69879523D01*
X124794676Y-69879523D02*
X124947057Y-69841428D01*
X124947057Y-69841428D02*
X125137533Y-69841428D01*
X125137533Y-69841428D02*
X125289914Y-69879523D01*
X125289914Y-69879523D02*
X125366104Y-69917618D01*
X125366104Y-69917618D02*
X125404200Y-69955713D01*
X125404200Y-69955713D02*
X125442295Y-70031904D01*
X125442295Y-70031904D02*
X125442295Y-70108094D01*
X125442295Y-70108094D02*
X125404200Y-70184285D01*
X125404200Y-70184285D02*
X125366104Y-70222380D01*
X125366104Y-70222380D02*
X125289914Y-70260475D01*
X125289914Y-70260475D02*
X125137533Y-70298571D01*
X125137533Y-70298571D02*
X124947057Y-70298571D01*
X124947057Y-70298571D02*
X124794676Y-70260475D01*
X124794676Y-70260475D02*
X124718485Y-70222380D01*
X124718485Y-70222380D02*
X124680390Y-70184285D01*
X124680390Y-70184285D02*
X124642295Y-70108094D01*
X124642295Y-69155713D02*
X124642295Y-69308094D01*
X124642295Y-69308094D02*
X124680390Y-69384285D01*
X124680390Y-69384285D02*
X124718485Y-69422380D01*
X124718485Y-69422380D02*
X124832771Y-69498570D01*
X124832771Y-69498570D02*
X124985152Y-69536666D01*
X124985152Y-69536666D02*
X125289914Y-69536666D01*
X125289914Y-69536666D02*
X125366104Y-69498570D01*
X125366104Y-69498570D02*
X125404200Y-69460475D01*
X125404200Y-69460475D02*
X125442295Y-69384285D01*
X125442295Y-69384285D02*
X125442295Y-69231904D01*
X125442295Y-69231904D02*
X125404200Y-69155713D01*
X125404200Y-69155713D02*
X125366104Y-69117618D01*
X125366104Y-69117618D02*
X125289914Y-69079523D01*
X125289914Y-69079523D02*
X125099438Y-69079523D01*
X125099438Y-69079523D02*
X125023247Y-69117618D01*
X125023247Y-69117618D02*
X124985152Y-69155713D01*
X124985152Y-69155713D02*
X124947057Y-69231904D01*
X124947057Y-69231904D02*
X124947057Y-69384285D01*
X124947057Y-69384285D02*
X124985152Y-69460475D01*
X124985152Y-69460475D02*
X125023247Y-69498570D01*
X125023247Y-69498570D02*
X125099438Y-69536666D01*
D13*
X156039926Y-56017884D02*
X156039926Y-54717884D01*
X156039926Y-54717884D02*
X156349450Y-54717884D01*
X156349450Y-54717884D02*
X156535164Y-54779789D01*
X156535164Y-54779789D02*
X156658974Y-54903599D01*
X156658974Y-54903599D02*
X156720879Y-55027408D01*
X156720879Y-55027408D02*
X156782783Y-55275027D01*
X156782783Y-55275027D02*
X156782783Y-55460741D01*
X156782783Y-55460741D02*
X156720879Y-55708360D01*
X156720879Y-55708360D02*
X156658974Y-55832170D01*
X156658974Y-55832170D02*
X156535164Y-55955980D01*
X156535164Y-55955980D02*
X156349450Y-56017884D01*
X156349450Y-56017884D02*
X156039926Y-56017884D01*
X157525641Y-55275027D02*
X157401831Y-55213122D01*
X157401831Y-55213122D02*
X157339926Y-55151218D01*
X157339926Y-55151218D02*
X157278022Y-55027408D01*
X157278022Y-55027408D02*
X157278022Y-54965503D01*
X157278022Y-54965503D02*
X157339926Y-54841694D01*
X157339926Y-54841694D02*
X157401831Y-54779789D01*
X157401831Y-54779789D02*
X157525641Y-54717884D01*
X157525641Y-54717884D02*
X157773260Y-54717884D01*
X157773260Y-54717884D02*
X157897069Y-54779789D01*
X157897069Y-54779789D02*
X157958974Y-54841694D01*
X157958974Y-54841694D02*
X158020879Y-54965503D01*
X158020879Y-54965503D02*
X158020879Y-55027408D01*
X158020879Y-55027408D02*
X157958974Y-55151218D01*
X157958974Y-55151218D02*
X157897069Y-55213122D01*
X157897069Y-55213122D02*
X157773260Y-55275027D01*
X157773260Y-55275027D02*
X157525641Y-55275027D01*
X157525641Y-55275027D02*
X157401831Y-55336932D01*
X157401831Y-55336932D02*
X157339926Y-55398837D01*
X157339926Y-55398837D02*
X157278022Y-55522646D01*
X157278022Y-55522646D02*
X157278022Y-55770265D01*
X157278022Y-55770265D02*
X157339926Y-55894075D01*
X157339926Y-55894075D02*
X157401831Y-55955980D01*
X157401831Y-55955980D02*
X157525641Y-56017884D01*
X157525641Y-56017884D02*
X157773260Y-56017884D01*
X157773260Y-56017884D02*
X157897069Y-55955980D01*
X157897069Y-55955980D02*
X157958974Y-55894075D01*
X157958974Y-55894075D02*
X158020879Y-55770265D01*
X158020879Y-55770265D02*
X158020879Y-55522646D01*
X158020879Y-55522646D02*
X157958974Y-55398837D01*
X157958974Y-55398837D02*
X157897069Y-55336932D01*
X157897069Y-55336932D02*
X157773260Y-55275027D01*
X158825640Y-54717884D02*
X158949450Y-54717884D01*
X158949450Y-54717884D02*
X159073259Y-54779789D01*
X159073259Y-54779789D02*
X159135164Y-54841694D01*
X159135164Y-54841694D02*
X159197069Y-54965503D01*
X159197069Y-54965503D02*
X159258974Y-55213122D01*
X159258974Y-55213122D02*
X159258974Y-55522646D01*
X159258974Y-55522646D02*
X159197069Y-55770265D01*
X159197069Y-55770265D02*
X159135164Y-55894075D01*
X159135164Y-55894075D02*
X159073259Y-55955980D01*
X159073259Y-55955980D02*
X158949450Y-56017884D01*
X158949450Y-56017884D02*
X158825640Y-56017884D01*
X158825640Y-56017884D02*
X158701831Y-55955980D01*
X158701831Y-55955980D02*
X158639926Y-55894075D01*
X158639926Y-55894075D02*
X158578021Y-55770265D01*
X158578021Y-55770265D02*
X158516117Y-55522646D01*
X158516117Y-55522646D02*
X158516117Y-55213122D01*
X158516117Y-55213122D02*
X158578021Y-54965503D01*
X158578021Y-54965503D02*
X158639926Y-54841694D01*
X158639926Y-54841694D02*
X158701831Y-54779789D01*
X158701831Y-54779789D02*
X158825640Y-54717884D01*
X160063735Y-54717884D02*
X160187545Y-54717884D01*
X160187545Y-54717884D02*
X160311354Y-54779789D01*
X160311354Y-54779789D02*
X160373259Y-54841694D01*
X160373259Y-54841694D02*
X160435164Y-54965503D01*
X160435164Y-54965503D02*
X160497069Y-55213122D01*
X160497069Y-55213122D02*
X160497069Y-55522646D01*
X160497069Y-55522646D02*
X160435164Y-55770265D01*
X160435164Y-55770265D02*
X160373259Y-55894075D01*
X160373259Y-55894075D02*
X160311354Y-55955980D01*
X160311354Y-55955980D02*
X160187545Y-56017884D01*
X160187545Y-56017884D02*
X160063735Y-56017884D01*
X160063735Y-56017884D02*
X159939926Y-55955980D01*
X159939926Y-55955980D02*
X159878021Y-55894075D01*
X159878021Y-55894075D02*
X159816116Y-55770265D01*
X159816116Y-55770265D02*
X159754212Y-55522646D01*
X159754212Y-55522646D02*
X159754212Y-55213122D01*
X159754212Y-55213122D02*
X159816116Y-54965503D01*
X159816116Y-54965503D02*
X159878021Y-54841694D01*
X159878021Y-54841694D02*
X159939926Y-54779789D01*
X159939926Y-54779789D02*
X160063735Y-54717884D01*
D10*
X145912295Y-71332737D02*
X145531342Y-71599404D01*
X145912295Y-71789880D02*
X145112295Y-71789880D01*
X145112295Y-71789880D02*
X145112295Y-71485118D01*
X145112295Y-71485118D02*
X145150390Y-71408928D01*
X145150390Y-71408928D02*
X145188485Y-71370833D01*
X145188485Y-71370833D02*
X145264676Y-71332737D01*
X145264676Y-71332737D02*
X145378961Y-71332737D01*
X145378961Y-71332737D02*
X145455152Y-71370833D01*
X145455152Y-71370833D02*
X145493247Y-71408928D01*
X145493247Y-71408928D02*
X145531342Y-71485118D01*
X145531342Y-71485118D02*
X145531342Y-71789880D01*
X145112295Y-71066071D02*
X145112295Y-70532737D01*
X145112295Y-70532737D02*
X145912295Y-70875595D01*
X145112295Y-70075594D02*
X145112295Y-69999404D01*
X145112295Y-69999404D02*
X145150390Y-69923213D01*
X145150390Y-69923213D02*
X145188485Y-69885118D01*
X145188485Y-69885118D02*
X145264676Y-69847023D01*
X145264676Y-69847023D02*
X145417057Y-69808928D01*
X145417057Y-69808928D02*
X145607533Y-69808928D01*
X145607533Y-69808928D02*
X145759914Y-69847023D01*
X145759914Y-69847023D02*
X145836104Y-69885118D01*
X145836104Y-69885118D02*
X145874200Y-69923213D01*
X145874200Y-69923213D02*
X145912295Y-69999404D01*
X145912295Y-69999404D02*
X145912295Y-70075594D01*
X145912295Y-70075594D02*
X145874200Y-70151785D01*
X145874200Y-70151785D02*
X145836104Y-70189880D01*
X145836104Y-70189880D02*
X145759914Y-70227975D01*
X145759914Y-70227975D02*
X145607533Y-70266071D01*
X145607533Y-70266071D02*
X145417057Y-70266071D01*
X145417057Y-70266071D02*
X145264676Y-70227975D01*
X145264676Y-70227975D02*
X145188485Y-70189880D01*
X145188485Y-70189880D02*
X145150390Y-70151785D01*
X145150390Y-70151785D02*
X145112295Y-70075594D01*
X145378961Y-69123213D02*
X145912295Y-69123213D01*
X145074200Y-69313689D02*
X145645628Y-69504166D01*
X145645628Y-69504166D02*
X145645628Y-69008927D01*
X143952295Y-71332737D02*
X143571342Y-71599404D01*
X143952295Y-71789880D02*
X143152295Y-71789880D01*
X143152295Y-71789880D02*
X143152295Y-71485118D01*
X143152295Y-71485118D02*
X143190390Y-71408928D01*
X143190390Y-71408928D02*
X143228485Y-71370833D01*
X143228485Y-71370833D02*
X143304676Y-71332737D01*
X143304676Y-71332737D02*
X143418961Y-71332737D01*
X143418961Y-71332737D02*
X143495152Y-71370833D01*
X143495152Y-71370833D02*
X143533247Y-71408928D01*
X143533247Y-71408928D02*
X143571342Y-71485118D01*
X143571342Y-71485118D02*
X143571342Y-71789880D01*
X143152295Y-71066071D02*
X143152295Y-70532737D01*
X143152295Y-70532737D02*
X143952295Y-70875595D01*
X143152295Y-70075594D02*
X143152295Y-69999404D01*
X143152295Y-69999404D02*
X143190390Y-69923213D01*
X143190390Y-69923213D02*
X143228485Y-69885118D01*
X143228485Y-69885118D02*
X143304676Y-69847023D01*
X143304676Y-69847023D02*
X143457057Y-69808928D01*
X143457057Y-69808928D02*
X143647533Y-69808928D01*
X143647533Y-69808928D02*
X143799914Y-69847023D01*
X143799914Y-69847023D02*
X143876104Y-69885118D01*
X143876104Y-69885118D02*
X143914200Y-69923213D01*
X143914200Y-69923213D02*
X143952295Y-69999404D01*
X143952295Y-69999404D02*
X143952295Y-70075594D01*
X143952295Y-70075594D02*
X143914200Y-70151785D01*
X143914200Y-70151785D02*
X143876104Y-70189880D01*
X143876104Y-70189880D02*
X143799914Y-70227975D01*
X143799914Y-70227975D02*
X143647533Y-70266071D01*
X143647533Y-70266071D02*
X143457057Y-70266071D01*
X143457057Y-70266071D02*
X143304676Y-70227975D01*
X143304676Y-70227975D02*
X143228485Y-70189880D01*
X143228485Y-70189880D02*
X143190390Y-70151785D01*
X143190390Y-70151785D02*
X143152295Y-70075594D01*
X143152295Y-69542261D02*
X143152295Y-69047023D01*
X143152295Y-69047023D02*
X143457057Y-69313689D01*
X143457057Y-69313689D02*
X143457057Y-69199404D01*
X143457057Y-69199404D02*
X143495152Y-69123213D01*
X143495152Y-69123213D02*
X143533247Y-69085118D01*
X143533247Y-69085118D02*
X143609438Y-69047023D01*
X143609438Y-69047023D02*
X143799914Y-69047023D01*
X143799914Y-69047023D02*
X143876104Y-69085118D01*
X143876104Y-69085118D02*
X143914200Y-69123213D01*
X143914200Y-69123213D02*
X143952295Y-69199404D01*
X143952295Y-69199404D02*
X143952295Y-69427975D01*
X143952295Y-69427975D02*
X143914200Y-69504166D01*
X143914200Y-69504166D02*
X143876104Y-69542261D01*
X111868295Y-68115237D02*
X111487342Y-68381904D01*
X111868295Y-68572380D02*
X111068295Y-68572380D01*
X111068295Y-68572380D02*
X111068295Y-68267618D01*
X111068295Y-68267618D02*
X111106390Y-68191428D01*
X111106390Y-68191428D02*
X111144485Y-68153333D01*
X111144485Y-68153333D02*
X111220676Y-68115237D01*
X111220676Y-68115237D02*
X111334961Y-68115237D01*
X111334961Y-68115237D02*
X111411152Y-68153333D01*
X111411152Y-68153333D02*
X111449247Y-68191428D01*
X111449247Y-68191428D02*
X111487342Y-68267618D01*
X111487342Y-68267618D02*
X111487342Y-68572380D01*
X111068295Y-67848571D02*
X111068295Y-67315237D01*
X111068295Y-67315237D02*
X111868295Y-67658095D01*
X111868295Y-66591428D02*
X111868295Y-67048571D01*
X111868295Y-66819999D02*
X111068295Y-66819999D01*
X111068295Y-66819999D02*
X111182580Y-66896190D01*
X111182580Y-66896190D02*
X111258771Y-66972380D01*
X111258771Y-66972380D02*
X111296866Y-67048571D01*
X111068295Y-66324761D02*
X111068295Y-65829523D01*
X111068295Y-65829523D02*
X111373057Y-66096189D01*
X111373057Y-66096189D02*
X111373057Y-65981904D01*
X111373057Y-65981904D02*
X111411152Y-65905713D01*
X111411152Y-65905713D02*
X111449247Y-65867618D01*
X111449247Y-65867618D02*
X111525438Y-65829523D01*
X111525438Y-65829523D02*
X111715914Y-65829523D01*
X111715914Y-65829523D02*
X111792104Y-65867618D01*
X111792104Y-65867618D02*
X111830200Y-65905713D01*
X111830200Y-65905713D02*
X111868295Y-65981904D01*
X111868295Y-65981904D02*
X111868295Y-66210475D01*
X111868295Y-66210475D02*
X111830200Y-66286666D01*
X111830200Y-66286666D02*
X111792104Y-66324761D01*
X123692262Y-50652295D02*
X123425595Y-50271342D01*
X123235119Y-50652295D02*
X123235119Y-49852295D01*
X123235119Y-49852295D02*
X123539881Y-49852295D01*
X123539881Y-49852295D02*
X123616071Y-49890390D01*
X123616071Y-49890390D02*
X123654166Y-49928485D01*
X123654166Y-49928485D02*
X123692262Y-50004676D01*
X123692262Y-50004676D02*
X123692262Y-50118961D01*
X123692262Y-50118961D02*
X123654166Y-50195152D01*
X123654166Y-50195152D02*
X123616071Y-50233247D01*
X123616071Y-50233247D02*
X123539881Y-50271342D01*
X123539881Y-50271342D02*
X123235119Y-50271342D01*
X123958928Y-49852295D02*
X124492262Y-49852295D01*
X124492262Y-49852295D02*
X124149404Y-50652295D01*
X124949405Y-49852295D02*
X125025595Y-49852295D01*
X125025595Y-49852295D02*
X125101786Y-49890390D01*
X125101786Y-49890390D02*
X125139881Y-49928485D01*
X125139881Y-49928485D02*
X125177976Y-50004676D01*
X125177976Y-50004676D02*
X125216071Y-50157057D01*
X125216071Y-50157057D02*
X125216071Y-50347533D01*
X125216071Y-50347533D02*
X125177976Y-50499914D01*
X125177976Y-50499914D02*
X125139881Y-50576104D01*
X125139881Y-50576104D02*
X125101786Y-50614200D01*
X125101786Y-50614200D02*
X125025595Y-50652295D01*
X125025595Y-50652295D02*
X124949405Y-50652295D01*
X124949405Y-50652295D02*
X124873214Y-50614200D01*
X124873214Y-50614200D02*
X124835119Y-50576104D01*
X124835119Y-50576104D02*
X124797024Y-50499914D01*
X124797024Y-50499914D02*
X124758928Y-50347533D01*
X124758928Y-50347533D02*
X124758928Y-50157057D01*
X124758928Y-50157057D02*
X124797024Y-50004676D01*
X124797024Y-50004676D02*
X124835119Y-49928485D01*
X124835119Y-49928485D02*
X124873214Y-49890390D01*
X124873214Y-49890390D02*
X124949405Y-49852295D01*
X125597024Y-50652295D02*
X125749405Y-50652295D01*
X125749405Y-50652295D02*
X125825595Y-50614200D01*
X125825595Y-50614200D02*
X125863691Y-50576104D01*
X125863691Y-50576104D02*
X125939881Y-50461819D01*
X125939881Y-50461819D02*
X125977976Y-50309438D01*
X125977976Y-50309438D02*
X125977976Y-50004676D01*
X125977976Y-50004676D02*
X125939881Y-49928485D01*
X125939881Y-49928485D02*
X125901786Y-49890390D01*
X125901786Y-49890390D02*
X125825595Y-49852295D01*
X125825595Y-49852295D02*
X125673214Y-49852295D01*
X125673214Y-49852295D02*
X125597024Y-49890390D01*
X125597024Y-49890390D02*
X125558929Y-49928485D01*
X125558929Y-49928485D02*
X125520833Y-50004676D01*
X125520833Y-50004676D02*
X125520833Y-50195152D01*
X125520833Y-50195152D02*
X125558929Y-50271342D01*
X125558929Y-50271342D02*
X125597024Y-50309438D01*
X125597024Y-50309438D02*
X125673214Y-50347533D01*
X125673214Y-50347533D02*
X125825595Y-50347533D01*
X125825595Y-50347533D02*
X125901786Y-50309438D01*
X125901786Y-50309438D02*
X125939881Y-50271342D01*
X125939881Y-50271342D02*
X125977976Y-50195152D01*
X116758095Y-51889819D02*
X116758095Y-52699342D01*
X116758095Y-52699342D02*
X116805714Y-52794580D01*
X116805714Y-52794580D02*
X116853333Y-52842200D01*
X116853333Y-52842200D02*
X116948571Y-52889819D01*
X116948571Y-52889819D02*
X117139047Y-52889819D01*
X117139047Y-52889819D02*
X117234285Y-52842200D01*
X117234285Y-52842200D02*
X117281904Y-52794580D01*
X117281904Y-52794580D02*
X117329523Y-52699342D01*
X117329523Y-52699342D02*
X117329523Y-51889819D01*
X117758095Y-51985057D02*
X117805714Y-51937438D01*
X117805714Y-51937438D02*
X117900952Y-51889819D01*
X117900952Y-51889819D02*
X118139047Y-51889819D01*
X118139047Y-51889819D02*
X118234285Y-51937438D01*
X118234285Y-51937438D02*
X118281904Y-51985057D01*
X118281904Y-51985057D02*
X118329523Y-52080295D01*
X118329523Y-52080295D02*
X118329523Y-52175533D01*
X118329523Y-52175533D02*
X118281904Y-52318390D01*
X118281904Y-52318390D02*
X117710476Y-52889819D01*
X117710476Y-52889819D02*
X118329523Y-52889819D01*
X127402295Y-71365237D02*
X127021342Y-71631904D01*
X127402295Y-71822380D02*
X126602295Y-71822380D01*
X126602295Y-71822380D02*
X126602295Y-71517618D01*
X126602295Y-71517618D02*
X126640390Y-71441428D01*
X126640390Y-71441428D02*
X126678485Y-71403333D01*
X126678485Y-71403333D02*
X126754676Y-71365237D01*
X126754676Y-71365237D02*
X126868961Y-71365237D01*
X126868961Y-71365237D02*
X126945152Y-71403333D01*
X126945152Y-71403333D02*
X126983247Y-71441428D01*
X126983247Y-71441428D02*
X127021342Y-71517618D01*
X127021342Y-71517618D02*
X127021342Y-71822380D01*
X126602295Y-71098571D02*
X126602295Y-70565237D01*
X126602295Y-70565237D02*
X127402295Y-70908095D01*
X126602295Y-70108094D02*
X126602295Y-70031904D01*
X126602295Y-70031904D02*
X126640390Y-69955713D01*
X126640390Y-69955713D02*
X126678485Y-69917618D01*
X126678485Y-69917618D02*
X126754676Y-69879523D01*
X126754676Y-69879523D02*
X126907057Y-69841428D01*
X126907057Y-69841428D02*
X127097533Y-69841428D01*
X127097533Y-69841428D02*
X127249914Y-69879523D01*
X127249914Y-69879523D02*
X127326104Y-69917618D01*
X127326104Y-69917618D02*
X127364200Y-69955713D01*
X127364200Y-69955713D02*
X127402295Y-70031904D01*
X127402295Y-70031904D02*
X127402295Y-70108094D01*
X127402295Y-70108094D02*
X127364200Y-70184285D01*
X127364200Y-70184285D02*
X127326104Y-70222380D01*
X127326104Y-70222380D02*
X127249914Y-70260475D01*
X127249914Y-70260475D02*
X127097533Y-70298571D01*
X127097533Y-70298571D02*
X126907057Y-70298571D01*
X126907057Y-70298571D02*
X126754676Y-70260475D01*
X126754676Y-70260475D02*
X126678485Y-70222380D01*
X126678485Y-70222380D02*
X126640390Y-70184285D01*
X126640390Y-70184285D02*
X126602295Y-70108094D01*
X126602295Y-69117618D02*
X126602295Y-69498570D01*
X126602295Y-69498570D02*
X126983247Y-69536666D01*
X126983247Y-69536666D02*
X126945152Y-69498570D01*
X126945152Y-69498570D02*
X126907057Y-69422380D01*
X126907057Y-69422380D02*
X126907057Y-69231904D01*
X126907057Y-69231904D02*
X126945152Y-69155713D01*
X126945152Y-69155713D02*
X126983247Y-69117618D01*
X126983247Y-69117618D02*
X127059438Y-69079523D01*
X127059438Y-69079523D02*
X127249914Y-69079523D01*
X127249914Y-69079523D02*
X127326104Y-69117618D01*
X127326104Y-69117618D02*
X127364200Y-69155713D01*
X127364200Y-69155713D02*
X127402295Y-69231904D01*
X127402295Y-69231904D02*
X127402295Y-69422380D01*
X127402295Y-69422380D02*
X127364200Y-69498570D01*
X127364200Y-69498570D02*
X127326104Y-69536666D01*
X129086104Y-50725237D02*
X129124200Y-50763333D01*
X129124200Y-50763333D02*
X129162295Y-50877618D01*
X129162295Y-50877618D02*
X129162295Y-50953809D01*
X129162295Y-50953809D02*
X129124200Y-51068095D01*
X129124200Y-51068095D02*
X129048009Y-51144285D01*
X129048009Y-51144285D02*
X128971819Y-51182380D01*
X128971819Y-51182380D02*
X128819438Y-51220476D01*
X128819438Y-51220476D02*
X128705152Y-51220476D01*
X128705152Y-51220476D02*
X128552771Y-51182380D01*
X128552771Y-51182380D02*
X128476580Y-51144285D01*
X128476580Y-51144285D02*
X128400390Y-51068095D01*
X128400390Y-51068095D02*
X128362295Y-50953809D01*
X128362295Y-50953809D02*
X128362295Y-50877618D01*
X128362295Y-50877618D02*
X128400390Y-50763333D01*
X128400390Y-50763333D02*
X128438485Y-50725237D01*
X128362295Y-50458571D02*
X128362295Y-49925237D01*
X128362295Y-49925237D02*
X129162295Y-50268095D01*
X128362295Y-49468094D02*
X128362295Y-49391904D01*
X128362295Y-49391904D02*
X128400390Y-49315713D01*
X128400390Y-49315713D02*
X128438485Y-49277618D01*
X128438485Y-49277618D02*
X128514676Y-49239523D01*
X128514676Y-49239523D02*
X128667057Y-49201428D01*
X128667057Y-49201428D02*
X128857533Y-49201428D01*
X128857533Y-49201428D02*
X129009914Y-49239523D01*
X129009914Y-49239523D02*
X129086104Y-49277618D01*
X129086104Y-49277618D02*
X129124200Y-49315713D01*
X129124200Y-49315713D02*
X129162295Y-49391904D01*
X129162295Y-49391904D02*
X129162295Y-49468094D01*
X129162295Y-49468094D02*
X129124200Y-49544285D01*
X129124200Y-49544285D02*
X129086104Y-49582380D01*
X129086104Y-49582380D02*
X129009914Y-49620475D01*
X129009914Y-49620475D02*
X128857533Y-49658571D01*
X128857533Y-49658571D02*
X128667057Y-49658571D01*
X128667057Y-49658571D02*
X128514676Y-49620475D01*
X128514676Y-49620475D02*
X128438485Y-49582380D01*
X128438485Y-49582380D02*
X128400390Y-49544285D01*
X128400390Y-49544285D02*
X128362295Y-49468094D01*
X128362295Y-48934761D02*
X128362295Y-48439523D01*
X128362295Y-48439523D02*
X128667057Y-48706189D01*
X128667057Y-48706189D02*
X128667057Y-48591904D01*
X128667057Y-48591904D02*
X128705152Y-48515713D01*
X128705152Y-48515713D02*
X128743247Y-48477618D01*
X128743247Y-48477618D02*
X128819438Y-48439523D01*
X128819438Y-48439523D02*
X129009914Y-48439523D01*
X129009914Y-48439523D02*
X129086104Y-48477618D01*
X129086104Y-48477618D02*
X129124200Y-48515713D01*
X129124200Y-48515713D02*
X129162295Y-48591904D01*
X129162295Y-48591904D02*
X129162295Y-48820475D01*
X129162295Y-48820475D02*
X129124200Y-48896666D01*
X129124200Y-48896666D02*
X129086104Y-48934761D01*
X118646104Y-50725237D02*
X118684200Y-50763333D01*
X118684200Y-50763333D02*
X118722295Y-50877618D01*
X118722295Y-50877618D02*
X118722295Y-50953809D01*
X118722295Y-50953809D02*
X118684200Y-51068095D01*
X118684200Y-51068095D02*
X118608009Y-51144285D01*
X118608009Y-51144285D02*
X118531819Y-51182380D01*
X118531819Y-51182380D02*
X118379438Y-51220476D01*
X118379438Y-51220476D02*
X118265152Y-51220476D01*
X118265152Y-51220476D02*
X118112771Y-51182380D01*
X118112771Y-51182380D02*
X118036580Y-51144285D01*
X118036580Y-51144285D02*
X117960390Y-51068095D01*
X117960390Y-51068095D02*
X117922295Y-50953809D01*
X117922295Y-50953809D02*
X117922295Y-50877618D01*
X117922295Y-50877618D02*
X117960390Y-50763333D01*
X117960390Y-50763333D02*
X117998485Y-50725237D01*
X117922295Y-50458571D02*
X117922295Y-49925237D01*
X117922295Y-49925237D02*
X118722295Y-50268095D01*
X117922295Y-49468094D02*
X117922295Y-49391904D01*
X117922295Y-49391904D02*
X117960390Y-49315713D01*
X117960390Y-49315713D02*
X117998485Y-49277618D01*
X117998485Y-49277618D02*
X118074676Y-49239523D01*
X118074676Y-49239523D02*
X118227057Y-49201428D01*
X118227057Y-49201428D02*
X118417533Y-49201428D01*
X118417533Y-49201428D02*
X118569914Y-49239523D01*
X118569914Y-49239523D02*
X118646104Y-49277618D01*
X118646104Y-49277618D02*
X118684200Y-49315713D01*
X118684200Y-49315713D02*
X118722295Y-49391904D01*
X118722295Y-49391904D02*
X118722295Y-49468094D01*
X118722295Y-49468094D02*
X118684200Y-49544285D01*
X118684200Y-49544285D02*
X118646104Y-49582380D01*
X118646104Y-49582380D02*
X118569914Y-49620475D01*
X118569914Y-49620475D02*
X118417533Y-49658571D01*
X118417533Y-49658571D02*
X118227057Y-49658571D01*
X118227057Y-49658571D02*
X118074676Y-49620475D01*
X118074676Y-49620475D02*
X117998485Y-49582380D01*
X117998485Y-49582380D02*
X117960390Y-49544285D01*
X117960390Y-49544285D02*
X117922295Y-49468094D01*
X117998485Y-48896666D02*
X117960390Y-48858570D01*
X117960390Y-48858570D02*
X117922295Y-48782380D01*
X117922295Y-48782380D02*
X117922295Y-48591904D01*
X117922295Y-48591904D02*
X117960390Y-48515713D01*
X117960390Y-48515713D02*
X117998485Y-48477618D01*
X117998485Y-48477618D02*
X118074676Y-48439523D01*
X118074676Y-48439523D02*
X118150866Y-48439523D01*
X118150866Y-48439523D02*
X118265152Y-48477618D01*
X118265152Y-48477618D02*
X118722295Y-48934761D01*
X118722295Y-48934761D02*
X118722295Y-48439523D01*
X157179580Y-69249047D02*
X157227200Y-69296666D01*
X157227200Y-69296666D02*
X157274819Y-69439523D01*
X157274819Y-69439523D02*
X157274819Y-69534761D01*
X157274819Y-69534761D02*
X157227200Y-69677618D01*
X157227200Y-69677618D02*
X157131961Y-69772856D01*
X157131961Y-69772856D02*
X157036723Y-69820475D01*
X157036723Y-69820475D02*
X156846247Y-69868094D01*
X156846247Y-69868094D02*
X156703390Y-69868094D01*
X156703390Y-69868094D02*
X156512914Y-69820475D01*
X156512914Y-69820475D02*
X156417676Y-69772856D01*
X156417676Y-69772856D02*
X156322438Y-69677618D01*
X156322438Y-69677618D02*
X156274819Y-69534761D01*
X156274819Y-69534761D02*
X156274819Y-69439523D01*
X156274819Y-69439523D02*
X156322438Y-69296666D01*
X156322438Y-69296666D02*
X156370057Y-69249047D01*
X157179580Y-68249047D02*
X157227200Y-68296666D01*
X157227200Y-68296666D02*
X157274819Y-68439523D01*
X157274819Y-68439523D02*
X157274819Y-68534761D01*
X157274819Y-68534761D02*
X157227200Y-68677618D01*
X157227200Y-68677618D02*
X157131961Y-68772856D01*
X157131961Y-68772856D02*
X157036723Y-68820475D01*
X157036723Y-68820475D02*
X156846247Y-68868094D01*
X156846247Y-68868094D02*
X156703390Y-68868094D01*
X156703390Y-68868094D02*
X156512914Y-68820475D01*
X156512914Y-68820475D02*
X156417676Y-68772856D01*
X156417676Y-68772856D02*
X156322438Y-68677618D01*
X156322438Y-68677618D02*
X156274819Y-68534761D01*
X156274819Y-68534761D02*
X156274819Y-68439523D01*
X156274819Y-68439523D02*
X156322438Y-68296666D01*
X156322438Y-68296666D02*
X156370057Y-68249047D01*
X156703390Y-67677618D02*
X156655771Y-67772856D01*
X156655771Y-67772856D02*
X156608152Y-67820475D01*
X156608152Y-67820475D02*
X156512914Y-67868094D01*
X156512914Y-67868094D02*
X156465295Y-67868094D01*
X156465295Y-67868094D02*
X156370057Y-67820475D01*
X156370057Y-67820475D02*
X156322438Y-67772856D01*
X156322438Y-67772856D02*
X156274819Y-67677618D01*
X156274819Y-67677618D02*
X156274819Y-67487142D01*
X156274819Y-67487142D02*
X156322438Y-67391904D01*
X156322438Y-67391904D02*
X156370057Y-67344285D01*
X156370057Y-67344285D02*
X156465295Y-67296666D01*
X156465295Y-67296666D02*
X156512914Y-67296666D01*
X156512914Y-67296666D02*
X156608152Y-67344285D01*
X156608152Y-67344285D02*
X156655771Y-67391904D01*
X156655771Y-67391904D02*
X156703390Y-67487142D01*
X156703390Y-67487142D02*
X156703390Y-67677618D01*
X156703390Y-67677618D02*
X156751009Y-67772856D01*
X156751009Y-67772856D02*
X156798628Y-67820475D01*
X156798628Y-67820475D02*
X156893866Y-67868094D01*
X156893866Y-67868094D02*
X157084342Y-67868094D01*
X157084342Y-67868094D02*
X157179580Y-67820475D01*
X157179580Y-67820475D02*
X157227200Y-67772856D01*
X157227200Y-67772856D02*
X157274819Y-67677618D01*
X157274819Y-67677618D02*
X157274819Y-67487142D01*
X157274819Y-67487142D02*
X157227200Y-67391904D01*
X157227200Y-67391904D02*
X157179580Y-67344285D01*
X157179580Y-67344285D02*
X157084342Y-67296666D01*
X157084342Y-67296666D02*
X156893866Y-67296666D01*
X156893866Y-67296666D02*
X156798628Y-67344285D01*
X156798628Y-67344285D02*
X156751009Y-67391904D01*
X156751009Y-67391904D02*
X156703390Y-67487142D01*
X156274819Y-66677618D02*
X156274819Y-66582380D01*
X156274819Y-66582380D02*
X156322438Y-66487142D01*
X156322438Y-66487142D02*
X156370057Y-66439523D01*
X156370057Y-66439523D02*
X156465295Y-66391904D01*
X156465295Y-66391904D02*
X156655771Y-66344285D01*
X156655771Y-66344285D02*
X156893866Y-66344285D01*
X156893866Y-66344285D02*
X157084342Y-66391904D01*
X157084342Y-66391904D02*
X157179580Y-66439523D01*
X157179580Y-66439523D02*
X157227200Y-66487142D01*
X157227200Y-66487142D02*
X157274819Y-66582380D01*
X157274819Y-66582380D02*
X157274819Y-66677618D01*
X157274819Y-66677618D02*
X157227200Y-66772856D01*
X157227200Y-66772856D02*
X157179580Y-66820475D01*
X157179580Y-66820475D02*
X157084342Y-66868094D01*
X157084342Y-66868094D02*
X156893866Y-66915713D01*
X156893866Y-66915713D02*
X156655771Y-66915713D01*
X156655771Y-66915713D02*
X156465295Y-66868094D01*
X156465295Y-66868094D02*
X156370057Y-66820475D01*
X156370057Y-66820475D02*
X156322438Y-66772856D01*
X156322438Y-66772856D02*
X156274819Y-66677618D01*
X156274819Y-65725237D02*
X156274819Y-65629999D01*
X156274819Y-65629999D02*
X156322438Y-65534761D01*
X156322438Y-65534761D02*
X156370057Y-65487142D01*
X156370057Y-65487142D02*
X156465295Y-65439523D01*
X156465295Y-65439523D02*
X156655771Y-65391904D01*
X156655771Y-65391904D02*
X156893866Y-65391904D01*
X156893866Y-65391904D02*
X157084342Y-65439523D01*
X157084342Y-65439523D02*
X157179580Y-65487142D01*
X157179580Y-65487142D02*
X157227200Y-65534761D01*
X157227200Y-65534761D02*
X157274819Y-65629999D01*
X157274819Y-65629999D02*
X157274819Y-65725237D01*
X157274819Y-65725237D02*
X157227200Y-65820475D01*
X157227200Y-65820475D02*
X157179580Y-65868094D01*
X157179580Y-65868094D02*
X157084342Y-65915713D01*
X157084342Y-65915713D02*
X156893866Y-65963332D01*
X156893866Y-65963332D02*
X156655771Y-65963332D01*
X156655771Y-65963332D02*
X156465295Y-65915713D01*
X156465295Y-65915713D02*
X156370057Y-65868094D01*
X156370057Y-65868094D02*
X156322438Y-65820475D01*
X156322438Y-65820475D02*
X156274819Y-65725237D01*
D14*
%TO.C,R707*%
X131675000Y-66992936D02*
X131675000Y-67447064D01*
X130205000Y-66992936D02*
X130205000Y-67447064D01*
%TO.C,R701*%
X138775000Y-66980436D02*
X138775000Y-67434564D01*
X137305000Y-66980436D02*
X137305000Y-67434564D01*
%TO.C,R702*%
X140735000Y-66980436D02*
X140735000Y-67434564D01*
X139265000Y-66980436D02*
X139265000Y-67434564D01*
%TO.C,R708*%
X129715000Y-66992936D02*
X129715000Y-67447064D01*
X128245000Y-66992936D02*
X128245000Y-67447064D01*
%TO.C,R712*%
X116825000Y-67447064D02*
X116825000Y-66992936D01*
X118295000Y-67447064D02*
X118295000Y-66992936D01*
D15*
%TO.C,CN800*%
X147427545Y-31550000D02*
X147427545Y-31550000D01*
X147427545Y-31550000D02*
X147427545Y-38320000D01*
X147427545Y-38320000D02*
X161367545Y-38320000D01*
X161367545Y-38320000D02*
X161367545Y-31550000D01*
D14*
%TO.C,R710*%
X113175000Y-54022936D02*
X113175000Y-54477064D01*
X111705000Y-54022936D02*
X111705000Y-54477064D01*
%TO.C,U1*%
X127985000Y-53275000D02*
X124535000Y-53275000D01*
X127985000Y-53275000D02*
X129935000Y-53275000D01*
X127985000Y-63395000D02*
X126035000Y-63395000D01*
X127985000Y-63395000D02*
X129935000Y-63395000D01*
%TO.C,R711*%
X118775000Y-67447064D02*
X118775000Y-66992936D01*
X120245000Y-67447064D02*
X120245000Y-66992936D01*
%TO.C,R706*%
X125795000Y-66992936D02*
X125795000Y-67447064D01*
X124325000Y-66992936D02*
X124325000Y-67447064D01*
D16*
%TO.C,D800*%
X161440045Y-58150000D02*
X161870045Y-58150000D01*
D14*
%TO.C,R704*%
X146285000Y-66980436D02*
X146285000Y-67434564D01*
X144815000Y-66980436D02*
X144815000Y-67434564D01*
%TO.C,R703*%
X144325000Y-66980436D02*
X144325000Y-67434564D01*
X142855000Y-66980436D02*
X142855000Y-67434564D01*
%TO.C,R713*%
X114875000Y-67447064D02*
X114875000Y-66992936D01*
X116345000Y-67447064D02*
X116345000Y-66992936D01*
%TO.C,R709*%
X124360436Y-51205000D02*
X124814564Y-51205000D01*
X124360436Y-52675000D02*
X124814564Y-52675000D01*
%TO.C,U2*%
X117520000Y-53275000D02*
X114070000Y-53275000D01*
X117520000Y-53275000D02*
X119470000Y-53275000D01*
X117520000Y-63395000D02*
X115570000Y-63395000D01*
X117520000Y-63395000D02*
X119470000Y-63395000D01*
%TO.C,R705*%
X127755000Y-66992936D02*
X127755000Y-67447064D01*
X126285000Y-66992936D02*
X126285000Y-67447064D01*
%TO.C,C703*%
X129715000Y-50057064D02*
X129715000Y-49602936D01*
X131185000Y-50057064D02*
X131185000Y-49602936D01*
%TO.C,C702*%
X119275000Y-50057064D02*
X119275000Y-49602936D01*
X120745000Y-50057064D02*
X120745000Y-49602936D01*
%TD*%
M02*
