%TF.GenerationSoftware,KiCad,Pcbnew,7.0.8*%
%TF.CreationDate,2023-11-25T20:52:06+00:00*%
%TF.ProjectId,pce-gt-controller,7063652d-6774-42d6-936f-6e74726f6c6c,rev?*%
%TF.SameCoordinates,Original*%
%TF.FileFunction,Drillmap*%
%TF.FilePolarity,Positive*%
%FSLAX45Y45*%
G04 Gerber Fmt 4.5, Leading zero omitted, Abs format (unit mm)*
G04 Created by KiCad (PCBNEW 7.0.8) date 2023-11-25 20:52:06*
%MOMM*%
%LPD*%
G01*
G04 APERTURE LIST*
%ADD10C,0.100000*%
%ADD11C,0.200000*%
%ADD12C,0.040000*%
%ADD13C,0.080000*%
G04 APERTURE END LIST*
D10*
X7467509Y-5087245D02*
G75*
G03*
X7431754Y-5123000I1J-35756D01*
G01*
X10507232Y-11038267D02*
G75*
G03*
X10542987Y-11002509I-2J35757D01*
G01*
X8226754Y-9075246D02*
X7431754Y-8280245D01*
X12564000Y-10920000D02*
X12564000Y-10999000D01*
X12208000Y-10999246D02*
G75*
G03*
X12243754Y-11035000I35760J6D01*
G01*
X13502232Y-11033757D02*
G75*
G03*
X13537987Y-10998000I-2J35757D01*
G01*
X16824509Y-8238000D02*
X16824509Y-8281000D01*
X14127227Y-3854000D02*
X14127227Y-3178000D01*
X11678000Y-10999000D02*
X11678000Y-10921000D01*
X13688000Y-10827000D02*
G75*
G03*
X13537987Y-10827000I-75007J0D01*
G01*
X11440781Y-3889741D02*
G75*
G03*
X12828727Y-3889741I693973J485925D01*
G01*
X16646149Y-6182000D02*
G75*
G03*
X16646149Y-6182000I-133000J0D01*
G01*
X10128999Y-3853986D02*
G75*
G03*
X10164755Y-3889741I35761J6D01*
G01*
X14123754Y-11031246D02*
X13723754Y-11031246D01*
X12259754Y-8785000D02*
G75*
G03*
X12259754Y-8785000I-133000J0D01*
G01*
X10693000Y-11000000D02*
X10693000Y-10831509D01*
X16506754Y-4130754D02*
X16453037Y-4130754D01*
X11678000Y-10921000D02*
G75*
G03*
X11566000Y-10921000I-56000J0D01*
G01*
X7778504Y-4165000D02*
G75*
G03*
X7742754Y-4129245I-35755J0D01*
G01*
X14926000Y-9115509D02*
X14926000Y-10229000D01*
X10132509Y-3168000D02*
X10129000Y-3853986D01*
X10507232Y-11038264D02*
X10134755Y-11038264D01*
X10693000Y-10831509D02*
G75*
G03*
X10542987Y-10831509I-75007J0D01*
G01*
X7467509Y-5087246D02*
X7742754Y-5087246D01*
X9294701Y-9075246D02*
X8226754Y-9075246D01*
X16830227Y-3177282D02*
X16830227Y-4044000D01*
X16417282Y-4166509D02*
X16417282Y-5053000D01*
X12007472Y-11035477D02*
G75*
G03*
X12043227Y-10999718I-2J35757D01*
G01*
X10692996Y-11000000D02*
G75*
G03*
X10728755Y-11035755I35755J0D01*
G01*
X12207754Y-10893000D02*
X12208000Y-10999246D01*
X7467754Y-3132250D02*
G75*
G03*
X7432000Y-3168000I-5J-35750D01*
G01*
X10132505Y-3168000D02*
G75*
G03*
X10096755Y-3132245I-35755J0D01*
G01*
X7431754Y-8280245D02*
X7431754Y-5123000D01*
X13688000Y-10995491D02*
X13688000Y-10827000D01*
X16025754Y-9079755D02*
X14961754Y-9079755D01*
X11440781Y-3889741D02*
X10164755Y-3889741D01*
X9330456Y-10233965D02*
X9330456Y-9111000D01*
X16453037Y-5088755D02*
X16788755Y-5088755D01*
X7432000Y-4093491D02*
X7432000Y-3168000D01*
X12675995Y-10998000D02*
G75*
G03*
X12711754Y-11033755I35755J0D01*
G01*
X14091472Y-3889757D02*
G75*
G03*
X14127227Y-3854000I-2J35757D01*
G01*
X10542987Y-10831509D02*
X10542987Y-11002509D01*
X12043227Y-10999718D02*
X12043227Y-10893000D01*
X16794472Y-3141528D02*
X16770754Y-3141528D01*
X12528245Y-11034755D02*
X12243754Y-11035000D01*
X13502232Y-11033755D02*
X12711754Y-11033755D01*
X16453037Y-4130752D02*
G75*
G03*
X16417282Y-4166509I3J-35758D01*
G01*
X7431994Y-4093491D02*
G75*
G03*
X7467754Y-4129245I35756J1D01*
G01*
X12043227Y-10893000D02*
X12207754Y-10893000D01*
X16830232Y-3177282D02*
G75*
G03*
X16794472Y-3141528I-35762J-8D01*
G01*
X13537987Y-10827000D02*
X13537987Y-10998000D01*
X12676000Y-10998000D02*
X12676000Y-10920000D01*
X9330455Y-9111000D02*
G75*
G03*
X9294701Y-9075246I-35745J10D01*
G01*
X16824509Y-5124509D02*
X16824509Y-8238000D01*
X12828727Y-3889741D02*
X14090754Y-3889741D01*
X7806754Y-3390000D02*
G75*
G03*
X7806754Y-3390000I-133000J0D01*
G01*
X7742754Y-4129245D02*
X7467754Y-4129245D01*
X11566000Y-10921000D02*
X11566000Y-11000000D01*
X16794472Y-4130754D02*
X16506754Y-4130754D01*
X16644149Y-3390000D02*
G75*
G03*
X16644149Y-3390000I-133000J0D01*
G01*
X14961754Y-9079750D02*
G75*
G03*
X14926000Y-9115509I6J-35760D01*
G01*
X16794472Y-4130757D02*
G75*
G03*
X16830227Y-4095000I-2J35757D01*
G01*
X14163037Y-3141528D02*
X16770754Y-3141528D01*
X16824509Y-8281000D02*
X16025754Y-9079755D01*
X7742754Y-5087249D02*
G75*
G03*
X7778509Y-5051491I-5J35759D01*
G01*
X12676000Y-10920000D02*
G75*
G03*
X12564000Y-10920000I-56000J0D01*
G01*
X13850755Y-9861000D02*
G75*
G03*
X13850755Y-9861000I-103238J0D01*
G01*
X11677995Y-10999000D02*
G75*
G03*
X11713754Y-11034755I35755J0D01*
G01*
X7778509Y-5051491D02*
X7778509Y-4165000D01*
X12007472Y-11035472D02*
X11713754Y-11034755D01*
X7467754Y-3132245D02*
X10096755Y-3132245D01*
X16830227Y-4095000D02*
X16830227Y-4044000D01*
X10134755Y-11038264D02*
X9330456Y-10233965D01*
X16824506Y-5124509D02*
G75*
G03*
X16788755Y-5088755I-35746J9D01*
G01*
X11530245Y-11035755D02*
X10728755Y-11035755D01*
X14926000Y-10229000D02*
X14123754Y-11031246D01*
X11530245Y-11035750D02*
G75*
G03*
X11566000Y-11000000I5J35750D01*
G01*
X13687994Y-10995491D02*
G75*
G03*
X13723754Y-11031246I35756J1D01*
G01*
X16417285Y-5053000D02*
G75*
G03*
X16453037Y-5088755I35745J-10D01*
G01*
X12528245Y-11034750D02*
G75*
G03*
X12564000Y-10999000I5J35750D01*
G01*
X7811149Y-6236000D02*
G75*
G03*
X7811149Y-6236000I-133000J0D01*
G01*
X14163037Y-3141532D02*
G75*
G03*
X14127282Y-3177282I-7J-35748D01*
G01*
D11*
D12*
X9101000Y-5198000D02*
X9141000Y-5238000D01*
X9141000Y-5198000D02*
X9101000Y-5238000D01*
X9940000Y-4963000D02*
X9980000Y-5003000D01*
X9980000Y-4963000D02*
X9940000Y-5003000D01*
X10013005Y-7501250D02*
X10053005Y-7541250D01*
X10053005Y-7501250D02*
X10013005Y-7541250D01*
X10114000Y-6563000D02*
X10154000Y-6603000D01*
X10154000Y-6563000D02*
X10114000Y-6603000D01*
X10725000Y-6853000D02*
X10765000Y-6893000D01*
X10765000Y-6853000D02*
X10725000Y-6893000D01*
X10898000Y-5199000D02*
X10938000Y-5239000D01*
X10938000Y-5199000D02*
X10898000Y-5239000D01*
X11122000Y-6129000D02*
X11162000Y-6169000D01*
X11162000Y-6129000D02*
X11122000Y-6169000D01*
X11738000Y-5369000D02*
X11778000Y-5409000D01*
X11778000Y-5369000D02*
X11738000Y-5409000D01*
X11738000Y-6122000D02*
X11778000Y-6162000D01*
X11778000Y-6122000D02*
X11738000Y-6162000D01*
X12486000Y-6610750D02*
X12526000Y-6650750D01*
X12526000Y-6610750D02*
X12486000Y-6650750D01*
X12530000Y-5174000D02*
X12570000Y-5214000D01*
X12570000Y-5174000D02*
X12530000Y-5214000D01*
X12531000Y-5496000D02*
X12571000Y-5536000D01*
X12571000Y-5496000D02*
X12531000Y-5536000D01*
X12531000Y-5750000D02*
X12571000Y-5790000D01*
X12571000Y-5750000D02*
X12531000Y-5790000D01*
X12531000Y-5877000D02*
X12571000Y-5917000D01*
X12571000Y-5877000D02*
X12531000Y-5917000D01*
X12531000Y-6131000D02*
X12571000Y-6171000D01*
X12571000Y-6131000D02*
X12531000Y-6171000D01*
X12682000Y-6610750D02*
X12722000Y-6650750D01*
X12722000Y-6610750D02*
X12682000Y-6650750D01*
X12878000Y-6610750D02*
X12918000Y-6650750D01*
X12918000Y-6610750D02*
X12878000Y-6650750D01*
X12911754Y-7501000D02*
X12951754Y-7541000D01*
X12951754Y-7501000D02*
X12911754Y-7541000D01*
X13026000Y-5877000D02*
X13066000Y-5917000D01*
X13066000Y-5877000D02*
X13026000Y-5917000D01*
X13026000Y-6258000D02*
X13066000Y-6298000D01*
X13066000Y-6258000D02*
X13026000Y-6298000D01*
X13074000Y-6610750D02*
X13114000Y-6650750D01*
X13114000Y-6610750D02*
X13074000Y-6650750D01*
X13418000Y-6793250D02*
X13458000Y-6833250D01*
X13458000Y-6793250D02*
X13418000Y-6833250D01*
X13784000Y-6609500D02*
X13824000Y-6649500D01*
X13824000Y-6609500D02*
X13784000Y-6649500D01*
X13788000Y-6325000D02*
X13828000Y-6365000D01*
X13828000Y-6325000D02*
X13788000Y-6365000D01*
X13980000Y-6609500D02*
X14020000Y-6649500D01*
X14020000Y-6609500D02*
X13980000Y-6649500D01*
X14042754Y-5116000D02*
X14082754Y-5156000D01*
X14082754Y-5116000D02*
X14042754Y-5156000D01*
X14175000Y-7011000D02*
X14215000Y-7051000D01*
X14215000Y-7011000D02*
X14175000Y-7051000D01*
X14339000Y-6609500D02*
X14379000Y-6649500D01*
X14379000Y-6609500D02*
X14339000Y-6649500D01*
X14499754Y-5894000D02*
X14539754Y-5934000D01*
X14539754Y-5894000D02*
X14499754Y-5934000D01*
X14535000Y-6609500D02*
X14575000Y-6649500D01*
X14575000Y-6609500D02*
X14535000Y-6649500D01*
X14719000Y-7006000D02*
X14759000Y-7046000D01*
X14759000Y-7006000D02*
X14719000Y-7046000D01*
X15139754Y-4908000D02*
X15179754Y-4948000D01*
X15179754Y-4908000D02*
X15139754Y-4948000D01*
X15461000Y-3686000D02*
X15501000Y-3726000D01*
X15501000Y-3686000D02*
X15461000Y-3726000D01*
X15561000Y-3686000D02*
X15601000Y-3726000D01*
X15601000Y-3686000D02*
X15561000Y-3726000D01*
X15661000Y-3685000D02*
X15701000Y-3725000D01*
X15701000Y-3685000D02*
X15661000Y-3725000D01*
X15761000Y-3685000D02*
X15801000Y-3725000D01*
X15801000Y-3685000D02*
X15761000Y-3725000D01*
X15861000Y-3686000D02*
X15901000Y-3726000D01*
X15901000Y-3686000D02*
X15861000Y-3726000D01*
X15880000Y-5099000D02*
X15920000Y-5139000D01*
X15920000Y-5099000D02*
X15880000Y-5139000D01*
D13*
X16097000Y-6638000D02*
G75*
G03*
X16097000Y-6638000I-40000J0D01*
G01*
X16097000Y-6888000D02*
G75*
G03*
X16097000Y-6888000I-40000J0D01*
G01*
D10*
X8813630Y-3532433D02*
X8813630Y-3632433D01*
X8763630Y-3582433D02*
X8863630Y-3582433D01*
X9021755Y-3532433D02*
X9021755Y-3632433D01*
X8971755Y-3582433D02*
X9071755Y-3582433D01*
D11*
X7687531Y-11354747D02*
X7687531Y-11154747D01*
X7687531Y-11154747D02*
X7735150Y-11154747D01*
X7735150Y-11154747D02*
X7763722Y-11164271D01*
X7763722Y-11164271D02*
X7782769Y-11183319D01*
X7782769Y-11183319D02*
X7792293Y-11202366D01*
X7792293Y-11202366D02*
X7801817Y-11240461D01*
X7801817Y-11240461D02*
X7801817Y-11269033D01*
X7801817Y-11269033D02*
X7792293Y-11307128D01*
X7792293Y-11307128D02*
X7782769Y-11326176D01*
X7782769Y-11326176D02*
X7763722Y-11345223D01*
X7763722Y-11345223D02*
X7735150Y-11354747D01*
X7735150Y-11354747D02*
X7687531Y-11354747D01*
X7887531Y-11354747D02*
X7887531Y-11221414D01*
X7887531Y-11259509D02*
X7897055Y-11240461D01*
X7897055Y-11240461D02*
X7906579Y-11230938D01*
X7906579Y-11230938D02*
X7925626Y-11221414D01*
X7925626Y-11221414D02*
X7944674Y-11221414D01*
X8011341Y-11354747D02*
X8011341Y-11221414D01*
X8011341Y-11154747D02*
X8001817Y-11164271D01*
X8001817Y-11164271D02*
X8011341Y-11173795D01*
X8011341Y-11173795D02*
X8020865Y-11164271D01*
X8020865Y-11164271D02*
X8011341Y-11154747D01*
X8011341Y-11154747D02*
X8011341Y-11173795D01*
X8135150Y-11354747D02*
X8116103Y-11345223D01*
X8116103Y-11345223D02*
X8106579Y-11326176D01*
X8106579Y-11326176D02*
X8106579Y-11154747D01*
X8239912Y-11354747D02*
X8220865Y-11345223D01*
X8220865Y-11345223D02*
X8211341Y-11326176D01*
X8211341Y-11326176D02*
X8211341Y-11154747D01*
X8468484Y-11354747D02*
X8468484Y-11154747D01*
X8468484Y-11154747D02*
X8535150Y-11297604D01*
X8535150Y-11297604D02*
X8601817Y-11154747D01*
X8601817Y-11154747D02*
X8601817Y-11354747D01*
X8782769Y-11354747D02*
X8782769Y-11249985D01*
X8782769Y-11249985D02*
X8773246Y-11230938D01*
X8773246Y-11230938D02*
X8754198Y-11221414D01*
X8754198Y-11221414D02*
X8716103Y-11221414D01*
X8716103Y-11221414D02*
X8697055Y-11230938D01*
X8782769Y-11345223D02*
X8763722Y-11354747D01*
X8763722Y-11354747D02*
X8716103Y-11354747D01*
X8716103Y-11354747D02*
X8697055Y-11345223D01*
X8697055Y-11345223D02*
X8687531Y-11326176D01*
X8687531Y-11326176D02*
X8687531Y-11307128D01*
X8687531Y-11307128D02*
X8697055Y-11288081D01*
X8697055Y-11288081D02*
X8716103Y-11278557D01*
X8716103Y-11278557D02*
X8763722Y-11278557D01*
X8763722Y-11278557D02*
X8782769Y-11269033D01*
X8878008Y-11221414D02*
X8878008Y-11421414D01*
X8878008Y-11230938D02*
X8897055Y-11221414D01*
X8897055Y-11221414D02*
X8935150Y-11221414D01*
X8935150Y-11221414D02*
X8954198Y-11230938D01*
X8954198Y-11230938D02*
X8963722Y-11240461D01*
X8963722Y-11240461D02*
X8973246Y-11259509D01*
X8973246Y-11259509D02*
X8973246Y-11316652D01*
X8973246Y-11316652D02*
X8963722Y-11335700D01*
X8963722Y-11335700D02*
X8954198Y-11345223D01*
X8954198Y-11345223D02*
X8935150Y-11354747D01*
X8935150Y-11354747D02*
X8897055Y-11354747D01*
X8897055Y-11354747D02*
X8878008Y-11345223D01*
X9058960Y-11335700D02*
X9068484Y-11345223D01*
X9068484Y-11345223D02*
X9058960Y-11354747D01*
X9058960Y-11354747D02*
X9049436Y-11345223D01*
X9049436Y-11345223D02*
X9058960Y-11335700D01*
X9058960Y-11335700D02*
X9058960Y-11354747D01*
X9058960Y-11230938D02*
X9068484Y-11240461D01*
X9068484Y-11240461D02*
X9058960Y-11249985D01*
X9058960Y-11249985D02*
X9049436Y-11240461D01*
X9049436Y-11240461D02*
X9058960Y-11230938D01*
X9058960Y-11230938D02*
X9058960Y-11249985D01*
D12*
X7386754Y-11663263D02*
X7426754Y-11703263D01*
X7426754Y-11663263D02*
X7386754Y-11703263D01*
D11*
X7725626Y-11574747D02*
X7744674Y-11574747D01*
X7744674Y-11574747D02*
X7763722Y-11584271D01*
X7763722Y-11584271D02*
X7773246Y-11593795D01*
X7773246Y-11593795D02*
X7782769Y-11612842D01*
X7782769Y-11612842D02*
X7792293Y-11650938D01*
X7792293Y-11650938D02*
X7792293Y-11698557D01*
X7792293Y-11698557D02*
X7782769Y-11736652D01*
X7782769Y-11736652D02*
X7773246Y-11755700D01*
X7773246Y-11755700D02*
X7763722Y-11765223D01*
X7763722Y-11765223D02*
X7744674Y-11774747D01*
X7744674Y-11774747D02*
X7725626Y-11774747D01*
X7725626Y-11774747D02*
X7706579Y-11765223D01*
X7706579Y-11765223D02*
X7697055Y-11755700D01*
X7697055Y-11755700D02*
X7687531Y-11736652D01*
X7687531Y-11736652D02*
X7678007Y-11698557D01*
X7678007Y-11698557D02*
X7678007Y-11650938D01*
X7678007Y-11650938D02*
X7687531Y-11612842D01*
X7687531Y-11612842D02*
X7697055Y-11593795D01*
X7697055Y-11593795D02*
X7706579Y-11584271D01*
X7706579Y-11584271D02*
X7725626Y-11574747D01*
X7878007Y-11755700D02*
X7887531Y-11765223D01*
X7887531Y-11765223D02*
X7878007Y-11774747D01*
X7878007Y-11774747D02*
X7868484Y-11765223D01*
X7868484Y-11765223D02*
X7878007Y-11755700D01*
X7878007Y-11755700D02*
X7878007Y-11774747D01*
X8058960Y-11641414D02*
X8058960Y-11774747D01*
X8011341Y-11565223D02*
X7963722Y-11708081D01*
X7963722Y-11708081D02*
X8087531Y-11708081D01*
X8201817Y-11574747D02*
X8220865Y-11574747D01*
X8220865Y-11574747D02*
X8239912Y-11584271D01*
X8239912Y-11584271D02*
X8249436Y-11593795D01*
X8249436Y-11593795D02*
X8258960Y-11612842D01*
X8258960Y-11612842D02*
X8268484Y-11650938D01*
X8268484Y-11650938D02*
X8268484Y-11698557D01*
X8268484Y-11698557D02*
X8258960Y-11736652D01*
X8258960Y-11736652D02*
X8249436Y-11755700D01*
X8249436Y-11755700D02*
X8239912Y-11765223D01*
X8239912Y-11765223D02*
X8220865Y-11774747D01*
X8220865Y-11774747D02*
X8201817Y-11774747D01*
X8201817Y-11774747D02*
X8182769Y-11765223D01*
X8182769Y-11765223D02*
X8173246Y-11755700D01*
X8173246Y-11755700D02*
X8163722Y-11736652D01*
X8163722Y-11736652D02*
X8154198Y-11698557D01*
X8154198Y-11698557D02*
X8154198Y-11650938D01*
X8154198Y-11650938D02*
X8163722Y-11612842D01*
X8163722Y-11612842D02*
X8173246Y-11593795D01*
X8173246Y-11593795D02*
X8182769Y-11584271D01*
X8182769Y-11584271D02*
X8201817Y-11574747D01*
X8392293Y-11574747D02*
X8411341Y-11574747D01*
X8411341Y-11574747D02*
X8430389Y-11584271D01*
X8430389Y-11584271D02*
X8439912Y-11593795D01*
X8439912Y-11593795D02*
X8449436Y-11612842D01*
X8449436Y-11612842D02*
X8458960Y-11650938D01*
X8458960Y-11650938D02*
X8458960Y-11698557D01*
X8458960Y-11698557D02*
X8449436Y-11736652D01*
X8449436Y-11736652D02*
X8439912Y-11755700D01*
X8439912Y-11755700D02*
X8430389Y-11765223D01*
X8430389Y-11765223D02*
X8411341Y-11774747D01*
X8411341Y-11774747D02*
X8392293Y-11774747D01*
X8392293Y-11774747D02*
X8373246Y-11765223D01*
X8373246Y-11765223D02*
X8363722Y-11755700D01*
X8363722Y-11755700D02*
X8354198Y-11736652D01*
X8354198Y-11736652D02*
X8344674Y-11698557D01*
X8344674Y-11698557D02*
X8344674Y-11650938D01*
X8344674Y-11650938D02*
X8354198Y-11612842D01*
X8354198Y-11612842D02*
X8363722Y-11593795D01*
X8363722Y-11593795D02*
X8373246Y-11584271D01*
X8373246Y-11584271D02*
X8392293Y-11574747D01*
X8544674Y-11774747D02*
X8544674Y-11641414D01*
X8544674Y-11660461D02*
X8554198Y-11650938D01*
X8554198Y-11650938D02*
X8573246Y-11641414D01*
X8573246Y-11641414D02*
X8601817Y-11641414D01*
X8601817Y-11641414D02*
X8620865Y-11650938D01*
X8620865Y-11650938D02*
X8630389Y-11669985D01*
X8630389Y-11669985D02*
X8630389Y-11774747D01*
X8630389Y-11669985D02*
X8639912Y-11650938D01*
X8639912Y-11650938D02*
X8658960Y-11641414D01*
X8658960Y-11641414D02*
X8687531Y-11641414D01*
X8687531Y-11641414D02*
X8706579Y-11650938D01*
X8706579Y-11650938D02*
X8716103Y-11669985D01*
X8716103Y-11669985D02*
X8716103Y-11774747D01*
X8811341Y-11774747D02*
X8811341Y-11641414D01*
X8811341Y-11660461D02*
X8820865Y-11650938D01*
X8820865Y-11650938D02*
X8839912Y-11641414D01*
X8839912Y-11641414D02*
X8868484Y-11641414D01*
X8868484Y-11641414D02*
X8887531Y-11650938D01*
X8887531Y-11650938D02*
X8897055Y-11669985D01*
X8897055Y-11669985D02*
X8897055Y-11774747D01*
X8897055Y-11669985D02*
X8906579Y-11650938D01*
X8906579Y-11650938D02*
X8925627Y-11641414D01*
X8925627Y-11641414D02*
X8954198Y-11641414D01*
X8954198Y-11641414D02*
X8973246Y-11650938D01*
X8973246Y-11650938D02*
X8982770Y-11669985D01*
X8982770Y-11669985D02*
X8982770Y-11774747D01*
X9373246Y-11565223D02*
X9201817Y-11822366D01*
X9630389Y-11574747D02*
X9649436Y-11574747D01*
X9649436Y-11574747D02*
X9668484Y-11584271D01*
X9668484Y-11584271D02*
X9678008Y-11593795D01*
X9678008Y-11593795D02*
X9687532Y-11612842D01*
X9687532Y-11612842D02*
X9697055Y-11650938D01*
X9697055Y-11650938D02*
X9697055Y-11698557D01*
X9697055Y-11698557D02*
X9687532Y-11736652D01*
X9687532Y-11736652D02*
X9678008Y-11755700D01*
X9678008Y-11755700D02*
X9668484Y-11765223D01*
X9668484Y-11765223D02*
X9649436Y-11774747D01*
X9649436Y-11774747D02*
X9630389Y-11774747D01*
X9630389Y-11774747D02*
X9611341Y-11765223D01*
X9611341Y-11765223D02*
X9601817Y-11755700D01*
X9601817Y-11755700D02*
X9592293Y-11736652D01*
X9592293Y-11736652D02*
X9582770Y-11698557D01*
X9582770Y-11698557D02*
X9582770Y-11650938D01*
X9582770Y-11650938D02*
X9592293Y-11612842D01*
X9592293Y-11612842D02*
X9601817Y-11593795D01*
X9601817Y-11593795D02*
X9611341Y-11584271D01*
X9611341Y-11584271D02*
X9630389Y-11574747D01*
X9782770Y-11755700D02*
X9792293Y-11765223D01*
X9792293Y-11765223D02*
X9782770Y-11774747D01*
X9782770Y-11774747D02*
X9773246Y-11765223D01*
X9773246Y-11765223D02*
X9782770Y-11755700D01*
X9782770Y-11755700D02*
X9782770Y-11774747D01*
X9916103Y-11574747D02*
X9935151Y-11574747D01*
X9935151Y-11574747D02*
X9954198Y-11584271D01*
X9954198Y-11584271D02*
X9963722Y-11593795D01*
X9963722Y-11593795D02*
X9973246Y-11612842D01*
X9973246Y-11612842D02*
X9982770Y-11650938D01*
X9982770Y-11650938D02*
X9982770Y-11698557D01*
X9982770Y-11698557D02*
X9973246Y-11736652D01*
X9973246Y-11736652D02*
X9963722Y-11755700D01*
X9963722Y-11755700D02*
X9954198Y-11765223D01*
X9954198Y-11765223D02*
X9935151Y-11774747D01*
X9935151Y-11774747D02*
X9916103Y-11774747D01*
X9916103Y-11774747D02*
X9897055Y-11765223D01*
X9897055Y-11765223D02*
X9887532Y-11755700D01*
X9887532Y-11755700D02*
X9878008Y-11736652D01*
X9878008Y-11736652D02*
X9868484Y-11698557D01*
X9868484Y-11698557D02*
X9868484Y-11650938D01*
X9868484Y-11650938D02*
X9878008Y-11612842D01*
X9878008Y-11612842D02*
X9887532Y-11593795D01*
X9887532Y-11593795D02*
X9897055Y-11584271D01*
X9897055Y-11584271D02*
X9916103Y-11574747D01*
X10173246Y-11774747D02*
X10058960Y-11774747D01*
X10116103Y-11774747D02*
X10116103Y-11574747D01*
X10116103Y-11574747D02*
X10097055Y-11603319D01*
X10097055Y-11603319D02*
X10078008Y-11622366D01*
X10078008Y-11622366D02*
X10058960Y-11631890D01*
X10354198Y-11574747D02*
X10258960Y-11574747D01*
X10258960Y-11574747D02*
X10249436Y-11669985D01*
X10249436Y-11669985D02*
X10258960Y-11660461D01*
X10258960Y-11660461D02*
X10278008Y-11650938D01*
X10278008Y-11650938D02*
X10325627Y-11650938D01*
X10325627Y-11650938D02*
X10344674Y-11660461D01*
X10344674Y-11660461D02*
X10354198Y-11669985D01*
X10354198Y-11669985D02*
X10363722Y-11689033D01*
X10363722Y-11689033D02*
X10363722Y-11736652D01*
X10363722Y-11736652D02*
X10354198Y-11755700D01*
X10354198Y-11755700D02*
X10344674Y-11765223D01*
X10344674Y-11765223D02*
X10325627Y-11774747D01*
X10325627Y-11774747D02*
X10278008Y-11774747D01*
X10278008Y-11774747D02*
X10258960Y-11765223D01*
X10258960Y-11765223D02*
X10249436Y-11755700D01*
X10430389Y-11574747D02*
X10563722Y-11574747D01*
X10563722Y-11574747D02*
X10478008Y-11774747D01*
X10630389Y-11574747D02*
X10630389Y-11612842D01*
X10706579Y-11574747D02*
X10706579Y-11612842D01*
X11001817Y-11850938D02*
X10992294Y-11841414D01*
X10992294Y-11841414D02*
X10973246Y-11812842D01*
X10973246Y-11812842D02*
X10963722Y-11793795D01*
X10963722Y-11793795D02*
X10954198Y-11765223D01*
X10954198Y-11765223D02*
X10944675Y-11717604D01*
X10944675Y-11717604D02*
X10944675Y-11679509D01*
X10944675Y-11679509D02*
X10954198Y-11631890D01*
X10954198Y-11631890D02*
X10963722Y-11603319D01*
X10963722Y-11603319D02*
X10973246Y-11584271D01*
X10973246Y-11584271D02*
X10992294Y-11555700D01*
X10992294Y-11555700D02*
X11001817Y-11546176D01*
X11058960Y-11574747D02*
X11182770Y-11574747D01*
X11182770Y-11574747D02*
X11116103Y-11650938D01*
X11116103Y-11650938D02*
X11144675Y-11650938D01*
X11144675Y-11650938D02*
X11163722Y-11660461D01*
X11163722Y-11660461D02*
X11173246Y-11669985D01*
X11173246Y-11669985D02*
X11182770Y-11689033D01*
X11182770Y-11689033D02*
X11182770Y-11736652D01*
X11182770Y-11736652D02*
X11173246Y-11755700D01*
X11173246Y-11755700D02*
X11163722Y-11765223D01*
X11163722Y-11765223D02*
X11144675Y-11774747D01*
X11144675Y-11774747D02*
X11087532Y-11774747D01*
X11087532Y-11774747D02*
X11068484Y-11765223D01*
X11068484Y-11765223D02*
X11058960Y-11755700D01*
X11297055Y-11660461D02*
X11278008Y-11650938D01*
X11278008Y-11650938D02*
X11268484Y-11641414D01*
X11268484Y-11641414D02*
X11258960Y-11622366D01*
X11258960Y-11622366D02*
X11258960Y-11612842D01*
X11258960Y-11612842D02*
X11268484Y-11593795D01*
X11268484Y-11593795D02*
X11278008Y-11584271D01*
X11278008Y-11584271D02*
X11297055Y-11574747D01*
X11297055Y-11574747D02*
X11335151Y-11574747D01*
X11335151Y-11574747D02*
X11354198Y-11584271D01*
X11354198Y-11584271D02*
X11363722Y-11593795D01*
X11363722Y-11593795D02*
X11373246Y-11612842D01*
X11373246Y-11612842D02*
X11373246Y-11622366D01*
X11373246Y-11622366D02*
X11363722Y-11641414D01*
X11363722Y-11641414D02*
X11354198Y-11650938D01*
X11354198Y-11650938D02*
X11335151Y-11660461D01*
X11335151Y-11660461D02*
X11297055Y-11660461D01*
X11297055Y-11660461D02*
X11278008Y-11669985D01*
X11278008Y-11669985D02*
X11268484Y-11679509D01*
X11268484Y-11679509D02*
X11258960Y-11698557D01*
X11258960Y-11698557D02*
X11258960Y-11736652D01*
X11258960Y-11736652D02*
X11268484Y-11755700D01*
X11268484Y-11755700D02*
X11278008Y-11765223D01*
X11278008Y-11765223D02*
X11297055Y-11774747D01*
X11297055Y-11774747D02*
X11335151Y-11774747D01*
X11335151Y-11774747D02*
X11354198Y-11765223D01*
X11354198Y-11765223D02*
X11363722Y-11755700D01*
X11363722Y-11755700D02*
X11373246Y-11736652D01*
X11373246Y-11736652D02*
X11373246Y-11698557D01*
X11373246Y-11698557D02*
X11363722Y-11679509D01*
X11363722Y-11679509D02*
X11354198Y-11669985D01*
X11354198Y-11669985D02*
X11335151Y-11660461D01*
X11611341Y-11774747D02*
X11611341Y-11574747D01*
X11697055Y-11774747D02*
X11697055Y-11669985D01*
X11697055Y-11669985D02*
X11687532Y-11650938D01*
X11687532Y-11650938D02*
X11668484Y-11641414D01*
X11668484Y-11641414D02*
X11639913Y-11641414D01*
X11639913Y-11641414D02*
X11620865Y-11650938D01*
X11620865Y-11650938D02*
X11611341Y-11660461D01*
X11820865Y-11774747D02*
X11801817Y-11765223D01*
X11801817Y-11765223D02*
X11792294Y-11755700D01*
X11792294Y-11755700D02*
X11782770Y-11736652D01*
X11782770Y-11736652D02*
X11782770Y-11679509D01*
X11782770Y-11679509D02*
X11792294Y-11660461D01*
X11792294Y-11660461D02*
X11801817Y-11650938D01*
X11801817Y-11650938D02*
X11820865Y-11641414D01*
X11820865Y-11641414D02*
X11849436Y-11641414D01*
X11849436Y-11641414D02*
X11868484Y-11650938D01*
X11868484Y-11650938D02*
X11878008Y-11660461D01*
X11878008Y-11660461D02*
X11887532Y-11679509D01*
X11887532Y-11679509D02*
X11887532Y-11736652D01*
X11887532Y-11736652D02*
X11878008Y-11755700D01*
X11878008Y-11755700D02*
X11868484Y-11765223D01*
X11868484Y-11765223D02*
X11849436Y-11774747D01*
X11849436Y-11774747D02*
X11820865Y-11774747D01*
X12001817Y-11774747D02*
X11982770Y-11765223D01*
X11982770Y-11765223D02*
X11973246Y-11746176D01*
X11973246Y-11746176D02*
X11973246Y-11574747D01*
X12154198Y-11765223D02*
X12135151Y-11774747D01*
X12135151Y-11774747D02*
X12097055Y-11774747D01*
X12097055Y-11774747D02*
X12078008Y-11765223D01*
X12078008Y-11765223D02*
X12068484Y-11746176D01*
X12068484Y-11746176D02*
X12068484Y-11669985D01*
X12068484Y-11669985D02*
X12078008Y-11650938D01*
X12078008Y-11650938D02*
X12097055Y-11641414D01*
X12097055Y-11641414D02*
X12135151Y-11641414D01*
X12135151Y-11641414D02*
X12154198Y-11650938D01*
X12154198Y-11650938D02*
X12163722Y-11669985D01*
X12163722Y-11669985D02*
X12163722Y-11689033D01*
X12163722Y-11689033D02*
X12068484Y-11708081D01*
X12239913Y-11765223D02*
X12258960Y-11774747D01*
X12258960Y-11774747D02*
X12297055Y-11774747D01*
X12297055Y-11774747D02*
X12316103Y-11765223D01*
X12316103Y-11765223D02*
X12325627Y-11746176D01*
X12325627Y-11746176D02*
X12325627Y-11736652D01*
X12325627Y-11736652D02*
X12316103Y-11717604D01*
X12316103Y-11717604D02*
X12297055Y-11708081D01*
X12297055Y-11708081D02*
X12268484Y-11708081D01*
X12268484Y-11708081D02*
X12249436Y-11698557D01*
X12249436Y-11698557D02*
X12239913Y-11679509D01*
X12239913Y-11679509D02*
X12239913Y-11669985D01*
X12239913Y-11669985D02*
X12249436Y-11650938D01*
X12249436Y-11650938D02*
X12268484Y-11641414D01*
X12268484Y-11641414D02*
X12297055Y-11641414D01*
X12297055Y-11641414D02*
X12316103Y-11650938D01*
X12392294Y-11850938D02*
X12401817Y-11841414D01*
X12401817Y-11841414D02*
X12420865Y-11812842D01*
X12420865Y-11812842D02*
X12430389Y-11793795D01*
X12430389Y-11793795D02*
X12439913Y-11765223D01*
X12439913Y-11765223D02*
X12449436Y-11717604D01*
X12449436Y-11717604D02*
X12449436Y-11679509D01*
X12449436Y-11679509D02*
X12439913Y-11631890D01*
X12439913Y-11631890D02*
X12430389Y-11603319D01*
X12430389Y-11603319D02*
X12420865Y-11584271D01*
X12420865Y-11584271D02*
X12401817Y-11555700D01*
X12401817Y-11555700D02*
X12392294Y-11546176D01*
D13*
X7426754Y-11947263D02*
G75*
G03*
X7426754Y-11947263I-40000J0D01*
G01*
D11*
X7725626Y-11838747D02*
X7744674Y-11838747D01*
X7744674Y-11838747D02*
X7763722Y-11848271D01*
X7763722Y-11848271D02*
X7773246Y-11857795D01*
X7773246Y-11857795D02*
X7782769Y-11876842D01*
X7782769Y-11876842D02*
X7792293Y-11914938D01*
X7792293Y-11914938D02*
X7792293Y-11962557D01*
X7792293Y-11962557D02*
X7782769Y-12000652D01*
X7782769Y-12000652D02*
X7773246Y-12019700D01*
X7773246Y-12019700D02*
X7763722Y-12029223D01*
X7763722Y-12029223D02*
X7744674Y-12038747D01*
X7744674Y-12038747D02*
X7725626Y-12038747D01*
X7725626Y-12038747D02*
X7706579Y-12029223D01*
X7706579Y-12029223D02*
X7697055Y-12019700D01*
X7697055Y-12019700D02*
X7687531Y-12000652D01*
X7687531Y-12000652D02*
X7678007Y-11962557D01*
X7678007Y-11962557D02*
X7678007Y-11914938D01*
X7678007Y-11914938D02*
X7687531Y-11876842D01*
X7687531Y-11876842D02*
X7697055Y-11857795D01*
X7697055Y-11857795D02*
X7706579Y-11848271D01*
X7706579Y-11848271D02*
X7725626Y-11838747D01*
X7878007Y-12019700D02*
X7887531Y-12029223D01*
X7887531Y-12029223D02*
X7878007Y-12038747D01*
X7878007Y-12038747D02*
X7868484Y-12029223D01*
X7868484Y-12029223D02*
X7878007Y-12019700D01*
X7878007Y-12019700D02*
X7878007Y-12038747D01*
X8001817Y-11924461D02*
X7982769Y-11914938D01*
X7982769Y-11914938D02*
X7973246Y-11905414D01*
X7973246Y-11905414D02*
X7963722Y-11886366D01*
X7963722Y-11886366D02*
X7963722Y-11876842D01*
X7963722Y-11876842D02*
X7973246Y-11857795D01*
X7973246Y-11857795D02*
X7982769Y-11848271D01*
X7982769Y-11848271D02*
X8001817Y-11838747D01*
X8001817Y-11838747D02*
X8039912Y-11838747D01*
X8039912Y-11838747D02*
X8058960Y-11848271D01*
X8058960Y-11848271D02*
X8068484Y-11857795D01*
X8068484Y-11857795D02*
X8078007Y-11876842D01*
X8078007Y-11876842D02*
X8078007Y-11886366D01*
X8078007Y-11886366D02*
X8068484Y-11905414D01*
X8068484Y-11905414D02*
X8058960Y-11914938D01*
X8058960Y-11914938D02*
X8039912Y-11924461D01*
X8039912Y-11924461D02*
X8001817Y-11924461D01*
X8001817Y-11924461D02*
X7982769Y-11933985D01*
X7982769Y-11933985D02*
X7973246Y-11943509D01*
X7973246Y-11943509D02*
X7963722Y-11962557D01*
X7963722Y-11962557D02*
X7963722Y-12000652D01*
X7963722Y-12000652D02*
X7973246Y-12019700D01*
X7973246Y-12019700D02*
X7982769Y-12029223D01*
X7982769Y-12029223D02*
X8001817Y-12038747D01*
X8001817Y-12038747D02*
X8039912Y-12038747D01*
X8039912Y-12038747D02*
X8058960Y-12029223D01*
X8058960Y-12029223D02*
X8068484Y-12019700D01*
X8068484Y-12019700D02*
X8078007Y-12000652D01*
X8078007Y-12000652D02*
X8078007Y-11962557D01*
X8078007Y-11962557D02*
X8068484Y-11943509D01*
X8068484Y-11943509D02*
X8058960Y-11933985D01*
X8058960Y-11933985D02*
X8039912Y-11924461D01*
X8201817Y-11838747D02*
X8220865Y-11838747D01*
X8220865Y-11838747D02*
X8239912Y-11848271D01*
X8239912Y-11848271D02*
X8249436Y-11857795D01*
X8249436Y-11857795D02*
X8258960Y-11876842D01*
X8258960Y-11876842D02*
X8268484Y-11914938D01*
X8268484Y-11914938D02*
X8268484Y-11962557D01*
X8268484Y-11962557D02*
X8258960Y-12000652D01*
X8258960Y-12000652D02*
X8249436Y-12019700D01*
X8249436Y-12019700D02*
X8239912Y-12029223D01*
X8239912Y-12029223D02*
X8220865Y-12038747D01*
X8220865Y-12038747D02*
X8201817Y-12038747D01*
X8201817Y-12038747D02*
X8182769Y-12029223D01*
X8182769Y-12029223D02*
X8173246Y-12019700D01*
X8173246Y-12019700D02*
X8163722Y-12000652D01*
X8163722Y-12000652D02*
X8154198Y-11962557D01*
X8154198Y-11962557D02*
X8154198Y-11914938D01*
X8154198Y-11914938D02*
X8163722Y-11876842D01*
X8163722Y-11876842D02*
X8173246Y-11857795D01*
X8173246Y-11857795D02*
X8182769Y-11848271D01*
X8182769Y-11848271D02*
X8201817Y-11838747D01*
X8392293Y-11838747D02*
X8411341Y-11838747D01*
X8411341Y-11838747D02*
X8430389Y-11848271D01*
X8430389Y-11848271D02*
X8439912Y-11857795D01*
X8439912Y-11857795D02*
X8449436Y-11876842D01*
X8449436Y-11876842D02*
X8458960Y-11914938D01*
X8458960Y-11914938D02*
X8458960Y-11962557D01*
X8458960Y-11962557D02*
X8449436Y-12000652D01*
X8449436Y-12000652D02*
X8439912Y-12019700D01*
X8439912Y-12019700D02*
X8430389Y-12029223D01*
X8430389Y-12029223D02*
X8411341Y-12038747D01*
X8411341Y-12038747D02*
X8392293Y-12038747D01*
X8392293Y-12038747D02*
X8373246Y-12029223D01*
X8373246Y-12029223D02*
X8363722Y-12019700D01*
X8363722Y-12019700D02*
X8354198Y-12000652D01*
X8354198Y-12000652D02*
X8344674Y-11962557D01*
X8344674Y-11962557D02*
X8344674Y-11914938D01*
X8344674Y-11914938D02*
X8354198Y-11876842D01*
X8354198Y-11876842D02*
X8363722Y-11857795D01*
X8363722Y-11857795D02*
X8373246Y-11848271D01*
X8373246Y-11848271D02*
X8392293Y-11838747D01*
X8544674Y-12038747D02*
X8544674Y-11905414D01*
X8544674Y-11924461D02*
X8554198Y-11914938D01*
X8554198Y-11914938D02*
X8573246Y-11905414D01*
X8573246Y-11905414D02*
X8601817Y-11905414D01*
X8601817Y-11905414D02*
X8620865Y-11914938D01*
X8620865Y-11914938D02*
X8630389Y-11933985D01*
X8630389Y-11933985D02*
X8630389Y-12038747D01*
X8630389Y-11933985D02*
X8639912Y-11914938D01*
X8639912Y-11914938D02*
X8658960Y-11905414D01*
X8658960Y-11905414D02*
X8687531Y-11905414D01*
X8687531Y-11905414D02*
X8706579Y-11914938D01*
X8706579Y-11914938D02*
X8716103Y-11933985D01*
X8716103Y-11933985D02*
X8716103Y-12038747D01*
X8811341Y-12038747D02*
X8811341Y-11905414D01*
X8811341Y-11924461D02*
X8820865Y-11914938D01*
X8820865Y-11914938D02*
X8839912Y-11905414D01*
X8839912Y-11905414D02*
X8868484Y-11905414D01*
X8868484Y-11905414D02*
X8887531Y-11914938D01*
X8887531Y-11914938D02*
X8897055Y-11933985D01*
X8897055Y-11933985D02*
X8897055Y-12038747D01*
X8897055Y-11933985D02*
X8906579Y-11914938D01*
X8906579Y-11914938D02*
X8925627Y-11905414D01*
X8925627Y-11905414D02*
X8954198Y-11905414D01*
X8954198Y-11905414D02*
X8973246Y-11914938D01*
X8973246Y-11914938D02*
X8982770Y-11933985D01*
X8982770Y-11933985D02*
X8982770Y-12038747D01*
X9373246Y-11829223D02*
X9201817Y-12086366D01*
X9630389Y-11838747D02*
X9649436Y-11838747D01*
X9649436Y-11838747D02*
X9668484Y-11848271D01*
X9668484Y-11848271D02*
X9678008Y-11857795D01*
X9678008Y-11857795D02*
X9687532Y-11876842D01*
X9687532Y-11876842D02*
X9697055Y-11914938D01*
X9697055Y-11914938D02*
X9697055Y-11962557D01*
X9697055Y-11962557D02*
X9687532Y-12000652D01*
X9687532Y-12000652D02*
X9678008Y-12019700D01*
X9678008Y-12019700D02*
X9668484Y-12029223D01*
X9668484Y-12029223D02*
X9649436Y-12038747D01*
X9649436Y-12038747D02*
X9630389Y-12038747D01*
X9630389Y-12038747D02*
X9611341Y-12029223D01*
X9611341Y-12029223D02*
X9601817Y-12019700D01*
X9601817Y-12019700D02*
X9592293Y-12000652D01*
X9592293Y-12000652D02*
X9582770Y-11962557D01*
X9582770Y-11962557D02*
X9582770Y-11914938D01*
X9582770Y-11914938D02*
X9592293Y-11876842D01*
X9592293Y-11876842D02*
X9601817Y-11857795D01*
X9601817Y-11857795D02*
X9611341Y-11848271D01*
X9611341Y-11848271D02*
X9630389Y-11838747D01*
X9782770Y-12019700D02*
X9792293Y-12029223D01*
X9792293Y-12029223D02*
X9782770Y-12038747D01*
X9782770Y-12038747D02*
X9773246Y-12029223D01*
X9773246Y-12029223D02*
X9782770Y-12019700D01*
X9782770Y-12019700D02*
X9782770Y-12038747D01*
X9916103Y-11838747D02*
X9935151Y-11838747D01*
X9935151Y-11838747D02*
X9954198Y-11848271D01*
X9954198Y-11848271D02*
X9963722Y-11857795D01*
X9963722Y-11857795D02*
X9973246Y-11876842D01*
X9973246Y-11876842D02*
X9982770Y-11914938D01*
X9982770Y-11914938D02*
X9982770Y-11962557D01*
X9982770Y-11962557D02*
X9973246Y-12000652D01*
X9973246Y-12000652D02*
X9963722Y-12019700D01*
X9963722Y-12019700D02*
X9954198Y-12029223D01*
X9954198Y-12029223D02*
X9935151Y-12038747D01*
X9935151Y-12038747D02*
X9916103Y-12038747D01*
X9916103Y-12038747D02*
X9897055Y-12029223D01*
X9897055Y-12029223D02*
X9887532Y-12019700D01*
X9887532Y-12019700D02*
X9878008Y-12000652D01*
X9878008Y-12000652D02*
X9868484Y-11962557D01*
X9868484Y-11962557D02*
X9868484Y-11914938D01*
X9868484Y-11914938D02*
X9878008Y-11876842D01*
X9878008Y-11876842D02*
X9887532Y-11857795D01*
X9887532Y-11857795D02*
X9897055Y-11848271D01*
X9897055Y-11848271D02*
X9916103Y-11838747D01*
X10049436Y-11838747D02*
X10173246Y-11838747D01*
X10173246Y-11838747D02*
X10106579Y-11914938D01*
X10106579Y-11914938D02*
X10135151Y-11914938D01*
X10135151Y-11914938D02*
X10154198Y-11924461D01*
X10154198Y-11924461D02*
X10163722Y-11933985D01*
X10163722Y-11933985D02*
X10173246Y-11953033D01*
X10173246Y-11953033D02*
X10173246Y-12000652D01*
X10173246Y-12000652D02*
X10163722Y-12019700D01*
X10163722Y-12019700D02*
X10154198Y-12029223D01*
X10154198Y-12029223D02*
X10135151Y-12038747D01*
X10135151Y-12038747D02*
X10078008Y-12038747D01*
X10078008Y-12038747D02*
X10058960Y-12029223D01*
X10058960Y-12029223D02*
X10049436Y-12019700D01*
X10363722Y-12038747D02*
X10249436Y-12038747D01*
X10306579Y-12038747D02*
X10306579Y-11838747D01*
X10306579Y-11838747D02*
X10287532Y-11867319D01*
X10287532Y-11867319D02*
X10268484Y-11886366D01*
X10268484Y-11886366D02*
X10249436Y-11895890D01*
X10544674Y-11838747D02*
X10449436Y-11838747D01*
X10449436Y-11838747D02*
X10439913Y-11933985D01*
X10439913Y-11933985D02*
X10449436Y-11924461D01*
X10449436Y-11924461D02*
X10468484Y-11914938D01*
X10468484Y-11914938D02*
X10516103Y-11914938D01*
X10516103Y-11914938D02*
X10535151Y-11924461D01*
X10535151Y-11924461D02*
X10544674Y-11933985D01*
X10544674Y-11933985D02*
X10554198Y-11953033D01*
X10554198Y-11953033D02*
X10554198Y-12000652D01*
X10554198Y-12000652D02*
X10544674Y-12019700D01*
X10544674Y-12019700D02*
X10535151Y-12029223D01*
X10535151Y-12029223D02*
X10516103Y-12038747D01*
X10516103Y-12038747D02*
X10468484Y-12038747D01*
X10468484Y-12038747D02*
X10449436Y-12029223D01*
X10449436Y-12029223D02*
X10439913Y-12019700D01*
X10630389Y-11838747D02*
X10630389Y-11876842D01*
X10706579Y-11838747D02*
X10706579Y-11876842D01*
X11001817Y-12114938D02*
X10992294Y-12105414D01*
X10992294Y-12105414D02*
X10973246Y-12076842D01*
X10973246Y-12076842D02*
X10963722Y-12057795D01*
X10963722Y-12057795D02*
X10954198Y-12029223D01*
X10954198Y-12029223D02*
X10944675Y-11981604D01*
X10944675Y-11981604D02*
X10944675Y-11943509D01*
X10944675Y-11943509D02*
X10954198Y-11895890D01*
X10954198Y-11895890D02*
X10963722Y-11867319D01*
X10963722Y-11867319D02*
X10973246Y-11848271D01*
X10973246Y-11848271D02*
X10992294Y-11819700D01*
X10992294Y-11819700D02*
X11001817Y-11810176D01*
X11068484Y-11857795D02*
X11078008Y-11848271D01*
X11078008Y-11848271D02*
X11097055Y-11838747D01*
X11097055Y-11838747D02*
X11144675Y-11838747D01*
X11144675Y-11838747D02*
X11163722Y-11848271D01*
X11163722Y-11848271D02*
X11173246Y-11857795D01*
X11173246Y-11857795D02*
X11182770Y-11876842D01*
X11182770Y-11876842D02*
X11182770Y-11895890D01*
X11182770Y-11895890D02*
X11173246Y-11924461D01*
X11173246Y-11924461D02*
X11058960Y-12038747D01*
X11058960Y-12038747D02*
X11182770Y-12038747D01*
X11420865Y-12038747D02*
X11420865Y-11838747D01*
X11506579Y-12038747D02*
X11506579Y-11933985D01*
X11506579Y-11933985D02*
X11497055Y-11914938D01*
X11497055Y-11914938D02*
X11478008Y-11905414D01*
X11478008Y-11905414D02*
X11449436Y-11905414D01*
X11449436Y-11905414D02*
X11430389Y-11914938D01*
X11430389Y-11914938D02*
X11420865Y-11924461D01*
X11630389Y-12038747D02*
X11611341Y-12029223D01*
X11611341Y-12029223D02*
X11601817Y-12019700D01*
X11601817Y-12019700D02*
X11592294Y-12000652D01*
X11592294Y-12000652D02*
X11592294Y-11943509D01*
X11592294Y-11943509D02*
X11601817Y-11924461D01*
X11601817Y-11924461D02*
X11611341Y-11914938D01*
X11611341Y-11914938D02*
X11630389Y-11905414D01*
X11630389Y-11905414D02*
X11658960Y-11905414D01*
X11658960Y-11905414D02*
X11678008Y-11914938D01*
X11678008Y-11914938D02*
X11687532Y-11924461D01*
X11687532Y-11924461D02*
X11697055Y-11943509D01*
X11697055Y-11943509D02*
X11697055Y-12000652D01*
X11697055Y-12000652D02*
X11687532Y-12019700D01*
X11687532Y-12019700D02*
X11678008Y-12029223D01*
X11678008Y-12029223D02*
X11658960Y-12038747D01*
X11658960Y-12038747D02*
X11630389Y-12038747D01*
X11811341Y-12038747D02*
X11792294Y-12029223D01*
X11792294Y-12029223D02*
X11782770Y-12010176D01*
X11782770Y-12010176D02*
X11782770Y-11838747D01*
X11963722Y-12029223D02*
X11944675Y-12038747D01*
X11944675Y-12038747D02*
X11906579Y-12038747D01*
X11906579Y-12038747D02*
X11887532Y-12029223D01*
X11887532Y-12029223D02*
X11878008Y-12010176D01*
X11878008Y-12010176D02*
X11878008Y-11933985D01*
X11878008Y-11933985D02*
X11887532Y-11914938D01*
X11887532Y-11914938D02*
X11906579Y-11905414D01*
X11906579Y-11905414D02*
X11944675Y-11905414D01*
X11944675Y-11905414D02*
X11963722Y-11914938D01*
X11963722Y-11914938D02*
X11973246Y-11933985D01*
X11973246Y-11933985D02*
X11973246Y-11953033D01*
X11973246Y-11953033D02*
X11878008Y-11972081D01*
X12049436Y-12029223D02*
X12068484Y-12038747D01*
X12068484Y-12038747D02*
X12106579Y-12038747D01*
X12106579Y-12038747D02*
X12125627Y-12029223D01*
X12125627Y-12029223D02*
X12135151Y-12010176D01*
X12135151Y-12010176D02*
X12135151Y-12000652D01*
X12135151Y-12000652D02*
X12125627Y-11981604D01*
X12125627Y-11981604D02*
X12106579Y-11972081D01*
X12106579Y-11972081D02*
X12078008Y-11972081D01*
X12078008Y-11972081D02*
X12058960Y-11962557D01*
X12058960Y-11962557D02*
X12049436Y-11943509D01*
X12049436Y-11943509D02*
X12049436Y-11933985D01*
X12049436Y-11933985D02*
X12058960Y-11914938D01*
X12058960Y-11914938D02*
X12078008Y-11905414D01*
X12078008Y-11905414D02*
X12106579Y-11905414D01*
X12106579Y-11905414D02*
X12125627Y-11914938D01*
X12201817Y-12114938D02*
X12211341Y-12105414D01*
X12211341Y-12105414D02*
X12230389Y-12076842D01*
X12230389Y-12076842D02*
X12239913Y-12057795D01*
X12239913Y-12057795D02*
X12249436Y-12029223D01*
X12249436Y-12029223D02*
X12258960Y-11981604D01*
X12258960Y-11981604D02*
X12258960Y-11943509D01*
X12258960Y-11943509D02*
X12249436Y-11895890D01*
X12249436Y-11895890D02*
X12239913Y-11867319D01*
X12239913Y-11867319D02*
X12230389Y-11848271D01*
X12230389Y-11848271D02*
X12211341Y-11819700D01*
X12211341Y-11819700D02*
X12201817Y-11810176D01*
D10*
X7376754Y-12161263D02*
X7376754Y-12261263D01*
X7326754Y-12211263D02*
X7426754Y-12211263D01*
D11*
X7792293Y-12302747D02*
X7678007Y-12302747D01*
X7735150Y-12302747D02*
X7735150Y-12102747D01*
X7735150Y-12102747D02*
X7716103Y-12131319D01*
X7716103Y-12131319D02*
X7697055Y-12150366D01*
X7697055Y-12150366D02*
X7678007Y-12159890D01*
X7878007Y-12283700D02*
X7887531Y-12293223D01*
X7887531Y-12293223D02*
X7878007Y-12302747D01*
X7878007Y-12302747D02*
X7868484Y-12293223D01*
X7868484Y-12293223D02*
X7878007Y-12283700D01*
X7878007Y-12283700D02*
X7878007Y-12302747D01*
X8011341Y-12102747D02*
X8030388Y-12102747D01*
X8030388Y-12102747D02*
X8049436Y-12112271D01*
X8049436Y-12112271D02*
X8058960Y-12121795D01*
X8058960Y-12121795D02*
X8068484Y-12140842D01*
X8068484Y-12140842D02*
X8078007Y-12178938D01*
X8078007Y-12178938D02*
X8078007Y-12226557D01*
X8078007Y-12226557D02*
X8068484Y-12264652D01*
X8068484Y-12264652D02*
X8058960Y-12283700D01*
X8058960Y-12283700D02*
X8049436Y-12293223D01*
X8049436Y-12293223D02*
X8030388Y-12302747D01*
X8030388Y-12302747D02*
X8011341Y-12302747D01*
X8011341Y-12302747D02*
X7992293Y-12293223D01*
X7992293Y-12293223D02*
X7982769Y-12283700D01*
X7982769Y-12283700D02*
X7973246Y-12264652D01*
X7973246Y-12264652D02*
X7963722Y-12226557D01*
X7963722Y-12226557D02*
X7963722Y-12178938D01*
X7963722Y-12178938D02*
X7973246Y-12140842D01*
X7973246Y-12140842D02*
X7982769Y-12121795D01*
X7982769Y-12121795D02*
X7992293Y-12112271D01*
X7992293Y-12112271D02*
X8011341Y-12102747D01*
X8201817Y-12102747D02*
X8220865Y-12102747D01*
X8220865Y-12102747D02*
X8239912Y-12112271D01*
X8239912Y-12112271D02*
X8249436Y-12121795D01*
X8249436Y-12121795D02*
X8258960Y-12140842D01*
X8258960Y-12140842D02*
X8268484Y-12178938D01*
X8268484Y-12178938D02*
X8268484Y-12226557D01*
X8268484Y-12226557D02*
X8258960Y-12264652D01*
X8258960Y-12264652D02*
X8249436Y-12283700D01*
X8249436Y-12283700D02*
X8239912Y-12293223D01*
X8239912Y-12293223D02*
X8220865Y-12302747D01*
X8220865Y-12302747D02*
X8201817Y-12302747D01*
X8201817Y-12302747D02*
X8182769Y-12293223D01*
X8182769Y-12293223D02*
X8173246Y-12283700D01*
X8173246Y-12283700D02*
X8163722Y-12264652D01*
X8163722Y-12264652D02*
X8154198Y-12226557D01*
X8154198Y-12226557D02*
X8154198Y-12178938D01*
X8154198Y-12178938D02*
X8163722Y-12140842D01*
X8163722Y-12140842D02*
X8173246Y-12121795D01*
X8173246Y-12121795D02*
X8182769Y-12112271D01*
X8182769Y-12112271D02*
X8201817Y-12102747D01*
X8392293Y-12102747D02*
X8411341Y-12102747D01*
X8411341Y-12102747D02*
X8430389Y-12112271D01*
X8430389Y-12112271D02*
X8439912Y-12121795D01*
X8439912Y-12121795D02*
X8449436Y-12140842D01*
X8449436Y-12140842D02*
X8458960Y-12178938D01*
X8458960Y-12178938D02*
X8458960Y-12226557D01*
X8458960Y-12226557D02*
X8449436Y-12264652D01*
X8449436Y-12264652D02*
X8439912Y-12283700D01*
X8439912Y-12283700D02*
X8430389Y-12293223D01*
X8430389Y-12293223D02*
X8411341Y-12302747D01*
X8411341Y-12302747D02*
X8392293Y-12302747D01*
X8392293Y-12302747D02*
X8373246Y-12293223D01*
X8373246Y-12293223D02*
X8363722Y-12283700D01*
X8363722Y-12283700D02*
X8354198Y-12264652D01*
X8354198Y-12264652D02*
X8344674Y-12226557D01*
X8344674Y-12226557D02*
X8344674Y-12178938D01*
X8344674Y-12178938D02*
X8354198Y-12140842D01*
X8354198Y-12140842D02*
X8363722Y-12121795D01*
X8363722Y-12121795D02*
X8373246Y-12112271D01*
X8373246Y-12112271D02*
X8392293Y-12102747D01*
X8544674Y-12302747D02*
X8544674Y-12169414D01*
X8544674Y-12188461D02*
X8554198Y-12178938D01*
X8554198Y-12178938D02*
X8573246Y-12169414D01*
X8573246Y-12169414D02*
X8601817Y-12169414D01*
X8601817Y-12169414D02*
X8620865Y-12178938D01*
X8620865Y-12178938D02*
X8630389Y-12197985D01*
X8630389Y-12197985D02*
X8630389Y-12302747D01*
X8630389Y-12197985D02*
X8639912Y-12178938D01*
X8639912Y-12178938D02*
X8658960Y-12169414D01*
X8658960Y-12169414D02*
X8687531Y-12169414D01*
X8687531Y-12169414D02*
X8706579Y-12178938D01*
X8706579Y-12178938D02*
X8716103Y-12197985D01*
X8716103Y-12197985D02*
X8716103Y-12302747D01*
X8811341Y-12302747D02*
X8811341Y-12169414D01*
X8811341Y-12188461D02*
X8820865Y-12178938D01*
X8820865Y-12178938D02*
X8839912Y-12169414D01*
X8839912Y-12169414D02*
X8868484Y-12169414D01*
X8868484Y-12169414D02*
X8887531Y-12178938D01*
X8887531Y-12178938D02*
X8897055Y-12197985D01*
X8897055Y-12197985D02*
X8897055Y-12302747D01*
X8897055Y-12197985D02*
X8906579Y-12178938D01*
X8906579Y-12178938D02*
X8925627Y-12169414D01*
X8925627Y-12169414D02*
X8954198Y-12169414D01*
X8954198Y-12169414D02*
X8973246Y-12178938D01*
X8973246Y-12178938D02*
X8982770Y-12197985D01*
X8982770Y-12197985D02*
X8982770Y-12302747D01*
X9373246Y-12093223D02*
X9201817Y-12350366D01*
X9630389Y-12102747D02*
X9649436Y-12102747D01*
X9649436Y-12102747D02*
X9668484Y-12112271D01*
X9668484Y-12112271D02*
X9678008Y-12121795D01*
X9678008Y-12121795D02*
X9687532Y-12140842D01*
X9687532Y-12140842D02*
X9697055Y-12178938D01*
X9697055Y-12178938D02*
X9697055Y-12226557D01*
X9697055Y-12226557D02*
X9687532Y-12264652D01*
X9687532Y-12264652D02*
X9678008Y-12283700D01*
X9678008Y-12283700D02*
X9668484Y-12293223D01*
X9668484Y-12293223D02*
X9649436Y-12302747D01*
X9649436Y-12302747D02*
X9630389Y-12302747D01*
X9630389Y-12302747D02*
X9611341Y-12293223D01*
X9611341Y-12293223D02*
X9601817Y-12283700D01*
X9601817Y-12283700D02*
X9592293Y-12264652D01*
X9592293Y-12264652D02*
X9582770Y-12226557D01*
X9582770Y-12226557D02*
X9582770Y-12178938D01*
X9582770Y-12178938D02*
X9592293Y-12140842D01*
X9592293Y-12140842D02*
X9601817Y-12121795D01*
X9601817Y-12121795D02*
X9611341Y-12112271D01*
X9611341Y-12112271D02*
X9630389Y-12102747D01*
X9782770Y-12283700D02*
X9792293Y-12293223D01*
X9792293Y-12293223D02*
X9782770Y-12302747D01*
X9782770Y-12302747D02*
X9773246Y-12293223D01*
X9773246Y-12293223D02*
X9782770Y-12283700D01*
X9782770Y-12283700D02*
X9782770Y-12302747D01*
X9916103Y-12102747D02*
X9935151Y-12102747D01*
X9935151Y-12102747D02*
X9954198Y-12112271D01*
X9954198Y-12112271D02*
X9963722Y-12121795D01*
X9963722Y-12121795D02*
X9973246Y-12140842D01*
X9973246Y-12140842D02*
X9982770Y-12178938D01*
X9982770Y-12178938D02*
X9982770Y-12226557D01*
X9982770Y-12226557D02*
X9973246Y-12264652D01*
X9973246Y-12264652D02*
X9963722Y-12283700D01*
X9963722Y-12283700D02*
X9954198Y-12293223D01*
X9954198Y-12293223D02*
X9935151Y-12302747D01*
X9935151Y-12302747D02*
X9916103Y-12302747D01*
X9916103Y-12302747D02*
X9897055Y-12293223D01*
X9897055Y-12293223D02*
X9887532Y-12283700D01*
X9887532Y-12283700D02*
X9878008Y-12264652D01*
X9878008Y-12264652D02*
X9868484Y-12226557D01*
X9868484Y-12226557D02*
X9868484Y-12178938D01*
X9868484Y-12178938D02*
X9878008Y-12140842D01*
X9878008Y-12140842D02*
X9887532Y-12121795D01*
X9887532Y-12121795D02*
X9897055Y-12112271D01*
X9897055Y-12112271D02*
X9916103Y-12102747D01*
X10049436Y-12102747D02*
X10173246Y-12102747D01*
X10173246Y-12102747D02*
X10106579Y-12178938D01*
X10106579Y-12178938D02*
X10135151Y-12178938D01*
X10135151Y-12178938D02*
X10154198Y-12188461D01*
X10154198Y-12188461D02*
X10163722Y-12197985D01*
X10163722Y-12197985D02*
X10173246Y-12217033D01*
X10173246Y-12217033D02*
X10173246Y-12264652D01*
X10173246Y-12264652D02*
X10163722Y-12283700D01*
X10163722Y-12283700D02*
X10154198Y-12293223D01*
X10154198Y-12293223D02*
X10135151Y-12302747D01*
X10135151Y-12302747D02*
X10078008Y-12302747D01*
X10078008Y-12302747D02*
X10058960Y-12293223D01*
X10058960Y-12293223D02*
X10049436Y-12283700D01*
X10268484Y-12302747D02*
X10306579Y-12302747D01*
X10306579Y-12302747D02*
X10325627Y-12293223D01*
X10325627Y-12293223D02*
X10335151Y-12283700D01*
X10335151Y-12283700D02*
X10354198Y-12255128D01*
X10354198Y-12255128D02*
X10363722Y-12217033D01*
X10363722Y-12217033D02*
X10363722Y-12140842D01*
X10363722Y-12140842D02*
X10354198Y-12121795D01*
X10354198Y-12121795D02*
X10344674Y-12112271D01*
X10344674Y-12112271D02*
X10325627Y-12102747D01*
X10325627Y-12102747D02*
X10287532Y-12102747D01*
X10287532Y-12102747D02*
X10268484Y-12112271D01*
X10268484Y-12112271D02*
X10258960Y-12121795D01*
X10258960Y-12121795D02*
X10249436Y-12140842D01*
X10249436Y-12140842D02*
X10249436Y-12188461D01*
X10249436Y-12188461D02*
X10258960Y-12207509D01*
X10258960Y-12207509D02*
X10268484Y-12217033D01*
X10268484Y-12217033D02*
X10287532Y-12226557D01*
X10287532Y-12226557D02*
X10325627Y-12226557D01*
X10325627Y-12226557D02*
X10344674Y-12217033D01*
X10344674Y-12217033D02*
X10354198Y-12207509D01*
X10354198Y-12207509D02*
X10363722Y-12188461D01*
X10535151Y-12169414D02*
X10535151Y-12302747D01*
X10487532Y-12093223D02*
X10439913Y-12236081D01*
X10439913Y-12236081D02*
X10563722Y-12236081D01*
X10630389Y-12102747D02*
X10630389Y-12140842D01*
X10706579Y-12102747D02*
X10706579Y-12140842D01*
X11001817Y-12378938D02*
X10992294Y-12369414D01*
X10992294Y-12369414D02*
X10973246Y-12340842D01*
X10973246Y-12340842D02*
X10963722Y-12321795D01*
X10963722Y-12321795D02*
X10954198Y-12293223D01*
X10954198Y-12293223D02*
X10944675Y-12245604D01*
X10944675Y-12245604D02*
X10944675Y-12207509D01*
X10944675Y-12207509D02*
X10954198Y-12159890D01*
X10954198Y-12159890D02*
X10963722Y-12131319D01*
X10963722Y-12131319D02*
X10973246Y-12112271D01*
X10973246Y-12112271D02*
X10992294Y-12083700D01*
X10992294Y-12083700D02*
X11001817Y-12074176D01*
X11068484Y-12121795D02*
X11078008Y-12112271D01*
X11078008Y-12112271D02*
X11097055Y-12102747D01*
X11097055Y-12102747D02*
X11144675Y-12102747D01*
X11144675Y-12102747D02*
X11163722Y-12112271D01*
X11163722Y-12112271D02*
X11173246Y-12121795D01*
X11173246Y-12121795D02*
X11182770Y-12140842D01*
X11182770Y-12140842D02*
X11182770Y-12159890D01*
X11182770Y-12159890D02*
X11173246Y-12188461D01*
X11173246Y-12188461D02*
X11058960Y-12302747D01*
X11058960Y-12302747D02*
X11182770Y-12302747D01*
X11420865Y-12302747D02*
X11420865Y-12102747D01*
X11506579Y-12302747D02*
X11506579Y-12197985D01*
X11506579Y-12197985D02*
X11497055Y-12178938D01*
X11497055Y-12178938D02*
X11478008Y-12169414D01*
X11478008Y-12169414D02*
X11449436Y-12169414D01*
X11449436Y-12169414D02*
X11430389Y-12178938D01*
X11430389Y-12178938D02*
X11420865Y-12188461D01*
X11630389Y-12302747D02*
X11611341Y-12293223D01*
X11611341Y-12293223D02*
X11601817Y-12283700D01*
X11601817Y-12283700D02*
X11592294Y-12264652D01*
X11592294Y-12264652D02*
X11592294Y-12207509D01*
X11592294Y-12207509D02*
X11601817Y-12188461D01*
X11601817Y-12188461D02*
X11611341Y-12178938D01*
X11611341Y-12178938D02*
X11630389Y-12169414D01*
X11630389Y-12169414D02*
X11658960Y-12169414D01*
X11658960Y-12169414D02*
X11678008Y-12178938D01*
X11678008Y-12178938D02*
X11687532Y-12188461D01*
X11687532Y-12188461D02*
X11697055Y-12207509D01*
X11697055Y-12207509D02*
X11697055Y-12264652D01*
X11697055Y-12264652D02*
X11687532Y-12283700D01*
X11687532Y-12283700D02*
X11678008Y-12293223D01*
X11678008Y-12293223D02*
X11658960Y-12302747D01*
X11658960Y-12302747D02*
X11630389Y-12302747D01*
X11811341Y-12302747D02*
X11792294Y-12293223D01*
X11792294Y-12293223D02*
X11782770Y-12274176D01*
X11782770Y-12274176D02*
X11782770Y-12102747D01*
X11963722Y-12293223D02*
X11944675Y-12302747D01*
X11944675Y-12302747D02*
X11906579Y-12302747D01*
X11906579Y-12302747D02*
X11887532Y-12293223D01*
X11887532Y-12293223D02*
X11878008Y-12274176D01*
X11878008Y-12274176D02*
X11878008Y-12197985D01*
X11878008Y-12197985D02*
X11887532Y-12178938D01*
X11887532Y-12178938D02*
X11906579Y-12169414D01*
X11906579Y-12169414D02*
X11944675Y-12169414D01*
X11944675Y-12169414D02*
X11963722Y-12178938D01*
X11963722Y-12178938D02*
X11973246Y-12197985D01*
X11973246Y-12197985D02*
X11973246Y-12217033D01*
X11973246Y-12217033D02*
X11878008Y-12236081D01*
X12049436Y-12293223D02*
X12068484Y-12302747D01*
X12068484Y-12302747D02*
X12106579Y-12302747D01*
X12106579Y-12302747D02*
X12125627Y-12293223D01*
X12125627Y-12293223D02*
X12135151Y-12274176D01*
X12135151Y-12274176D02*
X12135151Y-12264652D01*
X12135151Y-12264652D02*
X12125627Y-12245604D01*
X12125627Y-12245604D02*
X12106579Y-12236081D01*
X12106579Y-12236081D02*
X12078008Y-12236081D01*
X12078008Y-12236081D02*
X12058960Y-12226557D01*
X12058960Y-12226557D02*
X12049436Y-12207509D01*
X12049436Y-12207509D02*
X12049436Y-12197985D01*
X12049436Y-12197985D02*
X12058960Y-12178938D01*
X12058960Y-12178938D02*
X12078008Y-12169414D01*
X12078008Y-12169414D02*
X12106579Y-12169414D01*
X12106579Y-12169414D02*
X12125627Y-12178938D01*
X12201817Y-12378938D02*
X12211341Y-12369414D01*
X12211341Y-12369414D02*
X12230389Y-12340842D01*
X12230389Y-12340842D02*
X12239913Y-12321795D01*
X12239913Y-12321795D02*
X12249436Y-12293223D01*
X12249436Y-12293223D02*
X12258960Y-12245604D01*
X12258960Y-12245604D02*
X12258960Y-12207509D01*
X12258960Y-12207509D02*
X12249436Y-12159890D01*
X12249436Y-12159890D02*
X12239913Y-12131319D01*
X12239913Y-12131319D02*
X12230389Y-12112271D01*
X12230389Y-12112271D02*
X12211341Y-12083700D01*
X12211341Y-12083700D02*
X12201817Y-12074176D01*
M02*
