%TF.GenerationSoftware,KiCad,Pcbnew,7.0.8*%
%TF.CreationDate,2023-12-31T22:49:09+00:00*%
%TF.ProjectId,pce-gt-controller,7063652d-6774-42d6-936f-6e74726f6c6c,BF1.1*%
%TF.SameCoordinates,Original*%
%TF.FileFunction,Copper,L1,Top*%
%TF.FilePolarity,Positive*%
%FSLAX46Y46*%
G04 Gerber Fmt 4.6, Leading zero omitted, Abs format (unit mm)*
G04 Created by KiCad (PCBNEW 7.0.8) date 2023-12-31 22:49:09*
%MOMM*%
%LPD*%
G01*
G04 APERTURE LIST*
G04 Aperture macros list*
%AMRoundRect*
0 Rectangle with rounded corners*
0 $1 Rounding radius*
0 $2 $3 $4 $5 $6 $7 $8 $9 X,Y pos of 4 corners*
0 Add a 4 corners polygon primitive as box body*
4,1,4,$2,$3,$4,$5,$6,$7,$8,$9,$2,$3,0*
0 Add four circle primitives for the rounded corners*
1,1,$1+$1,$2,$3*
1,1,$1+$1,$4,$5*
1,1,$1+$1,$6,$7*
1,1,$1+$1,$8,$9*
0 Add four rect primitives between the rounded corners*
20,1,$1+$1,$2,$3,$4,$5,0*
20,1,$1+$1,$4,$5,$6,$7,0*
20,1,$1+$1,$6,$7,$8,$9,0*
20,1,$1+$1,$8,$9,$2,$3,0*%
%AMFreePoly0*
4,1,76,1.332500,-1.672500,-0.097500,-1.672500,-0.097500,-2.572500,1.232500,-2.572500,1.247563,-2.577394,1.263402,-2.577394,1.276215,-2.586703,1.291279,-2.591598,1.300588,-2.604411,1.313402,-2.613721,1.318296,-2.628784,1.327606,-2.641598,1.327606,-2.657437,1.332500,-2.672500,1.332500,-3.162500,2.542393,-3.162500,2.613375,-3.061128,2.776629,-2.897874,2.965751,-2.765449,3.174995,-2.667877,
3.398004,-2.608122,3.628001,-2.588000,3.857998,-2.608122,4.081007,-2.667877,4.290251,-2.765449,4.479373,-2.897874,4.642627,-3.061128,4.775052,-3.250250,4.872624,-3.459494,4.932379,-3.682503,4.952501,-3.912500,4.932379,-4.142497,4.872624,-4.365506,4.775052,-4.574750,4.642627,-4.763872,4.479373,-4.927126,4.290251,-5.059551,4.081007,-5.157123,3.857998,-5.216878,3.628001,-5.237000,
3.398004,-5.216878,3.174995,-5.157123,2.965751,-5.059551,2.776629,-4.927126,2.613375,-4.763872,2.542393,-4.662500,1.332500,-4.662500,1.332500,-5.832500,1.327606,-5.847562,1.327606,-5.863402,1.318296,-5.876215,1.313402,-5.891279,1.300588,-5.900588,1.291279,-5.913402,1.276215,-5.918296,1.263402,-5.927606,1.247563,-5.927606,1.232500,-5.932500,-1.242500,-5.932500,-1.257563,-5.927606,
-1.273402,-5.927606,-1.286215,-5.918296,-1.301279,-5.913402,-1.310588,-5.900588,-1.323402,-5.891279,-1.328296,-5.876215,-1.337606,-5.863402,-1.337606,-5.847562,-1.342500,-5.832500,-1.342500,-1.672500,-1.337606,-1.657437,-1.337606,-1.641598,-1.332500,-1.634570,-1.332500,1.672500,1.332500,1.672500,1.332500,-1.672500,1.332500,-1.672500,$1*%
%AMFreePoly1*
4,1,62,1.332500,-1.672500,-0.097500,-1.672500,-0.097500,-2.572500,1.232500,-2.572500,1.247563,-2.577394,1.263402,-2.577394,1.276215,-2.586703,1.291279,-2.591598,1.300588,-2.604411,1.313402,-2.613721,1.318296,-2.628784,1.327606,-2.641598,1.327606,-2.657437,1.332500,-2.672500,1.332500,-4.747048,1.464500,-4.735500,1.694497,-4.755622,1.917506,-4.815377,2.126750,-4.912949,2.315872,-5.045374,
2.479126,-5.208628,2.611551,-5.397750,2.709123,-5.606994,2.768878,-5.830003,2.789000,-6.060000,2.768878,-6.289997,2.709123,-6.513006,2.611551,-6.722250,2.479126,-6.911372,2.315872,-7.074626,2.126750,-7.207051,1.917506,-7.304623,1.694497,-7.364378,1.464500,-7.384500,1.234503,-7.364378,1.011494,-7.304623,0.802250,-7.207051,0.613128,-7.074626,0.449874,-6.911372,0.317449,-6.722250,
0.219877,-6.513006,0.160122,-6.289997,0.140000,-6.060000,0.151155,-5.932500,-1.242500,-5.932500,-1.257563,-5.927606,-1.273402,-5.927606,-1.286215,-5.918296,-1.301279,-5.913402,-1.310588,-5.900588,-1.323402,-5.891279,-1.328296,-5.876215,-1.337606,-5.863402,-1.337606,-5.847562,-1.342500,-5.832500,-1.342500,-1.672500,-1.337606,-1.657437,-1.337606,-1.641598,-1.332500,-1.634570,-1.332500,1.672500,
1.332500,1.672500,1.332500,-1.672500,1.332500,-1.672500,$1*%
%AMFreePoly2*
4,1,142,0.298293,1.048390,0.485855,0.975728,0.656872,0.869839,0.805520,0.734328,0.926737,0.573811,1.016395,0.393753,1.071441,0.200287,1.090000,0.000000,1.071441,-0.200287,1.016395,-0.393753,0.926737,-0.573811,0.805520,-0.734328,0.656872,-0.869839,0.485855,-0.975728,0.350000,-1.028358,0.350000,-1.536484,0.555651,-1.564496,0.883311,-1.646230,1.200126,-1.763149,1.502328,-1.913864,
1.786327,-2.096582,2.048746,-2.309133,2.286465,-2.548990,2.496659,-2.813300,2.676828,-3.098923,2.824832,-3.402462,2.938911,-3.720310,3.017709,-4.048689,3.060290,-4.383694,3.050972,-4.492801,3.008394,-4.593688,2.936724,-4.676480,2.842978,-4.733073,2.736331,-4.757927,2.627224,-4.748609,2.526337,-4.706031,2.443545,-4.634361,2.386952,-4.540615,2.362097,-4.433968,2.351101,-4.282324,
2.291117,-3.984213,2.193952,-3.696069,2.061161,-3.422510,1.894873,-3.167919,1.697753,-2.936377,1.472960,-2.731594,1.224096,-2.556852,0.955150,-2.414952,0.670431,-2.308167,0.374502,-2.238208,0.072106,-2.206197,-0.231911,-2.212647,-0.532677,-2.257454,-0.825372,-2.339901,-1.105306,-2.458666,-1.367992,-2.611846,-1.399215,-2.635809,-0.088366,-3.946658,0.000000,-3.935025,0.153991,-3.955298,
0.297488,-4.014737,0.420711,-4.109289,0.515263,-4.232513,0.574702,-4.376009,0.594975,-4.530000,0.574702,-4.683991,0.515263,-4.827488,0.420711,-4.950711,0.297488,-5.045263,0.153991,-5.104702,0.000000,-5.124975,-0.153991,-5.104702,-0.297488,-5.045263,-0.420711,-4.950711,-0.515263,-4.827488,-0.574702,-4.683991,-0.594975,-4.530000,-0.583341,-4.441633,-1.907868,-3.117105,-2.012249,-3.250812,
-2.167589,-3.512226,-2.288658,-3.791171,-2.373515,-4.083177,-2.420801,-4.383563,-2.429757,-4.687517,-2.400241,-4.990166,-2.332725,-5.286662,-2.228291,-5.572252,-2.088612,-5.842359,-1.915928,-6.092655,-1.713006,-6.319129,-1.598102,-6.418699,-1.527540,-6.502438,-1.486309,-6.603883,-1.478444,-6.713104,-1.504716,-6.819410,-1.562552,-6.912395,-1.646291,-6.982957,-1.747736,-7.024188,-1.856957,-7.032053,
-1.963263,-7.005781,-2.056248,-6.947945,-2.299143,-6.713332,-2.515053,-6.453670,-2.701411,-6.172046,-2.856002,-5.871807,-2.976988,-5.556524,-3.062931,-5.229942,-3.112809,-4.895946,-3.126030,-4.558505,-3.102435,-4.221630,-3.042307,-3.889326,-2.946359,-3.565543,-2.815732,-3.254130,-2.651979,-2.958789,-2.457046,-2.683030,-2.233251,-2.430133,-1.983254,-2.203102,-1.710027,-2.004637,-1.416817,-1.837097,
-1.107111,-1.702474,-0.784589,-1.602368,-0.453086,-1.537969,-0.350000,-1.529414,-0.350000,-1.028358,-0.485855,-0.975728,-0.656872,-0.869839,-0.805520,-0.734328,-0.926737,-0.573811,-1.016395,-0.393753,-1.071441,-0.200287,-1.090000,0.000000,-1.071441,0.200287,-1.016395,0.393753,-0.926737,0.573811,-0.805520,0.734328,-0.656872,0.869839,-0.485855,0.975728,-0.298293,1.048390,-0.100573,1.085350,
0.100573,1.085350,0.298293,1.048390,0.298293,1.048390,$1*%
%AMFreePoly3*
4,1,207,0.308073,6.291127,0.566581,6.234892,0.814454,6.142440,1.046647,6.015653,1.258433,5.857113,1.445500,5.670045,1.604041,5.458259,1.730828,5.226067,1.823280,4.978193,1.879515,4.719686,1.898388,4.455807,1.879515,4.191928,1.823280,3.933420,1.730829,3.685547,1.604042,3.453354,1.445501,3.241568,1.258434,3.054501,1.046648,2.895959,0.814455,2.769172,0.566582,2.676720,
0.350033,2.629612,0.350033,1.027123,0.374425,1.017356,0.485212,0.974438,0.491760,0.970383,0.498841,0.967550,0.564815,0.925149,0.656003,0.868689,0.663968,0.861427,0.672937,0.855665,0.730543,0.800735,0.775749,0.759526,0.804455,0.733357,0.812801,0.722305,0.822712,0.712855,0.868565,0.648461,0.925512,0.573052,0.933065,0.557883,0.942754,0.544279,0.975006,0.473653,
1.000559,0.422336,1.015051,0.393233,1.020532,0.373968,1.028723,0.356033,1.046582,0.282410,1.070024,0.200022,1.072158,0.176990,1.077513,0.154918,1.081014,0.081422,1.088559,0.000000,1.086137,-0.026132,1.087360,-0.051796,1.077233,-0.122224,1.070024,-0.200022,1.061985,-0.228275,1.057908,-0.256638,1.035468,-0.321473,1.015051,-0.393233,1.000559,-0.422336,0.990222,-0.452204,
0.957258,-0.509296,0.939839,-0.544279,0.925512,-0.573052,0.904015,-0.601518,0.886748,-0.631426,0.845368,-0.679178,0.804455,-0.733357,0.775744,-0.759530,0.751226,-0.787827,0.703748,-0.825163,0.656003,-0.868689,0.620252,-0.890824,0.588553,-0.915754,0.537402,-0.942123,0.485212,-0.974438,0.443004,-0.990789,0.404611,-1.010583,0.352155,-1.025984,0.297898,-1.047004,0.250213,-1.055917,
0.206045,-1.068887,0.154511,-1.073807,0.100440,-1.083915,0.048667,-1.083915,0.000034,-1.088559,-0.000034,-1.088559,-0.097525,-1.083915,-0.100440,-1.083915,-0.101441,-1.083727,-0.103508,-1.083630,-0.153066,-1.074077,-0.297898,-1.047004,-0.302213,-1.045332,-0.306717,-1.044465,-0.374504,-1.017326,-0.485212,-0.974438,-0.491760,-0.970383,-0.498841,-0.967550,-0.564815,-0.925149,-0.656003,-0.868689,
-0.663968,-0.861427,-0.672937,-0.855665,-0.730543,-0.800735,-0.804455,-0.733357,-0.812801,-0.722304,-0.822712,-0.712855,-0.868565,-0.648461,-0.925512,-0.573052,-0.933065,-0.557883,-0.942754,-0.544279,-0.975006,-0.473653,-1.015051,-0.393233,-1.020532,-0.373966,-1.028723,-0.356033,-1.046582,-0.282410,-1.070024,-0.200022,-1.072158,-0.176988,-1.077513,-0.154918,-1.081014,-0.081422,-1.088559,0.000000,
-1.086137,0.026132,-1.087360,0.051796,-1.077233,0.122224,-1.070024,0.200022,-1.061985,0.228275,-1.057908,0.256638,-1.035468,0.321473,-1.015051,0.393233,-1.000559,0.422336,-0.990222,0.452204,-0.957258,0.509296,-0.925512,0.573052,-0.904013,0.601520,-0.886748,0.631426,-0.845368,0.679178,-0.804455,0.733357,-0.775744,0.759530,-0.751226,0.787827,-0.703745,0.825166,-0.656003,0.868689,
-0.620252,0.890824,-0.588553,0.915754,-0.537402,0.942123,-0.485212,0.974438,-0.443004,0.990789,-0.404611,1.010583,-0.352159,1.025983,-0.349967,1.026832,-0.349967,2.648825,-0.478191,2.676719,-0.726064,2.769171,-0.958257,2.895958,-1.170043,3.054498,-1.357111,3.241566,-1.515652,3.453351,-1.642439,3.685544,-1.734891,3.933417,-1.791127,4.191924,-1.810000,4.455804,-1.792870,4.563960,
-1.743156,4.661528,-1.665725,4.738960,-1.568156,4.788674,-1.460000,4.805804,-1.351844,4.788674,-1.254276,4.738960,-1.176844,4.661529,-1.127130,4.563960,-1.110000,4.455804,-1.109910,4.350929,-1.072101,4.144614,-0.997722,3.948494,-0.889210,3.768993,-0.750119,3.611992,-0.585006,3.482635,-0.399281,3.385159,-0.199028,3.322758,0.009194,3.297476,0.218562,3.310140,0.422218,3.360337,
0.613490,3.446422,0.786111,3.565574,0.934427,3.713890,1.053579,3.886512,1.139663,4.077784,1.189860,4.281439,1.202524,4.490808,1.177242,4.699029,1.114840,4.899282,1.017364,5.085008,0.888007,5.250120,0.731006,5.389210,0.551505,5.497722,0.355384,5.572101,0.149069,5.609910,0.044194,5.610000,-0.063962,5.627130,-0.161531,5.676844,-0.238962,5.754275,-0.288676,5.851844,
-0.305806,5.960000,-0.288676,6.068156,-0.238962,6.165725,-0.161531,6.243156,-0.063962,6.292870,0.044194,6.310000,0.308073,6.291127,0.308073,6.291127,$1*%
%AMFreePoly4*
4,1,142,5.391041,5.051081,5.725651,5.005504,6.053311,4.923770,6.370126,4.806851,6.672328,4.656136,6.956327,4.473418,7.218746,4.260867,7.456465,4.021010,7.666659,3.756700,7.846828,3.471077,7.994832,3.167538,8.108911,2.849690,8.187709,2.521311,8.230290,2.186306,8.220972,2.077199,8.178394,1.976312,8.106724,1.893520,8.012978,1.836927,7.906331,1.812073,7.797224,1.821391,
7.696337,1.863969,7.613545,1.935639,7.556952,2.029385,7.532097,2.136032,7.521101,2.287676,7.461117,2.585787,7.363952,2.873931,7.231161,3.147490,7.064873,3.402081,6.867753,3.633623,6.642960,3.838406,6.394096,4.013148,6.125150,4.155048,5.840431,4.261833,5.544502,4.331792,5.242106,4.363803,4.938089,4.357353,4.637323,4.312546,4.344628,4.230099,4.064694,4.111334,
3.802008,3.958154,3.770784,3.934190,5.081633,2.623341,5.170000,2.634975,5.323991,2.614702,5.467488,2.555263,5.590711,2.460711,5.685263,2.337487,5.744702,2.193991,5.764975,2.040000,5.744702,1.886009,5.685263,1.742512,5.590711,1.619289,5.467488,1.524737,5.323991,1.465298,5.170000,1.445025,5.016009,1.465298,4.872512,1.524737,4.749289,1.619289,4.654737,1.742512,
4.595298,1.886009,4.575025,2.040000,4.586658,2.128366,3.262131,3.452894,3.157751,3.319188,3.002411,3.057774,2.881342,2.778829,2.796485,2.486823,2.749199,2.186437,2.740243,1.882483,2.769759,1.579834,2.837275,1.283338,2.941709,0.997748,3.081388,0.727641,3.254072,0.477345,3.456994,0.250871,3.571898,0.151301,3.642460,0.067562,3.683691,-0.033883,3.691556,-0.143104,
3.665284,-0.249410,3.607448,-0.342395,3.523709,-0.412957,3.422264,-0.454188,3.313043,-0.462053,3.206737,-0.435781,3.113752,-0.377945,2.870857,-0.143332,2.654947,0.116330,2.468589,0.397954,2.313998,0.698193,2.289498,0.762036,1.076061,0.150424,1.090000,0.000000,1.071441,-0.200287,1.016395,-0.393753,0.926737,-0.573811,0.805520,-0.734328,0.656872,-0.869839,0.485855,-0.975728,
0.298293,-1.048390,0.100573,-1.085350,-0.100573,-1.085350,-0.298293,-1.048390,-0.485855,-0.975728,-0.656872,-0.869839,-0.805520,-0.734328,-0.926737,-0.573811,-1.016395,-0.393753,-1.071441,-0.200287,-1.090000,0.000000,-1.071441,0.200287,-1.016395,0.393753,-0.926737,0.573811,-0.805520,0.734328,-0.656872,0.869839,-0.485855,0.975728,-0.298293,1.048390,-0.100573,1.085350,0.100573,1.085350,
0.298293,1.048390,0.485855,0.975728,0.656872,0.869839,0.760576,0.775299,2.091247,1.446001,2.057191,1.674054,2.043970,2.011495,2.067565,2.348370,2.127693,2.680674,2.223641,3.004457,2.354268,3.315870,2.518021,3.611211,2.712954,3.886970,2.936749,4.139867,3.186746,4.366898,3.459973,4.565363,3.753183,4.732903,4.062889,4.867526,4.385411,4.967632,4.716914,5.032031,
5.053457,5.059958,5.391041,5.051081,5.391041,5.051081,$1*%
%AMFreePoly5*
4,1,112,-1.981927,5.721127,-1.723419,5.664892,-1.475546,5.572440,-1.243353,5.445653,-1.031567,5.287113,-0.844500,5.100045,-0.685959,4.888259,-0.559172,4.656067,-0.466720,4.408193,-0.410485,4.149686,-0.391612,3.885807,-0.410485,3.621928,-0.466720,3.363420,-0.559171,3.115547,-0.685958,2.883354,-0.844499,2.671568,-1.031566,2.484501,-1.101647,2.432038,-0.245566,1.056786,-0.100440,1.083915,
0.100440,1.083915,0.297898,1.047004,0.485212,0.974438,0.656003,0.868689,0.804455,0.733357,0.925512,0.573052,1.015051,0.393233,1.070024,0.200022,1.088559,0.000000,1.070024,-0.200022,1.015051,-0.393233,0.925512,-0.573052,0.804455,-0.733357,0.656003,-0.868689,0.485212,-0.974438,0.297898,-1.047004,0.100440,-1.083915,-0.100440,-1.083915,-0.297898,-1.047004,-0.485212,-0.974438,
-0.656003,-0.868689,-0.804455,-0.733357,-0.925512,-0.573052,-1.015051,-0.393233,-1.070024,-0.200022,-1.088559,0.000000,-1.070024,0.200022,-1.015051,0.393233,-0.925512,0.573052,-0.839714,0.686666,-1.723651,2.106669,-1.981925,2.050485,-2.245804,2.031612,-2.509684,2.050485,-2.768191,2.106719,-3.016064,2.199171,-3.248257,2.325958,-3.460043,2.484498,-3.647111,2.671566,-3.805652,2.883351,
-3.932439,3.115544,-4.024891,3.363417,-4.081127,3.621924,-4.100000,3.885804,-4.082870,3.993960,-4.033156,4.091528,-3.955725,4.168960,-3.858156,4.218674,-3.750000,4.235804,-3.641844,4.218674,-3.544276,4.168960,-3.466844,4.091529,-3.417130,3.993960,-3.400000,3.885804,-3.399910,3.780929,-3.362101,3.574614,-3.287722,3.378494,-3.179210,3.198993,-3.040119,3.041992,-2.875006,2.912635,
-2.689281,2.815159,-2.489028,2.752758,-2.280806,2.727476,-2.071438,2.740140,-1.867782,2.790337,-1.676510,2.876422,-1.503889,2.995574,-1.355573,3.143890,-1.236421,3.316512,-1.150337,3.507784,-1.100140,3.711439,-1.087476,3.920808,-1.112758,4.129029,-1.175160,4.329282,-1.272636,4.515008,-1.401993,4.680120,-1.558994,4.819210,-1.738495,4.927722,-1.934616,5.002101,-2.140931,5.039910,
-2.245806,5.040000,-2.353962,5.057130,-2.451531,5.106844,-2.528962,5.184275,-2.578676,5.281844,-2.595806,5.390000,-2.578676,5.498156,-2.528962,5.595725,-2.451531,5.673156,-2.353962,5.722870,-2.245806,5.740000,-1.981927,5.721127,-1.981927,5.721127,$1*%
%AMFreePoly6*
4,1,142,0.298293,1.048390,0.485855,0.975728,0.656872,0.869839,0.805520,0.734328,0.926737,0.573811,1.016395,0.393753,1.071441,0.200287,1.090000,0.000000,1.071441,-0.200287,1.016395,-0.393753,0.926737,-0.573811,0.849933,-0.675515,1.122820,-1.100318,1.232889,-1.052474,1.555411,-0.952368,1.886914,-0.887969,2.223457,-0.860042,2.561041,-0.868919,2.895651,-0.914496,3.223311,-0.996230,
3.540126,-1.113149,3.842328,-1.263864,4.126327,-1.446582,4.388746,-1.659133,4.626465,-1.898990,4.836659,-2.163300,5.016828,-2.448923,5.164832,-2.752462,5.278911,-3.070310,5.357709,-3.398689,5.400290,-3.733694,5.390972,-3.842801,5.348394,-3.943688,5.276724,-4.026480,5.182978,-4.083073,5.076331,-4.107927,4.967224,-4.098609,4.866337,-4.056031,4.783545,-3.984361,4.726952,-3.890615,
4.702097,-3.783968,4.691101,-3.632324,4.631117,-3.334213,4.533952,-3.046069,4.401161,-2.772510,4.234873,-2.517919,4.037753,-2.286377,3.812960,-2.081594,3.564096,-1.906852,3.295150,-1.764952,3.010431,-1.658167,2.714502,-1.588208,2.412106,-1.556197,2.108089,-1.562647,1.807323,-1.607454,1.514628,-1.689901,1.234694,-1.808666,0.972008,-1.961846,0.940784,-1.985809,2.251633,-3.296658,
2.340000,-3.285025,2.493991,-3.305298,2.637488,-3.364737,2.760711,-3.459289,2.855263,-3.582513,2.914702,-3.726009,2.934975,-3.880000,2.914702,-4.033991,2.855263,-4.177488,2.760711,-4.300711,2.637488,-4.395263,2.493991,-4.454702,2.340000,-4.474975,2.186009,-4.454702,2.042512,-4.395263,1.919289,-4.300711,1.824737,-4.177488,1.765298,-4.033991,1.745025,-3.880000,1.756658,-3.791633,
0.432131,-2.467105,0.327751,-2.600812,0.172411,-2.862226,0.051342,-3.141171,-0.033515,-3.433177,-0.080801,-3.733563,-0.089757,-4.037517,-0.060241,-4.340166,0.007275,-4.636662,0.111709,-4.922252,0.251388,-5.192359,0.424072,-5.442655,0.626994,-5.669129,0.741898,-5.768699,0.812460,-5.852438,0.853691,-5.953883,0.861556,-6.063104,0.835284,-6.169410,0.777448,-6.262395,0.693709,-6.332957,
0.592264,-6.374188,0.483043,-6.382053,0.376737,-6.355781,0.283752,-6.297945,0.040857,-6.063332,-0.175053,-5.803670,-0.361411,-5.522046,-0.516002,-5.221807,-0.636988,-4.906524,-0.722931,-4.579942,-0.772809,-4.245946,-0.786030,-3.908505,-0.762435,-3.571630,-0.702307,-3.239326,-0.606359,-2.915543,-0.475732,-2.604130,-0.311979,-2.308789,-0.117046,-2.033030,0.106749,-1.780133,0.356746,-1.553102,
0.510125,-1.441690,0.261851,-1.055202,0.100573,-1.085350,-0.100573,-1.085350,-0.298293,-1.048390,-0.485855,-0.975728,-0.656872,-0.869839,-0.805520,-0.734328,-0.926737,-0.573811,-1.016395,-0.393753,-1.071441,-0.200287,-1.090000,0.000000,-1.071441,0.200287,-1.016395,0.393753,-0.926737,0.573811,-0.805520,0.734328,-0.656872,0.869839,-0.485855,0.975728,-0.298293,1.048390,-0.100573,1.085350,
0.100573,1.085350,0.298293,1.048390,0.298293,1.048390,$1*%
G04 Aperture macros list end*
%TA.AperFunction,SMDPad,CuDef*%
%ADD10RoundRect,0.250000X-0.450000X0.262500X-0.450000X-0.262500X0.450000X-0.262500X0.450000X0.262500X0*%
%TD*%
%TA.AperFunction,SMDPad,CuDef*%
%ADD11R,3.250000X2.150000*%
%TD*%
%TA.AperFunction,SMDPad,CuDef*%
%ADD12R,2.200000X2.150000*%
%TD*%
%TA.AperFunction,SMDPad,CuDef*%
%ADD13R,9.875000X2.125000*%
%TD*%
%TA.AperFunction,ComponentPad*%
%ADD14O,1.642500X2.715000*%
%TD*%
%TA.AperFunction,SMDPad,CuDef*%
%ADD15RoundRect,0.250000X0.450000X-0.262500X0.450000X0.262500X-0.450000X0.262500X-0.450000X-0.262500X0*%
%TD*%
%TA.AperFunction,SMDPad,CuDef*%
%ADD16R,0.710000X3.210000*%
%TD*%
%TA.AperFunction,SMDPad,CuDef*%
%ADD17FreePoly0,0.000000*%
%TD*%
%TA.AperFunction,SMDPad,CuDef*%
%ADD18FreePoly1,180.000000*%
%TD*%
%TA.AperFunction,SMDPad,CuDef*%
%ADD19RoundRect,0.150000X-0.825000X-0.150000X0.825000X-0.150000X0.825000X0.150000X-0.825000X0.150000X0*%
%TD*%
%TA.AperFunction,SMDPad,CuDef*%
%ADD20FreePoly2,0.000000*%
%TD*%
%TA.AperFunction,SMDPad,CuDef*%
%ADD21FreePoly3,0.000000*%
%TD*%
%TA.AperFunction,SMDPad,CuDef*%
%ADD22RoundRect,0.150000X0.357500X0.150000X-0.357500X0.150000X-0.357500X-0.150000X0.357500X-0.150000X0*%
%TD*%
%TA.AperFunction,SMDPad,CuDef*%
%ADD23RoundRect,0.150000X0.392500X0.150000X-0.392500X0.150000X-0.392500X-0.150000X0.392500X-0.150000X0*%
%TD*%
%TA.AperFunction,SMDPad,CuDef*%
%ADD24O,2.165000X3.685000*%
%TD*%
%TA.AperFunction,SMDPad,CuDef*%
%ADD25FreePoly4,0.000000*%
%TD*%
%TA.AperFunction,SMDPad,CuDef*%
%ADD26FreePoly5,0.000000*%
%TD*%
%TA.AperFunction,SMDPad,CuDef*%
%ADD27FreePoly6,0.000000*%
%TD*%
%TA.AperFunction,SMDPad,CuDef*%
%ADD28RoundRect,0.250000X-0.262500X-0.450000X0.262500X-0.450000X0.262500X0.450000X-0.262500X0.450000X0*%
%TD*%
%TA.AperFunction,SMDPad,CuDef*%
%ADD29FreePoly1,90.000000*%
%TD*%
%TA.AperFunction,SMDPad,CuDef*%
%ADD30FreePoly1,270.000000*%
%TD*%
%TA.AperFunction,ComponentPad*%
%ADD31R,1.600000X1.600000*%
%TD*%
%TA.AperFunction,ComponentPad*%
%ADD32C,1.600000*%
%TD*%
%TA.AperFunction,ViaPad*%
%ADD33C,0.800000*%
%TD*%
%TA.AperFunction,Conductor*%
%ADD34C,0.250000*%
%TD*%
%TA.AperFunction,Conductor*%
%ADD35C,0.800000*%
%TD*%
%TA.AperFunction,Conductor*%
%ADD36C,0.500000*%
%TD*%
%TA.AperFunction,Conductor*%
%ADD37C,0.700000*%
%TD*%
G04 APERTURE END LIST*
D10*
%TO.P,R707,1*%
%TO.N,DOWN*%
X130940000Y-66307500D03*
%TO.P,R707,2*%
%TO.N,+5V*%
X130940000Y-68132500D03*
%TD*%
%TO.P,R701,1*%
%TO.N,I*%
X138040000Y-66295000D03*
%TO.P,R701,2*%
%TO.N,+5V*%
X138040000Y-68120000D03*
%TD*%
D11*
%TO.P,SW809,1,1*%
%TO.N,TURBO OFF*%
X126010045Y-79187500D03*
D12*
%TO.P,SW809,2,2*%
%TO.N,TURBO SLOW*%
X129295045Y-79187500D03*
D13*
%TO.P,SW809,3,3*%
%TO.N,Net-(SW801-Pad2)*%
X129317545Y-75210000D03*
D11*
%TO.P,SW809,4,4*%
%TO.N,TURBO FAST*%
X132585045Y-79187500D03*
%TD*%
D10*
%TO.P,R702,1*%
%TO.N,II*%
X140000000Y-66295000D03*
%TO.P,R702,2*%
%TO.N,+5V*%
X140000000Y-68120000D03*
%TD*%
%TO.P,R708,1*%
%TO.N,LEFT*%
X128980000Y-66307500D03*
%TO.P,R708,2*%
%TO.N,+5V*%
X128980000Y-68132500D03*
%TD*%
D14*
%TO.P,CN801,1,Pin_1*%
%TO.N,AUDIO_R*%
X88136295Y-35824334D03*
%TO.P,CN801,2,Pin_2*%
%TO.N,AUDIO_L*%
X90217545Y-35824334D03*
%TD*%
D15*
%TO.P,R712,1*%
%TO.N,TURBO SLOW*%
X117560000Y-68132500D03*
%TO.P,R712,2*%
%TO.N,Net-(U2-Q2)*%
X117560000Y-66307500D03*
%TD*%
D16*
%TO.P,CN800,1,Pin_1*%
%TO.N,VCC*%
X159807545Y-35850000D03*
%TO.P,CN800,2,Pin_2*%
%TO.N,D0*%
X158807545Y-35850000D03*
%TO.P,CN800,3,Pin_3*%
%TO.N,D1*%
X157807545Y-35850000D03*
%TO.P,CN800,4,Pin_4*%
%TO.N,D2*%
X156807545Y-35850000D03*
%TO.P,CN800,5,Pin_5*%
%TO.N,D3*%
X155807545Y-35850000D03*
%TO.P,CN800,6,Pin_6*%
%TO.N,SEL*%
X154807545Y-35850000D03*
%TO.P,CN800,7,Pin_7*%
%TO.N,CLR*%
X153807545Y-35850000D03*
%TO.P,CN800,8,Pin_8*%
%TO.N,GND*%
X152807545Y-35850000D03*
%TO.P,CN800,9,Pin_9*%
%TO.N,unconnected-(CN800-Pin_9-Pad9)*%
X151807545Y-35850000D03*
%TO.P,CN800,10,Pin_10*%
%TO.N,GND*%
X150807545Y-35850000D03*
%TO.P,CN800,11,Pin_11*%
%TO.N,AUDIO_L*%
X149807545Y-35850000D03*
%TO.P,CN800,12,Pin_12*%
%TO.N,AUDIO_R*%
X148807545Y-35850000D03*
%TD*%
D10*
%TO.P,R710,1*%
%TO.N,+5V*%
X112440000Y-53337500D03*
%TO.P,R710,2*%
%TO.N,CLR*%
X112440000Y-55162500D03*
%TD*%
D17*
%TO.P,SW805,1,1*%
%TO.N,UP*%
X95924545Y-44073500D03*
D18*
%TO.P,SW805,2,2*%
%TO.N,GND*%
X92867045Y-48336000D03*
%TD*%
D19*
%TO.P,U1,1,S*%
%TO.N,SEL*%
X125510000Y-53890000D03*
%TO.P,U1,2,I0a*%
%TO.N,I*%
X125510000Y-55160000D03*
%TO.P,U1,3,I1a*%
%TO.N,UP*%
X125510000Y-56430000D03*
%TO.P,U1,4,Za*%
%TO.N,Net-(U1-Za)*%
X125510000Y-57700000D03*
%TO.P,U1,5,I0b*%
%TO.N,II*%
X125510000Y-58970000D03*
%TO.P,U1,6,I1b*%
%TO.N,RIGHT*%
X125510000Y-60240000D03*
%TO.P,U1,7,Zb*%
%TO.N,Net-(U1-Zb)*%
X125510000Y-61510000D03*
%TO.P,U1,8,GND*%
%TO.N,GND*%
X125510000Y-62780000D03*
%TO.P,U1,9,Zc*%
%TO.N,Net-(U1-Zc)*%
X130460000Y-62780000D03*
%TO.P,U1,10,I1c*%
%TO.N,DOWN*%
X130460000Y-61510000D03*
%TO.P,U1,11,I0c*%
%TO.N,SELECT*%
X130460000Y-60240000D03*
%TO.P,U1,12,Zd*%
%TO.N,Net-(U1-Zd)*%
X130460000Y-58970000D03*
%TO.P,U1,13,I1d*%
%TO.N,LEFT*%
X130460000Y-57700000D03*
%TO.P,U1,14,I0d*%
%TO.N,RUN*%
X130460000Y-56430000D03*
%TO.P,U1,15,E*%
%TO.N,CLR*%
X130460000Y-55160000D03*
%TO.P,U1,16,VCC*%
%TO.N,+5V*%
X130460000Y-53890000D03*
%TD*%
D15*
%TO.P,R711,1*%
%TO.N,TURBO FAST*%
X119510000Y-68132500D03*
%TO.P,R711,2*%
%TO.N,Net-(U2-Q1)*%
X119510000Y-66307500D03*
%TD*%
D20*
%TO.P,SW804,1,1*%
%TO.N,RUN*%
X129370145Y-89220721D03*
D21*
%TO.P,SW804,2,2*%
%TO.N,GND*%
X129310145Y-98220721D03*
%TD*%
D10*
%TO.P,R706,1*%
%TO.N,RIGHT*%
X125060000Y-66307500D03*
%TO.P,R706,2*%
%TO.N,+5V*%
X125060000Y-68132500D03*
%TD*%
D22*
%TO.P,D800,1,A*%
%TO.N,VCC*%
X162847545Y-59110000D03*
%TO.P,D800,2,A*%
X162847545Y-57210000D03*
D23*
%TO.P,D800,3,K*%
%TO.N,+5V*%
X160547545Y-58160000D03*
%TD*%
D24*
%TO.P,J800,G*%
%TO.N,unconnected-(J800-PadG)*%
X118853795Y-103970000D03*
X123793795Y-103970000D03*
%TO.P,J800,S*%
%TO.N,unconnected-(J800-PadS)*%
X116321295Y-103970000D03*
%TO.P,J800,T*%
%TO.N,unconnected-(J800-PadT)*%
X126293795Y-103970000D03*
%TD*%
D11*
%TO.P,SW810,1,1*%
%TO.N,TURBO OFF*%
X97022545Y-79190000D03*
D12*
%TO.P,SW810,2,2*%
%TO.N,TURBO SLOW*%
X100307545Y-79190000D03*
D13*
%TO.P,SW810,3,3*%
%TO.N,Net-(SW802-Pad2)*%
X100330045Y-75212500D03*
D11*
%TO.P,SW810,4,4*%
%TO.N,TURBO FAST*%
X103597545Y-79190000D03*
%TD*%
D10*
%TO.P,R704,1*%
%TO.N,RUN*%
X145550000Y-66295000D03*
%TO.P,R704,2*%
%TO.N,+5V*%
X145550000Y-68120000D03*
%TD*%
%TO.P,R703,1*%
%TO.N,SELECT*%
X143590000Y-66295000D03*
%TO.P,R703,2*%
%TO.N,+5V*%
X143590000Y-68120000D03*
%TD*%
D25*
%TO.P,SW801,1,1*%
%TO.N,I*%
X151597545Y-49280000D03*
D26*
%TO.P,SW801,2,2*%
%TO.N,Net-(SW801-Pad2)*%
X158997545Y-51140000D03*
%TD*%
D15*
%TO.P,R713,1*%
%TO.N,TURBO OFF*%
X115610000Y-68132500D03*
%TO.P,R713,2*%
%TO.N,GND*%
X115610000Y-66307500D03*
%TD*%
D20*
%TO.P,SW803,1,1*%
%TO.N,SELECT*%
X113430145Y-89240721D03*
D21*
%TO.P,SW803,2,2*%
%TO.N,GND*%
X113370145Y-98240721D03*
%TD*%
D27*
%TO.P,SW802,1,1*%
%TO.N,II*%
X140627545Y-51360000D03*
D26*
%TO.P,SW802,2,2*%
%TO.N,Net-(SW802-Pad2)*%
X145197545Y-59140000D03*
%TD*%
D17*
%TO.P,SW807,1,1*%
%TO.N,DOWN*%
X95914545Y-62053500D03*
D18*
%TO.P,SW807,2,2*%
%TO.N,GND*%
X92857045Y-66316000D03*
%TD*%
D28*
%TO.P,R709,1*%
%TO.N,+5V*%
X123675000Y-51940000D03*
%TO.P,R709,2*%
%TO.N,SEL*%
X125500000Y-51940000D03*
%TD*%
D19*
%TO.P,U2,1,~{MR}*%
%TO.N,+5V*%
X115045000Y-53890000D03*
%TO.P,U2,2,CP*%
%TO.N,CLR*%
X115045000Y-55160000D03*
%TO.P,U2,3,D0*%
%TO.N,GND*%
X115045000Y-56430000D03*
%TO.P,U2,4,D1*%
X115045000Y-57700000D03*
%TO.P,U2,5,D2*%
X115045000Y-58970000D03*
%TO.P,U2,6,D3*%
X115045000Y-60240000D03*
%TO.P,U2,7,CEP*%
%TO.N,+5V*%
X115045000Y-61510000D03*
%TO.P,U2,8,GND*%
%TO.N,GND*%
X115045000Y-62780000D03*
%TO.P,U2,9,~{PE}*%
%TO.N,+5V*%
X119995000Y-62780000D03*
%TO.P,U2,10,CET*%
X119995000Y-61510000D03*
%TO.P,U2,11,Q3*%
%TO.N,unconnected-(U2-Q3-Pad11)*%
X119995000Y-60240000D03*
%TO.P,U2,12,Q2*%
%TO.N,Net-(U2-Q2)*%
X119995000Y-58970000D03*
%TO.P,U2,13,Q1*%
%TO.N,Net-(U2-Q1)*%
X119995000Y-57700000D03*
%TO.P,U2,14,Q0*%
%TO.N,unconnected-(U2-Q0-Pad14)*%
X119995000Y-56430000D03*
%TO.P,U2,15,TC*%
%TO.N,unconnected-(U2-TC-Pad15)*%
X119995000Y-55160000D03*
%TO.P,U2,16,VCC*%
%TO.N,+5V*%
X119995000Y-53890000D03*
%TD*%
D10*
%TO.P,R705,1*%
%TO.N,UP*%
X127020000Y-66307500D03*
%TO.P,R705,2*%
%TO.N,+5V*%
X127020000Y-68132500D03*
%TD*%
D29*
%TO.P,SW808,1,1*%
%TO.N,LEFT*%
X83292545Y-53660000D03*
D30*
%TO.P,SW808,2,2*%
%TO.N,GND*%
X87542545Y-56760000D03*
%TD*%
D29*
%TO.P,SW806,1,1*%
%TO.N,RIGHT*%
X101262545Y-53700000D03*
D30*
%TO.P,SW806,2,2*%
%TO.N,GND*%
X105512545Y-56800000D03*
%TD*%
D15*
%TO.P,C703,1*%
%TO.N,+5V*%
X130450000Y-50742500D03*
%TO.P,C703,2*%
%TO.N,GND*%
X130450000Y-48917500D03*
%TD*%
%TO.P,C702,1*%
%TO.N,+5V*%
X120010000Y-50742500D03*
%TO.P,C702,2*%
%TO.N,GND*%
X120010000Y-48917500D03*
%TD*%
D31*
%TO.P,CC800,1*%
%TO.N,+5V*%
X160570000Y-66380000D03*
D32*
%TO.P,CC800,2*%
%TO.N,GND*%
X160570000Y-68880000D03*
%TD*%
D33*
%TO.N,+5V*%
X107450000Y-68730000D03*
X134380000Y-68132500D03*
X117580000Y-53890000D03*
X111420000Y-61490000D03*
X117580000Y-61420000D03*
%TO.N,D0*%
X158810000Y-37060000D03*
%TO.N,D1*%
X157810000Y-37050000D03*
%TO.N,D2*%
X156810000Y-37050000D03*
%TO.N,D3*%
X155810000Y-37060000D03*
%TO.N,SEL*%
X154810000Y-37060000D03*
X125500000Y-51940000D03*
%TO.N,I*%
X151597545Y-49280000D03*
X138040000Y-66295000D03*
X138080000Y-63450000D03*
X125510000Y-55160000D03*
%TO.N,II*%
X140627545Y-51360000D03*
X140000000Y-66295000D03*
X125510000Y-58970000D03*
%TO.N,SELECT*%
X141950000Y-70310000D03*
X143590000Y-66295000D03*
%TO.N,RUN*%
X145550000Y-66295000D03*
X147390000Y-70260000D03*
%TO.N,UP*%
X99600000Y-47980600D03*
X127020000Y-66307500D03*
%TO.N,RIGHT*%
X107315000Y-52190000D03*
X125060000Y-66307500D03*
%TO.N,DOWN*%
X99517200Y-65938400D03*
X130940000Y-66307500D03*
%TO.N,LEFT*%
X128980000Y-66307500D03*
X89357200Y-52180000D03*
%TO.N,Net-(U1-Za)*%
X125510000Y-57700000D03*
%TO.N,Net-(U1-Zb)*%
X125510000Y-61510000D03*
%TO.N,Net-(U1-Zc)*%
X130460000Y-62780000D03*
%TO.N,Net-(U1-Zd)*%
X130460000Y-58970000D03*
%TO.N,Net-(SW801-Pad2)*%
X133807200Y-75210000D03*
X159000000Y-51190000D03*
%TO.N,Net-(SW802-Pad2)*%
X145197545Y-59140000D03*
X104851200Y-75158600D03*
%TD*%
D34*
%TO.N,+5V*%
X113450000Y-53890000D02*
X115045000Y-53890000D01*
D35*
X160550000Y-66360000D02*
X160570000Y-66380000D01*
D34*
X130450000Y-53880000D02*
X130460000Y-53890000D01*
X111410000Y-61480000D02*
X111420000Y-61490000D01*
X120010000Y-50742500D02*
X120010000Y-53875000D01*
X123070000Y-50742500D02*
X120010000Y-50742500D01*
X117490000Y-61510000D02*
X119995000Y-61510000D01*
X108510000Y-61480000D02*
X111410000Y-61480000D01*
D36*
X160570000Y-66380000D02*
X150930000Y-66380000D01*
D34*
X112440000Y-53337500D02*
X113450000Y-53890000D01*
X117580000Y-61420000D02*
X117490000Y-61510000D01*
X123675000Y-51347500D02*
X123070000Y-50742500D01*
X120010000Y-53875000D02*
X119995000Y-53890000D01*
X130450000Y-50742500D02*
X123070000Y-50742500D01*
D36*
X150930000Y-66380000D02*
X149190000Y-68120000D01*
D35*
X160550000Y-64790000D02*
X160547545Y-58160000D01*
D36*
X160390000Y-66200000D02*
X160570000Y-66380000D01*
D35*
X160550000Y-64790000D02*
X160550000Y-66360000D01*
D36*
X148357500Y-68132500D02*
X125060000Y-68132500D01*
D34*
X107450000Y-62540000D02*
X108510000Y-61480000D01*
X130450000Y-50742500D02*
X130450000Y-53880000D01*
X120005000Y-53880000D02*
X119995000Y-53890000D01*
X123675000Y-51940000D02*
X123675000Y-51347500D01*
D36*
X148370000Y-68120000D02*
X148357500Y-68132500D01*
X149190000Y-68120000D02*
X148370000Y-68120000D01*
D34*
X115045000Y-53890000D02*
X117580000Y-53890000D01*
X119995000Y-61510000D02*
X119995000Y-62780000D01*
X115045000Y-61510000D02*
X117490000Y-61510000D01*
X107450000Y-68730000D02*
X107450000Y-62540000D01*
X117580000Y-53890000D02*
X119995000Y-53890000D01*
%TO.N,GND*%
X92857045Y-66316000D02*
X92857045Y-67587045D01*
X111810000Y-47210000D02*
X120000000Y-47210000D01*
X150807545Y-37777545D02*
X151130000Y-38100000D01*
X152807545Y-37692455D02*
X152807545Y-35850000D01*
X115045000Y-60240000D02*
X113500000Y-60240000D01*
X120020000Y-47190000D02*
X130430000Y-47190000D01*
X111360000Y-69400000D02*
X114452500Y-66307500D01*
X115040000Y-62785000D02*
X115040000Y-65737500D01*
X111640000Y-56430000D02*
X111050000Y-55840000D01*
X121910000Y-57110000D02*
X115635000Y-57110000D01*
X130430000Y-47190000D02*
X130450000Y-47170000D01*
X151130000Y-38100000D02*
X152400000Y-38100000D01*
X113420000Y-62780000D02*
X112930000Y-62290000D01*
X120000000Y-47210000D02*
X120020000Y-47190000D01*
X115045000Y-62780000D02*
X115040000Y-62785000D01*
X122227000Y-60550000D02*
X122227000Y-57427000D01*
X89510000Y-69780000D02*
X89890000Y-69400000D01*
X112930000Y-60810000D02*
X112930000Y-62290000D01*
X124457000Y-62780000D02*
X122227000Y-60550000D01*
X115045000Y-57700000D02*
X115045000Y-56430000D01*
X125510000Y-62780000D02*
X124457000Y-62780000D01*
X120010000Y-48917500D02*
X120010000Y-47200000D01*
X130450000Y-47170000D02*
X130450000Y-48917500D01*
X115045000Y-62780000D02*
X113420000Y-62780000D01*
X150807545Y-35850000D02*
X150807545Y-37777545D01*
X111050000Y-55840000D02*
X111050000Y-47970000D01*
X89890000Y-69400000D02*
X111360000Y-69400000D01*
X122227000Y-57427000D02*
X121910000Y-57110000D01*
X152400000Y-38100000D02*
X152807545Y-37692455D01*
X115045000Y-57700000D02*
X115045000Y-60240000D01*
X115040000Y-65737500D02*
X115610000Y-66307500D01*
X114452500Y-66307500D02*
X115610000Y-66307500D01*
X115635000Y-57110000D02*
X115045000Y-57700000D01*
X120010000Y-47200000D02*
X120020000Y-47190000D01*
X125510000Y-62780000D02*
X125450000Y-62840000D01*
X111050000Y-47970000D02*
X111810000Y-47210000D01*
X115035000Y-62790000D02*
X115045000Y-62780000D01*
X113500000Y-60240000D02*
X112930000Y-60810000D01*
X115045000Y-56430000D02*
X111640000Y-56430000D01*
D36*
%TO.N,VCC*%
X162847545Y-57210000D02*
X162847545Y-59110000D01*
D34*
%TO.N,D0*%
X158807545Y-35850000D02*
X158807545Y-37057545D01*
X158807545Y-37057545D02*
X158810000Y-37060000D01*
%TO.N,D1*%
X157807545Y-35850000D02*
X157807545Y-37047545D01*
X157807545Y-37047545D02*
X157810000Y-37050000D01*
%TO.N,D2*%
X156807545Y-35850000D02*
X156807545Y-37047545D01*
X156807545Y-37047545D02*
X156810000Y-37050000D01*
%TO.N,D3*%
X155807545Y-35850000D02*
X155807545Y-37057545D01*
X155807545Y-37057545D02*
X155810000Y-37060000D01*
%TO.N,SEL*%
X125500000Y-51940000D02*
X125490000Y-53870000D01*
X125490000Y-53870000D02*
X125510000Y-53890000D01*
X154807545Y-37057545D02*
X154810000Y-37060000D01*
X154807545Y-35850000D02*
X154807545Y-37057545D01*
%TO.N,CLR*%
X128600000Y-55160000D02*
X130460000Y-55160000D01*
X112440000Y-55162500D02*
X115045000Y-55160000D01*
X127920000Y-54480000D02*
X122590000Y-54480000D01*
X116810000Y-55730000D02*
X116240000Y-55160000D01*
X146410000Y-45410000D02*
X153807545Y-38012455D01*
X122590000Y-54480000D02*
X121340000Y-55730000D01*
X121340000Y-55730000D02*
X116810000Y-55730000D01*
X127920000Y-54480000D02*
X128600000Y-55160000D01*
X134720000Y-45410000D02*
X146410000Y-45410000D01*
X153807545Y-38012455D02*
X153807545Y-35850000D01*
X132843000Y-47267000D02*
X134720000Y-45410000D01*
X130460000Y-55160000D02*
X132053000Y-55160000D01*
X132053000Y-55160000D02*
X132843000Y-54370000D01*
X115045000Y-55160000D02*
X116240000Y-55160000D01*
X132843000Y-54370000D02*
X132843000Y-47267000D01*
D37*
%TO.N,AUDIO_L*%
X148630000Y-39300000D02*
X149780000Y-38150000D01*
X91360000Y-37200000D02*
X95830000Y-37200000D01*
X144370000Y-42300000D02*
X146180000Y-40490000D01*
X127600000Y-45690000D02*
X130990000Y-42300000D01*
X130990000Y-42300000D02*
X144370000Y-42300000D01*
X149780000Y-35877545D02*
X149807545Y-35850000D01*
X101450000Y-42820000D02*
X111650000Y-42820000D01*
X146180000Y-40490000D02*
X146180000Y-39300000D01*
X111650000Y-42820000D02*
X114520000Y-45690000D01*
X149780000Y-38150000D02*
X149780000Y-35877545D01*
X95830000Y-37200000D02*
X101450000Y-42820000D01*
X114520000Y-45690000D02*
X127600000Y-45690000D01*
X146180000Y-39300000D02*
X148630000Y-39300000D01*
X90190000Y-36030000D02*
X91360000Y-37200000D01*
%TO.N,AUDIO_R*%
X112247545Y-41200000D02*
X109867545Y-41200000D01*
X147307545Y-37440000D02*
X144207545Y-37440000D01*
X88467545Y-33620000D02*
X88147545Y-33940000D01*
X148577545Y-37440000D02*
X147307545Y-37440000D01*
X95817545Y-35600000D02*
X95537545Y-35600000D01*
X142127545Y-40700000D02*
X130537545Y-40700000D01*
X98277545Y-37720000D02*
X96157545Y-35600000D01*
X148807545Y-37210000D02*
X148647545Y-37370000D01*
X144207545Y-37440000D02*
X144207545Y-39940000D01*
X115247545Y-44200000D02*
X113137545Y-42090000D01*
X88777545Y-33310000D02*
X88467545Y-33620000D01*
X127037545Y-44200000D02*
X119937545Y-44200000D01*
X109867545Y-41200000D02*
X101757545Y-41200000D01*
X113137545Y-42090000D02*
X112247545Y-41200000D01*
X96157545Y-35600000D02*
X95817545Y-35600000D01*
X94377545Y-34440000D02*
X93247545Y-33310000D01*
X93247545Y-33310000D02*
X91107545Y-33310000D01*
X148807545Y-35850000D02*
X148807545Y-37210000D01*
X95537545Y-35600000D02*
X94377545Y-34440000D01*
X128397545Y-42840000D02*
X127037545Y-44200000D01*
X144207545Y-39940000D02*
X143687545Y-40460000D01*
X91107545Y-33310000D02*
X88777545Y-33310000D01*
X119937545Y-44200000D02*
X115247545Y-44200000D01*
X143687545Y-40460000D02*
X143447545Y-40700000D01*
X101757545Y-41200000D02*
X98277545Y-37720000D01*
X148647545Y-37370000D02*
X148577545Y-37440000D01*
X130537545Y-40700000D02*
X128397545Y-42840000D01*
X143447545Y-40700000D02*
X142127545Y-40700000D01*
X88147545Y-33940000D02*
X88147545Y-35870000D01*
D34*
%TO.N,I*%
X125500000Y-55150000D02*
X125510000Y-55160000D01*
X138040000Y-66295000D02*
X138040000Y-63490000D01*
X151577545Y-49260000D02*
X151597545Y-49280000D01*
X138040000Y-63490000D02*
X138080000Y-63450000D01*
%TO.N,II*%
X140627545Y-51360000D02*
X140420000Y-51360000D01*
%TO.N,SELECT*%
X130480000Y-60260000D02*
X130460000Y-60240000D01*
X133720000Y-83350000D02*
X137900000Y-79170000D01*
X133030000Y-61190000D02*
X132100000Y-60260000D01*
X143590000Y-65610000D02*
X139170000Y-61190000D01*
X143590000Y-66295000D02*
X143590000Y-65610000D01*
X139170000Y-61190000D02*
X133030000Y-61190000D01*
X119320866Y-83350000D02*
X133720000Y-83350000D01*
X132100000Y-60260000D02*
X130480000Y-60260000D01*
X141950000Y-70310000D02*
X141950000Y-75120000D01*
X113430145Y-89240721D02*
X119320866Y-83350000D01*
X141950000Y-75120000D02*
X137900000Y-79170000D01*
%TO.N,RUN*%
X129370145Y-88589855D02*
X138730000Y-79230000D01*
X138730000Y-79230000D02*
X139070000Y-78890000D01*
X129370145Y-89220721D02*
X129370145Y-88589855D01*
X145550000Y-66295000D02*
X140055000Y-60800000D01*
X140055000Y-60800000D02*
X134610000Y-60800000D01*
X133710000Y-57950000D02*
X133710000Y-59900000D01*
X139070000Y-78890000D02*
X147390000Y-70570000D01*
X134610000Y-60800000D02*
X133710000Y-59900000D01*
X132190000Y-56430000D02*
X130460000Y-56430000D01*
X147390000Y-70570000D02*
X147390000Y-70260000D01*
X132190000Y-56430000D02*
X133710000Y-57950000D01*
%TO.N,UP*%
X125510000Y-56430000D02*
X126600000Y-56430000D01*
X127550000Y-57380000D02*
X127550000Y-64750000D01*
X126600000Y-56430000D02*
X127550000Y-57380000D01*
X127020000Y-65280000D02*
X127020000Y-66307500D01*
X127550000Y-64750000D02*
X127020000Y-65280000D01*
%TO.N,RIGHT*%
X126830000Y-60880000D02*
X126830000Y-63730000D01*
X125060000Y-65500000D02*
X125060000Y-66307500D01*
X126830000Y-63730000D02*
X125060000Y-65500000D01*
X126190000Y-60240000D02*
X126830000Y-60880000D01*
X125510000Y-60240000D02*
X126190000Y-60240000D01*
%TO.N,DOWN*%
X95914545Y-62575455D02*
X95400000Y-63090000D01*
X130940000Y-65490000D02*
X130940000Y-66307500D01*
X129220000Y-61510000D02*
X128970000Y-61760000D01*
X128970000Y-61760000D02*
X128970000Y-63520000D01*
X130460000Y-61510000D02*
X129220000Y-61510000D01*
X128970000Y-63520000D02*
X130940000Y-65490000D01*
%TO.N,LEFT*%
X128500000Y-64790000D02*
X128980000Y-65270000D01*
X129280000Y-57700000D02*
X128500000Y-58480000D01*
X128980000Y-65270000D02*
X128980000Y-66307500D01*
X130460000Y-57700000D02*
X129280000Y-57700000D01*
X128500000Y-58480000D02*
X128500000Y-64790000D01*
%TO.N,TURBO FAST*%
X116060000Y-77220000D02*
X115080000Y-77220000D01*
X104140000Y-77220000D02*
X103597545Y-77762455D01*
X119510000Y-75910000D02*
X119510000Y-68132500D01*
X115080000Y-77220000D02*
X104140000Y-77220000D01*
X132585045Y-79187500D02*
X132585045Y-78765045D01*
X103597545Y-77762455D02*
X103597545Y-79190000D01*
X131040000Y-77220000D02*
X120820000Y-77220000D01*
X120820000Y-77220000D02*
X119510000Y-75910000D01*
X132585045Y-78765045D02*
X131040000Y-77220000D01*
X120820000Y-77220000D02*
X116060000Y-77220000D01*
%TO.N,Net-(U2-Q1)*%
X121850000Y-63910000D02*
X121173000Y-64587000D01*
X121173000Y-64587000D02*
X120230000Y-64587000D01*
X119510000Y-65307000D02*
X119510000Y-66307500D01*
X120230000Y-64587000D02*
X119510000Y-65307000D01*
X121630000Y-57700000D02*
X121850000Y-57920000D01*
X119995000Y-57700000D02*
X121630000Y-57700000D01*
X121850000Y-57920000D02*
X121850000Y-63910000D01*
%TO.N,TURBO SLOW*%
X129295045Y-79187500D02*
X129295045Y-78455045D01*
X123160000Y-77670000D02*
X118790000Y-81950000D01*
X118790000Y-81950000D02*
X103067545Y-81950000D01*
X117560000Y-75907500D02*
X117560000Y-68132500D01*
X100307545Y-77172455D02*
X100880000Y-76600000D01*
X100307545Y-79190000D02*
X100307545Y-77172455D01*
X100880000Y-76600000D02*
X116867500Y-76600000D01*
X129295045Y-78455045D02*
X128380000Y-77670000D01*
X128380000Y-77670000D02*
X123160000Y-77670000D01*
X103067545Y-81950000D02*
X100307545Y-79190000D01*
X116867500Y-76600000D02*
X117560000Y-75907500D01*
%TO.N,Net-(U2-Q2)*%
X121450000Y-63740000D02*
X121450000Y-59170000D01*
X117560000Y-65520000D02*
X117560000Y-66307500D01*
X121450000Y-59170000D02*
X121250000Y-58970000D01*
X120980000Y-64210000D02*
X121450000Y-63740000D01*
X118870000Y-64210000D02*
X120980000Y-64210000D01*
X121250000Y-58970000D02*
X119995000Y-58970000D01*
X117560000Y-65520000D02*
X118870000Y-64210000D01*
%TO.N,TURBO OFF*%
X95030000Y-79190000D02*
X93990000Y-78150000D01*
X114620000Y-71370000D02*
X115610000Y-70380000D01*
X97022545Y-79190000D02*
X95030000Y-79190000D01*
X97022545Y-79190000D02*
X100502545Y-82670000D01*
X100502545Y-82670000D02*
X122527545Y-82670000D01*
X94780000Y-71370000D02*
X114620000Y-71370000D01*
X122527545Y-82670000D02*
X126010045Y-79187500D01*
X93990000Y-72160000D02*
X94780000Y-71370000D01*
X115610000Y-70380000D02*
X115610000Y-68132500D01*
X93990000Y-78150000D02*
X93990000Y-72160000D01*
%TO.N,Net-(SW801-Pad2)*%
X158997545Y-51140000D02*
X158997545Y-51187545D01*
X158997545Y-51187545D02*
X159000000Y-51190000D01*
%TO.N,Net-(SW802-Pad2)*%
X145197545Y-59140000D02*
X145197545Y-59612455D01*
%TD*%
%TA.AperFunction,Conductor*%
%TO.N,GND*%
G36*
X86290584Y-31729685D02*
G01*
X86336339Y-31782489D01*
X86347545Y-31834000D01*
X86347545Y-37420000D01*
X87087545Y-38160000D01*
X95616183Y-38160000D01*
X95683222Y-38179685D01*
X95703864Y-38196319D01*
X101237545Y-43730000D01*
X110936183Y-43730000D01*
X111003222Y-43749685D01*
X111023864Y-43766319D01*
X113767545Y-46510000D01*
X128737545Y-46510000D01*
X131971226Y-43276319D01*
X132032549Y-43242834D01*
X132058907Y-43240000D01*
X144857545Y-43240000D01*
X150507545Y-38780000D01*
X150507545Y-37224000D01*
X150527230Y-37156961D01*
X150580034Y-37111206D01*
X150631545Y-37100000D01*
X151013545Y-37100000D01*
X151080584Y-37119685D01*
X151126339Y-37172489D01*
X151137545Y-37224000D01*
X151137545Y-39309840D01*
X151117860Y-39376879D01*
X151090293Y-39407235D01*
X144331307Y-44733395D01*
X144266468Y-44759427D01*
X144254559Y-44760000D01*
X133547544Y-44760000D01*
X130783864Y-47523681D01*
X130722541Y-47557166D01*
X130696183Y-47560000D01*
X101998907Y-47560000D01*
X101931868Y-47540315D01*
X101911226Y-47523681D01*
X100207545Y-45820000D01*
X98628907Y-45820000D01*
X98561868Y-45800315D01*
X98541226Y-45783681D01*
X98183864Y-45426319D01*
X98150379Y-45364996D01*
X98147545Y-45338638D01*
X98147545Y-42450000D01*
X97377545Y-41680000D01*
X92237545Y-41680000D01*
X92237544Y-41680000D01*
X91573864Y-42343681D01*
X91512541Y-42377166D01*
X91486183Y-42380000D01*
X88877545Y-42380000D01*
X88877545Y-49298638D01*
X88857860Y-49365677D01*
X88841226Y-49386319D01*
X87913864Y-50313681D01*
X87852541Y-50347166D01*
X87826183Y-50350000D01*
X81977544Y-50350000D01*
X80457545Y-51869999D01*
X80457545Y-53088638D01*
X80437860Y-53155677D01*
X80421226Y-53176319D01*
X79667545Y-53929999D01*
X79667545Y-53930000D01*
X79667545Y-58270000D01*
X77287545Y-58270000D01*
X76777545Y-57760000D01*
X76777545Y-53741362D01*
X76797230Y-53674323D01*
X76813864Y-53653681D01*
X77378907Y-53088638D01*
X79607545Y-50860000D01*
X79607545Y-40780000D01*
X74881545Y-40780000D01*
X74814506Y-40760315D01*
X74768751Y-40707511D01*
X74757545Y-40656000D01*
X74757545Y-34234000D01*
X74777230Y-34166961D01*
X74830034Y-34121206D01*
X74881545Y-34110000D01*
X75321231Y-34110000D01*
X75388270Y-34129685D01*
X75434025Y-34182489D01*
X75441007Y-34201911D01*
X75445645Y-34219222D01*
X75446815Y-34224502D01*
X75450409Y-34244882D01*
X75450411Y-34244891D01*
X75457488Y-34264338D01*
X75459114Y-34269495D01*
X75482507Y-34356796D01*
X75498910Y-34391971D01*
X75520708Y-34438717D01*
X75522772Y-34443700D01*
X75522774Y-34443705D01*
X75522775Y-34443706D01*
X75529851Y-34463150D01*
X75529853Y-34463155D01*
X75540204Y-34481084D01*
X75542701Y-34485881D01*
X75542705Y-34485889D01*
X75580897Y-34567791D01*
X75605825Y-34603392D01*
X75632728Y-34641814D01*
X75635634Y-34646375D01*
X75645989Y-34664310D01*
X75645991Y-34664312D01*
X75645992Y-34664314D01*
X75659310Y-34680186D01*
X75662582Y-34684449D01*
X75714430Y-34758496D01*
X75778345Y-34822411D01*
X75781985Y-34826383D01*
X75795297Y-34842248D01*
X75795300Y-34842250D01*
X75795304Y-34842255D01*
X75811155Y-34855555D01*
X75815144Y-34859211D01*
X75879045Y-34923112D01*
X75879048Y-34923114D01*
X75879049Y-34923115D01*
X75953076Y-34974949D01*
X75957366Y-34978241D01*
X75973225Y-34991548D01*
X75973231Y-34991553D01*
X75991156Y-35001902D01*
X75991165Y-35001907D01*
X75995720Y-35004809D01*
X76069754Y-35056648D01*
X76151681Y-35094851D01*
X76156453Y-35097336D01*
X76174389Y-35107691D01*
X76193841Y-35114771D01*
X76198822Y-35116833D01*
X76205945Y-35120155D01*
X76280749Y-35155037D01*
X76280752Y-35155038D01*
X76305637Y-35161706D01*
X76365298Y-35198070D01*
X76395828Y-35260917D01*
X76397545Y-35281481D01*
X76397545Y-37150000D01*
X76407545Y-37160000D01*
X77197545Y-37160000D01*
X77197545Y-35232538D01*
X77217230Y-35165499D01*
X77269138Y-35120158D01*
X77276284Y-35116825D01*
X77281238Y-35114774D01*
X77300701Y-35107691D01*
X77318633Y-35097337D01*
X77323402Y-35094854D01*
X77405336Y-35056648D01*
X77479376Y-35004804D01*
X77483913Y-35001913D01*
X77501859Y-34991553D01*
X77517749Y-34978219D01*
X77521976Y-34974975D01*
X77596041Y-34923115D01*
X77659959Y-34859196D01*
X77663922Y-34855565D01*
X77679793Y-34842248D01*
X77693110Y-34826377D01*
X77696741Y-34822414D01*
X77760660Y-34758496D01*
X77812520Y-34684431D01*
X77815764Y-34680204D01*
X77829098Y-34664314D01*
X77839458Y-34646368D01*
X77842349Y-34641831D01*
X77894193Y-34567791D01*
X77932399Y-34485857D01*
X77934883Y-34481088D01*
X77934885Y-34481084D01*
X77945236Y-34463156D01*
X77952327Y-34443672D01*
X77954364Y-34438753D01*
X77992582Y-34356796D01*
X78015983Y-34269461D01*
X78017590Y-34264363D01*
X78024680Y-34244887D01*
X78028277Y-34224483D01*
X78029435Y-34219258D01*
X78034086Y-34201899D01*
X78070454Y-34142241D01*
X78133303Y-34111716D01*
X78153859Y-34110000D01*
X80237545Y-34110000D01*
X80237545Y-33420000D01*
X78062328Y-33420000D01*
X77995289Y-33400315D01*
X77949534Y-33347511D01*
X77945807Y-33338413D01*
X77945236Y-33336844D01*
X77945234Y-33336840D01*
X77934887Y-33318919D01*
X77932389Y-33314119D01*
X77894193Y-33232210D01*
X77894192Y-33232208D01*
X77842359Y-33158183D01*
X77839452Y-33153620D01*
X77829100Y-33135690D01*
X77829098Y-33135686D01*
X77815786Y-33119821D01*
X77812491Y-33115527D01*
X77760657Y-33041500D01*
X77696756Y-32977599D01*
X77693100Y-32973610D01*
X77679800Y-32957759D01*
X77679795Y-32957755D01*
X77679793Y-32957752D01*
X77663928Y-32944440D01*
X77659956Y-32940800D01*
X77596041Y-32876885D01*
X77521994Y-32825037D01*
X77517731Y-32821765D01*
X77501859Y-32808447D01*
X77501857Y-32808446D01*
X77501855Y-32808444D01*
X77483920Y-32798089D01*
X77479359Y-32795183D01*
X77412858Y-32748619D01*
X77405336Y-32743352D01*
X77365886Y-32724956D01*
X77323426Y-32705156D01*
X77318629Y-32702659D01*
X77300700Y-32692308D01*
X77300695Y-32692306D01*
X77281249Y-32685229D01*
X77276252Y-32683158D01*
X77272270Y-32681302D01*
X77269131Y-32679838D01*
X77216695Y-32633661D01*
X77197545Y-32567460D01*
X77197545Y-31834000D01*
X77217230Y-31766961D01*
X77270034Y-31721206D01*
X77321545Y-31710000D01*
X86223545Y-31710000D01*
X86290584Y-31729685D01*
G37*
%TD.AperFunction*%
%TD*%
%TA.AperFunction,Conductor*%
%TO.N,GND*%
G36*
X160677751Y-68134196D02*
G01*
X161510811Y-68556319D01*
X161546691Y-68574500D01*
X161567124Y-68587506D01*
X162897544Y-69630000D01*
X162897545Y-69630000D01*
X163877545Y-69630000D01*
X163877545Y-68644000D01*
X163897230Y-68576961D01*
X163950034Y-68531206D01*
X164001545Y-68520000D01*
X164786183Y-68520000D01*
X164853222Y-68539685D01*
X164873864Y-68556319D01*
X164901226Y-68583681D01*
X164934711Y-68645004D01*
X164937545Y-68671362D01*
X164937545Y-70160000D01*
X165921226Y-71143681D01*
X165954711Y-71205004D01*
X165957545Y-71231362D01*
X165957545Y-82418638D01*
X165937860Y-82485677D01*
X165921226Y-82506319D01*
X159503864Y-88923681D01*
X159442541Y-88957166D01*
X159416183Y-88960000D01*
X150267544Y-88960000D01*
X148187545Y-91039999D01*
X148187545Y-101058638D01*
X148167860Y-101125677D01*
X148151226Y-101146319D01*
X144133864Y-105163681D01*
X144072541Y-105197166D01*
X144046183Y-105200000D01*
X132897544Y-105200000D01*
X130953864Y-107143681D01*
X130892541Y-107177166D01*
X130866183Y-107180000D01*
X113438907Y-107180000D01*
X113371868Y-107160315D01*
X113351226Y-107143681D01*
X108827545Y-102620000D01*
X108827545Y-98980000D01*
X114727545Y-98980000D01*
X118817545Y-94890000D01*
X118817545Y-92064000D01*
X118837230Y-91996961D01*
X118890034Y-91951206D01*
X118941545Y-91940000D01*
X123763545Y-91940000D01*
X123830584Y-91959685D01*
X123876339Y-92012489D01*
X123887545Y-92064000D01*
X123887545Y-96000000D01*
X125377545Y-97490000D01*
X129193545Y-97490000D01*
X129260584Y-97509685D01*
X129306339Y-97562489D01*
X129317545Y-97614000D01*
X129317545Y-98129998D01*
X129317545Y-98130000D01*
X128957545Y-98490000D01*
X128957545Y-98800000D01*
X117557545Y-98800000D01*
X117557544Y-98800000D01*
X113307545Y-103049999D01*
X113307545Y-103050000D01*
X113307545Y-104900000D01*
X114657545Y-106250000D01*
X128347545Y-106250000D01*
X129027545Y-105570000D01*
X129027545Y-102724000D01*
X129047230Y-102656961D01*
X129100034Y-102611206D01*
X129151545Y-102600000D01*
X143657545Y-102600000D01*
X146577545Y-99680000D01*
X146577545Y-86981362D01*
X146597230Y-86914323D01*
X146613864Y-86893681D01*
X148611226Y-84896319D01*
X148672549Y-84862834D01*
X148698907Y-84860000D01*
X158317545Y-84860000D01*
X161887545Y-81290000D01*
X161887545Y-71150000D01*
X161887544Y-71149998D01*
X160031216Y-69428228D01*
X159995450Y-69368207D01*
X159991590Y-69333806D01*
X160010339Y-68671362D01*
X160017609Y-68414467D01*
X160039182Y-68348013D01*
X160093259Y-68303770D01*
X160099474Y-68301337D01*
X160579642Y-68128161D01*
X160649381Y-68123935D01*
X160677751Y-68134196D01*
G37*
%TD.AperFunction*%
%TD*%
%TA.AperFunction,NonConductor*%
G36*
X123660584Y-108039685D02*
G01*
X123706339Y-108092489D01*
X123717545Y-108144000D01*
X123717545Y-110224500D01*
X123697860Y-110291539D01*
X123645056Y-110337294D01*
X123593652Y-110348500D01*
X122441647Y-110349494D01*
X122433489Y-110348963D01*
X122418818Y-110347031D01*
X122351931Y-110336429D01*
X122323879Y-110328514D01*
X122301465Y-110319228D01*
X122297045Y-110317189D01*
X122254327Y-110295420D01*
X122235140Y-110283313D01*
X122212030Y-110265579D01*
X122205928Y-110260227D01*
X122169771Y-110224070D01*
X122164419Y-110217968D01*
X122146685Y-110194858D01*
X122134578Y-110175671D01*
X122112809Y-110132953D01*
X122110778Y-110128551D01*
X122101482Y-110106113D01*
X122093571Y-110078073D01*
X122082965Y-110011160D01*
X122081032Y-109996492D01*
X122080500Y-109988384D01*
X122080500Y-109941862D01*
X122080380Y-109940765D01*
X122079132Y-109400600D01*
X122078065Y-108938499D01*
X122078084Y-108930002D01*
X122078086Y-108930000D01*
X122077928Y-108929617D01*
X122077927Y-108929616D01*
X122077926Y-108929615D01*
X122077924Y-108929614D01*
X122077925Y-108929614D01*
X122077545Y-108929458D01*
X122054560Y-108929500D01*
X120457028Y-108929500D01*
X120456822Y-108929459D01*
X120432268Y-108929459D01*
X120432169Y-108929500D01*
X120431885Y-108929616D01*
X120431883Y-108929618D01*
X120431727Y-108929999D01*
X120431744Y-108954616D01*
X120431739Y-108954616D01*
X120431768Y-108954759D01*
X120431768Y-109993111D01*
X120431238Y-110001207D01*
X120429307Y-110015878D01*
X120418711Y-110082800D01*
X120410800Y-110110855D01*
X120401515Y-110133275D01*
X120399478Y-110137695D01*
X120377715Y-110180416D01*
X120365602Y-110199617D01*
X120347871Y-110222725D01*
X120342520Y-110228827D01*
X120306360Y-110264992D01*
X120300258Y-110270344D01*
X120277153Y-110288076D01*
X120257959Y-110300189D01*
X120215238Y-110321959D01*
X120210818Y-110323997D01*
X120188441Y-110333268D01*
X120160335Y-110341192D01*
X120114224Y-110348480D01*
X120094866Y-110350000D01*
X120078907Y-110350000D01*
X120011868Y-110330315D01*
X119991226Y-110313681D01*
X117937544Y-108259999D01*
X117934071Y-108258561D01*
X117879667Y-108214720D01*
X117857602Y-108148426D01*
X117874881Y-108080727D01*
X117926018Y-108033116D01*
X117981523Y-108020000D01*
X123593545Y-108020000D01*
X123660584Y-108039685D01*
G37*
%TD.AperFunction*%
%TA.AperFunction,Conductor*%
%TO.N,GND*%
G36*
X98903222Y-57689685D02*
G01*
X98923864Y-57706319D01*
X99231226Y-58013681D01*
X99264711Y-58075004D01*
X99267545Y-58101362D01*
X99267545Y-58798638D01*
X99247860Y-58865677D01*
X99231226Y-58886319D01*
X98973864Y-59143681D01*
X98912541Y-59177166D01*
X98886183Y-59180000D01*
X93097544Y-59180000D01*
X92363864Y-59913681D01*
X92302541Y-59947166D01*
X92276183Y-59950000D01*
X91168907Y-59950000D01*
X91101868Y-59930315D01*
X91081226Y-59913681D01*
X91033864Y-59866319D01*
X91000379Y-59804996D01*
X90997545Y-59778638D01*
X90997545Y-59391362D01*
X91017230Y-59324323D01*
X91033864Y-59303681D01*
X92631226Y-57706319D01*
X92692549Y-57672834D01*
X92718907Y-57670000D01*
X98836183Y-57670000D01*
X98903222Y-57689685D01*
G37*
%TD.AperFunction*%
%TD*%
%TA.AperFunction,Conductor*%
%TO.N,VCC*%
G36*
X160076879Y-36913180D02*
G01*
X160132812Y-36955052D01*
X160157229Y-37020516D01*
X160157545Y-37029362D01*
X160157545Y-37450000D01*
X161421226Y-38713681D01*
X161454711Y-38775004D01*
X161457545Y-38801362D01*
X161457545Y-41800000D01*
X162451226Y-42793681D01*
X162484711Y-42855004D01*
X162487545Y-42881362D01*
X162487545Y-55520000D01*
X163171226Y-56203681D01*
X163204711Y-56265004D01*
X163207545Y-56291362D01*
X163207545Y-56988638D01*
X163187860Y-57055677D01*
X163171226Y-57076319D01*
X163063864Y-57183681D01*
X163002541Y-57217166D01*
X162976183Y-57220000D01*
X162138907Y-57220000D01*
X162071868Y-57200315D01*
X162051226Y-57183681D01*
X160923864Y-56056319D01*
X160890379Y-55994996D01*
X160887545Y-55968638D01*
X160887545Y-44800000D01*
X159493864Y-43406319D01*
X159460379Y-43344996D01*
X159457545Y-43318638D01*
X159457545Y-37481362D01*
X159477230Y-37414323D01*
X159493864Y-37393681D01*
X159945864Y-36941681D01*
X160007187Y-36908196D01*
X160076879Y-36913180D01*
G37*
%TD.AperFunction*%
%TD*%
%TA.AperFunction,Conductor*%
%TO.N,GND*%
G36*
X81323222Y-57779685D02*
G01*
X81343864Y-57796319D01*
X81901226Y-58353681D01*
X81934711Y-58415004D01*
X81937545Y-58441362D01*
X81937545Y-58986000D01*
X81917860Y-59053039D01*
X81865056Y-59098794D01*
X81813545Y-59110000D01*
X79837544Y-59110000D01*
X81077544Y-60349999D01*
X81077545Y-60350000D01*
X90776183Y-60350000D01*
X90843222Y-60369685D01*
X90863864Y-60386319D01*
X91001226Y-60523681D01*
X91034711Y-60585004D01*
X91037545Y-60611362D01*
X91037545Y-61148638D01*
X91017860Y-61215677D01*
X91001226Y-61236319D01*
X89857545Y-62379999D01*
X89857545Y-69120000D01*
X89885817Y-69982432D01*
X89868340Y-70050081D01*
X89817063Y-70097541D01*
X89762364Y-70110494D01*
X87307544Y-70119999D01*
X85297545Y-72129999D01*
X85297545Y-75750000D01*
X86241516Y-76693971D01*
X86275001Y-76755294D01*
X86277833Y-76780949D01*
X86297251Y-80208226D01*
X86277947Y-80275376D01*
X86260934Y-80296610D01*
X85257545Y-81299999D01*
X85257545Y-81300000D01*
X85257545Y-83860000D01*
X87777545Y-86380000D01*
X108026183Y-86380000D01*
X108093222Y-86399685D01*
X108113864Y-86416319D01*
X108501226Y-86803681D01*
X108534711Y-86865004D01*
X108537545Y-86891362D01*
X108537545Y-98980000D01*
X108827545Y-98980000D01*
X108827545Y-102620000D01*
X105408907Y-102620000D01*
X105341868Y-102600315D01*
X105321226Y-102583681D01*
X104423864Y-101686319D01*
X104390379Y-101624996D01*
X104387545Y-101598638D01*
X104387545Y-93020000D01*
X100517545Y-93020000D01*
X100517544Y-93020000D01*
X100507545Y-93029999D01*
X100507545Y-94326000D01*
X100487860Y-94393039D01*
X100435056Y-94438794D01*
X100383545Y-94450000D01*
X99321545Y-94450000D01*
X99254506Y-94430315D01*
X99208751Y-94377511D01*
X99197545Y-94326000D01*
X99197545Y-88940000D01*
X85318907Y-88940000D01*
X85251868Y-88920315D01*
X85231226Y-88903681D01*
X79783864Y-83456319D01*
X79750379Y-83394996D01*
X79747545Y-83368638D01*
X79747545Y-61090000D01*
X76813864Y-58156319D01*
X76780379Y-58094996D01*
X76777545Y-58068638D01*
X76777545Y-57760000D01*
X77287545Y-58270000D01*
X79667545Y-58270000D01*
X79667545Y-57760000D01*
X81256183Y-57760000D01*
X81323222Y-57779685D01*
G37*
%TD.AperFunction*%
%TD*%
%TA.AperFunction,Conductor*%
%TO.N,GND*%
G36*
X138192234Y-89880041D02*
G01*
X138238313Y-89932562D01*
X138249839Y-89984927D01*
X138240028Y-97640992D01*
X138220257Y-97708006D01*
X138167395Y-97753693D01*
X138098224Y-97763548D01*
X138058088Y-97748163D01*
X138057154Y-97749911D01*
X138051783Y-97747040D01*
X138051782Y-97747039D01*
X138018317Y-97729151D01*
X137982632Y-97710077D01*
X137977411Y-97706948D01*
X137963003Y-97697321D01*
X137946994Y-97690689D01*
X137941495Y-97688088D01*
X137872350Y-97651130D01*
X137872345Y-97651128D01*
X137797307Y-97628365D01*
X137791577Y-97626315D01*
X137775580Y-97619689D01*
X137775581Y-97619689D01*
X137775578Y-97619688D01*
X137775574Y-97619687D01*
X137775570Y-97619686D01*
X137758593Y-97616309D01*
X137752688Y-97614830D01*
X137677647Y-97592067D01*
X137599608Y-97584381D01*
X137593589Y-97583488D01*
X137576607Y-97580110D01*
X137576605Y-97580110D01*
X137559283Y-97580110D01*
X137553202Y-97579811D01*
X137475170Y-97572126D01*
X137397138Y-97579811D01*
X137391057Y-97580110D01*
X137373739Y-97580110D01*
X137373735Y-97580110D01*
X137373732Y-97580110D01*
X137373726Y-97580111D01*
X137356735Y-97583489D01*
X137350722Y-97584381D01*
X137272690Y-97592068D01*
X137197651Y-97614830D01*
X137191746Y-97616309D01*
X137174764Y-97619687D01*
X137158754Y-97626318D01*
X137153024Y-97628368D01*
X137077996Y-97651127D01*
X137077992Y-97651129D01*
X137008840Y-97688090D01*
X137003343Y-97690690D01*
X136987330Y-97697324D01*
X136972924Y-97706950D01*
X136967706Y-97710077D01*
X136898560Y-97747037D01*
X136898553Y-97747042D01*
X136837946Y-97796781D01*
X136833059Y-97800406D01*
X136818656Y-97810029D01*
X136818647Y-97810037D01*
X136806405Y-97822278D01*
X136801898Y-97826363D01*
X136741282Y-97876112D01*
X136691533Y-97936728D01*
X136687448Y-97941235D01*
X136675207Y-97953477D01*
X136675199Y-97953486D01*
X136665576Y-97967889D01*
X136661951Y-97972776D01*
X136612212Y-98033383D01*
X136612207Y-98033390D01*
X136575247Y-98102536D01*
X136572120Y-98107754D01*
X136562494Y-98122160D01*
X136555860Y-98138173D01*
X136553260Y-98143670D01*
X136516299Y-98212822D01*
X136516297Y-98212826D01*
X136493538Y-98287854D01*
X136491488Y-98293584D01*
X136484857Y-98309594D01*
X136481479Y-98326576D01*
X136480000Y-98332481D01*
X136457238Y-98407520D01*
X136449551Y-98485552D01*
X136448659Y-98491565D01*
X136445281Y-98508556D01*
X136445280Y-98508569D01*
X136445280Y-98525886D01*
X136444981Y-98531966D01*
X136437296Y-98609999D01*
X136444981Y-98688031D01*
X136445280Y-98694112D01*
X136445280Y-98711437D01*
X136448658Y-98728419D01*
X136449551Y-98734438D01*
X136457237Y-98812477D01*
X136480000Y-98887518D01*
X136481479Y-98893423D01*
X136484856Y-98910400D01*
X136484859Y-98910410D01*
X136491485Y-98926407D01*
X136493535Y-98932137D01*
X136516298Y-99007175D01*
X136516300Y-99007180D01*
X136553258Y-99076325D01*
X136555859Y-99081824D01*
X136562491Y-99097833D01*
X136572118Y-99112241D01*
X136575247Y-99117462D01*
X136612211Y-99186615D01*
X136661948Y-99247220D01*
X136665574Y-99252109D01*
X136675199Y-99266514D01*
X136675202Y-99266517D01*
X136687458Y-99278773D01*
X136691539Y-99283276D01*
X136741282Y-99343888D01*
X136761093Y-99360147D01*
X136800427Y-99417892D01*
X136802298Y-99487737D01*
X136766111Y-99547505D01*
X136703355Y-99578221D01*
X136682428Y-99580000D01*
X129588907Y-99580000D01*
X129521868Y-99560315D01*
X129501226Y-99543681D01*
X128993864Y-99036319D01*
X128960379Y-98974996D01*
X128957545Y-98948638D01*
X128957545Y-98800000D01*
X128957545Y-98490000D01*
X129339865Y-98107679D01*
X129401186Y-98074196D01*
X129470878Y-98079180D01*
X129515226Y-98107681D01*
X129947545Y-98540000D01*
X132377545Y-98540000D01*
X133387545Y-97530000D01*
X133387545Y-90013237D01*
X133407230Y-89946198D01*
X133460034Y-89900443D01*
X133510776Y-89889239D01*
X138125076Y-89860770D01*
X138192234Y-89880041D01*
G37*
%TD.AperFunction*%
%TD*%
%TA.AperFunction,Conductor*%
%TO.N,GND*%
G36*
X76400584Y-31729685D02*
G01*
X76446339Y-31782489D01*
X76457545Y-31834000D01*
X76457545Y-32502422D01*
X76437860Y-32569461D01*
X76385056Y-32615216D01*
X76375440Y-32619130D01*
X76372828Y-32620068D01*
X76367927Y-32621601D01*
X76280748Y-32644963D01*
X76198838Y-32683157D01*
X76193844Y-32685226D01*
X76174391Y-32692307D01*
X76174384Y-32692311D01*
X76156469Y-32702654D01*
X76151673Y-32705151D01*
X76069753Y-32743351D01*
X75995720Y-32795188D01*
X75991161Y-32798093D01*
X75973232Y-32808446D01*
X75957372Y-32821753D01*
X75953081Y-32825046D01*
X75879048Y-32876884D01*
X75815139Y-32940793D01*
X75811154Y-32944445D01*
X75795297Y-32957751D01*
X75795296Y-32957752D01*
X75781990Y-32973609D01*
X75778338Y-32977594D01*
X75714429Y-33041503D01*
X75662591Y-33115536D01*
X75659298Y-33119827D01*
X75645991Y-33135687D01*
X75635638Y-33153616D01*
X75632733Y-33158175D01*
X75580896Y-33232208D01*
X75542695Y-33314127D01*
X75540199Y-33318923D01*
X75529857Y-33336836D01*
X75529854Y-33336843D01*
X75529854Y-33336844D01*
X75529280Y-33338418D01*
X75528841Y-33339015D01*
X75527569Y-33341744D01*
X75527020Y-33341488D01*
X75487852Y-33394679D01*
X75422582Y-33419611D01*
X75412762Y-33420000D01*
X74881545Y-33420000D01*
X74814506Y-33400315D01*
X74768751Y-33347511D01*
X74757545Y-33296000D01*
X74757545Y-31834000D01*
X74777230Y-31766961D01*
X74830034Y-31721206D01*
X74881545Y-31710000D01*
X76333545Y-31710000D01*
X76400584Y-31729685D01*
G37*
%TD.AperFunction*%
%TD*%
M02*
