%TF.GenerationSoftware,KiCad,Pcbnew,7.0.8*%
%TF.CreationDate,2023-11-25T20:52:06+00:00*%
%TF.ProjectId,pce-gt-controller,7063652d-6774-42d6-936f-6e74726f6c6c,rev?*%
%TF.SameCoordinates,Original*%
%TF.FileFunction,Drillmap*%
%TF.FilePolarity,Positive*%
%FSLAX45Y45*%
G04 Gerber Fmt 4.5, Leading zero omitted, Abs format (unit mm)*
G04 Created by KiCad (PCBNEW 7.0.8) date 2023-11-25 20:52:06*
%MOMM*%
%LPD*%
G01*
G04 APERTURE LIST*
%ADD10C,0.100000*%
%ADD11C,0.200000*%
G04 APERTURE END LIST*
D10*
X7467509Y-5087245D02*
G75*
G03*
X7431754Y-5123000I1J-35756D01*
G01*
X10507232Y-11038267D02*
G75*
G03*
X10542987Y-11002509I-2J35757D01*
G01*
X8226754Y-9075246D02*
X7431754Y-8280245D01*
X12564000Y-10920000D02*
X12564000Y-10999000D01*
X12208000Y-10999246D02*
G75*
G03*
X12243754Y-11035000I35760J6D01*
G01*
X13502232Y-11033757D02*
G75*
G03*
X13537987Y-10998000I-2J35757D01*
G01*
X16824509Y-8238000D02*
X16824509Y-8281000D01*
X14127227Y-3854000D02*
X14127227Y-3178000D01*
X11678000Y-10999000D02*
X11678000Y-10921000D01*
X13688000Y-10827000D02*
G75*
G03*
X13537987Y-10827000I-75007J0D01*
G01*
X11440781Y-3889741D02*
G75*
G03*
X12828727Y-3889741I693973J485925D01*
G01*
X16646149Y-6182000D02*
G75*
G03*
X16646149Y-6182000I-133000J0D01*
G01*
X10128999Y-3853986D02*
G75*
G03*
X10164755Y-3889741I35761J6D01*
G01*
X14123754Y-11031246D02*
X13723754Y-11031246D01*
X12259754Y-8785000D02*
G75*
G03*
X12259754Y-8785000I-133000J0D01*
G01*
X10693000Y-11000000D02*
X10693000Y-10831509D01*
X16506754Y-4130754D02*
X16453037Y-4130754D01*
X11678000Y-10921000D02*
G75*
G03*
X11566000Y-10921000I-56000J0D01*
G01*
X7778504Y-4165000D02*
G75*
G03*
X7742754Y-4129245I-35755J0D01*
G01*
X14926000Y-9115509D02*
X14926000Y-10229000D01*
X10132509Y-3168000D02*
X10129000Y-3853986D01*
X10507232Y-11038264D02*
X10134755Y-11038264D01*
X10693000Y-10831509D02*
G75*
G03*
X10542987Y-10831509I-75007J0D01*
G01*
X7467509Y-5087246D02*
X7742754Y-5087246D01*
X9294701Y-9075246D02*
X8226754Y-9075246D01*
X16830227Y-3177282D02*
X16830227Y-4044000D01*
X16417282Y-4166509D02*
X16417282Y-5053000D01*
X12007472Y-11035477D02*
G75*
G03*
X12043227Y-10999718I-2J35757D01*
G01*
X10692996Y-11000000D02*
G75*
G03*
X10728755Y-11035755I35755J0D01*
G01*
X12207754Y-10893000D02*
X12208000Y-10999246D01*
X7467754Y-3132250D02*
G75*
G03*
X7432000Y-3168000I-5J-35750D01*
G01*
X10132505Y-3168000D02*
G75*
G03*
X10096755Y-3132245I-35755J0D01*
G01*
X7431754Y-8280245D02*
X7431754Y-5123000D01*
X13688000Y-10995491D02*
X13688000Y-10827000D01*
X16025754Y-9079755D02*
X14961754Y-9079755D01*
X11440781Y-3889741D02*
X10164755Y-3889741D01*
X9330456Y-10233965D02*
X9330456Y-9111000D01*
X16453037Y-5088755D02*
X16788755Y-5088755D01*
X7432000Y-4093491D02*
X7432000Y-3168000D01*
X12675995Y-10998000D02*
G75*
G03*
X12711754Y-11033755I35755J0D01*
G01*
X14091472Y-3889757D02*
G75*
G03*
X14127227Y-3854000I-2J35757D01*
G01*
X10542987Y-10831509D02*
X10542987Y-11002509D01*
X12043227Y-10999718D02*
X12043227Y-10893000D01*
X16794472Y-3141528D02*
X16770754Y-3141528D01*
X12528245Y-11034755D02*
X12243754Y-11035000D01*
X13502232Y-11033755D02*
X12711754Y-11033755D01*
X16453037Y-4130752D02*
G75*
G03*
X16417282Y-4166509I3J-35758D01*
G01*
X7431994Y-4093491D02*
G75*
G03*
X7467754Y-4129245I35756J1D01*
G01*
X12043227Y-10893000D02*
X12207754Y-10893000D01*
X16830232Y-3177282D02*
G75*
G03*
X16794472Y-3141528I-35762J-8D01*
G01*
X13537987Y-10827000D02*
X13537987Y-10998000D01*
X12676000Y-10998000D02*
X12676000Y-10920000D01*
X9330455Y-9111000D02*
G75*
G03*
X9294701Y-9075246I-35745J10D01*
G01*
X16824509Y-5124509D02*
X16824509Y-8238000D01*
X12828727Y-3889741D02*
X14090754Y-3889741D01*
X7806754Y-3390000D02*
G75*
G03*
X7806754Y-3390000I-133000J0D01*
G01*
X7742754Y-4129245D02*
X7467754Y-4129245D01*
X11566000Y-10921000D02*
X11566000Y-11000000D01*
X16794472Y-4130754D02*
X16506754Y-4130754D01*
X16644149Y-3390000D02*
G75*
G03*
X16644149Y-3390000I-133000J0D01*
G01*
X14961754Y-9079750D02*
G75*
G03*
X14926000Y-9115509I6J-35760D01*
G01*
X16794472Y-4130757D02*
G75*
G03*
X16830227Y-4095000I-2J35757D01*
G01*
X14163037Y-3141528D02*
X16770754Y-3141528D01*
X16824509Y-8281000D02*
X16025754Y-9079755D01*
X7742754Y-5087249D02*
G75*
G03*
X7778509Y-5051491I-5J35759D01*
G01*
X12676000Y-10920000D02*
G75*
G03*
X12564000Y-10920000I-56000J0D01*
G01*
X13850755Y-9861000D02*
G75*
G03*
X13850755Y-9861000I-103238J0D01*
G01*
X11677995Y-10999000D02*
G75*
G03*
X11713754Y-11034755I35755J0D01*
G01*
X7778509Y-5051491D02*
X7778509Y-4165000D01*
X12007472Y-11035472D02*
X11713754Y-11034755D01*
X7467754Y-3132245D02*
X10096755Y-3132245D01*
X16830227Y-4095000D02*
X16830227Y-4044000D01*
X10134755Y-11038264D02*
X9330456Y-10233965D01*
X16824506Y-5124509D02*
G75*
G03*
X16788755Y-5088755I-35746J9D01*
G01*
X11530245Y-11035755D02*
X10728755Y-11035755D01*
X14926000Y-10229000D02*
X14123754Y-11031246D01*
X11530245Y-11035750D02*
G75*
G03*
X11566000Y-11000000I5J35750D01*
G01*
X13687994Y-10995491D02*
G75*
G03*
X13723754Y-11031246I35756J1D01*
G01*
X16417285Y-5053000D02*
G75*
G03*
X16453037Y-5088755I35745J-10D01*
G01*
X12528245Y-11034750D02*
G75*
G03*
X12564000Y-10999000I5J35750D01*
G01*
X7811149Y-6236000D02*
G75*
G03*
X7811149Y-6236000I-133000J0D01*
G01*
X14163037Y-3141532D02*
G75*
G03*
X14127282Y-3177282I-7J-35748D01*
G01*
D11*
X7687531Y-11354747D02*
X7687531Y-11154747D01*
X7687531Y-11154747D02*
X7735150Y-11154747D01*
X7735150Y-11154747D02*
X7763722Y-11164271D01*
X7763722Y-11164271D02*
X7782769Y-11183319D01*
X7782769Y-11183319D02*
X7792293Y-11202366D01*
X7792293Y-11202366D02*
X7801817Y-11240461D01*
X7801817Y-11240461D02*
X7801817Y-11269033D01*
X7801817Y-11269033D02*
X7792293Y-11307128D01*
X7792293Y-11307128D02*
X7782769Y-11326176D01*
X7782769Y-11326176D02*
X7763722Y-11345223D01*
X7763722Y-11345223D02*
X7735150Y-11354747D01*
X7735150Y-11354747D02*
X7687531Y-11354747D01*
X7887531Y-11354747D02*
X7887531Y-11221414D01*
X7887531Y-11259509D02*
X7897055Y-11240461D01*
X7897055Y-11240461D02*
X7906579Y-11230938D01*
X7906579Y-11230938D02*
X7925626Y-11221414D01*
X7925626Y-11221414D02*
X7944674Y-11221414D01*
X8011341Y-11354747D02*
X8011341Y-11221414D01*
X8011341Y-11154747D02*
X8001817Y-11164271D01*
X8001817Y-11164271D02*
X8011341Y-11173795D01*
X8011341Y-11173795D02*
X8020865Y-11164271D01*
X8020865Y-11164271D02*
X8011341Y-11154747D01*
X8011341Y-11154747D02*
X8011341Y-11173795D01*
X8135150Y-11354747D02*
X8116103Y-11345223D01*
X8116103Y-11345223D02*
X8106579Y-11326176D01*
X8106579Y-11326176D02*
X8106579Y-11154747D01*
X8239912Y-11354747D02*
X8220865Y-11345223D01*
X8220865Y-11345223D02*
X8211341Y-11326176D01*
X8211341Y-11326176D02*
X8211341Y-11154747D01*
X8468484Y-11354747D02*
X8468484Y-11154747D01*
X8468484Y-11154747D02*
X8535150Y-11297604D01*
X8535150Y-11297604D02*
X8601817Y-11154747D01*
X8601817Y-11154747D02*
X8601817Y-11354747D01*
X8782769Y-11354747D02*
X8782769Y-11249985D01*
X8782769Y-11249985D02*
X8773246Y-11230938D01*
X8773246Y-11230938D02*
X8754198Y-11221414D01*
X8754198Y-11221414D02*
X8716103Y-11221414D01*
X8716103Y-11221414D02*
X8697055Y-11230938D01*
X8782769Y-11345223D02*
X8763722Y-11354747D01*
X8763722Y-11354747D02*
X8716103Y-11354747D01*
X8716103Y-11354747D02*
X8697055Y-11345223D01*
X8697055Y-11345223D02*
X8687531Y-11326176D01*
X8687531Y-11326176D02*
X8687531Y-11307128D01*
X8687531Y-11307128D02*
X8697055Y-11288081D01*
X8697055Y-11288081D02*
X8716103Y-11278557D01*
X8716103Y-11278557D02*
X8763722Y-11278557D01*
X8763722Y-11278557D02*
X8782769Y-11269033D01*
X8878008Y-11221414D02*
X8878008Y-11421414D01*
X8878008Y-11230938D02*
X8897055Y-11221414D01*
X8897055Y-11221414D02*
X8935150Y-11221414D01*
X8935150Y-11221414D02*
X8954198Y-11230938D01*
X8954198Y-11230938D02*
X8963722Y-11240461D01*
X8963722Y-11240461D02*
X8973246Y-11259509D01*
X8973246Y-11259509D02*
X8973246Y-11316652D01*
X8973246Y-11316652D02*
X8963722Y-11335700D01*
X8963722Y-11335700D02*
X8954198Y-11345223D01*
X8954198Y-11345223D02*
X8935150Y-11354747D01*
X8935150Y-11354747D02*
X8897055Y-11354747D01*
X8897055Y-11354747D02*
X8878008Y-11345223D01*
X9058960Y-11335700D02*
X9068484Y-11345223D01*
X9068484Y-11345223D02*
X9058960Y-11354747D01*
X9058960Y-11354747D02*
X9049436Y-11345223D01*
X9049436Y-11345223D02*
X9058960Y-11335700D01*
X9058960Y-11335700D02*
X9058960Y-11354747D01*
X9058960Y-11230938D02*
X9068484Y-11240461D01*
X9068484Y-11240461D02*
X9058960Y-11249985D01*
X9058960Y-11249985D02*
X9049436Y-11240461D01*
X9049436Y-11240461D02*
X9058960Y-11230938D01*
X9058960Y-11230938D02*
X9058960Y-11249985D01*
M02*
