%TF.GenerationSoftware,KiCad,Pcbnew,7.0.8*%
%TF.CreationDate,2023-12-31T22:49:09+00:00*%
%TF.ProjectId,pce-gt-controller,7063652d-6774-42d6-936f-6e74726f6c6c,BF1.1*%
%TF.SameCoordinates,Original*%
%TF.FileFunction,Paste,Top*%
%TF.FilePolarity,Positive*%
%FSLAX46Y46*%
G04 Gerber Fmt 4.6, Leading zero omitted, Abs format (unit mm)*
G04 Created by KiCad (PCBNEW 7.0.8) date 2023-12-31 22:49:09*
%MOMM*%
%LPD*%
G01*
G04 APERTURE LIST*
G04 Aperture macros list*
%AMRoundRect*
0 Rectangle with rounded corners*
0 $1 Rounding radius*
0 $2 $3 $4 $5 $6 $7 $8 $9 X,Y pos of 4 corners*
0 Add a 4 corners polygon primitive as box body*
4,1,4,$2,$3,$4,$5,$6,$7,$8,$9,$2,$3,0*
0 Add four circle primitives for the rounded corners*
1,1,$1+$1,$2,$3*
1,1,$1+$1,$4,$5*
1,1,$1+$1,$6,$7*
1,1,$1+$1,$8,$9*
0 Add four rect primitives between the rounded corners*
20,1,$1+$1,$2,$3,$4,$5,0*
20,1,$1+$1,$4,$5,$6,$7,0*
20,1,$1+$1,$6,$7,$8,$9,0*
20,1,$1+$1,$8,$9,$2,$3,0*%
G04 Aperture macros list end*
%ADD10RoundRect,0.250000X-0.450000X0.262500X-0.450000X-0.262500X0.450000X-0.262500X0.450000X0.262500X0*%
%ADD11RoundRect,0.250000X0.450000X-0.262500X0.450000X0.262500X-0.450000X0.262500X-0.450000X-0.262500X0*%
%ADD12RoundRect,0.150000X-0.825000X-0.150000X0.825000X-0.150000X0.825000X0.150000X-0.825000X0.150000X0*%
%ADD13RoundRect,0.150000X0.357500X0.150000X-0.357500X0.150000X-0.357500X-0.150000X0.357500X-0.150000X0*%
%ADD14RoundRect,0.150000X0.392500X0.150000X-0.392500X0.150000X-0.392500X-0.150000X0.392500X-0.150000X0*%
%ADD15RoundRect,0.250000X-0.262500X-0.450000X0.262500X-0.450000X0.262500X0.450000X-0.262500X0.450000X0*%
G04 APERTURE END LIST*
D10*
%TO.C,R707*%
X130940000Y-66307500D03*
X130940000Y-68132500D03*
%TD*%
%TO.C,R701*%
X138040000Y-66295000D03*
X138040000Y-68120000D03*
%TD*%
%TO.C,R702*%
X140000000Y-66295000D03*
X140000000Y-68120000D03*
%TD*%
%TO.C,R708*%
X128980000Y-66307500D03*
X128980000Y-68132500D03*
%TD*%
D11*
%TO.C,R712*%
X117560000Y-68132500D03*
X117560000Y-66307500D03*
%TD*%
D10*
%TO.C,R710*%
X112440000Y-53337500D03*
X112440000Y-55162500D03*
%TD*%
D12*
%TO.C,U1*%
X125510000Y-53890000D03*
X125510000Y-55160000D03*
X125510000Y-56430000D03*
X125510000Y-57700000D03*
X125510000Y-58970000D03*
X125510000Y-60240000D03*
X125510000Y-61510000D03*
X125510000Y-62780000D03*
X130460000Y-62780000D03*
X130460000Y-61510000D03*
X130460000Y-60240000D03*
X130460000Y-58970000D03*
X130460000Y-57700000D03*
X130460000Y-56430000D03*
X130460000Y-55160000D03*
X130460000Y-53890000D03*
%TD*%
D11*
%TO.C,R711*%
X119510000Y-68132500D03*
X119510000Y-66307500D03*
%TD*%
D10*
%TO.C,R706*%
X125060000Y-66307500D03*
X125060000Y-68132500D03*
%TD*%
D13*
%TO.C,D800*%
X162847545Y-59110000D03*
X162847545Y-57210000D03*
D14*
X160547545Y-58160000D03*
%TD*%
D10*
%TO.C,R704*%
X145550000Y-66295000D03*
X145550000Y-68120000D03*
%TD*%
%TO.C,R703*%
X143590000Y-66295000D03*
X143590000Y-68120000D03*
%TD*%
D11*
%TO.C,R713*%
X115610000Y-68132500D03*
X115610000Y-66307500D03*
%TD*%
D15*
%TO.C,R709*%
X123675000Y-51940000D03*
X125500000Y-51940000D03*
%TD*%
D12*
%TO.C,U2*%
X115045000Y-53890000D03*
X115045000Y-55160000D03*
X115045000Y-56430000D03*
X115045000Y-57700000D03*
X115045000Y-58970000D03*
X115045000Y-60240000D03*
X115045000Y-61510000D03*
X115045000Y-62780000D03*
X119995000Y-62780000D03*
X119995000Y-61510000D03*
X119995000Y-60240000D03*
X119995000Y-58970000D03*
X119995000Y-57700000D03*
X119995000Y-56430000D03*
X119995000Y-55160000D03*
X119995000Y-53890000D03*
%TD*%
D10*
%TO.C,R705*%
X127020000Y-66307500D03*
X127020000Y-68132500D03*
%TD*%
D11*
%TO.C,C703*%
X130450000Y-50742500D03*
X130450000Y-48917500D03*
%TD*%
%TO.C,C702*%
X120010000Y-50742500D03*
X120010000Y-48917500D03*
%TD*%
M02*
