M48
; DRILL file {KiCad 7.0.8} date 2023 November 25, Saturday 20:52:05
; FORMAT={-:-/ absolute / metric / decimal}
; #@! TF.CreationDate,2023-11-25T20:52:05+00:00
; #@! TF.GenerationSoftware,Kicad,Pcbnew,7.0.8
; #@! TF.FileFunction,Plated,1,2,PTH
FMAT,2
METRIC
; #@! TA.AperFunction,Plated,PTH,ViaDrill
T1C0.400
; #@! TA.AperFunction,Plated,PTH,ComponentDrill
T2C0.800
; #@! TA.AperFunction,Plated,PTH,ComponentDrill
T3C1.000
%
G90
G05
T1
X91.21Y-52.18
X99.6Y-49.83
X100.33Y-75.212
X101.34Y-65.83
X107.45Y-68.73
X109.18Y-52.19
X111.42Y-61.49
X117.58Y-53.89
X117.58Y-61.42
X125.06Y-66.307
X125.5Y-51.94
X125.51Y-55.16
X125.51Y-57.7
X125.51Y-58.97
X125.51Y-61.51
X127.02Y-66.307
X128.98Y-66.307
X129.318Y-75.21
X130.46Y-58.97
X130.46Y-62.78
X130.94Y-66.307
X134.38Y-68.132
X138.04Y-66.295
X138.08Y-63.45
X140.0Y-66.295
X140.628Y-51.36
X141.95Y-70.31
X143.59Y-66.295
X145.198Y-59.14
X145.55Y-66.295
X147.39Y-70.26
X151.598Y-49.28
X154.81Y-37.06
X155.81Y-37.06
X156.81Y-37.05
X157.81Y-37.05
X158.81Y-37.06
X159.0Y-51.19
T2
X160.57Y-66.38
X160.57Y-68.88
T3
X88.136Y-35.824
X90.218Y-35.824
T0
M30
