%TF.GenerationSoftware,KiCad,Pcbnew,7.0.8*%
%TF.CreationDate,2023-11-25T20:52:03+00:00*%
%TF.ProjectId,pce-gt-controller,7063652d-6774-42d6-936f-6e74726f6c6c,rev?*%
%TF.SameCoordinates,Original*%
%TF.FileFunction,Copper,L2,Bot*%
%TF.FilePolarity,Positive*%
%FSLAX46Y46*%
G04 Gerber Fmt 4.6, Leading zero omitted, Abs format (unit mm)*
G04 Created by KiCad (PCBNEW 7.0.8) date 2023-11-25 20:52:03*
%MOMM*%
%LPD*%
G01*
G04 APERTURE LIST*
G04 Aperture macros list*
%AMRoundRect*
0 Rectangle with rounded corners*
0 $1 Rounding radius*
0 $2 $3 $4 $5 $6 $7 $8 $9 X,Y pos of 4 corners*
0 Add a 4 corners polygon primitive as box body*
4,1,4,$2,$3,$4,$5,$6,$7,$8,$9,$2,$3,0*
0 Add four circle primitives for the rounded corners*
1,1,$1+$1,$2,$3*
1,1,$1+$1,$4,$5*
1,1,$1+$1,$6,$7*
1,1,$1+$1,$8,$9*
0 Add four rect primitives between the rounded corners*
20,1,$1+$1,$2,$3,$4,$5,0*
20,1,$1+$1,$4,$5,$6,$7,0*
20,1,$1+$1,$6,$7,$8,$9,0*
20,1,$1+$1,$8,$9,$2,$3,0*%
G04 Aperture macros list end*
%TA.AperFunction,ComponentPad*%
%ADD10O,1.642500X2.715000*%
%TD*%
%TA.AperFunction,SMDPad,CuDef*%
%ADD11RoundRect,0.250000X-0.450000X0.262500X-0.450000X-0.262500X0.450000X-0.262500X0.450000X0.262500X0*%
%TD*%
%TA.AperFunction,ComponentPad*%
%ADD12R,1.600000X1.600000*%
%TD*%
%TA.AperFunction,ComponentPad*%
%ADD13C,1.600000*%
%TD*%
%TA.AperFunction,ViaPad*%
%ADD14C,0.800000*%
%TD*%
%TA.AperFunction,Conductor*%
%ADD15C,0.250000*%
%TD*%
G04 APERTURE END LIST*
D10*
%TO.P,CN801,1,Pin_1*%
%TO.N,AUDIO_R*%
X88136295Y-35824334D03*
%TO.P,CN801,2,Pin_2*%
%TO.N,AUDIO_L*%
X90217545Y-35824334D03*
%TD*%
D11*
%TO.P,R717,2*%
%TO.N,Net-(U1-Zd)*%
X155870000Y-41270000D03*
%TO.P,R717,1*%
%TO.N,D3*%
X155870000Y-39445000D03*
%TD*%
%TO.P,R716,2*%
%TO.N,Net-(U1-Zc)*%
X157820000Y-41270000D03*
%TO.P,R716,1*%
%TO.N,D2*%
X157820000Y-39445000D03*
%TD*%
%TO.P,R715,2*%
%TO.N,Net-(U1-Zb)*%
X159750000Y-41270000D03*
%TO.P,R715,1*%
%TO.N,D1*%
X159750000Y-39445000D03*
%TD*%
%TO.P,R714,2*%
%TO.N,Net-(U1-Za)*%
X161690000Y-41270000D03*
%TO.P,R714,1*%
%TO.N,D0*%
X161690000Y-39445000D03*
%TD*%
D12*
%TO.P,CC800,1*%
%TO.N,+5V*%
X160570000Y-66380000D03*
D13*
%TO.P,CC800,2*%
%TO.N,GND*%
X160570000Y-68880000D03*
%TD*%
D14*
%TO.N,I*%
X138080000Y-63450000D03*
X151597545Y-49280000D03*
%TO.N,II*%
X140627545Y-51360000D03*
%TO.N,+5V*%
X117580000Y-53890000D03*
%TO.N,SELECT*%
X141950000Y-70310000D03*
%TO.N,RUN*%
X147390000Y-70260000D03*
%TO.N,Net-(SW802-Pad2)*%
X100330045Y-75212500D03*
%TO.N,Net-(SW801-Pad2)*%
X129317545Y-75210000D03*
%TO.N,II*%
X125510000Y-58970000D03*
%TO.N,RUN*%
X145550000Y-66295000D03*
%TO.N,SELECT*%
X143590000Y-66295000D03*
%TO.N,II*%
X140000000Y-66295000D03*
%TO.N,I*%
X138040000Y-66295000D03*
%TO.N,Net-(SW801-Pad2)*%
X159000000Y-51190000D03*
%TO.N,Net-(SW802-Pad2)*%
X145197545Y-59140000D03*
%TO.N,+5V*%
X111420000Y-61490000D03*
X107450000Y-68730000D03*
X134380000Y-68132500D03*
%TO.N,DOWN*%
X130940000Y-66307500D03*
%TO.N,LEFT*%
X128980000Y-66307500D03*
%TO.N,UP*%
X127020000Y-66307500D03*
%TO.N,RIGHT*%
X125060000Y-66307500D03*
%TO.N,Net-(U1-Za)*%
X125510000Y-57700000D03*
%TO.N,I*%
X125510000Y-55160000D03*
%TO.N,Net-(U1-Zb)*%
X125510000Y-61510000D03*
%TO.N,SEL*%
X154810000Y-37060000D03*
%TO.N,Net-(U1-Zc)*%
X130460000Y-62780000D03*
%TO.N,Net-(U1-Zd)*%
X130460000Y-58970000D03*
%TO.N,D3*%
X155810000Y-37060000D03*
%TO.N,D2*%
X156810000Y-37050000D03*
%TO.N,D1*%
X157810000Y-37050000D03*
%TO.N,D0*%
X158810000Y-37060000D03*
%TO.N,+5V*%
X117580000Y-61420000D03*
%TO.N,SEL*%
X125500000Y-51940000D03*
%TO.N,UP*%
X99600000Y-49830000D03*
%TO.N,RIGHT*%
X109180000Y-52190000D03*
%TO.N,DOWN*%
X101340000Y-65830000D03*
%TO.N,LEFT*%
X91210000Y-52180000D03*
%TD*%
D15*
%TO.N,I*%
X138080000Y-51180000D02*
X140030000Y-49230000D01*
X140030000Y-49230000D02*
X151547545Y-49230000D01*
X151547545Y-49230000D02*
X151597545Y-49280000D01*
X138080000Y-63450000D02*
X138080000Y-51180000D01*
%TO.N,II*%
X140000000Y-61670000D02*
X138750000Y-60420000D01*
X138750000Y-60420000D02*
X138750000Y-53237545D01*
X140000000Y-66295000D02*
X140000000Y-61670000D01*
X138750000Y-53237545D02*
X140627545Y-51360000D01*
%TO.N,+5V*%
X117580000Y-61420000D02*
X117580000Y-53890000D01*
%TO.N,SELECT*%
X141920000Y-66860000D02*
X141920000Y-70280000D01*
X142485000Y-66295000D02*
X141920000Y-66860000D01*
X141920000Y-70280000D02*
X141950000Y-70310000D01*
X143590000Y-66295000D02*
X142485000Y-66295000D01*
%TO.N,RUN*%
X147390000Y-70260000D02*
X147390000Y-66890000D01*
X146795000Y-66295000D02*
X145550000Y-66295000D01*
X147390000Y-66890000D02*
X146795000Y-66295000D01*
%TO.N,Net-(SW802-Pad2)*%
X147160000Y-59140000D02*
X149943000Y-61923000D01*
X149023000Y-71350000D02*
X104192545Y-71350000D01*
X145197545Y-59140000D02*
X147160000Y-59140000D01*
X149943000Y-61923000D02*
X149943000Y-70430000D01*
X149943000Y-70430000D02*
X149023000Y-71350000D01*
X104192545Y-71350000D02*
X100330045Y-75212500D01*
%TO.N,Net-(SW801-Pad2)*%
X147350000Y-75210000D02*
X129317545Y-75210000D01*
%TO.N,II*%
X125510000Y-58970000D02*
X126370000Y-58970000D01*
X126370000Y-58970000D02*
X126980000Y-58360000D01*
X124210000Y-56750000D02*
X123230000Y-57730000D01*
X126960000Y-57400000D02*
X126310000Y-56750000D01*
X126310000Y-56750000D02*
X124210000Y-56750000D01*
X123230000Y-57730000D02*
X123230000Y-63540000D01*
X139200000Y-64490000D02*
X140000000Y-65290000D01*
X126980000Y-58360000D02*
X126960000Y-58340000D01*
X140000000Y-65290000D02*
X140000000Y-66295000D01*
X123230000Y-63540000D02*
X124180000Y-64490000D01*
X126960000Y-58340000D02*
X126960000Y-57400000D01*
X124180000Y-64490000D02*
X139200000Y-64490000D01*
%TO.N,I*%
X138040000Y-66295000D02*
X136615000Y-64870000D01*
X136615000Y-64870000D02*
X124010000Y-64870000D01*
X122840000Y-56980000D02*
X124660000Y-55160000D01*
X124010000Y-64870000D02*
X122840000Y-63700000D01*
X122840000Y-63700000D02*
X122840000Y-56980000D01*
X124660000Y-55160000D02*
X125510000Y-55160000D01*
%TO.N,Net-(SW801-Pad2)*%
X150320000Y-59870000D02*
X150320000Y-72240000D01*
X150320000Y-72240000D02*
X147350000Y-75210000D01*
X159000000Y-51190000D02*
X150320000Y-59870000D01*
%TO.N,+5V*%
X111420000Y-61490000D02*
X117510000Y-61490000D01*
X117510000Y-61490000D02*
X117580000Y-61420000D01*
X129750000Y-70410000D02*
X109130000Y-70410000D01*
X109130000Y-70410000D02*
X107450000Y-68730000D01*
X134380000Y-68132500D02*
X132102500Y-70410000D01*
X132102500Y-70410000D02*
X129750000Y-70410000D01*
%TO.N,DOWN*%
X101340000Y-65830000D02*
X102060000Y-65830000D01*
X102060000Y-65830000D02*
X103960000Y-67730000D01*
X103960000Y-67730000D02*
X104830000Y-67730000D01*
X104830000Y-67730000D02*
X104840000Y-67740000D01*
X129507500Y-67740000D02*
X130940000Y-66307500D01*
X104840000Y-67740000D02*
X129507500Y-67740000D01*
%TO.N,LEFT*%
X103445000Y-66675000D02*
X104110000Y-67340000D01*
X103445000Y-66675000D02*
X91150000Y-54380000D01*
X127947500Y-67340000D02*
X128980000Y-66307500D01*
X104110000Y-67340000D02*
X127947500Y-67340000D01*
%TO.N,UP*%
X104263158Y-66960000D02*
X126367500Y-66960000D01*
X126367500Y-66960000D02*
X127020000Y-66307500D01*
X103591579Y-66288421D02*
X104263158Y-66960000D01*
X103591579Y-66288421D02*
X99611579Y-62308421D01*
%TO.N,RIGHT*%
X109180000Y-62410000D02*
X109180000Y-64450000D01*
X111040000Y-66310000D02*
X125057500Y-66310000D01*
X109180000Y-64450000D02*
X111040000Y-66310000D01*
X109180000Y-62410000D02*
X109180000Y-52190000D01*
X125057500Y-66310000D02*
X125060000Y-66307500D01*
%TO.N,SEL*%
X125500000Y-51940000D02*
X125490000Y-50470000D01*
X145730000Y-43650000D02*
X150150000Y-39230000D01*
X154810000Y-38750000D02*
X154810000Y-37060000D01*
X132310000Y-43650000D02*
X145730000Y-43650000D01*
X150150000Y-39230000D02*
X154330000Y-39230000D01*
X125490000Y-50470000D02*
X132310000Y-43650000D01*
X154330000Y-39230000D02*
X154810000Y-38750000D01*
%TO.N,Net-(U1-Za)*%
X134007000Y-49862474D02*
X134007000Y-62060000D01*
X123630000Y-63400000D02*
X123630000Y-58280000D01*
X132460000Y-64100000D02*
X124330000Y-64100000D01*
X134007000Y-62060000D02*
X134007000Y-62553000D01*
X134007000Y-62553000D02*
X132460000Y-64100000D01*
X124330000Y-64100000D02*
X123630000Y-63400000D01*
X123630000Y-58280000D02*
X124210000Y-57700000D01*
X124210000Y-57700000D02*
X125510000Y-57700000D01*
%TO.N,I*%
X125500000Y-55150000D02*
X125510000Y-55160000D01*
%TO.N,Net-(U1-Zb)*%
X133630000Y-49706316D02*
X133630000Y-62390000D01*
X133630000Y-62390000D02*
X132300000Y-63720000D01*
X132300000Y-63720000D02*
X124510000Y-63720000D01*
X124020000Y-62200000D02*
X124710000Y-61510000D01*
X124510000Y-63720000D02*
X124020000Y-63230000D01*
X124020000Y-63230000D02*
X124020000Y-62200000D01*
X124710000Y-61510000D02*
X125510000Y-61510000D01*
%TO.N,Net-(U1-Za)*%
X161690000Y-41270000D02*
X160133000Y-42827000D01*
X160133000Y-42827000D02*
X148696158Y-42827000D01*
X148696158Y-42827000D02*
X146333158Y-45190000D01*
X146333158Y-45190000D02*
X138679474Y-45190000D01*
X138679474Y-45190000D02*
X134007000Y-49862474D01*
%TO.N,Net-(U1-Zb)*%
X159750000Y-41270000D02*
X158570000Y-42450000D01*
X138526316Y-44810000D02*
X133630000Y-49706316D01*
X158570000Y-42450000D02*
X148540000Y-42450000D01*
X148540000Y-42450000D02*
X146180000Y-44810000D01*
X146180000Y-44810000D02*
X138526316Y-44810000D01*
%TO.N,Net-(U1-Zc)*%
X157820000Y-41270000D02*
X157820000Y-41730000D01*
X146026316Y-44420000D02*
X138383158Y-44420000D01*
X148376316Y-42070000D02*
X146026316Y-44420000D01*
X133250000Y-49553158D02*
X133250000Y-62060000D01*
X133250000Y-62060000D02*
X132530000Y-62780000D01*
X157480000Y-42070000D02*
X148376316Y-42070000D01*
X157820000Y-41730000D02*
X157480000Y-42070000D01*
X138383158Y-44420000D02*
X133250000Y-49553158D01*
X132530000Y-62780000D02*
X130460000Y-62780000D01*
%TO.N,Net-(U1-Zd)*%
X155870000Y-41270000D02*
X148643158Y-41270000D01*
X148643158Y-41270000D02*
X145873158Y-44040000D01*
X145873158Y-44040000D02*
X138230000Y-44040000D01*
X132860000Y-58370000D02*
X132260000Y-58970000D01*
X138230000Y-44040000D02*
X132860000Y-49410000D01*
X132860000Y-49410000D02*
X132860000Y-58370000D01*
X132260000Y-58970000D02*
X130460000Y-58970000D01*
%TO.N,D3*%
X155810000Y-37060000D02*
X155810000Y-39385000D01*
X155810000Y-39385000D02*
X155870000Y-39445000D01*
%TO.N,D2*%
X156810000Y-37050000D02*
X156810000Y-37500000D01*
X157820000Y-38510000D02*
X157820000Y-39445000D01*
X156810000Y-37500000D02*
X157820000Y-38510000D01*
%TO.N,D1*%
X159750000Y-39445000D02*
X159750000Y-38230000D01*
X159750000Y-38230000D02*
X159610000Y-38090000D01*
X157810000Y-37550000D02*
X157810000Y-37050000D01*
X159610000Y-38090000D02*
X158350000Y-38090000D01*
X158350000Y-38090000D02*
X157810000Y-37550000D01*
%TO.N,D0*%
X161190000Y-37700000D02*
X161690000Y-38200000D01*
X158810000Y-37060000D02*
X159450000Y-37700000D01*
X159450000Y-37700000D02*
X161190000Y-37700000D01*
X161690000Y-38200000D02*
X161690000Y-39445000D01*
%TO.N,UP*%
X99611579Y-62308421D02*
X99600000Y-62296842D01*
X99600000Y-62296842D02*
X99600000Y-49830000D01*
%TO.N,LEFT*%
X91150000Y-54380000D02*
X91150000Y-52240000D01*
X91150000Y-52240000D02*
X91210000Y-52180000D01*
%TD*%
M02*
