%TF.GenerationSoftware,KiCad,Pcbnew,7.0.8*%
%TF.CreationDate,2023-11-25T20:52:03+00:00*%
%TF.ProjectId,pce-gt-controller,7063652d-6774-42d6-936f-6e74726f6c6c,rev?*%
%TF.SameCoordinates,Original*%
%TF.FileFunction,Legend,Bot*%
%TF.FilePolarity,Positive*%
%FSLAX46Y46*%
G04 Gerber Fmt 4.6, Leading zero omitted, Abs format (unit mm)*
G04 Created by KiCad (PCBNEW 7.0.8) date 2023-11-25 20:52:03*
%MOMM*%
%LPD*%
G01*
G04 APERTURE LIST*
%ADD10C,0.320000*%
%ADD11C,0.250000*%
%ADD12C,0.150000*%
%ADD13C,0.260000*%
%ADD14C,0.100000*%
%ADD15C,0.120000*%
G04 APERTURE END LIST*
D10*
X147674638Y-47083074D02*
X146760352Y-47083074D01*
X147217495Y-48883074D02*
X147217495Y-47083074D01*
X145312732Y-48711645D02*
X145388923Y-48797360D01*
X145388923Y-48797360D02*
X145617494Y-48883074D01*
X145617494Y-48883074D02*
X145769875Y-48883074D01*
X145769875Y-48883074D02*
X145998447Y-48797360D01*
X145998447Y-48797360D02*
X146150828Y-48625931D01*
X146150828Y-48625931D02*
X146227018Y-48454502D01*
X146227018Y-48454502D02*
X146303209Y-48111645D01*
X146303209Y-48111645D02*
X146303209Y-47854502D01*
X146303209Y-47854502D02*
X146227018Y-47511645D01*
X146227018Y-47511645D02*
X146150828Y-47340217D01*
X146150828Y-47340217D02*
X145998447Y-47168788D01*
X145998447Y-47168788D02*
X145769875Y-47083074D01*
X145769875Y-47083074D02*
X145617494Y-47083074D01*
X145617494Y-47083074D02*
X145388923Y-47168788D01*
X145388923Y-47168788D02*
X145312732Y-47254502D01*
X144627018Y-48883074D02*
X144627018Y-47083074D01*
X144627018Y-47083074D02*
X144093685Y-48368788D01*
X144093685Y-48368788D02*
X143560351Y-47083074D01*
X143560351Y-47083074D02*
X143560351Y-48883074D01*
X142798447Y-48883074D02*
X142798447Y-47083074D01*
X141884161Y-48883074D02*
X142569876Y-47854502D01*
X141884161Y-47083074D02*
X142798447Y-48111645D01*
X141198447Y-48197360D02*
X139979400Y-48197360D01*
X138455590Y-47083074D02*
X139217495Y-47083074D01*
X139217495Y-47083074D02*
X139293686Y-47940217D01*
X139293686Y-47940217D02*
X139217495Y-47854502D01*
X139217495Y-47854502D02*
X139065114Y-47768788D01*
X139065114Y-47768788D02*
X138684162Y-47768788D01*
X138684162Y-47768788D02*
X138531781Y-47854502D01*
X138531781Y-47854502D02*
X138455590Y-47940217D01*
X138455590Y-47940217D02*
X138379400Y-48111645D01*
X138379400Y-48111645D02*
X138379400Y-48540217D01*
X138379400Y-48540217D02*
X138455590Y-48711645D01*
X138455590Y-48711645D02*
X138531781Y-48797360D01*
X138531781Y-48797360D02*
X138684162Y-48883074D01*
X138684162Y-48883074D02*
X139065114Y-48883074D01*
X139065114Y-48883074D02*
X139217495Y-48797360D01*
X139217495Y-48797360D02*
X139293686Y-48711645D01*
X137007971Y-47683074D02*
X137007971Y-48883074D01*
X137388923Y-46997360D02*
X137769876Y-48283074D01*
X137769876Y-48283074D02*
X136779399Y-48283074D01*
X136322256Y-47083074D02*
X135255589Y-48883074D01*
X135255589Y-47083074D02*
X136322256Y-48883074D01*
X134874637Y-47083074D02*
X133960351Y-47083074D01*
X134417494Y-48883074D02*
X134417494Y-47083074D01*
D11*
X108250370Y-55474774D02*
X107301774Y-58019419D01*
X106635606Y-58763001D02*
X104210128Y-59984520D01*
X103216080Y-60077056D02*
X100606809Y-59324225D01*
X99814836Y-58716383D02*
X98412845Y-56390556D01*
X98245168Y-55406392D02*
X98797897Y-52747531D01*
X99343910Y-51911730D02*
X101556683Y-50337346D01*
X102525292Y-50095496D02*
X105218421Y-50444936D01*
X106093233Y-50925974D02*
X107830937Y-53012942D01*
X108145567Y-53960413D02*
X108250370Y-55474774D01*
X94877545Y-73650000D02*
X97627545Y-73650000D01*
X98627545Y-73650000D02*
X101377545Y-73650000D01*
X102377545Y-73650000D02*
X105127545Y-73650000D01*
X105467545Y-73650000D02*
X105467545Y-76400000D01*
X105467545Y-77400000D02*
X105467545Y-80150000D01*
X105467545Y-80310000D02*
X102717545Y-80310000D01*
X101717545Y-80310000D02*
X98967545Y-80310000D01*
X97967545Y-80310000D02*
X95217545Y-80310000D01*
X94877545Y-80310000D02*
X94877545Y-77560000D01*
X94877545Y-76560000D02*
X94877545Y-73810000D01*
X132832770Y-93615225D02*
X131862997Y-96122172D01*
X131099400Y-96763210D02*
X128462384Y-97284157D01*
X127512387Y-96981643D02*
X125662165Y-95031791D01*
X125409846Y-94067247D02*
X126068257Y-91461151D01*
X126748427Y-90732194D02*
X129302746Y-89895117D01*
X130282431Y-90080123D02*
X132355578Y-91791059D01*
X132723072Y-92717859D02*
X132832770Y-93615225D01*
X160367546Y-47230000D02*
X159397773Y-49736947D01*
X158634176Y-50377985D02*
X155997160Y-50898932D01*
X155047163Y-50596418D02*
X153196941Y-48646566D01*
X152944622Y-47682022D02*
X153603033Y-45075926D01*
X154283203Y-44346969D02*
X156837522Y-43509892D01*
X157817207Y-43694898D02*
X159890354Y-45405834D01*
X160257848Y-46332634D02*
X160367546Y-47230000D01*
X146432770Y-55225225D02*
X145462997Y-57732172D01*
X144699400Y-58373210D02*
X142062384Y-58894157D01*
X141112387Y-58591643D02*
X139262165Y-56641791D01*
X139009846Y-55677247D02*
X139668257Y-53071151D01*
X140348427Y-52342194D02*
X142902746Y-51505117D01*
X143882431Y-51690123D02*
X145955578Y-53401059D01*
X146323072Y-54327859D02*
X146432770Y-55225225D01*
D12*
X113097545Y-100880000D02*
X129227545Y-100880000D01*
X129227545Y-110500000D01*
X113097545Y-110500000D01*
X113097545Y-100880000D01*
D11*
X99187544Y-64394774D02*
X98238948Y-66939419D01*
X97572780Y-67683001D02*
X95147302Y-68904520D01*
X94153254Y-68997056D02*
X91543983Y-68244225D01*
X90752010Y-67636383D02*
X89350019Y-65310556D01*
X89182342Y-64326392D02*
X89735071Y-61667531D01*
X90281084Y-60831730D02*
X92493857Y-59257346D01*
X93462466Y-59015496D02*
X96155595Y-59364936D01*
X97030407Y-59845974D02*
X98768111Y-61932942D01*
X99082741Y-62880413D02*
X99187544Y-64394774D01*
X123887545Y-73790000D02*
X126637545Y-73790000D01*
X127637545Y-73790000D02*
X130387545Y-73790000D01*
X131387545Y-73790000D02*
X134137545Y-73790000D01*
X134477545Y-73790000D02*
X134477545Y-76540000D01*
X134477545Y-77540000D02*
X134477545Y-80290000D01*
X134477545Y-80450000D02*
X131727545Y-80450000D01*
X130727545Y-80450000D02*
X127977545Y-80450000D01*
X126977545Y-80450000D02*
X124227545Y-80450000D01*
X123887545Y-80450000D02*
X123887545Y-77700000D01*
X123887545Y-76700000D02*
X123887545Y-73950000D01*
X99240370Y-46404774D02*
X98291774Y-48949419D01*
X97625606Y-49693001D02*
X95200128Y-50914520D01*
X94206080Y-51007056D02*
X91596809Y-50254225D01*
X90804836Y-49646383D02*
X89402845Y-47320556D01*
X89235168Y-46336392D02*
X89787897Y-43677531D01*
X90333910Y-42841730D02*
X92546683Y-41267346D01*
X93515292Y-41025496D02*
X96208421Y-41374936D01*
X97083233Y-41855974D02*
X98820937Y-43942942D01*
X99135567Y-44890413D02*
X99240370Y-46404774D01*
D12*
X86237545Y-32770000D02*
X92237545Y-32770000D01*
X92237545Y-37300000D01*
X86237545Y-37300000D01*
X86237545Y-32770000D01*
D11*
X90200370Y-55384774D02*
X89251774Y-57929419D01*
X88585606Y-58673001D02*
X86160128Y-59894520D01*
X85166080Y-59987056D02*
X82556809Y-59234225D01*
X81764836Y-58626383D02*
X80362845Y-56300556D01*
X80195168Y-55316392D02*
X80747897Y-52657531D01*
X81293910Y-51821730D02*
X83506683Y-50247346D01*
X84475292Y-50005496D02*
X87168421Y-50354936D01*
X88043233Y-50835974D02*
X89780937Y-52922942D01*
X90095567Y-53870413D02*
X90200370Y-55384774D01*
X116832770Y-93605225D02*
X115862997Y-96112172D01*
X115099400Y-96753210D02*
X112462384Y-97274157D01*
X111512387Y-96971643D02*
X109662165Y-95021791D01*
X109409846Y-94057247D02*
X110068257Y-91451151D01*
X110748427Y-90722194D02*
X113302746Y-89885117D01*
X114282431Y-90070123D02*
X116355578Y-91781059D01*
X116723072Y-92707859D02*
X116832770Y-93605225D01*
D13*
X88408873Y-38031194D02*
X88346969Y-37969289D01*
X88346969Y-37969289D02*
X88223159Y-37907384D01*
X88223159Y-37907384D02*
X87913635Y-37907384D01*
X87913635Y-37907384D02*
X87789826Y-37969289D01*
X87789826Y-37969289D02*
X87727921Y-38031194D01*
X87727921Y-38031194D02*
X87666016Y-38155003D01*
X87666016Y-38155003D02*
X87666016Y-38278813D01*
X87666016Y-38278813D02*
X87727921Y-38464527D01*
X87727921Y-38464527D02*
X88470778Y-39207384D01*
X88470778Y-39207384D02*
X87666016Y-39207384D01*
X89776016Y-39157384D02*
X90518873Y-39157384D01*
X90147445Y-39157384D02*
X90147445Y-37857384D01*
X90147445Y-37857384D02*
X90271254Y-38043099D01*
X90271254Y-38043099D02*
X90395064Y-38166908D01*
X90395064Y-38166908D02*
X90518873Y-38228813D01*
D14*
X160080000Y-42158633D02*
X159646666Y-42158633D01*
X159646666Y-42158633D02*
X159880000Y-42425300D01*
X159880000Y-42425300D02*
X159780000Y-42425300D01*
X159780000Y-42425300D02*
X159713333Y-42458633D01*
X159713333Y-42458633D02*
X159680000Y-42491966D01*
X159680000Y-42491966D02*
X159646666Y-42558633D01*
X159646666Y-42558633D02*
X159646666Y-42725300D01*
X159646666Y-42725300D02*
X159680000Y-42791966D01*
X159680000Y-42791966D02*
X159713333Y-42825300D01*
X159713333Y-42825300D02*
X159780000Y-42858633D01*
X159780000Y-42858633D02*
X159980000Y-42858633D01*
X159980000Y-42858633D02*
X160046666Y-42825300D01*
X160046666Y-42825300D02*
X160080000Y-42791966D01*
X159413333Y-42158633D02*
X158979999Y-42158633D01*
X158979999Y-42158633D02*
X159213333Y-42425300D01*
X159213333Y-42425300D02*
X159113333Y-42425300D01*
X159113333Y-42425300D02*
X159046666Y-42458633D01*
X159046666Y-42458633D02*
X159013333Y-42491966D01*
X159013333Y-42491966D02*
X158979999Y-42558633D01*
X158979999Y-42558633D02*
X158979999Y-42725300D01*
X158979999Y-42725300D02*
X159013333Y-42791966D01*
X159013333Y-42791966D02*
X159046666Y-42825300D01*
X159046666Y-42825300D02*
X159113333Y-42858633D01*
X159113333Y-42858633D02*
X159313333Y-42858633D01*
X159313333Y-42858633D02*
X159379999Y-42825300D01*
X159379999Y-42825300D02*
X159413333Y-42791966D01*
X158546666Y-42158633D02*
X158479999Y-42158633D01*
X158479999Y-42158633D02*
X158413332Y-42191966D01*
X158413332Y-42191966D02*
X158379999Y-42225300D01*
X158379999Y-42225300D02*
X158346666Y-42291966D01*
X158346666Y-42291966D02*
X158313332Y-42425300D01*
X158313332Y-42425300D02*
X158313332Y-42591966D01*
X158313332Y-42591966D02*
X158346666Y-42725300D01*
X158346666Y-42725300D02*
X158379999Y-42791966D01*
X158379999Y-42791966D02*
X158413332Y-42825300D01*
X158413332Y-42825300D02*
X158479999Y-42858633D01*
X158479999Y-42858633D02*
X158546666Y-42858633D01*
X158546666Y-42858633D02*
X158613332Y-42825300D01*
X158613332Y-42825300D02*
X158646666Y-42791966D01*
X158646666Y-42791966D02*
X158679999Y-42725300D01*
X158679999Y-42725300D02*
X158713332Y-42591966D01*
X158713332Y-42591966D02*
X158713332Y-42425300D01*
X158713332Y-42425300D02*
X158679999Y-42291966D01*
X158679999Y-42291966D02*
X158646666Y-42225300D01*
X158646666Y-42225300D02*
X158613332Y-42191966D01*
X158613332Y-42191966D02*
X158546666Y-42158633D01*
X158046665Y-42858633D02*
X157879999Y-42858633D01*
X157879999Y-42858633D02*
X157879999Y-42725300D01*
X157879999Y-42725300D02*
X157946665Y-42691966D01*
X157946665Y-42691966D02*
X158013332Y-42625300D01*
X158013332Y-42625300D02*
X158046665Y-42525300D01*
X158046665Y-42525300D02*
X158046665Y-42358633D01*
X158046665Y-42358633D02*
X158013332Y-42258633D01*
X158013332Y-42258633D02*
X157946665Y-42191966D01*
X157946665Y-42191966D02*
X157846665Y-42158633D01*
X157846665Y-42158633D02*
X157713332Y-42158633D01*
X157713332Y-42158633D02*
X157613332Y-42191966D01*
X157613332Y-42191966D02*
X157546665Y-42258633D01*
X157546665Y-42258633D02*
X157513332Y-42358633D01*
X157513332Y-42358633D02*
X157513332Y-42525300D01*
X157513332Y-42525300D02*
X157546665Y-42625300D01*
X157546665Y-42625300D02*
X157613332Y-42691966D01*
X157613332Y-42691966D02*
X157679999Y-42725300D01*
X157679999Y-42725300D02*
X157679999Y-42858633D01*
X157679999Y-42858633D02*
X157513332Y-42858633D01*
D13*
X84113259Y-36814075D02*
X84175163Y-36875980D01*
X84175163Y-36875980D02*
X84360878Y-36937884D01*
X84360878Y-36937884D02*
X84484687Y-36937884D01*
X84484687Y-36937884D02*
X84670401Y-36875980D01*
X84670401Y-36875980D02*
X84794211Y-36752170D01*
X84794211Y-36752170D02*
X84856116Y-36628360D01*
X84856116Y-36628360D02*
X84918020Y-36380741D01*
X84918020Y-36380741D02*
X84918020Y-36195027D01*
X84918020Y-36195027D02*
X84856116Y-35947408D01*
X84856116Y-35947408D02*
X84794211Y-35823599D01*
X84794211Y-35823599D02*
X84670401Y-35699789D01*
X84670401Y-35699789D02*
X84484687Y-35637884D01*
X84484687Y-35637884D02*
X84360878Y-35637884D01*
X84360878Y-35637884D02*
X84175163Y-35699789D01*
X84175163Y-35699789D02*
X84113259Y-35761694D01*
X83556116Y-36937884D02*
X83556116Y-35637884D01*
X83556116Y-35637884D02*
X82813259Y-36937884D01*
X82813259Y-36937884D02*
X82813259Y-35637884D01*
X82008496Y-36195027D02*
X82132306Y-36133122D01*
X82132306Y-36133122D02*
X82194211Y-36071218D01*
X82194211Y-36071218D02*
X82256115Y-35947408D01*
X82256115Y-35947408D02*
X82256115Y-35885503D01*
X82256115Y-35885503D02*
X82194211Y-35761694D01*
X82194211Y-35761694D02*
X82132306Y-35699789D01*
X82132306Y-35699789D02*
X82008496Y-35637884D01*
X82008496Y-35637884D02*
X81760877Y-35637884D01*
X81760877Y-35637884D02*
X81637068Y-35699789D01*
X81637068Y-35699789D02*
X81575163Y-35761694D01*
X81575163Y-35761694D02*
X81513258Y-35885503D01*
X81513258Y-35885503D02*
X81513258Y-35947408D01*
X81513258Y-35947408D02*
X81575163Y-36071218D01*
X81575163Y-36071218D02*
X81637068Y-36133122D01*
X81637068Y-36133122D02*
X81760877Y-36195027D01*
X81760877Y-36195027D02*
X82008496Y-36195027D01*
X82008496Y-36195027D02*
X82132306Y-36256932D01*
X82132306Y-36256932D02*
X82194211Y-36318837D01*
X82194211Y-36318837D02*
X82256115Y-36442646D01*
X82256115Y-36442646D02*
X82256115Y-36690265D01*
X82256115Y-36690265D02*
X82194211Y-36814075D01*
X82194211Y-36814075D02*
X82132306Y-36875980D01*
X82132306Y-36875980D02*
X82008496Y-36937884D01*
X82008496Y-36937884D02*
X81760877Y-36937884D01*
X81760877Y-36937884D02*
X81637068Y-36875980D01*
X81637068Y-36875980D02*
X81575163Y-36814075D01*
X81575163Y-36814075D02*
X81513258Y-36690265D01*
X81513258Y-36690265D02*
X81513258Y-36442646D01*
X81513258Y-36442646D02*
X81575163Y-36318837D01*
X81575163Y-36318837D02*
X81637068Y-36256932D01*
X81637068Y-36256932D02*
X81760877Y-36195027D01*
X80708497Y-35637884D02*
X80584687Y-35637884D01*
X80584687Y-35637884D02*
X80460878Y-35699789D01*
X80460878Y-35699789D02*
X80398973Y-35761694D01*
X80398973Y-35761694D02*
X80337068Y-35885503D01*
X80337068Y-35885503D02*
X80275163Y-36133122D01*
X80275163Y-36133122D02*
X80275163Y-36442646D01*
X80275163Y-36442646D02*
X80337068Y-36690265D01*
X80337068Y-36690265D02*
X80398973Y-36814075D01*
X80398973Y-36814075D02*
X80460878Y-36875980D01*
X80460878Y-36875980D02*
X80584687Y-36937884D01*
X80584687Y-36937884D02*
X80708497Y-36937884D01*
X80708497Y-36937884D02*
X80832306Y-36875980D01*
X80832306Y-36875980D02*
X80894211Y-36814075D01*
X80894211Y-36814075D02*
X80956116Y-36690265D01*
X80956116Y-36690265D02*
X81018020Y-36442646D01*
X81018020Y-36442646D02*
X81018020Y-36133122D01*
X81018020Y-36133122D02*
X80956116Y-35885503D01*
X80956116Y-35885503D02*
X80894211Y-35761694D01*
X80894211Y-35761694D02*
X80832306Y-35699789D01*
X80832306Y-35699789D02*
X80708497Y-35637884D01*
X79037068Y-36937884D02*
X79779925Y-36937884D01*
X79408497Y-36937884D02*
X79408497Y-35637884D01*
X79408497Y-35637884D02*
X79532306Y-35823599D01*
X79532306Y-35823599D02*
X79656116Y-35947408D01*
X79656116Y-35947408D02*
X79779925Y-36009313D01*
D12*
X148774819Y-39240952D02*
X148298628Y-38907619D01*
X148774819Y-38669524D02*
X147774819Y-38669524D01*
X147774819Y-38669524D02*
X147774819Y-39050476D01*
X147774819Y-39050476D02*
X147822438Y-39145714D01*
X147822438Y-39145714D02*
X147870057Y-39193333D01*
X147870057Y-39193333D02*
X147965295Y-39240952D01*
X147965295Y-39240952D02*
X148108152Y-39240952D01*
X148108152Y-39240952D02*
X148203390Y-39193333D01*
X148203390Y-39193333D02*
X148251009Y-39145714D01*
X148251009Y-39145714D02*
X148298628Y-39050476D01*
X148298628Y-39050476D02*
X148298628Y-38669524D01*
X147774819Y-39574286D02*
X147774819Y-40240952D01*
X147774819Y-40240952D02*
X148774819Y-39812381D01*
X148774819Y-41145714D02*
X148774819Y-40574286D01*
X148774819Y-40860000D02*
X147774819Y-40860000D01*
X147774819Y-40860000D02*
X147917676Y-40764762D01*
X147917676Y-40764762D02*
X148012914Y-40669524D01*
X148012914Y-40669524D02*
X148060533Y-40574286D01*
X147774819Y-41479048D02*
X147774819Y-42145714D01*
X147774819Y-42145714D02*
X148774819Y-41717143D01*
X150724819Y-39240952D02*
X150248628Y-38907619D01*
X150724819Y-38669524D02*
X149724819Y-38669524D01*
X149724819Y-38669524D02*
X149724819Y-39050476D01*
X149724819Y-39050476D02*
X149772438Y-39145714D01*
X149772438Y-39145714D02*
X149820057Y-39193333D01*
X149820057Y-39193333D02*
X149915295Y-39240952D01*
X149915295Y-39240952D02*
X150058152Y-39240952D01*
X150058152Y-39240952D02*
X150153390Y-39193333D01*
X150153390Y-39193333D02*
X150201009Y-39145714D01*
X150201009Y-39145714D02*
X150248628Y-39050476D01*
X150248628Y-39050476D02*
X150248628Y-38669524D01*
X149724819Y-39574286D02*
X149724819Y-40240952D01*
X149724819Y-40240952D02*
X150724819Y-39812381D01*
X150724819Y-41145714D02*
X150724819Y-40574286D01*
X150724819Y-40860000D02*
X149724819Y-40860000D01*
X149724819Y-40860000D02*
X149867676Y-40764762D01*
X149867676Y-40764762D02*
X149962914Y-40669524D01*
X149962914Y-40669524D02*
X150010533Y-40574286D01*
X149724819Y-42002857D02*
X149724819Y-41812381D01*
X149724819Y-41812381D02*
X149772438Y-41717143D01*
X149772438Y-41717143D02*
X149820057Y-41669524D01*
X149820057Y-41669524D02*
X149962914Y-41574286D01*
X149962914Y-41574286D02*
X150153390Y-41526667D01*
X150153390Y-41526667D02*
X150534342Y-41526667D01*
X150534342Y-41526667D02*
X150629580Y-41574286D01*
X150629580Y-41574286D02*
X150677200Y-41621905D01*
X150677200Y-41621905D02*
X150724819Y-41717143D01*
X150724819Y-41717143D02*
X150724819Y-41907619D01*
X150724819Y-41907619D02*
X150677200Y-42002857D01*
X150677200Y-42002857D02*
X150629580Y-42050476D01*
X150629580Y-42050476D02*
X150534342Y-42098095D01*
X150534342Y-42098095D02*
X150296247Y-42098095D01*
X150296247Y-42098095D02*
X150201009Y-42050476D01*
X150201009Y-42050476D02*
X150153390Y-42002857D01*
X150153390Y-42002857D02*
X150105771Y-41907619D01*
X150105771Y-41907619D02*
X150105771Y-41717143D01*
X150105771Y-41717143D02*
X150153390Y-41621905D01*
X150153390Y-41621905D02*
X150201009Y-41574286D01*
X150201009Y-41574286D02*
X150296247Y-41526667D01*
X152654819Y-39240952D02*
X152178628Y-38907619D01*
X152654819Y-38669524D02*
X151654819Y-38669524D01*
X151654819Y-38669524D02*
X151654819Y-39050476D01*
X151654819Y-39050476D02*
X151702438Y-39145714D01*
X151702438Y-39145714D02*
X151750057Y-39193333D01*
X151750057Y-39193333D02*
X151845295Y-39240952D01*
X151845295Y-39240952D02*
X151988152Y-39240952D01*
X151988152Y-39240952D02*
X152083390Y-39193333D01*
X152083390Y-39193333D02*
X152131009Y-39145714D01*
X152131009Y-39145714D02*
X152178628Y-39050476D01*
X152178628Y-39050476D02*
X152178628Y-38669524D01*
X151654819Y-39574286D02*
X151654819Y-40240952D01*
X151654819Y-40240952D02*
X152654819Y-39812381D01*
X152654819Y-41145714D02*
X152654819Y-40574286D01*
X152654819Y-40860000D02*
X151654819Y-40860000D01*
X151654819Y-40860000D02*
X151797676Y-40764762D01*
X151797676Y-40764762D02*
X151892914Y-40669524D01*
X151892914Y-40669524D02*
X151940533Y-40574286D01*
X151654819Y-42050476D02*
X151654819Y-41574286D01*
X151654819Y-41574286D02*
X152131009Y-41526667D01*
X152131009Y-41526667D02*
X152083390Y-41574286D01*
X152083390Y-41574286D02*
X152035771Y-41669524D01*
X152035771Y-41669524D02*
X152035771Y-41907619D01*
X152035771Y-41907619D02*
X152083390Y-42002857D01*
X152083390Y-42002857D02*
X152131009Y-42050476D01*
X152131009Y-42050476D02*
X152226247Y-42098095D01*
X152226247Y-42098095D02*
X152464342Y-42098095D01*
X152464342Y-42098095D02*
X152559580Y-42050476D01*
X152559580Y-42050476D02*
X152607200Y-42002857D01*
X152607200Y-42002857D02*
X152654819Y-41907619D01*
X152654819Y-41907619D02*
X152654819Y-41669524D01*
X152654819Y-41669524D02*
X152607200Y-41574286D01*
X152607200Y-41574286D02*
X152559580Y-41526667D01*
X154594819Y-39240952D02*
X154118628Y-38907619D01*
X154594819Y-38669524D02*
X153594819Y-38669524D01*
X153594819Y-38669524D02*
X153594819Y-39050476D01*
X153594819Y-39050476D02*
X153642438Y-39145714D01*
X153642438Y-39145714D02*
X153690057Y-39193333D01*
X153690057Y-39193333D02*
X153785295Y-39240952D01*
X153785295Y-39240952D02*
X153928152Y-39240952D01*
X153928152Y-39240952D02*
X154023390Y-39193333D01*
X154023390Y-39193333D02*
X154071009Y-39145714D01*
X154071009Y-39145714D02*
X154118628Y-39050476D01*
X154118628Y-39050476D02*
X154118628Y-38669524D01*
X153594819Y-39574286D02*
X153594819Y-40240952D01*
X153594819Y-40240952D02*
X154594819Y-39812381D01*
X154594819Y-41145714D02*
X154594819Y-40574286D01*
X154594819Y-40860000D02*
X153594819Y-40860000D01*
X153594819Y-40860000D02*
X153737676Y-40764762D01*
X153737676Y-40764762D02*
X153832914Y-40669524D01*
X153832914Y-40669524D02*
X153880533Y-40574286D01*
X153928152Y-42002857D02*
X154594819Y-42002857D01*
X153547200Y-41764762D02*
X154261485Y-41526667D01*
X154261485Y-41526667D02*
X154261485Y-42145714D01*
D13*
X122848972Y-98477884D02*
X122848972Y-99406456D01*
X122848972Y-99406456D02*
X122910877Y-99592170D01*
X122910877Y-99592170D02*
X123034686Y-99715980D01*
X123034686Y-99715980D02*
X123220401Y-99777884D01*
X123220401Y-99777884D02*
X123344210Y-99777884D01*
X122044210Y-99035027D02*
X122168020Y-98973122D01*
X122168020Y-98973122D02*
X122229925Y-98911218D01*
X122229925Y-98911218D02*
X122291829Y-98787408D01*
X122291829Y-98787408D02*
X122291829Y-98725503D01*
X122291829Y-98725503D02*
X122229925Y-98601694D01*
X122229925Y-98601694D02*
X122168020Y-98539789D01*
X122168020Y-98539789D02*
X122044210Y-98477884D01*
X122044210Y-98477884D02*
X121796591Y-98477884D01*
X121796591Y-98477884D02*
X121672782Y-98539789D01*
X121672782Y-98539789D02*
X121610877Y-98601694D01*
X121610877Y-98601694D02*
X121548972Y-98725503D01*
X121548972Y-98725503D02*
X121548972Y-98787408D01*
X121548972Y-98787408D02*
X121610877Y-98911218D01*
X121610877Y-98911218D02*
X121672782Y-98973122D01*
X121672782Y-98973122D02*
X121796591Y-99035027D01*
X121796591Y-99035027D02*
X122044210Y-99035027D01*
X122044210Y-99035027D02*
X122168020Y-99096932D01*
X122168020Y-99096932D02*
X122229925Y-99158837D01*
X122229925Y-99158837D02*
X122291829Y-99282646D01*
X122291829Y-99282646D02*
X122291829Y-99530265D01*
X122291829Y-99530265D02*
X122229925Y-99654075D01*
X122229925Y-99654075D02*
X122168020Y-99715980D01*
X122168020Y-99715980D02*
X122044210Y-99777884D01*
X122044210Y-99777884D02*
X121796591Y-99777884D01*
X121796591Y-99777884D02*
X121672782Y-99715980D01*
X121672782Y-99715980D02*
X121610877Y-99654075D01*
X121610877Y-99654075D02*
X121548972Y-99530265D01*
X121548972Y-99530265D02*
X121548972Y-99282646D01*
X121548972Y-99282646D02*
X121610877Y-99158837D01*
X121610877Y-99158837D02*
X121672782Y-99096932D01*
X121672782Y-99096932D02*
X121796591Y-99035027D01*
X120744211Y-98477884D02*
X120620401Y-98477884D01*
X120620401Y-98477884D02*
X120496592Y-98539789D01*
X120496592Y-98539789D02*
X120434687Y-98601694D01*
X120434687Y-98601694D02*
X120372782Y-98725503D01*
X120372782Y-98725503D02*
X120310877Y-98973122D01*
X120310877Y-98973122D02*
X120310877Y-99282646D01*
X120310877Y-99282646D02*
X120372782Y-99530265D01*
X120372782Y-99530265D02*
X120434687Y-99654075D01*
X120434687Y-99654075D02*
X120496592Y-99715980D01*
X120496592Y-99715980D02*
X120620401Y-99777884D01*
X120620401Y-99777884D02*
X120744211Y-99777884D01*
X120744211Y-99777884D02*
X120868020Y-99715980D01*
X120868020Y-99715980D02*
X120929925Y-99654075D01*
X120929925Y-99654075D02*
X120991830Y-99530265D01*
X120991830Y-99530265D02*
X121053734Y-99282646D01*
X121053734Y-99282646D02*
X121053734Y-98973122D01*
X121053734Y-98973122D02*
X120991830Y-98725503D01*
X120991830Y-98725503D02*
X120929925Y-98601694D01*
X120929925Y-98601694D02*
X120868020Y-98539789D01*
X120868020Y-98539789D02*
X120744211Y-98477884D01*
X119506116Y-98477884D02*
X119382306Y-98477884D01*
X119382306Y-98477884D02*
X119258497Y-98539789D01*
X119258497Y-98539789D02*
X119196592Y-98601694D01*
X119196592Y-98601694D02*
X119134687Y-98725503D01*
X119134687Y-98725503D02*
X119072782Y-98973122D01*
X119072782Y-98973122D02*
X119072782Y-99282646D01*
X119072782Y-99282646D02*
X119134687Y-99530265D01*
X119134687Y-99530265D02*
X119196592Y-99654075D01*
X119196592Y-99654075D02*
X119258497Y-99715980D01*
X119258497Y-99715980D02*
X119382306Y-99777884D01*
X119382306Y-99777884D02*
X119506116Y-99777884D01*
X119506116Y-99777884D02*
X119629925Y-99715980D01*
X119629925Y-99715980D02*
X119691830Y-99654075D01*
X119691830Y-99654075D02*
X119753735Y-99530265D01*
X119753735Y-99530265D02*
X119815639Y-99282646D01*
X119815639Y-99282646D02*
X119815639Y-98973122D01*
X119815639Y-98973122D02*
X119753735Y-98725503D01*
X119753735Y-98725503D02*
X119691830Y-98601694D01*
X119691830Y-98601694D02*
X119629925Y-98539789D01*
X119629925Y-98539789D02*
X119506116Y-98477884D01*
D15*
%TO.C,R717*%
X156605000Y-40130436D02*
X156605000Y-40584564D01*
X155135000Y-40130436D02*
X155135000Y-40584564D01*
%TO.C,R716*%
X158555000Y-40130436D02*
X158555000Y-40584564D01*
X157085000Y-40130436D02*
X157085000Y-40584564D01*
%TO.C,R715*%
X160485000Y-40130436D02*
X160485000Y-40584564D01*
X159015000Y-40130436D02*
X159015000Y-40584564D01*
%TO.C,R714*%
X162425000Y-40130436D02*
X162425000Y-40584564D01*
X160955000Y-40130436D02*
X160955000Y-40584564D01*
%TO.C,CC800*%
X159095000Y-64825225D02*
X159095000Y-65325225D01*
X158845000Y-65075225D02*
X159345000Y-65075225D01*
X157990000Y-67630000D02*
X163150000Y-67630000D01*
X157990000Y-67670000D02*
X163150000Y-67670000D01*
X157991000Y-67710000D02*
X163149000Y-67710000D01*
X157992000Y-67750000D02*
X163148000Y-67750000D01*
X157994000Y-67790000D02*
X163146000Y-67790000D01*
X157997000Y-67830000D02*
X163143000Y-67830000D01*
X161610000Y-67870000D02*
X163139000Y-67870000D01*
X158001000Y-67870000D02*
X159530000Y-67870000D01*
X161610000Y-67910000D02*
X163135000Y-67910000D01*
X158005000Y-67910000D02*
X159530000Y-67910000D01*
X161610000Y-67950000D02*
X163131000Y-67950000D01*
X158009000Y-67950000D02*
X159530000Y-67950000D01*
X161610000Y-67990000D02*
X163126000Y-67990000D01*
X158014000Y-67990000D02*
X159530000Y-67990000D01*
X161610000Y-68030000D02*
X163120000Y-68030000D01*
X158020000Y-68030000D02*
X159530000Y-68030000D01*
X161610000Y-68070000D02*
X163113000Y-68070000D01*
X158027000Y-68070000D02*
X159530000Y-68070000D01*
X161610000Y-68110000D02*
X163106000Y-68110000D01*
X158034000Y-68110000D02*
X159530000Y-68110000D01*
X161610000Y-68150000D02*
X163098000Y-68150000D01*
X158042000Y-68150000D02*
X159530000Y-68150000D01*
X161610000Y-68190000D02*
X163090000Y-68190000D01*
X158050000Y-68190000D02*
X159530000Y-68190000D01*
X161610000Y-68230000D02*
X163081000Y-68230000D01*
X158059000Y-68230000D02*
X159530000Y-68230000D01*
X161610000Y-68270000D02*
X163071000Y-68270000D01*
X158069000Y-68270000D02*
X159530000Y-68270000D01*
X161610000Y-68310000D02*
X163061000Y-68310000D01*
X158079000Y-68310000D02*
X159530000Y-68310000D01*
X161610000Y-68351000D02*
X163050000Y-68351000D01*
X158090000Y-68351000D02*
X159530000Y-68351000D01*
X161610000Y-68391000D02*
X163038000Y-68391000D01*
X158102000Y-68391000D02*
X159530000Y-68391000D01*
X161610000Y-68431000D02*
X163025000Y-68431000D01*
X158115000Y-68431000D02*
X159530000Y-68431000D01*
X161610000Y-68471000D02*
X163012000Y-68471000D01*
X158128000Y-68471000D02*
X159530000Y-68471000D01*
X161610000Y-68511000D02*
X162998000Y-68511000D01*
X158142000Y-68511000D02*
X159530000Y-68511000D01*
X161610000Y-68551000D02*
X162984000Y-68551000D01*
X158156000Y-68551000D02*
X159530000Y-68551000D01*
X161610000Y-68591000D02*
X162968000Y-68591000D01*
X158172000Y-68591000D02*
X159530000Y-68591000D01*
X161610000Y-68631000D02*
X162952000Y-68631000D01*
X158188000Y-68631000D02*
X159530000Y-68631000D01*
X161610000Y-68671000D02*
X162935000Y-68671000D01*
X158205000Y-68671000D02*
X159530000Y-68671000D01*
X161610000Y-68711000D02*
X162918000Y-68711000D01*
X158222000Y-68711000D02*
X159530000Y-68711000D01*
X161610000Y-68751000D02*
X162899000Y-68751000D01*
X158241000Y-68751000D02*
X159530000Y-68751000D01*
X161610000Y-68791000D02*
X162880000Y-68791000D01*
X158260000Y-68791000D02*
X159530000Y-68791000D01*
X161610000Y-68831000D02*
X162860000Y-68831000D01*
X158280000Y-68831000D02*
X159530000Y-68831000D01*
X161610000Y-68871000D02*
X162838000Y-68871000D01*
X158302000Y-68871000D02*
X159530000Y-68871000D01*
X161610000Y-68911000D02*
X162817000Y-68911000D01*
X158323000Y-68911000D02*
X159530000Y-68911000D01*
X161610000Y-68951000D02*
X162794000Y-68951000D01*
X158346000Y-68951000D02*
X159530000Y-68951000D01*
X161610000Y-68991000D02*
X162770000Y-68991000D01*
X158370000Y-68991000D02*
X159530000Y-68991000D01*
X161610000Y-69031000D02*
X162745000Y-69031000D01*
X158395000Y-69031000D02*
X159530000Y-69031000D01*
X161610000Y-69071000D02*
X162719000Y-69071000D01*
X158421000Y-69071000D02*
X159530000Y-69071000D01*
X161610000Y-69111000D02*
X162692000Y-69111000D01*
X158448000Y-69111000D02*
X159530000Y-69111000D01*
X161610000Y-69151000D02*
X162665000Y-69151000D01*
X158475000Y-69151000D02*
X159530000Y-69151000D01*
X161610000Y-69191000D02*
X162635000Y-69191000D01*
X158505000Y-69191000D02*
X159530000Y-69191000D01*
X161610000Y-69231000D02*
X162605000Y-69231000D01*
X158535000Y-69231000D02*
X159530000Y-69231000D01*
X161610000Y-69271000D02*
X162574000Y-69271000D01*
X158566000Y-69271000D02*
X159530000Y-69271000D01*
X161610000Y-69311000D02*
X162541000Y-69311000D01*
X158599000Y-69311000D02*
X159530000Y-69311000D01*
X161610000Y-69351000D02*
X162507000Y-69351000D01*
X158633000Y-69351000D02*
X159530000Y-69351000D01*
X161610000Y-69391000D02*
X162471000Y-69391000D01*
X158669000Y-69391000D02*
X159530000Y-69391000D01*
X161610000Y-69431000D02*
X162434000Y-69431000D01*
X158706000Y-69431000D02*
X159530000Y-69431000D01*
X161610000Y-69471000D02*
X162396000Y-69471000D01*
X158744000Y-69471000D02*
X159530000Y-69471000D01*
X161610000Y-69511000D02*
X162355000Y-69511000D01*
X158785000Y-69511000D02*
X159530000Y-69511000D01*
X161610000Y-69551000D02*
X162313000Y-69551000D01*
X158827000Y-69551000D02*
X159530000Y-69551000D01*
X161610000Y-69591000D02*
X162269000Y-69591000D01*
X158871000Y-69591000D02*
X159530000Y-69591000D01*
X161610000Y-69631000D02*
X162223000Y-69631000D01*
X158917000Y-69631000D02*
X159530000Y-69631000D01*
X161610000Y-69671000D02*
X162175000Y-69671000D01*
X158965000Y-69671000D02*
X159530000Y-69671000D01*
X161610000Y-69711000D02*
X162124000Y-69711000D01*
X159016000Y-69711000D02*
X159530000Y-69711000D01*
X161610000Y-69751000D02*
X162070000Y-69751000D01*
X159070000Y-69751000D02*
X159530000Y-69751000D01*
X161610000Y-69791000D02*
X162013000Y-69791000D01*
X159127000Y-69791000D02*
X159530000Y-69791000D01*
X161610000Y-69831000D02*
X161953000Y-69831000D01*
X159187000Y-69831000D02*
X159530000Y-69831000D01*
X161610000Y-69871000D02*
X161889000Y-69871000D01*
X159251000Y-69871000D02*
X159530000Y-69871000D01*
X161610000Y-69911000D02*
X161821000Y-69911000D01*
X159319000Y-69911000D02*
X159530000Y-69911000D01*
X159392000Y-69951000D02*
X161748000Y-69951000D01*
X159472000Y-69991000D02*
X161668000Y-69991000D01*
X159559000Y-70031000D02*
X161581000Y-70031000D01*
X159655000Y-70071000D02*
X161485000Y-70071000D01*
X159765000Y-70111000D02*
X161375000Y-70111000D01*
X159893000Y-70151000D02*
X161247000Y-70151000D01*
X160052000Y-70191000D02*
X161088000Y-70191000D01*
X160286000Y-70231000D02*
X160854000Y-70231000D01*
X163190000Y-67630000D02*
G75*
G03*
X163190000Y-67630000I-2620000J0D01*
G01*
%TD*%
M02*
