%TF.GenerationSoftware,KiCad,Pcbnew,7.0.8*%
%TF.CreationDate,2023-11-25T20:52:03+00:00*%
%TF.ProjectId,pce-gt-controller,7063652d-6774-42d6-936f-6e74726f6c6c,rev?*%
%TF.SameCoordinates,Original*%
%TF.FileFunction,Profile,NP*%
%FSLAX46Y46*%
G04 Gerber Fmt 4.6, Leading zero omitted, Abs format (unit mm)*
G04 Created by KiCad (PCBNEW 7.0.8) date 2023-11-25 20:52:03*
%MOMM*%
%LPD*%
G01*
G04 APERTURE LIST*
%TA.AperFunction,Profile*%
%ADD10C,0.100000*%
%TD*%
%TA.AperFunction,Profile*%
%ADD11C,0.050000*%
%TD*%
G04 APERTURE END LIST*
D10*
X74675090Y-50872445D02*
G75*
G03*
X74317545Y-51230000I10J-357555D01*
G01*
X105072323Y-110382668D02*
G75*
G03*
X105429868Y-110025090I-23J357568D01*
G01*
X82267545Y-90752455D02*
X74317545Y-82802455D01*
X125640000Y-109200000D02*
X125640000Y-109990000D01*
X122080000Y-109992455D02*
G75*
G03*
X122437545Y-110350000I357600J55D01*
G01*
X135022323Y-110337568D02*
G75*
G03*
X135379868Y-109980000I-23J357568D01*
G01*
X168245090Y-82380000D02*
X168245090Y-82810000D01*
X141272268Y-38540000D02*
X141272268Y-31780000D01*
X116780000Y-109990000D02*
X116780000Y-109210000D01*
X136880000Y-108270000D02*
G75*
G03*
X135379868Y-108270000I-750066J0D01*
G01*
X114407815Y-38897406D02*
G75*
G03*
X128287275Y-38897406I6939730J4859253D01*
G01*
X166461494Y-61820000D02*
G75*
G03*
X166461494Y-61820000I-1330000J0D01*
G01*
X101289994Y-38539861D02*
G75*
G03*
X101647545Y-38897406I357606J61D01*
G01*
X141237545Y-110312455D02*
X137237545Y-110312455D01*
X122597545Y-87850000D02*
G75*
G03*
X122597545Y-87850000I-1330000J0D01*
G01*
X106930000Y-110000000D02*
X106930000Y-108315090D01*
X165067545Y-41307545D02*
X164530367Y-41307545D01*
X116780000Y-109210000D02*
G75*
G03*
X115660000Y-109210000I-560000J0D01*
G01*
X77785045Y-41650000D02*
G75*
G03*
X77427545Y-41292455I-357545J0D01*
G01*
X149260000Y-91155090D02*
X149260000Y-102290000D01*
X101325090Y-31680000D02*
X101290000Y-38539861D01*
X105072323Y-110382635D02*
X101347545Y-110382635D01*
X106930000Y-108315090D02*
G75*
G03*
X105429868Y-108315090I-750066J0D01*
G01*
X74675090Y-50872455D02*
X77427545Y-50872455D01*
X92947012Y-90752455D02*
X82267545Y-90752455D01*
X168302268Y-31772822D02*
X168302268Y-40440000D01*
X164172822Y-41665090D02*
X164172822Y-50530000D01*
X120074723Y-110354768D02*
G75*
G03*
X120432268Y-109997178I-23J357568D01*
G01*
X106929955Y-110000000D02*
G75*
G03*
X107287545Y-110357545I357545J0D01*
G01*
X122077545Y-108930000D02*
X122080000Y-109992455D01*
X74677545Y-31322500D02*
G75*
G03*
X74320000Y-31680000I-45J-357500D01*
G01*
X101325045Y-31680000D02*
G75*
G03*
X100967545Y-31322455I-357545J0D01*
G01*
X74317545Y-82802455D02*
X74317545Y-51230000D01*
X136880000Y-109954910D02*
X136880000Y-108270000D01*
X160257545Y-90797545D02*
X149617545Y-90797545D01*
X114407815Y-38897406D02*
X101647545Y-38897406D01*
X93304557Y-102339647D02*
X93304557Y-91110000D01*
X164530367Y-50887545D02*
X167887545Y-50887545D01*
X74320000Y-40934910D02*
X74320000Y-31680000D01*
X126759955Y-109980000D02*
G75*
G03*
X127117545Y-110337545I357545J0D01*
G01*
X140914723Y-38897568D02*
G75*
G03*
X141272268Y-38540000I-23J357568D01*
G01*
X105429868Y-108315090D02*
X105429868Y-110025090D01*
X120432268Y-109997178D02*
X120432268Y-108930000D01*
X167944723Y-31415277D02*
X167707545Y-31415277D01*
X125282455Y-110347545D02*
X122437545Y-110350000D01*
X135022323Y-110337545D02*
X127117545Y-110337545D01*
X164530367Y-41307522D02*
G75*
G03*
X164172822Y-41665090I33J-357578D01*
G01*
X74319945Y-40934910D02*
G75*
G03*
X74677545Y-41292455I357555J10D01*
G01*
X120432268Y-108930000D02*
X122077545Y-108930000D01*
X168302323Y-31772822D02*
G75*
G03*
X167944723Y-31415277I-357623J-78D01*
G01*
X135379868Y-108270000D02*
X135379868Y-109980000D01*
X126760000Y-109980000D02*
X126760000Y-109200000D01*
X93304545Y-91110000D02*
G75*
G03*
X92947012Y-90752455I-357445J100D01*
G01*
X168245090Y-51245090D02*
X168245090Y-82380000D01*
X128287275Y-38897406D02*
X140907545Y-38897406D01*
X78067545Y-33900000D02*
G75*
G03*
X78067545Y-33900000I-1330000J0D01*
G01*
X77427545Y-41292455D02*
X74677545Y-41292455D01*
X115660000Y-109210000D02*
X115660000Y-110000000D01*
X167944723Y-41307545D02*
X165067545Y-41307545D01*
X166441494Y-33900000D02*
G75*
G03*
X166441494Y-33900000I-1330000J0D01*
G01*
X149617545Y-90797500D02*
G75*
G03*
X149260000Y-91155090I55J-357600D01*
G01*
X167944723Y-41307568D02*
G75*
G03*
X168302268Y-40950000I-23J357568D01*
G01*
X141630367Y-31415277D02*
X167707545Y-31415277D01*
X168245090Y-82810000D02*
X160257545Y-90797545D01*
X77427545Y-50872490D02*
G75*
G03*
X77785090Y-50514910I-45J357590D01*
G01*
X126760000Y-109200000D02*
G75*
G03*
X125640000Y-109200000I-560000J0D01*
G01*
X138507546Y-98610000D02*
G75*
G03*
X138507546Y-98610000I-1032376J0D01*
G01*
X116779955Y-109990000D02*
G75*
G03*
X117137545Y-110347545I357545J0D01*
G01*
X77785090Y-50514910D02*
X77785090Y-41650000D01*
X120074723Y-110354723D02*
X117137545Y-110347545D01*
X74677545Y-31322455D02*
X100967545Y-31322455D01*
X168302268Y-40950000D02*
X168302268Y-40440000D01*
X101347545Y-110382635D02*
X93304557Y-102339647D01*
X168245055Y-51245090D02*
G75*
G03*
X167887545Y-50887545I-357455J90D01*
G01*
X115302455Y-110357545D02*
X107287545Y-110357545D01*
X149260000Y-102290000D02*
X141237545Y-110312455D01*
X115302455Y-110357500D02*
G75*
G03*
X115660000Y-110000000I45J357500D01*
G01*
X136879945Y-109954910D02*
G75*
G03*
X137237545Y-110312455I357555J10D01*
G01*
X164172855Y-50530000D02*
G75*
G03*
X164530367Y-50887545I357445J-100D01*
G01*
X125282455Y-110347500D02*
G75*
G03*
X125640000Y-109990000I45J357500D01*
G01*
X78111494Y-62360000D02*
G75*
G03*
X78111494Y-62360000I-1330000J0D01*
G01*
X141630367Y-31415322D02*
G75*
G03*
X141272822Y-31772822I-67J-357478D01*
G01*
D11*
%TO.C,J800*%
X115923795Y-103452500D02*
X116733795Y-103452500D01*
X116733795Y-103452500D02*
X116733795Y-105082500D01*
X116733795Y-105082500D02*
X115923795Y-105082500D01*
X115923795Y-105082500D02*
X115923795Y-103452500D01*
X118353795Y-103452500D02*
X119163795Y-103452500D01*
X119163795Y-103452500D02*
X119163795Y-105082500D01*
X119163795Y-105082500D02*
X118353795Y-105082500D01*
X118353795Y-105082500D02*
X118353795Y-103452500D01*
X123303795Y-103452500D02*
X124113795Y-103452500D01*
X124113795Y-103452500D02*
X124113795Y-105082500D01*
X124113795Y-105082500D02*
X123303795Y-105082500D01*
X123303795Y-105082500D02*
X123303795Y-103452500D01*
X125853795Y-103452500D02*
X126663795Y-103452500D01*
X126663795Y-103452500D02*
X126663795Y-105082500D01*
X126663795Y-105082500D02*
X125853795Y-105082500D01*
X125853795Y-105082500D02*
X125853795Y-103452500D01*
X121963795Y-104252500D02*
G75*
G03*
X121963795Y-104252500I-672681J0D01*
G01*
%TD*%
M02*
